<svg width="52" height="52" viewBox="0 0 52 52" fill="none" xmlns="http://www.w3.org/2000/svg">
<rect x="0.5" y="0.5" width="51" height="51" rx="18.5" stroke="#7C8094"/>
<path d="M26 15.6875C23.9604 15.6875 21.9666 16.2923 20.2707 17.4255C18.5748 18.5586 17.253 20.1692 16.4725 22.0536C15.692 23.9379 15.4877 26.0114 15.8857 28.0119C16.2836 30.0123 17.2657 31.8498 18.708 33.292C20.1502 34.7343 21.9877 35.7164 23.9881 36.1143C25.9886 36.5123 28.0621 36.308 29.9464 35.5275C31.8308 34.747 33.4414 33.4252 34.5745 31.7293C35.7077 30.0334 36.3125 28.0396 36.3125 26C36.3094 23.2659 35.2219 20.6447 33.2886 18.7114C31.3553 16.7781 28.7341 15.6906 26 15.6875V15.6875ZM26 34.9375C24.5803 34.9375 23.0939 33.1074 22.3563 30.125H29.6438C28.9061 33.1074 27.4197 34.9375 26 34.9375ZM22.0771 28.75C21.8076 26.9266 21.8076 25.0734 22.0771 23.25H29.9229C30.0592 24.1603 30.1268 25.0796 30.125 26C30.1268 26.9204 30.0592 27.8397 29.9229 28.75H22.0771ZM17.0625 26C17.063 25.0661 17.2106 24.138 17.4998 23.25H20.6966C20.4345 25.074 20.4345 26.926 20.6966 28.75H17.4998C17.2106 27.862 17.063 26.9339 17.0625 26V26ZM26 17.0625C27.4197 17.0625 28.9061 18.8926 29.6438 21.875H22.3563C23.0939 18.8926 24.5803 17.0625 26 17.0625ZM31.3034 23.25H34.5003C35.0831 25.037 35.0831 26.963 34.5003 28.75H31.3034C31.4338 27.8391 31.4995 26.9202 31.5 26C31.4995 25.0798 31.4338 24.1609 31.3034 23.25V23.25ZM33.9207 21.875H31.0559C30.7499 20.3797 30.1501 18.9601 29.2911 17.6984C31.2836 18.4931 32.9258 19.9746 33.9207 21.875V21.875ZM22.7089 17.6984C21.85 18.9601 21.2501 20.3797 20.9441 21.875H18.0793C19.0742 19.9746 20.7165 18.4931 22.7089 17.6984V17.6984ZM18.0793 30.125H20.9441C21.2501 31.6203 21.85 33.0399 22.7089 34.3016C20.7165 33.5069 19.0742 32.0254 18.0793 30.125V30.125ZM29.2911 34.3016C30.1501 33.0399 30.7499 31.6203 31.0559 30.125H33.9207C32.9258 32.0254 31.2836 33.5069 29.2911 34.3016V34.3016Z" fill="#555868"/>
</svg>
