<svg width="20" height="20" viewBox="0 0 20 20" fill="none" xmlns="http://www.w3.org/2000/svg">
<path d="M9.11556 1.60944C4.9833 1.60944 1.61719 4.97554 1.61719 9.10782C1.61719 13.2401 4.9833 16.6127 9.11556 16.6127C10.8806 16.6127 12.5038 15.9942 13.7868 14.9672L16.9102 18.0889C17.0678 18.24 17.2783 18.3234 17.4966 18.3211C17.715 18.3189 17.9237 18.2313 18.0782 18.077C18.2327 17.9227 18.3207 17.7141 18.3232 17.4958C18.3257 17.2775 18.2427 17.0668 18.0918 16.909L14.9684 13.7856C15.9963 12.5007 16.6156 10.8749 16.6156 9.10782C16.6156 4.97554 13.2478 1.60944 9.11556 1.60944ZM9.11556 3.27613C12.3471 3.27613 14.9473 5.87629 14.9473 9.10782C14.9473 12.3393 12.3471 14.946 9.11556 14.946C5.88403 14.946 3.28385 12.3393 3.28385 9.10782C3.28385 5.87629 5.88403 3.27613 9.11556 3.27613Z" fill="#02164F" stroke="#02164F" stroke-width="0.4"/>
</svg>
