<svg width="48" height="48" viewBox="0 0 48 48" fill="none" xmlns="http://www.w3.org/2000/svg">
<circle cx="24" cy="24" r="24" fill="#CED4E3"/>
<circle cx="23.9994" cy="24" r="17.5385" fill="#02164F"/>
<g clip-path="url(#clip0_2847_8827)">
<path d="M24.0006 5.53931C13.8056 5.53931 5.53906 13.8043 5.53906 24C5.53906 34.1958 13.8048 42.4608 24.0006 42.4608C34.1972 42.4608 42.4621 34.1958 42.4621 24C42.4621 13.8043 34.1972 5.53931 24.0006 5.53931ZM24.0006 11.0593C27.3741 11.0593 30.1077 13.7937 30.1077 17.1655C30.1077 20.5382 27.3741 23.2718 24.0006 23.2718C20.6288 23.2718 17.8951 20.5382 17.8951 17.1655C17.8951 13.7937 20.6288 11.0593 24.0006 11.0593ZM23.9965 37.6341C20.632 37.6341 17.5505 36.4088 15.1737 34.3807C14.5947 33.8868 14.2606 33.1627 14.2606 32.4028C14.2606 28.9832 17.0283 26.2463 20.4487 26.2463H27.5541C30.9754 26.2463 33.7325 28.9832 33.7325 32.4028C33.7325 33.1635 33.4 33.886 32.8202 34.3799C30.4442 36.4088 27.3619 37.6341 23.9965 37.6341Z" fill="#CFD4E3"/>
</g>
<defs>
<clipPath id="clip0_2847_8827">
<rect width="36.9231" height="36.9231" fill="white" transform="translate(5.53906 5.53845)"/>
</clipPath>
</defs>
</svg>
