<svg width="22" height="22" viewBox="0 0 22 22" fill="none" xmlns="http://www.w3.org/2000/svg">
<path d="M19.4219 0H2.57812C1.15655 0 0 1.15655 0 2.57812V10.9713C0 12.3929 1.15655 13.5495 2.57812 13.5495H3.49611C3.69076 14.465 4.18163 15.2723 4.8635 15.8655C2.96506 16.8615 1.66684 18.8522 1.66684 21.1406C1.66684 21.6153 2.05159 22 2.52622 22H12.7133C13.188 22 13.5727 21.6153 13.5727 21.1406C13.5727 18.8638 12.2876 16.8817 10.4049 15.8808C11.0959 15.2861 11.5937 14.4729 11.7899 13.5495H13.5208V16.0703C13.5208 16.8404 14.4512 17.2146 14.9879 16.678L18.1164 13.5495H19.4219C20.8435 13.5495 22 12.3929 22 10.9713V2.57812C22 1.15655 20.8435 0 19.4219 0V0ZM7.64302 15.1877C6.25303 15.1877 5.12218 14.0569 5.12218 12.6669C5.12218 11.2769 6.25303 10.146 7.64302 10.146C9.03302 10.146 10.1639 11.2769 10.1639 12.6669C10.1639 14.0569 9.03302 15.1877 7.64302 15.1877ZM11.7663 20.2812H3.47325C3.87153 18.3572 5.57949 16.9064 7.61978 16.9064C9.66006 16.9064 11.368 18.3572 11.7663 20.2812ZM20.2812 10.9713C20.2812 11.4452 19.8957 11.8307 19.4219 11.8307H17.7604C17.5325 11.8307 17.3139 11.9213 17.1527 12.0824L15.2396 13.9956V12.69C15.2396 12.2154 14.8548 11.8307 14.3802 11.8307H11.7996C11.4103 9.89205 9.69457 8.42725 7.64302 8.42725C5.59148 8.42725 3.87578 9.89205 3.48644 11.8307H2.57812C2.10427 11.8307 1.71875 11.4452 1.71875 10.9713V2.57812C1.71875 2.10427 2.10427 1.71875 2.57812 1.71875H19.4219C19.8957 1.71875 20.2812 2.10427 20.2812 2.57812V10.9713ZM18.6198 4.2396C18.6198 4.71423 18.235 5.09897 17.7604 5.09897H4.2396C3.76496 5.09897 3.38022 4.71423 3.38022 4.2396C3.38022 3.76496 3.76496 3.38022 4.2396 3.38022H17.7604C18.235 3.38022 18.6198 3.76496 18.6198 4.2396ZM18.6198 7.61978C18.6198 8.09441 18.235 8.47915 17.7604 8.47915H11C10.5254 8.47915 10.1406 8.09441 10.1406 7.61978C10.1406 7.14514 10.5254 6.7604 11 6.7604H17.7604C18.235 6.7604 18.6198 7.14514 18.6198 7.61978Z" fill="#02164F"/>
</svg>
