<svg width="24" height="24" viewBox="0 0 24 24" fill="none" xmlns="http://www.w3.org/2000/svg">
<path d="M19.7269 14.3103L16.5148 14.8722V7.58786L19.8868 6.99801C20.1099 6.95899 20.2591 6.7465 20.2201 6.52348C20.1811 6.30039 19.9682 6.15137 19.7456 6.19023L16.5148 6.75539V3.41002C16.5148 3.1836 16.3312 3 16.1047 3C15.8783 3 15.6947 3.1836 15.6947 3.41002V6.89881L8.53159 8.15178V4.96886C8.53159 4.74243 8.34799 4.55883 8.12156 4.55883C7.89513 4.55883 7.71154 4.74243 7.71154 4.96886V8.29521L4.35815 8.8818C4.13509 8.92082 3.98588 9.13331 4.0249 9.35633C4.05975 9.55552 4.23283 9.69581 4.42833 9.69581C4.45179 9.69581 4.47557 9.69379 4.49943 9.68962L7.71154 9.12776V16.4121L4.33945 17.0019C4.1164 17.041 3.96718 17.2535 4.0062 17.4765C4.04105 17.6757 4.21413 17.816 4.40963 17.816C4.4331 17.816 4.45687 17.8139 4.48073 17.8098L7.71154 17.2446V20.59C7.71154 20.8164 7.89513 21 8.12156 21C8.34799 21 8.53159 20.8164 8.53159 20.59V17.1012L15.6947 15.8482V19.0311C15.6947 19.2575 15.8783 19.4411 16.1047 19.4411C16.3312 19.4411 16.5148 19.2575 16.5148 19.0311V15.7048L19.8682 15.1182C20.0912 15.0791 20.2404 14.8666 20.2014 14.6436C20.1624 14.4205 19.9495 14.2714 19.7269 14.3103ZM8.53159 16.2686V8.98429L15.6947 7.73132V15.0157L8.53159 16.2686Z" fill="#02164F" stroke="#02164F"/>
</svg>
