<svg width="26" height="26" viewBox="0 0 26 26" fill="none" xmlns="http://www.w3.org/2000/svg">
<path d="M13.1906 24C12.3357 24 11.5311 23.6665 10.9253 23.062C10.3208 22.4576 9.9873 21.653 9.9873 20.7967C9.9873 20.5067 10.0268 20.2194 10.103 19.9431C10.231 19.4788 10.7116 19.2079 11.1744 19.3359C11.6387 19.4639 11.9096 19.9444 11.7816 20.4073C11.7462 20.5339 11.7285 20.6646 11.7285 20.7967C11.7285 21.6026 12.3833 22.2574 13.1893 22.2574C13.9952 22.2574 14.65 21.6026 14.65 20.7967C14.65 20.6646 14.6324 20.5326 14.597 20.4073C14.469 19.9431 14.7413 19.4639 15.2041 19.3359C15.6684 19.2079 16.1476 19.4802 16.2755 19.9431C16.3518 20.2208 16.3913 20.5081 16.3913 20.7967C16.3913 21.6516 16.0577 22.4562 15.4533 23.062C14.8488 23.6678 14.0456 24 13.1906 24V24Z" fill="#1D58FF"/>
<path d="M21.5101 20.6973H4.87129C4.39072 20.6973 4 20.3066 4 19.826C4 18.8091 4.39616 17.852 5.11498 17.1332C5.3927 16.8555 5.71126 16.6227 6.05978 16.4416C6.24765 16.3449 6.36337 16.1489 6.36337 15.9311V10.7428C6.36337 9.86883 6.5349 9.02069 6.87253 8.22155C7.19926 7.44965 7.66621 6.75806 8.25978 6.16313C8.8547 5.56821 9.54629 5.10125 10.3182 4.77588C11.1173 4.43826 11.9655 4.26672 12.8395 4.26672H13.5406C14.4146 4.26672 15.2627 4.43826 16.0619 4.77588C16.8338 5.10261 17.5254 5.56957 18.1203 6.16313C18.7152 6.75806 19.1822 7.44965 19.5076 8.22155C19.8452 9.02069 20.0167 9.86883 20.0167 10.7428V15.9311C20.0167 16.1475 20.1392 16.3463 20.338 16.4511C20.9438 16.7683 21.4543 17.2435 21.8151 17.8261C22.1854 18.4265 22.3814 19.1181 22.3814 19.826C22.3814 20.3079 21.9921 20.6973 21.5101 20.6973Z" fill="#1D58FF"/>
<path d="M13.1906 6.00928C12.7101 6.00928 12.3193 5.61856 12.3193 5.138V2.87129C12.3193 2.39072 12.7101 2 13.1906 2C13.6712 2 14.0619 2.39072 14.0619 2.87129V5.138C14.0619 5.61993 13.6712 6.00928 13.1906 6.00928Z" fill="#1D58FF"/>
</svg>
