<svg width="52" height="52" viewBox="0 0 52 52" fill="none" xmlns="http://www.w3.org/2000/svg">
<rect x="0.5" y="0.5" width="51" height="51" rx="18.5" stroke="#7C8094"/>
<path d="M26 16.375C24.0964 16.375 22.2355 16.9395 20.6526 17.9971C19.0698 19.0547 17.8362 20.5579 17.1077 22.3167C16.3792 24.0754 16.1886 26.0107 16.5599 27.8777C16.9313 29.7448 17.848 31.4598 19.1941 32.8059C20.5402 34.152 22.2552 35.0687 24.1223 35.4401C25.9893 35.8114 27.9246 35.6208 29.6833 34.8923C31.4421 34.1638 32.9453 32.9302 34.0029 31.3474C35.0605 29.7645 35.625 27.9036 35.625 26C35.625 23.4473 34.6109 20.9991 32.8059 19.1941C31.0009 17.3891 28.5527 16.375 26 16.375V16.375ZM26.6875 26.6875H34.25C34.1682 27.6395 33.9216 28.5699 33.5212 29.4375H26.6875V26.6875ZM26.6875 25.3125V22.5625H33.4869C33.8991 23.4279 34.1573 24.3585 34.25 25.3125H26.6875ZM32.6894 21.1875H26.6875V17.7844C27.8743 17.8848 29.0252 18.2409 30.0613 18.8284C31.0973 19.4158 31.9939 20.2206 32.6894 21.1875ZM17.75 26C17.7514 23.932 18.5295 21.9399 19.9301 20.4183C21.3307 18.8968 23.2516 17.9567 25.3125 17.7844V34.25C23.2457 34.0772 21.3199 33.1323 19.9184 31.6034C18.517 30.0746 17.7428 28.074 17.75 26V26ZM26.6875 34.25V30.8125H32.6894C31.9973 31.7857 31.1023 32.5971 30.0661 33.1906C29.0298 33.7841 27.8771 34.1455 26.6875 34.25V34.25Z" fill="#555868"/>
</svg>
