<svg width="32" height="32" viewBox="0 0 32 32" fill="none" xmlns="http://www.w3.org/2000/svg">
<path d="M16.1916 27C15.3367 27 14.5321 26.6665 13.9263 26.062C13.3218 25.4576 12.9883 24.653 12.9883 23.7967C12.9883 23.5067 13.0278 23.2194 13.104 22.9431C13.232 22.4788 13.7125 22.2079 14.1754 22.3359C14.6396 22.4639 14.9106 22.9444 14.7826 23.4073C14.7472 23.5339 14.7295 23.6646 14.7295 23.7967C14.7295 24.6026 15.3843 25.2574 16.1903 25.2574C16.9962 25.2574 17.651 24.6026 17.651 23.7967C17.651 23.6646 17.6333 23.5326 17.5979 23.4073C17.47 22.9431 17.7422 22.4639 18.2051 22.3359C18.6693 22.2079 19.1486 22.4802 19.2765 22.9431C19.3528 23.2208 19.3922 23.5081 19.3922 23.7967C19.3922 24.6516 19.0587 25.4562 18.4542 26.062C17.8498 26.6678 17.0466 27 16.1916 27Z" fill="#2F3237"/>
<path d="M24.5101 23.6973H7.87129C7.39072 23.6973 7 23.3065 7 22.826C7 21.809 7.39616 20.852 8.11498 20.1332C8.3927 19.8554 8.71126 19.6226 9.05978 19.4416C9.24765 19.3449 9.36337 19.1489 9.36337 18.9311V13.7428C9.36337 12.8688 9.5349 12.0207 9.87253 11.2215C10.1993 10.4496 10.6662 9.75803 11.2598 9.1631C11.8547 8.56818 12.5463 8.10122 13.3182 7.77585C14.1173 7.43823 14.9655 7.26669 15.8395 7.26669H16.5406C17.4146 7.26669 18.2627 7.43823 19.0619 7.77585C19.8338 8.10258 20.5254 8.56954 21.1203 9.1631C21.7152 9.75803 22.1822 10.4496 22.5076 11.2215C22.8452 12.0207 23.0167 12.8688 23.0167 13.7428V18.9311C23.0167 19.1475 23.1392 19.3463 23.338 19.4511C23.9438 19.7683 24.4543 20.2434 24.8151 20.8261C25.1854 21.4265 25.3814 22.1181 25.3814 22.826C25.3814 23.3079 24.9921 23.6973 24.5101 23.6973ZM8.93317 21.9547H23.4469C23.259 21.5504 22.9418 21.21 22.5293 20.9949C21.7547 20.5892 21.2741 19.7983 21.2741 18.9324V13.7428C21.2741 11.133 19.1504 9.00927 16.5406 9.00927H15.8395C13.2297 9.00927 11.1059 11.133 11.1059 13.7428V18.9311C11.1059 19.3544 10.9916 19.7697 10.7738 20.1318C10.5532 20.498 10.2374 20.7948 9.86027 20.9895C9.67104 21.0875 9.49814 21.2141 9.34703 21.3652C9.17277 21.5395 9.03391 21.7382 8.93317 21.9547Z" fill="#2F3237"/>
<path d="M16.1916 9.00928C15.711 9.00928 15.3203 8.61856 15.3203 8.138V5.87129C15.3203 5.39072 15.711 5 16.1916 5C16.6722 5 17.0629 5.39072 17.0629 5.87129V8.138C17.0629 8.61993 16.6722 9.00928 16.1916 9.00928Z" fill="#2F3237"/>
</svg>
