<svg width="18" height="18" viewBox="0 0 18 18" fill="none" xmlns="http://www.w3.org/2000/svg">
<path d="M13.2073 16.7012C12.9938 16.7013 12.7835 16.6491 12.5948 16.5493L9.08871 14.7065C9.06154 14.692 9.03121 14.6844 9.0004 14.6844C8.96959 14.6844 8.93925 14.692 8.91208 14.7065L5.40659 16.5493C5.18935 16.6636 4.94446 16.7148 4.69962 16.6972C4.45478 16.6795 4.21977 16.5937 4.02117 16.4494C3.82257 16.3052 3.66832 16.1082 3.57587 15.8808C3.48341 15.6534 3.45645 15.4046 3.49802 15.1627L4.1674 11.2595C4.17254 11.2289 4.1701 11.1976 4.1603 11.1681C4.15049 11.1387 4.13361 11.1122 4.11115 11.0908L1.27727 8.32497C1.10133 8.15355 0.976905 7.93628 0.918109 7.69777C0.859313 7.45926 0.868493 7.20905 0.944609 6.97549C1.02072 6.74194 1.16073 6.53436 1.34877 6.3763C1.53681 6.21823 1.76536 6.11599 2.00852 6.08116L5.92521 5.51247C5.95569 5.50804 5.98462 5.49624 6.00952 5.47811C6.03441 5.45998 6.05452 5.43606 6.06809 5.40841L7.81915 1.85622C7.92761 1.63602 8.09556 1.45058 8.30398 1.3209C8.5124 1.19123 8.75296 1.1225 8.99843 1.1225C9.2439 1.1225 9.48446 1.19123 9.69288 1.3209C9.9013 1.45058 10.0693 1.63602 10.1777 1.85622L11.9299 5.40728C11.9436 5.43484 11.9637 5.45869 11.9886 5.47681C12.0135 5.49493 12.0423 5.50678 12.0728 5.51135L15.9928 6.0806C16.2359 6.11563 16.4643 6.21798 16.6522 6.37607C16.8401 6.53416 16.98 6.74168 17.0561 6.97515C17.1322 7.20863 17.1414 7.45873 17.0827 7.69718C17.024 7.93563 16.8998 8.1529 16.7241 8.32441L13.8874 11.0885C13.865 11.11 13.8482 11.1365 13.8384 11.1659C13.8286 11.1953 13.8261 11.2267 13.8311 11.2573L14.5005 15.1605C14.5327 15.3491 14.5234 15.5424 14.4733 15.727C14.4232 15.9117 14.3334 16.0832 14.2103 16.2296C14.0872 16.3761 13.9336 16.4939 13.7603 16.5749C13.587 16.656 13.3981 16.6983 13.2068 16.6989L13.2073 16.7012Z" fill="#979EC5"/>
</svg>
