<svg width="26" height="26" viewBox="0 0 26 26" fill="none" xmlns="http://www.w3.org/2000/svg">
<path d="M7.53559 9.07656H7.88559L7.53559 9.07648V9.07626V9.07588V9.07537V9.0747V9.07388V9.07292V9.07182V9.07057V9.06917V9.06764V9.06595V9.06413V9.06216V9.06005V9.05781V9.05542V9.05289V9.05022V9.04741V9.04447V9.04138V9.03816V9.03481V9.03131V9.02769V9.02393V9.02003V9.016V9.01184V9.00754V9.00312V8.99856V8.99387V8.98905V8.9841V8.97903V8.97382V8.96849V8.96303V8.95744V8.95173V8.94589V8.93993V8.93384V8.92763V8.92129V8.91483V8.90826V8.90155V8.89473V8.88779V8.88073V8.87355V8.86625V8.85883V8.85129V8.84364V8.83587V8.82799V8.81999V8.81187V8.80364V8.7953V8.78685V8.77828V8.7696V8.76081V8.75191V8.7429V8.73378V8.72455V8.71521V8.70576V8.69621V8.68655V8.67679V8.66692V8.65694V8.64686V8.63668V8.62639V8.616V8.60551V8.59491V8.58422V8.57343V8.56253V8.55154V8.54045V8.52925V8.51797V8.50658V8.4951V8.48353V8.47185V8.46009V8.44823V8.43627V8.42423V8.41209V8.39986V8.38753V8.37512V8.36262V8.35003V8.33735V8.32458V8.31172V8.29877V8.28574V8.27263V8.25942V8.24614V8.23277V8.21931V8.20577V8.19215V8.17845V8.16466V8.1508V8.13685V8.12282V8.10872V8.09454V8.08028V8.06594V8.05152V8.03703V8.02246V8.00782V7.9931V7.97831V7.96344V7.94851V7.9335V7.91841V7.90326V7.88804V7.87274V7.85738V7.84195V7.82645V7.81088V7.79525V7.77954V7.76378V7.74794V7.73205V7.71608V7.70006V7.68397V7.66782V7.6516V7.63533V7.61899V7.6026V7.58614V7.56962V7.55305V7.53642V7.51973V7.50298V7.48618V7.46932V7.45241V7.43544V7.41842V7.40135V7.38422V7.36704V7.34981V7.33252V7.31519V7.2978V7.28037V7.26289V7.24536V7.22778V7.21016V7.19249V7.17477V7.157V7.1392V7.12134V7.10345V7.08551V7.06753V7.04951V7.03144V7.01333V6.99519V6.977V6.95878V6.94052V6.92221V6.90387V6.8855V6.86709V6.84864V6.83016V6.81164V6.79309V6.7745V6.75589V6.73724V6.71856V6.69984V6.6811V6.66233V6.64353V6.62469V6.60584V6.58695V6.56803V6.54909V6.53013V6.51114V6.49212V6.47308V6.45401V6.43492V6.41581V6.39668V6.37753V6.35835V6.33916V6.31994V6.30071V6.28146V6.26219V6.2429V6.2236V6.20428V6.18494V6.16559V6.14622V6.12684V6.10745V6.08805V6.06863V6.0492V6.02976V6.0103V5.99084V5.97137V5.95189V5.93241V5.91291V5.89341V5.8739V5.85438V5.83486V5.81534V5.79581V5.77628V5.75674V5.7372V5.71766V5.69812V5.67858V5.65904V5.63949V5.61995V5.60041V5.58087V5.56134V5.54181V5.52228V5.50275V5.48323V5.46372V5.44421V5.42471V5.40522V5.38573V5.36626V5.34679V5.32733V5.30788V5.28844V5.26901V5.2496V5.2302V5.21081V5.19143V5.17207V5.15272V5.13339V5.11407V5.09477V5.07549V5.05622V5.03697V5.01775V4.99854V4.97935V4.96018V4.94103V4.9219V4.9028V4.88371V4.86465V4.84562V4.82661V4.80762V4.78866V4.76973V4.75082V4.73194V4.71309V4.69426V4.67547V4.6567V4.63797V4.61926V4.60059V4.58195V4.56334V4.54476V4.52622V4.50771V4.48923V4.4708V4.45239V4.43403V4.4157V4.3974V4.37915V4.36093V4.34276V4.32462V4.30653V4.28847V4.27046V4.25249V4.23456V4.21667V4.19883V4.18103V4.16328V4.14558V4.12791V4.1103V4.09273V4.07522V4.05775V4.04032V4.02295V4.00563V3.98836V3.97114V3.95397V3.93686V3.9198V3.90279V3.88583V3.86893V3.85209V3.8353V3.81857V3.80189V3.78527V3.76871V3.75221V3.73577V3.71939V3.70307V3.68681V3.67061V3.65447V3.6384V3.62239V3.60644V3.59056V3.57474V3.55899V3.5433V3.52768V3.51213V3.49665V3.48123V3.46589V3.45061V3.4354V3.42027V3.4052V3.39021V3.37529V3.36044V3.34567V3.33097V3.31635V3.3018V3.28732V3.27293V3.25861V3.24436V3.2302V3.21611V3.20211V3.18818V3.17433V3.16057V3.14688V3.13328V3.11977V3.10633V3.09298V3.07971V3.06653V3.05343V3.04042V3.0275V3.01466V3.00192V2.98926V2.97669V2.9642V2.95181V2.93951V2.9273V2.91519V2.90316V2.89123V2.87939V2.86765V2.856V2.84445V2.83299V2.82163V2.81037V2.7992V2.78813V2.77716V2.76629V2.75552V2.74485V2.73428V2.72381V2.71345V2.70319V2.69303V2.68297V2.67302V2.66318V2.65344V2.6438V2.63428V2.62486V2.61555V2.60634V2.59725V2.58826V2.57939V2.57063V2.56197V2.55343V2.54501V2.53669V2.52849V2.5204V2.51243V2.50457V2.49683V2.48921V2.4817V2.47431V2.46704V2.45989V2.45285V2.44594V2.43915V2.43248V2.42593V2.4195V2.41319V2.40701V2.40095V2.39502V2.38921V2.38353V2.37797V2.37254V2.36724V2.36207V2.35702V2.3521V2.34732V2.34266V2.33813V2.33374V2.32947V2.32534V2.32135V2.31748V2.31375V2.31016V2.3067V2.30338V2.30019V2.29714V2.29423V2.29146V2.28882V2.28632V2.28397V2.28175V2.27968V2.27775V2.27596V2.27431C7.53559 1.18088 6.78731 0.35 5.75493 0.35C5.2305 0.35 4.83234 0.558552 4.55897 0.889153C4.28004 1.22648 4.11562 1.7114 4.11562 2.27431V16.7637C4.11562 21.6708 8.09279 25.65 12.9996 25.65C17.9031 25.65 21.8847 21.6707 21.8848 16.7638L7.53559 9.07656ZM7.53559 9.07656V9.73154M7.53559 9.07656V9.73154M7.53559 9.73154L8.0801 9.36753M7.53559 9.73154L8.0801 9.36753M8.0801 9.36753C9.48385 8.42911 11.1794 7.87855 12.9996 7.87855M8.0801 9.36753L12.9996 7.87855M12.9996 7.87855C17.9031 7.87855 21.8836 11.8579 21.8848 16.7637L12.9996 7.87855ZM7.53559 16.7637C7.53559 19.7817 9.98143 22.2289 12.9996 22.2289C16.0189 22.2289 18.4648 19.7817 18.4648 16.7637C18.4648 13.7456 16.0188 11.2997 12.9996 11.2997C9.98154 11.2997 7.53559 13.7456 7.53559 16.7637Z" fill="#555868" stroke="white" stroke-width="0.7"/>
</svg>
