<svg width="18" height="18" viewBox="0 0 18 18" fill="none" xmlns="http://www.w3.org/2000/svg">
<path d="M13.2073 16.7012C12.9938 16.7013 12.7835 16.6491 12.5948 16.5493L9.08871 14.7065C9.06154 14.692 9.03121 14.6844 9.0004 14.6844C8.96959 14.6844 8.93925 14.692 8.91208 14.7065L5.40659 16.5493C5.18935 16.6636 4.94446 16.7148 4.69962 16.6972C4.45478 16.6795 4.21977 16.5937 4.02117 16.4494C3.82257 16.3052 3.66832 16.1082 3.57587 15.8808C3.48341 15.6534 3.45645 15.4046 3.49802 15.1627L4.1674 11.2595C4.17254 11.2289 4.1701 11.1976 4.1603 11.1681C4.15049 11.1387 4.13361 11.1122 4.11115 11.0908L1.27727 8.32497C1.10133 8.15355 0.976905 7.93628 0.918109 7.69777C0.859313 7.45926 0.868493 7.20905 0.944609 6.97549C1.02072 6.74194 1.16073 6.53437 1.34877 6.3763C1.53681 6.21823 1.76536 6.11599 2.00852 6.08116L5.92521 5.51247C5.95569 5.50804 5.98462 5.49624 6.00952 5.47811C6.03441 5.45998 6.05451 5.43606 6.06809 5.40841L7.81915 1.85622C7.92761 1.63602 8.09556 1.45058 8.30398 1.3209C8.5124 1.19123 8.75296 1.1225 8.99843 1.1225C9.2439 1.1225 9.48446 1.19123 9.69288 1.3209C9.9013 1.45058 10.0693 1.63602 10.1777 1.85622L11.9299 5.40728C11.9436 5.43484 11.9637 5.4587 11.9886 5.47681C12.0135 5.49493 12.0423 5.50678 12.0728 5.51135L15.9928 6.0806C16.2359 6.11563 16.4643 6.21798 16.6522 6.37607C16.8401 6.53416 16.98 6.74168 17.0561 6.97515C17.1322 7.20863 17.1414 7.45873 17.0827 7.69718C17.024 7.93563 16.8998 8.1529 16.7241 8.32441L13.8874 11.0885C13.865 11.11 13.8482 11.1365 13.8384 11.1659C13.8286 11.1953 13.8261 11.2267 13.8311 11.2573L14.5005 15.1605C14.5327 15.3491 14.5234 15.5424 14.4733 15.727C14.4232 15.9117 14.3334 16.0832 14.2103 16.2296C14.0872 16.3761 13.9336 16.4939 13.7603 16.5749C13.587 16.656 13.3981 16.6983 13.2068 16.6989L13.2073 16.7012ZM9.0004 13.559C9.21373 13.559 9.42384 13.6111 9.6124 13.7109L13.1179 15.5531C13.1489 15.5708 13.1845 15.579 13.2202 15.5765C13.2558 15.5739 13.2899 15.5609 13.3181 15.539C13.3476 15.5188 13.3705 15.4904 13.384 15.4573C13.3975 15.4242 13.401 15.3879 13.3941 15.3528L12.7241 11.4491C12.6884 11.239 12.7041 11.0234 12.7699 10.8207C12.8357 10.618 12.9497 10.4343 13.1021 10.2853L15.9388 7.5206C15.9642 7.4958 15.982 7.46441 15.9905 7.42999C15.9989 7.39556 15.9976 7.35946 15.9866 7.32576C15.9756 7.29207 15.9554 7.26212 15.9282 7.23929C15.9011 7.21647 15.8682 7.20168 15.8331 7.1966L11.9136 6.62678C11.7026 6.59623 11.5022 6.51476 11.3297 6.38941C11.1572 6.26407 11.0178 6.09862 10.9236 5.90735L9.16915 2.35572C9.15343 2.32394 9.12915 2.29718 9.09903 2.27847C9.06891 2.25977 9.03416 2.24985 8.99871 2.24985C8.96325 2.24985 8.9285 2.25977 8.89839 2.27847C8.86827 2.29718 8.84398 2.32394 8.82827 2.35572L7.07721 5.90622C6.98293 6.09756 6.84347 6.26306 6.67088 6.38841C6.49829 6.51376 6.29777 6.59519 6.08665 6.62566L2.16771 7.1966C2.13256 7.20157 2.09951 7.21631 2.07233 7.23915C2.04515 7.26198 2.02492 7.29199 2.01396 7.32576C2.003 7.35952 2.00174 7.39569 2.01033 7.43013C2.01891 7.46458 2.037 7.49592 2.06252 7.5206L4.89865 10.2853C5.05106 10.4343 5.16507 10.618 5.2309 10.8207C5.29674 11.0234 5.31244 11.239 5.27665 11.4491L4.60671 15.3528C4.60063 15.3879 4.60452 15.424 4.61794 15.457C4.63135 15.4899 4.65375 15.5185 4.68259 15.5393C4.71143 15.5602 4.74554 15.5726 4.78106 15.575C4.81657 15.5774 4.85205 15.5698 4.88346 15.5531L8.3884 13.7103C8.57709 13.611 8.78714 13.559 9.0004 13.559Z" fill="#979EC5"/>
</svg>
