<svg width="26" height="26" viewBox="0 0 26 26" fill="none" xmlns="http://www.w3.org/2000/svg">
<path d="M17.2073 20.7012C16.9938 20.7013 16.7835 20.6492 16.5948 20.5493L13.0887 18.7066C13.0615 18.692 13.0312 18.6844 13.0004 18.6844C12.9696 18.6844 12.9393 18.692 12.9121 18.7066L9.40659 20.5493C9.18935 20.6636 8.94446 20.7149 8.69962 20.6972C8.45478 20.6796 8.21977 20.5938 8.02117 20.4495C7.82257 20.3052 7.66832 20.1082 7.57587 19.8808C7.48341 19.6534 7.45645 19.4047 7.49802 19.1627L8.1674 15.2596C8.17254 15.229 8.1701 15.1976 8.1603 15.1682C8.15049 15.1388 8.13361 15.1122 8.11115 15.0908L5.27727 12.325C5.10133 12.1536 4.9769 11.9363 4.91811 11.6978C4.85931 11.4593 4.86849 11.2091 4.94461 10.9755C5.02072 10.742 5.16073 10.5344 5.34877 10.3763C5.53681 10.2183 5.76536 10.116 6.00852 10.0812L9.92521 9.5125C9.95569 9.50807 9.98462 9.49627 10.0095 9.47814C10.0344 9.46001 10.0545 9.43609 10.0681 9.40844L11.8191 5.85625C11.9276 5.63605 12.0956 5.45061 12.304 5.32093C12.5124 5.19126 12.753 5.12253 12.9984 5.12253C13.2439 5.12253 13.4845 5.19126 13.6929 5.32093C13.9013 5.45061 14.0693 5.63605 14.1777 5.85625L15.9299 9.40731C15.9436 9.43488 15.9637 9.45873 15.9886 9.47684C16.0135 9.49496 16.0423 9.50681 16.0728 9.51138L19.9928 10.0806C20.2359 10.1157 20.4643 10.218 20.6522 10.3761C20.8401 10.5342 20.98 10.7417 21.0561 10.9752C21.1322 11.2087 21.1414 11.4588 21.0827 11.6972C21.024 11.9357 20.8998 12.1529 20.7241 12.3244L17.8874 15.0886C17.865 15.11 17.8482 15.1366 17.8384 15.166C17.8286 15.1954 17.8261 15.2267 17.8311 15.2573L18.5005 19.1605C18.5327 19.3491 18.5234 19.5424 18.4733 19.7271C18.4232 19.9117 18.3334 20.0832 18.2103 20.2297C18.0872 20.3761 17.9336 20.4939 17.7603 20.575C17.587 20.656 17.3981 20.6983 17.2068 20.6989L17.2073 20.7012ZM13.0004 17.5591C13.2137 17.559 13.4238 17.6112 13.6124 17.7109L17.1179 19.5531C17.1489 19.5709 17.1845 19.579 17.2202 19.5765C17.2558 19.574 17.2899 19.561 17.3181 19.5391C17.3476 19.5188 17.3705 19.4904 17.384 19.4573C17.3975 19.4243 17.401 19.3879 17.3941 19.3529L16.7241 15.4491C16.6884 15.239 16.7041 15.0234 16.7699 14.8207C16.8357 14.618 16.9497 14.4343 17.1021 14.2853L19.9388 11.5206C19.9642 11.4958 19.982 11.4644 19.9905 11.43C19.9989 11.3956 19.9976 11.3595 19.9866 11.3258C19.9756 11.2921 19.9554 11.2621 19.9282 11.2393C19.9011 11.2165 19.8682 11.2017 19.8331 11.1966L15.9136 10.6268C15.7026 10.5963 15.5022 10.5148 15.3297 10.3894C15.1572 10.2641 15.0178 10.0986 14.9236 9.90738L13.1691 6.35575C13.1534 6.32397 13.1291 6.29721 13.099 6.2785C13.0689 6.2598 13.0342 6.24988 12.9987 6.24988C12.9633 6.24988 12.9285 6.2598 12.8984 6.2785C12.8683 6.29721 12.844 6.32397 12.8283 6.35575L11.0772 9.90625C10.9829 10.0976 10.8435 10.2631 10.6709 10.3884C10.4983 10.5138 10.2978 10.5952 10.0866 10.6257L6.16771 11.1966C6.13256 11.2016 6.09951 11.2163 6.07233 11.2392C6.04515 11.262 6.02492 11.292 6.01396 11.3258C6.003 11.3596 6.00174 11.3957 6.01033 11.4302C6.01891 11.4646 6.037 11.496 6.06252 11.5206L8.89865 14.2853C9.05106 14.4343 9.16507 14.618 9.2309 14.8207C9.29674 15.0234 9.31244 15.239 9.27665 15.4491L8.60671 19.3529C8.60063 19.3879 8.60452 19.424 8.61794 19.457C8.63135 19.49 8.65375 19.5185 8.68259 19.5394C8.71143 19.5602 8.74554 19.5726 8.78106 19.575C8.81657 19.5774 8.85205 19.5699 8.88346 19.5531L12.3884 17.7104C12.5771 17.611 12.7871 17.5591 13.0004 17.5591Z" fill="#1D58FF" stroke="#1D58FF" stroke-width="0.5"/>
</svg>
