<svg width="26" height="26" viewBox="0 0 26 26" fill="none" xmlns="http://www.w3.org/2000/svg">
<path fill-rule="evenodd" clip-rule="evenodd" d="M20.532 7.70573C21.156 7.08676 21.156 6.0832 20.532 5.46423C19.9081 4.84526 18.8965 4.84526 18.2725 5.46423L12.9354 10.7587L7.72751 5.59245C7.10355 4.97348 6.09192 4.97348 5.46797 5.59245C4.84401 6.21142 4.84401 7.21498 5.46797 7.83395L10.6758 13.0002L5.46844 18.1661C4.84448 18.785 4.84448 19.7886 5.46844 20.4076C6.09239 21.0265 7.10402 21.0265 7.72798 20.4076L12.9354 15.2417L18.272 20.5358C18.896 21.1548 19.9076 21.1548 20.5316 20.5358C21.1555 19.9168 21.1555 18.9133 20.5316 18.2943L15.1949 13.0002L20.532 7.70573Z" fill="#CBCEDC"/>
</svg>
