<svg width="18" height="18" viewBox="0 0 18 18" fill="none" xmlns="http://www.w3.org/2000/svg">
<path d="M13.9086 2.23211H13.3119V1.62833C13.3119 1.28336 13.0323 1.00372 12.6873 1.00372C12.3423 1.00372 12.0627 1.28336 12.0627 1.62833V2.23211H5.93441V1.62833C5.93441 1.28336 5.65478 1.00372 5.3098 1.00372C4.96483 1.00372 4.68519 1.28336 4.68519 1.62833V2.23211H4.08854C2.38551 2.23211 1 3.61762 1 5.32062V13.9052C1 15.6082 2.38551 16.9937 4.08854 16.9937H13.9086C15.6116 16.9937 16.9971 15.6082 16.9971 13.9052V5.32062C16.9971 3.61762 15.6116 2.23211 13.9086 2.23211ZM4.08854 3.48133H4.68519V4.69932C4.68519 5.04429 4.96483 5.32393 5.3098 5.32393C5.65478 5.32393 5.93441 5.04429 5.93441 4.69932V3.48133H12.0627V4.69932C12.0627 5.04429 12.3423 5.32393 12.6873 5.32393C13.0323 5.32393 13.3119 5.04429 13.3119 4.69932V3.48133H13.9086C14.9228 3.48133 15.7479 4.30644 15.7479 5.32062V5.91731H2.24922V5.32062C2.24922 4.30644 3.07433 3.48133 4.08854 3.48133ZM13.9086 15.7445H4.08854C3.07433 15.7445 2.24922 14.9194 2.24922 13.9052V7.16653H15.7479V13.9052C15.7479 14.9194 14.9228 15.7445 13.9086 15.7445ZM6.54862 9.62333C6.54862 9.9683 6.26899 10.2479 5.92401 10.2479H4.69563C4.35065 10.2479 4.07102 9.9683 4.07102 9.62333C4.07102 9.27836 4.35065 8.99872 4.69563 8.99872H5.92401C6.26895 8.99872 6.54862 9.27836 6.54862 9.62333ZM13.9261 9.62333C13.9261 9.9683 13.6465 10.2479 13.3015 10.2479H12.0731C11.7282 10.2479 11.4485 9.9683 11.4485 9.62333C11.4485 9.27836 11.7282 8.99872 12.0731 8.99872H13.3015C13.6465 8.99872 13.9261 9.27836 13.9261 9.62333ZM10.2338 9.62333C10.2338 9.9683 9.95418 10.2479 9.60921 10.2479H8.38082C8.03585 10.2479 7.75621 9.9683 7.75621 9.62333C7.75621 9.27836 8.03585 8.99872 8.38082 8.99872H9.60921C9.95415 8.99872 10.2338 9.27836 10.2338 9.62333ZM6.54862 13.3085C6.54862 13.6535 6.26899 13.9331 5.92401 13.9331H4.69563C4.35065 13.9331 4.07102 13.6535 4.07102 13.3085C4.07102 12.9636 4.35065 12.6839 4.69563 12.6839H5.92401C6.26895 12.6839 6.54862 12.9636 6.54862 13.3085ZM13.9261 13.3085C13.9261 13.6535 13.6465 13.9331 13.3015 13.9331H12.0731C11.7282 13.9331 11.4485 13.6535 11.4485 13.3085C11.4485 12.9636 11.7282 12.6839 12.0731 12.6839H13.3015C13.6465 12.6839 13.9261 12.9636 13.9261 13.3085ZM10.2338 13.3085C10.2338 13.6535 9.95418 13.9331 9.60921 13.9331H8.38082C8.03585 13.9331 7.75621 13.6535 7.75621 13.3085C7.75621 12.9636 8.03585 12.6839 8.38082 12.6839H9.60921C9.95415 12.6839 10.2338 12.9636 10.2338 13.3085Z" fill="#02164F"/>
</svg>
