<svg width="20" height="20" viewBox="0 0 20 20" fill="none" xmlns="http://www.w3.org/2000/svg">
<circle cx="10" cy="10" r="10" fill="#9CA1A9"/>
<path fill-rule="evenodd" clip-rule="evenodd" d="M13.7652 7.32373C14.0772 7.02091 14.0772 6.52994 13.7652 6.22712C13.4533 5.92429 12.9475 5.92429 12.6355 6.22712L9.87855 8.90338L7.36368 6.46215C7.05172 6.15933 6.54594 6.15933 6.23399 6.46215C5.92203 6.76497 5.92203 7.25594 6.23399 7.55876L8.74886 9.99999L6.23397 12.4412C5.92201 12.7441 5.92201 13.235 6.23397 13.5379C6.54592 13.8407 7.0517 13.8407 7.36366 13.5379L9.87855 11.0966L12.6356 13.7729C12.9475 14.0757 13.4533 14.0757 13.7653 13.7729C14.0772 13.4701 14.0772 12.9791 13.7653 12.6763L11.0082 9.99999L13.7652 7.32373Z" fill="white"/>
</svg>
