<svg width="20" height="20" viewBox="0 0 20 20" fill="none" xmlns="http://www.w3.org/2000/svg">
<path d="M16.875 3.31875C16.875 2.60432 16.5912 1.91916 16.086 1.41398C15.5808 0.908805 14.8957 0.625 14.1813 0.625H5.81875C5.10432 0.625 4.41916 0.908805 3.91398 1.41398C3.4088 1.91916 3.125 2.60432 3.125 3.31875V16.6812C3.125 17.3957 3.4088 18.0808 3.91398 18.586C4.16412 18.8362 4.46108 19.0346 4.7879 19.17C5.11472 19.3053 5.465 19.375 5.81875 19.375H14.1813C14.8957 19.375 15.5808 19.0912 16.086 18.586C16.5912 18.0808 16.875 17.3957 16.875 16.6812V3.31875ZM15.625 16.6812C15.6234 17.0637 15.4707 17.4299 15.2003 17.7003C14.9299 17.9707 14.5637 18.1234 14.1813 18.125H5.81875C5.43635 18.1234 5.07008 17.9707 4.79968 17.7003C4.52928 17.4299 4.37664 17.0637 4.375 16.6812V3.31875C4.37664 2.93635 4.52928 2.57008 4.79968 2.29968C5.07008 2.02928 5.43635 1.87664 5.81875 1.875H14.1813C14.5637 1.87664 14.9299 2.02928 15.2003 2.29968C15.4707 2.57008 15.6234 2.93635 15.625 3.31875V16.6812Z" fill="#575757" stroke="#575757" stroke-width="0.3"/>
<path d="M12.5 6.0249H7.5C7.33424 6.0249 7.17527 6.09075 7.05806 6.20796C6.94085 6.32517 6.875 6.48414 6.875 6.6499C6.875 6.81566 6.94085 6.97463 7.05806 7.09184C7.17527 7.20905 7.33424 7.2749 7.5 7.2749H12.5C12.6658 7.2749 12.8247 7.20905 12.9419 7.09184C13.0592 6.97463 13.125 6.81566 13.125 6.6499C13.125 6.48414 13.0592 6.32517 12.9419 6.20796C12.8247 6.09075 12.6658 6.0249 12.5 6.0249Z" fill="#575757" stroke="#575757" stroke-width="0.3"/>
<path d="M12.5 9.375H7.5C7.33424 9.375 7.17527 9.44085 7.05806 9.55806C6.94085 9.67527 6.875 9.83424 6.875 10C6.875 10.1658 6.94085 10.3247 7.05806 10.4419C7.17527 10.5592 7.33424 10.625 7.5 10.625H12.5C12.6658 10.625 12.8247 10.5592 12.9419 10.4419C13.0592 10.3247 13.125 10.1658 13.125 10C13.125 9.83424 13.0592 9.67527 12.9419 9.55806C12.8247 9.44085 12.6658 9.375 12.5 9.375Z" fill="#575757" stroke="#575757" stroke-width="0.3"/>
<path d="M12.5 12.7939H7.5C7.33424 12.7939 7.17527 12.8598 7.05806 12.977C6.94085 13.0942 6.875 13.2532 6.875 13.4189C6.875 13.5847 6.94085 13.7437 7.05806 13.8609C7.17527 13.9781 7.33424 14.0439 7.5 14.0439H12.5C12.6658 14.0439 12.8247 13.9781 12.9419 13.8609C13.0592 13.7437 13.125 13.5847 13.125 13.4189C13.125 13.2532 13.0592 13.0942 12.9419 12.977C12.8247 12.8598 12.6658 12.7939 12.5 12.7939Z" fill="#575757" stroke="#575757" stroke-width="0.3"/>
</svg>
