<svg width="18" height="18" viewBox="0 0 18 18" fill="none" xmlns="http://www.w3.org/2000/svg">
<path d="M17.8527 9.11997C17.6378 8.72071 17.2227 8.47267 16.7692 8.47267H14.4148V5.66003C14.4148 4.88458 13.7839 4.25371 13.0085 4.25371H6.68003V3.55055C6.68003 2.7751 6.04915 2.14423 5.27371 2.14423H1.40632C0.630876 2.14423 0 2.7751 0 3.55055V15.3285H0.000281264C0.000281264 15.4165 0.0219738 15.5045 0.0661674 15.5842C0.159125 15.7519 0.335689 15.8559 0.527371 15.8559H13.8874C14.0643 15.8559 14.2295 15.7672 14.3271 15.6197L17.7963 10.3809C18.046 10.0024 18.0676 9.51926 17.8527 9.11997ZM1.40632 3.19897H5.27371C5.46757 3.19897 5.62529 3.35669 5.62529 3.55055V4.78108C5.62529 5.07233 5.86141 5.30845 6.15266 5.30845H13.0085C13.2023 5.30845 13.3601 5.46617 13.3601 5.66003V8.47267H12.3053V6.89056C12.3053 6.59931 12.0692 6.36319 11.7779 6.36319H2.63685C2.3456 6.36319 2.10948 6.59931 2.10948 6.89056V11.7999L1.05474 13.4886V3.55055C1.05474 3.35669 1.21246 3.19897 1.40632 3.19897ZM4.47998 8.47267C4.29807 8.47267 4.12907 8.5664 4.03266 8.72068L3.16422 10.1111V7.41793H11.2506V8.47267H4.47998ZM16.9164 9.79925L13.6041 14.8011H1.47854L3.06736 12.2573C3.07988 12.2396 3.09155 12.2213 3.10185 12.202L4.77235 9.52741H16.7692C16.8606 9.52741 16.9054 9.58532 16.924 9.61988C16.9426 9.65444 16.9662 9.72374 16.9164 9.79925Z" fill="#02164F"/>
</svg>
