<svg width="22" height="22" viewBox="0 0 22 22" fill="none" xmlns="http://www.w3.org/2000/svg">
<path d="M20.6274 21.5327H13.6141C13.1099 21.5327 12.6973 21.1201 12.6973 20.6159V16.2613C12.6973 15.1611 11.8264 14.2902 10.7262 14.2902C9.62611 14.2902 8.75518 15.1611 8.75518 16.2613V20.6159C8.75518 21.1201 8.34263 21.5327 7.83841 21.5327H0.916773C0.412548 21.5327 0 21.1201 0 20.6159V8.88124C0 8.05614 0.412548 7.27688 1.05429 6.8185L10.2679 0.171895C10.5887 -0.0572983 11.0013 -0.0572983 11.3221 0.171895L20.5357 6.8185C21.1775 7.27688 21.59 8.05614 21.59 8.88124V20.6618C21.5442 21.1201 21.1316 21.5327 20.6274 21.5327ZM14.5308 19.745H19.7565V8.88124C19.7565 8.65204 19.6189 8.42285 19.4356 8.28533L10.7721 2.00544L2.10858 8.23949C1.92522 8.37701 1.78771 8.6062 1.78771 8.8354V19.6992H7.01331V16.2613C7.01331 14.1985 8.70934 12.5025 10.7721 12.5025C12.8348 12.5025 14.5308 14.1985 14.5308 16.2613V19.745Z" fill="#B3B9CA"/>
</svg>
