<svg width="20" height="20" viewBox="0 0 20 20" fill="none" xmlns="http://www.w3.org/2000/svg">
<path d="M9.69301 13.4072C9.12117 13.4072 8.6582 13.8838 8.6582 14.4557C8.6582 15.0139 9.10754 15.5041 9.69301 15.5041C10.2785 15.5041 10.7414 15.0139 10.7414 14.4557C10.7414 13.8838 10.2649 13.4072 9.69301 13.4072Z" fill="#575757"/>
<path d="M9.86984 5.46875C8.03168 5.46875 7.1875 6.55801 7.1875 7.29328C7.1875 7.82434 7.6368 8.06941 8.00445 8.06941C8.73969 8.06941 8.44016 7.02098 9.82898 7.02098C10.5098 7.02098 11.0545 7.32055 11.0545 7.94687C11.0545 8.68219 10.292 9.10426 9.84262 9.48551C9.44777 9.8259 8.93035 10.3842 8.93035 11.5552C8.93035 12.2632 9.12094 12.4674 9.67922 12.4674C10.3464 12.4674 10.4825 12.1679 10.4825 11.9092C10.4825 11.2011 10.4962 10.7927 11.2451 10.2072C11.6127 9.92125 12.7701 8.99535 12.7701 7.71543C12.7701 6.43551 11.6127 5.46875 9.86984 5.46875Z" fill="#575757"/>
<path d="M10 0C4.47328 0 0 4.47254 0 10V19.2188C0 19.6502 0.349766 20 0.78125 20H10C15.5267 20 20 15.5275 20 10C20 4.47328 15.5275 0 10 0ZM10 18.4375H1.5625V10C1.5625 5.33684 5.33621 1.5625 10 1.5625C14.6632 1.5625 18.4375 5.33621 18.4375 10C18.4375 14.6632 14.6638 18.4375 10 18.4375Z" fill="#575757"/>
</svg>
