<svg width="22" height="22" viewBox="0 0 22 22" fill="none" xmlns="http://www.w3.org/2000/svg">
<path d="M20.8535 21.7708H13.841C13.3369 21.7708 12.9244 21.3583 12.9244 20.8542V16.5C12.9244 15.4 12.0535 14.5292 10.9535 14.5292C9.85352 14.5292 8.98268 15.4 8.98268 16.5V20.8542C8.98268 21.3583 8.57018 21.7708 8.06602 21.7708H1.14518C0.641016 21.7708 0.228516 21.3583 0.228516 20.8542V9.12082C0.228516 8.29581 0.641016 7.51665 1.28268 7.05831L10.4952 0.412476C10.816 0.183309 11.2285 0.183309 11.5494 0.412476L20.7619 7.05831C21.4035 7.51665 21.816 8.29581 21.816 9.12082V20.9C21.7702 21.3583 21.3577 21.7708 20.8535 21.7708Z" fill="#02164F"/>
</svg>
