<svg width="26" height="26" viewBox="0 0 26 26" fill="none" xmlns="http://www.w3.org/2000/svg">
<path fill-rule="evenodd" clip-rule="evenodd" d="M21.3346 7.99999C21.3346 6.15916 19.8421 4.66666 18.0013 4.66666C15.2263 4.66666 10.7755 4.66666 8.0013 4.66666C6.15964 4.66666 4.66797 6.15916 4.66797 7.99999V20.5C4.66797 20.8375 4.87047 21.1408 5.18214 21.27C5.4938 21.3992 5.85214 21.3275 6.09047 21.0892C6.09047 21.0892 7.70963 19.47 8.6913 18.4883C9.0038 18.1758 9.42797 18 9.86964 18H18.0013C19.8421 18 21.3346 16.5083 21.3346 14.6667V7.99999ZM19.668 7.99999C19.668 7.07999 18.9213 6.33332 18.0013 6.33332C15.2263 6.33332 10.7755 6.33332 8.0013 6.33332C7.08047 6.33332 6.33464 7.07999 6.33464 7.99999V18.4883L7.51297 17.31C8.13797 16.685 8.98547 16.3333 9.86964 16.3333H18.0013C18.9213 16.3333 19.668 15.5875 19.668 14.6667V7.99999ZM13.8346 13.8333V11.3333C13.8346 10.8733 13.4605 10.5 13.0013 10.5C12.5413 10.5 12.168 10.8733 12.168 11.3333V13.8333C12.168 14.2933 12.5413 14.6667 13.0013 14.6667C13.4605 14.6667 13.8346 14.2933 13.8346 13.8333ZM13.0013 7.99999C13.4605 7.99999 13.8346 8.37332 13.8346 8.83332C13.8346 9.29332 13.4605 9.66666 13.0013 9.66666C12.5413 9.66666 12.168 9.29332 12.168 8.83332C12.168 8.37332 12.5413 7.99999 13.0013 7.99999Z" fill="#1D58FF"/>
</svg>
