<svg width="26" height="26" viewBox="0 0 26 26" fill="none" xmlns="http://www.w3.org/2000/svg">
<g clip-path="url(#clip0_2390_6442)">
<path d="M13.2559 26C13.1698 26 13.0837 26 12.997 25.9996C10.959 26.0045 9.07596 25.9528 7.24466 25.8413C5.5657 25.7391 4.03314 25.1589 2.81241 24.1635C1.63452 23.203 0.830154 21.9044 0.421722 20.304C0.0662537 18.9106 0.0474091 17.5429 0.0293579 16.22C0.0162658 15.2709 0.0027771 14.1461 0 13.0024C0.0027771 11.8538 0.0162658 10.7291 0.0293579 9.77994C0.0474091 8.45725 0.0662537 7.08953 0.421722 5.69602C0.830154 4.09561 1.63452 2.79692 2.81241 1.83644C4.03314 0.841052 5.5657 0.260837 7.24486 0.158679C9.07616 0.0473972 10.9596 -0.00457429 13.002 0.000384822C15.0406 -0.00397919 16.923 0.0473972 18.7543 0.158679C20.4333 0.260837 21.9659 0.841052 23.1866 1.83644C24.3647 2.79692 25.1689 4.09561 25.5773 5.69602C25.9328 7.08933 25.9516 8.45725 25.9697 9.77994C25.9827 10.7291 25.9964 11.8538 25.999 12.9976V13.0024C25.9964 14.1461 25.9827 15.2709 25.9697 16.22C25.9516 17.5427 25.933 18.9104 25.5773 20.304C25.1689 21.9044 24.3647 23.203 23.1866 24.1635C21.9659 25.1589 20.4333 25.7391 18.7543 25.8413C17.0006 25.948 15.1991 26 13.2559 26V26ZM12.997 23.9683C15.0019 23.9731 16.8427 23.9225 18.631 23.8138C19.9005 23.7366 21.0012 23.3246 21.903 22.5893C22.7365 21.9095 23.3106 20.9716 23.6091 19.8017C23.9051 18.6419 23.9221 17.3965 23.9386 16.1923C23.9515 15.2494 23.965 14.1326 23.9678 13C23.965 11.8671 23.9515 10.7505 23.9386 9.80771C23.9221 8.60344 23.9051 7.35811 23.6091 6.19808C23.3106 5.02812 22.7365 4.09026 21.903 3.41046C21.0012 2.67533 19.9005 2.26332 18.631 2.18616C16.8427 2.07726 15.0019 2.02707 13.0018 2.03144C10.9973 2.02668 9.1563 2.07726 7.36804 2.18616C6.09851 2.26332 4.99779 2.67533 4.09602 3.41046C3.2625 4.09026 2.68843 5.02812 2.38989 6.19808C2.09393 7.35811 2.07687 8.60324 2.06041 9.80771C2.04752 10.7513 2.03403 11.8687 2.03125 13.0024C2.03403 14.1311 2.04752 15.2486 2.06041 16.1923C2.07687 17.3965 2.09393 18.6419 2.38989 19.8017C2.68843 20.9716 3.2625 21.9095 4.09602 22.5893C4.99779 23.3244 6.09851 23.7365 7.36804 23.8136C9.1563 23.9225 10.9977 23.9733 12.997 23.9683V23.9683ZM12.9486 19.3476C9.44868 19.3476 6.60097 16.5001 6.60097 13C6.60097 9.49985 9.44868 6.65233 12.9486 6.65233C16.4488 6.65233 19.2963 9.49985 19.2963 13C19.2963 16.5001 16.4488 19.3476 12.9486 19.3476V19.3476ZM12.9486 8.68358C10.5686 8.68358 8.63222 10.62 8.63222 13C8.63222 15.38 10.5686 17.3164 12.9486 17.3164C15.3288 17.3164 17.265 15.38 17.265 13C17.265 10.62 15.3288 8.68358 12.9486 8.68358V8.68358ZM20.0072 4.62108C19.166 4.62108 18.4838 5.30306 18.4838 6.14452C18.4838 6.98598 19.166 7.66796 20.0072 7.66796C20.8487 7.66796 21.5307 6.98598 21.5307 6.14452C21.5307 5.30306 20.8487 4.62108 20.0072 4.62108Z" fill="#555868"/>
</g>
<defs>
<clipPath id="clip0_2390_6442">
<rect width="26" height="26" fill="white"/>
</clipPath>
</defs>
</svg>
