<svg width="45" height="44" viewBox="0 0 45 44" fill="none" xmlns="http://www.w3.org/2000/svg">
<circle cx="14.5" cy="14.5" r="14.5" fill="#1D58FF" fill-opacity="0.14"/>
<path d="M39.6562 12.2188H38.6016V11.1641C38.6016 9.4194 37.1822 8 35.4375 8H14.3438C12.5991 8 11.1797 9.4194 11.1797 11.1641V36.6172C11.1797 38.3619 12.5991 39.7812 14.3438 39.7812H15.3984V40.8359C15.3984 42.5806 16.8178 44 18.5625 44H39.6562C41.4009 44 42.8203 42.5806 42.8203 40.8359V15.3828C42.8203 13.6381 41.4009 12.2188 39.6562 12.2188ZM16.3252 16.1286C15.7275 16.7262 15.3984 17.5207 15.3984 18.3659V37.6719H14.3438C13.7622 37.6719 13.2891 37.1987 13.2891 36.6172V11.1641C13.2891 10.5825 13.7622 10.1094 14.3438 10.1094H35.4375C36.0191 10.1094 36.4922 10.5825 36.4922 11.1641V12.2188H21.5456C20.7004 12.2188 19.9059 12.5479 19.3083 13.1455L16.3252 16.1286ZM40.7109 40.8359C40.7109 41.4175 40.2378 41.8906 39.6562 41.8906H18.5625C17.9809 41.8906 17.5078 41.4175 17.5078 40.8359V20.6562H22.7812C23.3637 20.6562 23.8359 20.184 23.8359 19.6016V14.3281H39.6562C40.2378 14.3281 40.7109 14.8013 40.7109 15.3828V40.8359Z" fill="#02164F"/>
<path d="M37.5469 22.9062H20.6719C20.0894 22.9062 19.6172 23.3785 19.6172 23.9609C19.6172 24.5434 20.0894 25.0156 20.6719 25.0156H37.5469C38.1293 25.0156 38.6016 24.5434 38.6016 23.9609C38.6016 23.3785 38.1293 22.9062 37.5469 22.9062Z" fill="#02164F"/>
<path d="M37.5469 27.125H20.6719C20.0894 27.125 19.6172 27.5972 19.6172 28.1797C19.6172 28.7622 20.0894 29.2344 20.6719 29.2344H37.5469C38.1293 29.2344 38.6016 28.7622 38.6016 28.1797C38.6016 27.5972 38.1293 27.125 37.5469 27.125Z" fill="#02164F"/>
<path d="M37.5469 31.3438H20.6719C20.0894 31.3438 19.6172 31.816 19.6172 32.3984C19.6172 32.9809 20.0894 33.4531 20.6719 33.4531H37.5469C38.1293 33.4531 38.6016 32.9809 38.6016 32.3984C38.6016 31.816 38.1293 31.3438 37.5469 31.3438Z" fill="#02164F"/>
<path d="M37.5469 35.5625H20.6719C20.0894 35.5625 19.6172 36.0347 19.6172 36.6172C19.6172 37.1997 20.0894 37.6719 20.6719 37.6719H37.5469C38.1293 37.6719 38.6016 37.1997 38.6016 36.6172C38.6016 36.0347 38.1293 35.5625 37.5469 35.5625Z" fill="#02164F"/>
</svg>
