<svg width="50" height="45" viewBox="0 0 50 45" fill="none" xmlns="http://www.w3.org/2000/svg">
<circle cx="14.5" cy="14.5" r="14.5" fill="#1D58FF" fill-opacity="0.14"/>
<path d="M48.3822 22.1363L46.6215 20.3756C45.799 19.5531 44.4608 19.5533 43.6383 20.3756L39.9297 24.0843V12.1641C39.9297 10.4194 38.5103 9 36.7656 9H16.1641C14.4194 9 13 10.4194 13 12.1641V41.8359C13 43.5806 14.4194 45 16.1641 45H36.7656C38.5103 45 39.9297 43.5806 39.9297 41.8359V33.4664L48.3822 25.1195C49.2046 24.297 49.2046 22.9588 48.3822 22.1363ZM37.8203 41.8359C37.8203 42.4175 37.3472 42.8906 36.7656 42.8906H16.1641C15.5825 42.8906 15.1094 42.4175 15.1094 41.8359V12.1641C15.1094 11.5825 15.5825 11.1094 16.1641 11.1094H36.7656C37.3472 11.1094 37.8203 11.5825 37.8203 12.1641V26.1937C31.9718 32.0422 32.3537 31.622 32.2417 31.862L29.4575 37.8283C29.27 38.2302 29.3538 38.7065 29.6674 39.0201C29.981 39.3337 30.4575 39.4175 30.8592 39.23L36.8255 36.4457C37.0443 36.3436 37.0803 36.2802 37.8203 35.5494V41.8359ZM45.1895 25.3078L43.4394 23.5577L45.1299 21.8672L46.8901 23.6284L45.1895 25.3078Z" fill="#02164F"/>
<path d="M18.0547 19.1094H33.8047C34.3871 19.1094 34.8594 18.6372 34.8594 18.0547C34.8594 17.4722 34.3871 17 33.8047 17H18.0547C17.4722 17 17 17.4722 17 18.0547C17 18.6372 17.4722 19.1094 18.0547 19.1094Z" fill="#02164F"/>
<path d="M18.0547 24.7344H30.4297C31.0121 24.7344 31.4844 24.2622 31.4844 23.6797C31.4844 23.0972 31.0121 22.625 30.4297 22.625H18.0547C17.4722 22.625 17 23.0972 17 23.6797C17 24.2622 17.4722 24.7344 18.0547 24.7344Z" fill="#02164F"/>
<path d="M27.0547 28.25H18.0547C17.4722 28.25 17 28.7222 17 29.3047C17 29.8872 17.4722 30.3594 18.0547 30.3594H27.0547C27.6372 30.3594 28.1094 29.8872 28.1094 29.3047C28.1094 28.7222 27.6372 28.25 27.0547 28.25Z" fill="#02164F"/>
<path d="M47.4579 19.6619L49.3405 21.5512C50.2198 22.4338 50.2198 23.8698 49.3405 24.7523L40.3029 33.7091L38.0475 35.9442C37.2563 36.7284 37.2178 36.7965 36.9839 36.9061L30.6046 39.8938C30.175 40.095 29.6656 40.0051 29.3303 39.6685C28.995 39.332 28.9053 38.821 29.1058 38.3896L32.0828 31.9874C32.2025 31.7299 31.7942 32.1808 38.0475 25.905L40.3029 23.6415L44.2683 19.6619C45.1477 18.7794 46.5785 18.7793 47.4579 19.6619Z" fill="#02164F"/>
</svg>
