<svg width="18" height="18" viewBox="0 0 18 18" fill="none" xmlns="http://www.w3.org/2000/svg">
<path d="M9.00207 1.12454C5.90213 1.12454 3.37598 3.65189 3.37598 6.75183C3.37598 8.96165 4.70899 11.3848 5.99951 13.3205C7.29003 15.2563 8.5824 16.6878 8.5824 16.6878C8.63514 16.7462 8.69955 16.7929 8.77146 16.8248C8.84337 16.8568 8.92119 16.8734 8.99988 16.8734C9.07857 16.8734 9.15638 16.8568 9.22829 16.8248C9.3002 16.7929 9.36461 16.7462 9.41736 16.6878C9.41736 16.6878 10.7097 15.2563 12.0002 13.3205C13.2908 11.3848 14.6238 8.96165 14.6238 6.75183C14.6238 3.65189 12.102 1.12454 9.00207 1.12454ZM9.00207 2.24956C11.494 2.24956 13.4988 4.25988 13.4988 6.75183C13.4988 8.47952 12.306 10.8364 11.0653 12.6976C10.0334 14.2454 9.32016 15.0275 9.00207 15.3925C8.68468 15.0284 7.9703 14.2464 6.93774 12.6976C5.69701 10.8364 4.50098 8.47952 4.50098 6.75183C4.50098 4.25988 6.51013 2.24956 9.00207 2.24956ZM9.00207 4.50076C7.7661 4.50076 6.75098 5.51585 6.75098 6.75183C6.75098 7.9878 7.7661 9.00174 9.00207 9.00174C10.2381 9.00174 11.2521 7.9878 11.2521 6.75183C11.2521 5.51585 10.2381 4.50076 9.00207 4.50076ZM9.00207 5.62565C9.63006 5.62565 10.1271 6.12384 10.1271 6.75183C10.1271 7.37981 9.63006 7.87674 9.00207 7.87672C8.37409 7.87674 7.87707 7.37981 7.87707 6.75183C7.87707 6.12384 8.37409 5.62565 9.00207 5.62565Z" fill="#02164F"/>
</svg>
