<svg width="18" height="18" viewBox="0 0 18 18" fill="none" xmlns="http://www.w3.org/2000/svg">
<g clip-path="url(#clip0_2388_6790)">
<path d="M13.1452 2.74197H4.8547C2.17776 2.74197 0 4.91987 0 7.59668C0 10.2736 2.17776 12.4515 4.8547 12.4515H7.15152L8.53181 14.9781C8.62533 15.1493 8.80496 15.2559 9.0001 15.2559C9.19525 15.2559 9.37473 15.1493 9.46839 14.9781L10.8487 12.4515H13.1452C15.8222 12.4515 18.0001 10.2736 18.0001 7.59668C18.0001 4.91973 15.8222 2.74197 13.1452 2.74197V2.74197ZM13.1452 11.3843H10.5321C10.3371 11.3843 10.1575 11.4909 10.0638 11.6622L9.0001 13.6093L7.93622 11.6622C7.8427 11.4909 7.66321 11.3843 7.46806 11.3843H4.8547C2.76621 11.3843 1.06718 9.68531 1.06718 7.59668C1.06718 5.50818 2.76621 3.80915 4.8547 3.80915H13.1452C15.2337 3.80915 16.9327 5.50818 16.9327 7.59668C16.9327 9.68531 15.2337 11.3843 13.1452 11.3843Z" fill="#02164F"/>
<path d="M12.5787 5.28137H5.4222C5.12762 5.28137 4.88867 5.52032 4.88867 5.8149C4.88867 6.1096 5.12762 6.34856 5.4222 6.34856H12.5787C12.8734 6.34856 13.1122 6.1096 13.1122 5.8149C13.1122 5.52032 12.8733 5.28137 12.5787 5.28137Z" fill="#02164F"/>
<path d="M12.5787 7.0639H5.4222C5.12762 7.0639 4.88867 7.30286 4.88867 7.59743C4.88867 7.89214 5.12762 8.13109 5.4222 8.13109H12.5787C12.8734 8.13109 13.1122 7.89214 13.1122 7.59743C13.1122 7.30286 12.8733 7.0639 12.5787 7.0639Z" fill="#02164F"/>
<path d="M10.3722 8.84561H5.4222C5.12762 8.84561 4.88867 9.08456 4.88867 9.37927C4.88867 9.67384 5.12762 9.9128 5.4222 9.9128H10.3722C10.6668 9.9128 10.9057 9.67384 10.9057 9.37927C10.9057 9.08456 10.6668 8.84561 10.3722 8.84561Z" fill="#02164F"/>
</g>
<defs>
<clipPath id="clip0_2388_6790">
<rect width="18" height="18" fill="white"/>
</clipPath>
</defs>
</svg>
