<svg width="20" height="20" viewBox="0 0 20 20" fill="none" xmlns="http://www.w3.org/2000/svg">
<path d="M9.69301 13.407C9.12117 13.407 8.6582 13.8836 8.6582 14.4555C8.6582 15.0137 9.10754 15.5039 9.69301 15.5039C10.2785 15.5039 10.7414 15.0138 10.7414 14.4555C10.7414 13.8836 10.2649 13.407 9.69301 13.407Z" fill="#1D58FF"/>
<path d="M9.86984 5.46884C8.03168 5.46884 7.1875 6.5581 7.1875 7.29337C7.1875 7.82443 7.6368 8.06951 8.00445 8.06951C8.73969 8.06951 8.44016 7.02107 9.82898 7.02107C10.5098 7.02107 11.0545 7.32064 11.0545 7.94697C11.0545 8.68228 10.292 9.10435 9.84262 9.4856C9.44777 9.82599 8.93035 10.3843 8.93035 11.5552C8.93035 12.2633 9.12094 12.4675 9.67922 12.4675C10.3464 12.4675 10.4825 12.168 10.4825 11.9093C10.4825 11.2012 10.4962 10.7927 11.2451 10.2073C11.6127 9.92134 12.7701 8.99544 12.7701 7.71552C12.7701 6.4356 11.6127 5.46884 9.86984 5.46884Z" fill="#1D58FF"/>
<path d="M10 0C4.47328 0 0 4.47254 0 10V19.2188C0 19.6502 0.349766 20 0.78125 20H10C15.5267 20 20 15.5275 20 10C20 4.47328 15.5275 0 10 0ZM10 18.4375H1.5625V10C1.5625 5.33684 5.33621 1.5625 10 1.5625C14.6632 1.5625 18.4375 5.33621 18.4375 10C18.4375 14.6632 14.6638 18.4375 10 18.4375Z" fill="#1D58FF"/>
</svg>
