<svg width="20" height="20" viewBox="0 0 20 20" fill="none" xmlns="http://www.w3.org/2000/svg">
<path d="M12.4994 18.3332H11.2327C10.983 18.333 10.7366 18.2768 10.5116 18.1686C10.2866 18.0604 10.0887 17.9031 9.93268 17.7082L7.09935 14.1665H3.33268C2.89066 14.1665 2.46673 13.9909 2.15417 13.6784C1.84161 13.3658 1.66602 12.9419 1.66602 12.4998V7.49984C1.66602 7.05781 1.84161 6.63389 2.15417 6.32133C2.46673 6.00877 2.89066 5.83317 3.33268 5.83317H7.09935L9.93268 2.2915C10.0887 2.09661 10.2866 1.93926 10.5116 1.83108C10.7366 1.7229 10.983 1.66666 11.2327 1.6665H12.4994C12.9414 1.6665 13.3653 1.8421 13.6779 2.15466C13.9904 2.46722 14.166 2.89114 14.166 3.33317V16.6665C14.166 17.1085 13.9904 17.5325 13.6779 17.845C13.3653 18.1576 12.9414 18.3332 12.4994 18.3332ZM3.33268 7.49984V12.4998H7.09935C7.34902 12.5 7.59546 12.5562 7.82047 12.6644C8.04548 12.7726 8.24331 12.9299 8.39935 13.1248L11.2327 16.6665H12.4994V3.33317H11.2327L8.39935 6.87484C8.24331 7.06973 8.04548 7.22708 7.82047 7.33526C7.59546 7.44344 7.34902 7.49968 7.09935 7.49984H3.33268Z" fill="#575757"/>
<path d="M15.5414 14.0583C15.4633 13.9809 15.4013 13.8887 15.359 13.7871C15.3167 13.6856 15.2949 13.5767 15.2949 13.4667C15.2949 13.3567 15.3167 13.2477 15.359 13.1462C15.4013 13.0446 15.4633 12.9525 15.5414 12.875C16.2801 12.1001 16.6922 11.0706 16.6922 10C16.6922 8.92941 16.2801 7.89991 15.5414 7.12501C15.4654 7.04621 15.4056 6.95321 15.3655 6.85131C15.3253 6.74941 15.3057 6.6406 15.3076 6.53111C15.3096 6.42161 15.333 6.31357 15.3767 6.21315C15.4204 6.11273 15.4835 6.0219 15.5623 5.94584C15.641 5.86978 15.734 5.80999 15.8359 5.76988C15.9379 5.72976 16.0467 5.71011 16.1562 5.71204C16.2656 5.71398 16.3737 5.73746 16.4741 5.78115C16.5745 5.82484 16.6654 5.88788 16.7414 5.96667C17.7705 7.05666 18.3405 8.50099 18.3331 10C18.3421 11.5016 17.7616 12.9468 16.7164 14.025C16.5647 14.1847 16.356 14.2779 16.1358 14.2841C15.9156 14.2904 15.7019 14.2092 15.5414 14.0583Z" fill="#575757"/>
</svg>
