<svg width="20" height="20" viewBox="0 0 20 20" fill="none" xmlns="http://www.w3.org/2000/svg">
<path fill-rule="evenodd" clip-rule="evenodd" d="M19.9675 0.991919C20.049 0.720427 19.9748 0.426122 19.7743 0.225678C19.5738 0.0252422 19.2795 -0.0489097 19.008 0.0325021L1.43447 5.3046C0.577079 5.56179 0 6.33744 0 7.2328C0 8.1179 0.593613 8.9049 1.44471 9.14808L8.76143 11.2386L10.8519 18.5553C11.0951 19.4064 11.8821 20 12.7675 20C13.6626 20 14.4382 19.4229 14.6954 18.5655L19.9675 0.991919ZM1.87727 6.78067L16.5236 2.38677L9.16046 9.74989L1.86805 7.66635C1.67602 7.61144 1.54105 7.43261 1.54105 7.23253C1.54105 7.0219 1.67551 6.84119 1.87727 6.78067ZM12.3337 18.1319L10.2501 10.8395L17.6133 3.47641L13.2194 18.1227C13.1589 18.3244 12.9782 18.4589 12.7672 18.4589C12.5674 18.4589 12.3886 18.324 12.3337 18.1319Z" fill="#808080"/>
</svg>
