<svg width="20" height="20" viewBox="0 0 20 20" fill="none" xmlns="http://www.w3.org/2000/svg">
<path d="M2.69375 1.425H6.68125C7.38196 1.425 7.95 1.99304 7.95 2.69375V6.68125C7.95 7.38196 7.38196 7.95 6.68125 7.95H2.69375C1.99304 7.95 1.425 7.38196 1.425 6.68125V2.69375C1.425 1.99304 1.99304 1.425 2.69375 1.425Z" stroke="#575757" stroke-width="1.6"/>
<path d="M13.3187 1.425H17.3063C18.007 1.425 18.575 1.99304 18.575 2.69375V6.68125C18.575 7.38196 18.007 7.95 17.3063 7.95H13.3187C12.618 7.95 12.05 7.38196 12.05 6.68125V2.69375C12.05 1.99304 12.618 1.425 13.3187 1.425Z" stroke="#575757" stroke-width="1.6"/>
<path d="M2.69375 12.05H6.68125C7.38196 12.05 7.95 12.618 7.95 13.3187V17.3063C7.95 18.007 7.38196 18.575 6.68125 18.575H2.69375C1.99304 18.575 1.425 18.007 1.425 17.3063V13.3187C1.425 12.618 1.99304 12.05 2.69375 12.05Z" stroke="#575757" stroke-width="1.6"/>
<path d="M18.575 15.3125C18.575 17.1143 17.1143 18.575 15.3125 18.575C13.5107 18.575 12.05 17.1143 12.05 15.3125C12.05 13.5107 13.5107 12.05 15.3125 12.05C17.1143 12.05 18.575 13.5107 18.575 15.3125Z" stroke="#575757" stroke-width="1.6"/>
</svg>
