<svg width="24" height="24" viewBox="0 0 24 24" fill="none" xmlns="http://www.w3.org/2000/svg">
<circle cx="12" cy="12" r="12" fill="#CED4E3"/>
<circle cx="11.9997" cy="12" r="8.76923" fill="#02164F"/>
<g clip-path="url(#clip0_2390_6528)">
<path d="M12.0003 2.76962C6.90282 2.76962 2.76953 6.9021 2.76953 12C2.76953 17.0979 6.90241 21.2303 12.0003 21.2303C17.0986 21.2303 21.2311 17.0979 21.2311 12C21.2311 6.9021 17.0986 2.76962 12.0003 2.76962ZM12.0003 5.52961C13.687 5.52961 15.0538 6.89683 15.0538 8.58274C15.0538 10.2691 13.687 11.6359 12.0003 11.6359C10.3144 11.6359 8.94757 10.2691 8.94757 8.58274C8.94757 6.89683 10.3144 5.52961 12.0003 5.52961ZM11.9983 18.817C10.316 18.817 8.77525 18.2044 7.58684 17.1903C7.29734 16.9434 7.13028 16.5813 7.13028 16.2014C7.13028 14.4916 8.51413 13.1231 10.2244 13.1231H13.777C15.4877 13.1231 16.8663 14.4916 16.8663 16.2014C16.8663 16.5817 16.7 16.943 16.4101 17.1899C15.2221 18.2044 13.6809 18.817 11.9983 18.817Z" fill="#CFD4E3"/>
</g>
<defs>
<clipPath id="clip0_2390_6528">
<rect width="18.4615" height="18.4615" fill="white" transform="translate(2.76953 2.76923)"/>
</clipPath>
</defs>
</svg>
