<svg width="52" height="52" viewBox="0 0 52 52" fill="none" xmlns="http://www.w3.org/2000/svg">
<circle cx="26" cy="26" r="26" fill="#CED4E3"/>
<circle cx="26" cy="26" r="19" fill="#02164F"/>
<path d="M26 6.00089C14.9555 6.00089 6 14.9546 6 26C6 37.0454 14.9546 45.9991 26 45.9991C37.0463 45.9991 46 37.0454 46 26C46 14.9546 37.0463 6.00089 26 6.00089ZM26 11.9809C29.6546 11.9809 32.616 14.9432 32.616 18.596C32.616 22.2497 29.6546 25.2111 26 25.2111C22.3472 25.2111 19.3858 22.2497 19.3858 18.596C19.3858 14.9432 22.3472 11.9809 26 11.9809ZM25.9956 40.7703C22.3507 40.7703 19.0124 39.4429 16.4375 37.2457C15.8102 36.7107 15.4483 35.9262 15.4483 35.1031C15.4483 31.3984 18.4466 28.4335 22.1522 28.4335H29.8496C33.556 28.4335 36.5429 31.3984 36.5429 35.1031C36.5429 35.9271 36.1827 36.7098 35.5546 37.2448C32.9806 39.4429 29.6414 40.7703 25.9956 40.7703Z" fill="#CFD4E3"/>
</svg>
