<svg width="15" height="17" viewBox="0 0 15 17" fill="none" xmlns="http://www.w3.org/2000/svg">
<path d="M13.797 7.493C13.797 8.075 13.737 8.633 13.617 9.167C13.497 9.695 13.323 10.19 13.095 10.652C12.873 11.114 12.6 11.54 12.276 11.93C11.952 12.314 11.583 12.653 11.169 12.947L14.472 16.547H12.474C12.186 16.547 11.925 16.508 11.691 16.43C11.463 16.352 11.253 16.208 11.061 15.998L9.153 13.892C8.847 13.976 8.532 14.039 8.208 14.081C7.89 14.123 7.557 14.144 7.209 14.144C6.225 14.144 5.325 13.979 4.509 13.649C3.699 13.313 3.003 12.848 2.421 12.254C1.845 11.66 1.398 10.958 1.08 10.148C0.762 9.332 0.603 8.447 0.603 7.493C0.603 6.539 0.762 5.657 1.08 4.847C1.398 4.031 1.845 3.326 2.421 2.732C3.003 2.138 3.699 1.676 4.509 1.346C5.325 1.01 6.225 0.842 7.209 0.842C8.193 0.842 9.09 1.01 9.9 1.346C10.71 1.682 11.403 2.147 11.979 2.741C12.555 3.329 13.002 4.031 13.32 4.847C13.638 5.657 13.797 6.539 13.797 7.493ZM11.313 7.493C11.313 6.779 11.217 6.14 11.025 5.576C10.839 5.006 10.569 4.523 10.215 4.127C9.861 3.731 9.429 3.428 8.919 3.218C8.415 3.008 7.845 2.903 7.209 2.903C6.573 2.903 6 3.008 5.49 3.218C4.98 3.428 4.545 3.731 4.185 4.127C3.831 4.523 3.558 5.006 3.366 5.576C3.174 6.14 3.078 6.779 3.078 7.493C3.078 8.207 3.174 8.849 3.366 9.419C3.558 9.983 3.831 10.463 4.185 10.859C4.545 11.249 4.98 11.549 5.49 11.759C6 11.969 6.573 12.074 7.209 12.074C7.845 12.074 8.415 11.969 8.919 11.759C9.429 11.549 9.861 11.249 10.215 10.859C10.569 10.463 10.839 9.983 11.025 9.419C11.217 8.849 11.313 8.207 11.313 7.493Z" fill="#41495D"/>
</svg>
