<svg width="22" height="22" viewBox="0 0 22 22" fill="none" xmlns="http://www.w3.org/2000/svg">
<path d="M14.3923 10.7406C15.2942 10.0353 15.9535 9.06619 16.2783 7.96834C16.6031 6.87049 16.5773 5.69865 16.2043 4.61621C15.8313 3.53378 15.1299 2.59472 14.1977 1.92998C13.2656 1.26524 12.1492 0.907959 11.0043 0.907959C9.85943 0.907959 8.74308 1.26524 7.81093 1.92998C6.87879 2.59472 6.17732 3.53378 5.80435 4.61621C5.43138 5.69865 5.40549 6.87049 5.73031 7.96834C6.05512 9.06619 6.71444 10.0353 7.61632 10.7406C5.91239 11.4185 4.45076 12.5916 3.42006 14.1084C2.38936 15.6252 1.8369 17.4161 1.83398 19.25V20.1666C1.83398 20.4097 1.93056 20.6429 2.10247 20.8148C2.27438 20.9867 2.50754 21.0833 2.75065 21.0833H19.2507C19.4938 21.0833 19.7269 20.9867 19.8988 20.8148C20.0707 20.6429 20.1673 20.4097 20.1673 20.1666V19.25C20.165 17.417 19.6136 15.6267 18.5843 14.11C17.555 12.5933 16.0949 11.4197 14.3923 10.7406ZM7.33399 6.41664C7.33399 5.69144 7.54903 4.98253 7.95193 4.37955C8.35483 3.77657 8.92748 3.30661 9.59748 3.02909C10.2675 2.75157 11.0047 2.67895 11.716 2.82043C12.4272 2.96191 13.0806 3.31113 13.5934 3.82392C14.1062 4.33671 14.4554 4.99005 14.5969 5.70131C14.7383 6.41258 14.6657 7.14982 14.3882 7.81981C14.1107 8.48981 13.6407 9.06246 13.0377 9.46536C12.4348 9.86826 11.7259 10.0833 11.0007 10.0833C10.0282 10.0833 9.09556 9.697 8.40793 9.00937C7.72029 8.32173 7.33399 7.3891 7.33399 6.41664ZM3.66732 19.25C3.66732 17.305 4.43994 15.4398 5.8152 14.0645C7.19047 12.6893 9.05573 11.9166 11.0007 11.9166C12.9456 11.9166 14.8108 12.6893 16.1861 14.0645C17.5614 15.4398 18.334 17.305 18.334 19.25H3.66732Z" fill="#B3B9CA"/>
</svg>
