<svg width="16" height="17" viewBox="0 0 16 17" fill="none" xmlns="http://www.w3.org/2000/svg">
<g clip-path="url(#clip0_2388_6594)">
<path d="M13.1383 3.54872L10.4717 0.882032C10.4716 0.881907 10.4714 0.881844 10.4713 0.881719C10.4559 0.866313 10.4397 0.851719 10.4228 0.837876C10.4151 0.831532 10.407 0.826032 10.3991 0.820094C10.3896 0.813001 10.3803 0.805657 10.3704 0.799063C10.3609 0.792719 10.3511 0.787219 10.3413 0.781407C10.3324 0.776063 10.3237 0.770469 10.3145 0.765532C10.3046 0.760219 10.2944 0.755719 10.2842 0.750938C10.2746 0.746407 10.2652 0.741626 10.2554 0.737532C10.2455 0.733469 10.2355 0.730157 10.2255 0.726594C10.2149 0.722813 10.2046 0.718782 10.1938 0.715532C10.1838 0.7125 10.1736 0.710282 10.1635 0.70775C10.1526 0.704969 10.1417 0.701907 10.1306 0.699688C10.1188 0.697375 10.107 0.695969 10.0953 0.694282C10.0855 0.692907 10.076 0.691032 10.0661 0.690063C10.0223 0.68575 9.97825 0.68575 9.9345 0.690063C9.92466 0.691032 9.91509 0.692875 9.90534 0.694282C9.89356 0.695969 9.88172 0.697344 9.87003 0.699688C9.85884 0.701907 9.84803 0.704969 9.83706 0.70775C9.82694 0.710282 9.81678 0.7125 9.80678 0.715532C9.79603 0.718782 9.78563 0.722813 9.77513 0.726594C9.76513 0.730188 9.75506 0.733469 9.74522 0.737532C9.73538 0.741594 9.72597 0.746407 9.71638 0.750938C9.70625 0.755719 9.69603 0.760219 9.68609 0.765532C9.67691 0.770469 9.66819 0.776063 9.65925 0.781407C9.6495 0.787219 9.63966 0.792719 9.63016 0.799063C9.62028 0.805657 9.61103 0.813001 9.60153 0.820094C9.59359 0.826032 9.58547 0.831532 9.57775 0.837876C9.56088 0.851719 9.54466 0.866313 9.52925 0.881719C9.52913 0.881844 9.529 0.881907 9.52891 0.882032L6.86225 3.54869C6.60191 3.80903 6.60191 4.23116 6.86225 4.4915C7.12259 4.75185 7.54472 4.75185 7.80506 4.4915L9.33366 2.96291V10.6868C9.33366 11.055 9.63213 11.3534 10.0003 11.3534C10.3685 11.3534 10.667 11.055 10.667 10.6868V2.96294L12.1956 4.49153C12.4559 4.75188 12.878 4.75188 13.1384 4.49153C13.3987 4.23116 13.3987 3.80906 13.1383 3.54872Z" fill="#7C8094"/>
<path d="M8.19556 12.882L6.66697 14.4106V6.6868C6.66697 6.31861 6.3685 6.02014 6.00031 6.02014C5.63212 6.02014 5.33365 6.31861 5.33365 6.6868V14.4106L3.80506 12.882C3.54472 12.6217 3.12259 12.6217 2.86225 12.882C2.60191 13.1424 2.60191 13.5645 2.86225 13.8249L5.5289 16.4915C5.52903 16.4916 5.52915 16.4917 5.52928 16.4918C5.54469 16.5072 5.5609 16.5218 5.57775 16.5357C5.58547 16.542 5.59362 16.5475 5.60156 16.5535C5.61103 16.5606 5.62031 16.5679 5.63015 16.5745C5.63965 16.5808 5.6495 16.5863 5.65925 16.5922C5.66819 16.5975 5.6769 16.6031 5.68609 16.608C5.69603 16.6133 5.70625 16.6178 5.7164 16.6226C5.72597 16.6271 5.7354 16.6319 5.74522 16.636C5.75506 16.64 5.76512 16.6433 5.77512 16.6469C5.78565 16.6507 5.79603 16.6547 5.80678 16.658C5.81678 16.661 5.82694 16.6632 5.83706 16.6658C5.84803 16.6685 5.85887 16.6716 5.87006 16.6738C5.88178 16.6761 5.89359 16.6775 5.90537 16.6792C5.91509 16.6806 5.92469 16.6824 5.93453 16.6834C5.97828 16.6877 6.02237 16.6877 6.06612 16.6834C6.07597 16.6824 6.08553 16.6806 6.09528 16.6792C6.10706 16.6775 6.1189 16.6761 6.13059 16.6738C6.14178 16.6716 6.15259 16.6685 6.16356 16.6657C6.17368 16.6632 6.18384 16.661 6.19384 16.6579C6.20459 16.6547 6.215 16.6507 6.2255 16.6469C6.2355 16.6433 6.24556 16.64 6.2554 16.6359C6.26522 16.6319 6.27462 16.6271 6.28418 16.6226C6.29434 16.6178 6.30459 16.6133 6.31453 16.6079C6.32368 16.603 6.3324 16.5974 6.34131 16.5921C6.35106 16.5863 6.36093 16.5808 6.37043 16.5744C6.38028 16.5678 6.38953 16.5605 6.39897 16.5535C6.40693 16.5475 6.41509 16.542 6.42284 16.5356C6.43956 16.5219 6.45565 16.5074 6.47097 16.4921C6.47122 16.4919 6.47147 16.4917 6.47168 16.4915L9.13834 13.8248C9.39868 13.5645 9.39868 13.1424 9.13834 12.882C8.87799 12.6217 8.45593 12.6217 8.19556 12.882Z" fill="#7C8094"/>
</g>
<defs>
<clipPath id="clip0_2388_6594">
<rect width="16" height="16" fill="white" transform="translate(0 0.686768)"/>
</clipPath>
</defs>
</svg>
