<svg width="52" height="52" viewBox="0 0 52 52" fill="none" xmlns="http://www.w3.org/2000/svg">
<rect x="0.5" y="0.5" width="51" height="51" rx="18.5" stroke="#7C8094"/>
<g clip-path="url(#clip0_3671_3184)">
<path d="M33.3344 17.7781C31.0088 15.4525 27.2242 15.452 24.898 17.7782L16.9119 25.7642C16.6268 26.0493 16.6268 26.5107 16.9119 26.7958C17.1969 27.0808 17.6582 27.0808 17.9433 26.7957L25.9294 18.8096C27.6865 17.0525 30.5455 17.0521 32.303 18.8096C34.0606 20.5673 34.0602 23.4262 32.3031 25.1833L24.0697 33.4168C22.9267 34.5597 21.0662 34.5598 19.923 33.4166C19.9145 33.4081 19.9023 33.405 19.8934 33.397C19.8848 33.3874 19.8822 33.3758 19.8732 33.3668C18.73 32.2236 18.7301 30.3632 19.8731 29.2202L24.812 24.2813C25.369 23.7243 26.2744 23.7243 26.8313 24.2812C27.3884 24.8383 27.3884 25.7437 26.8314 26.3007L22.1399 30.9922C21.8548 31.2773 21.8552 31.7391 22.1398 32.0237C22.4243 32.3082 22.8862 32.3088 23.1713 32.0237L27.8628 27.3322C28.9884 26.2066 28.9884 24.3754 27.8628 23.2498C26.7373 22.1243 24.9061 22.1243 23.7805 23.2499L18.8417 28.1888C17.13 29.9004 17.1295 32.6859 18.8417 34.3982C18.8508 34.4072 18.8624 34.4097 18.872 34.4183C18.8799 34.4273 18.8831 34.4395 18.8915 34.448C20.6034 36.1598 23.3892 36.1597 25.1009 34.448L33.3343 26.2146C35.6606 23.8884 35.66 20.1038 33.3344 17.7781Z" fill="#555868"/>
</g>
<defs>
<clipPath id="clip0_3671_3184">
<rect width="22" height="22" fill="white" transform="translate(25.5566 10) rotate(45)"/>
</clipPath>
</defs>
</svg>
