<svg width="16" height="17" viewBox="0 0 16 17" fill="none" xmlns="http://www.w3.org/2000/svg">
<path d="M8.0385 14.9999C7.49444 14.9999 6.98243 14.7877 6.59691 14.403C6.21225 14.0184 6 13.5063 6 12.9614C6 12.7769 6.02512 12.5941 6.07364 12.4182C6.15507 12.1228 6.46089 11.9504 6.75545 12.0318C7.05087 12.1133 7.22327 12.4191 7.14184 12.7136C7.11931 12.7942 7.23047 12.4422 7.23047 12.5262C7.23047 13.0391 7.18244 7.99994 7.69531 7.99994C8.20819 7.99994 8.91474 13.0391 8.91474 12.5262C9.14284 11.0647 8.95595 12.7933 8.93343 12.7136C8.85199 12.4182 9.02526 12.1133 9.31982 12.0318C9.61524 11.9504 9.92019 12.1237 10.0016 12.4182C10.0501 12.595 10.0753 12.7777 10.0753 12.9614C10.0753 13.5055 9.86301 14.0175 9.47836 14.403C9.0937 14.7885 8.58256 14.9999 8.0385 14.9999Z" fill="#C4C4C4"/>
<path d="M13.1429 12.8984H2.55446C2.24864 12.8984 2 12.6497 2 12.3439C2 11.6968 2.25211 11.0877 2.70953 10.6303C2.88627 10.4536 3.08899 10.3054 3.31077 10.1902C3.43033 10.1287 3.50397 10.0039 3.50397 9.86532V6.56369C3.50397 6.0075 3.61313 5.46777 3.82798 4.95923C4.0359 4.46801 4.33306 4.02791 4.71078 3.64932C5.08937 3.27073 5.52947 2.97357 6.02069 2.76652C6.52923 2.55166 7.06896 2.4425 7.62515 2.4425H8.07132C8.62751 2.4425 9.16724 2.55166 9.67578 2.76652C10.167 2.97444 10.6071 3.27159 10.9857 3.64932C11.3643 4.02791 11.6614 4.46801 11.8685 4.95923C12.0833 5.46777 12.1925 6.0075 12.1925 6.56369V9.86532C12.1925 10.0031 12.2705 10.1295 12.397 10.1963C12.7825 10.3981 13.1074 10.7005 13.3369 11.0713C13.5726 11.4533 13.6973 11.8934 13.6973 12.3439C13.6973 12.6506 13.4496 12.8984 13.1429 12.8984Z" fill="#C4C4C4"/>
<path d="M7.85328 3.55137C7.54747 3.55137 7.29883 3.30273 7.29883 2.99692V1.55446C7.29883 1.24864 7.54747 1 7.85328 1C8.1591 1 8.40774 1.24864 8.40774 1.55446V2.99692C8.40774 3.3036 8.1591 3.55137 7.85328 3.55137Z" fill="#C4C4C4"/>
<path d="M13.4042 5.6175C13.6146 5.40703 13.7683 5.1464 13.8288 4.87562C13.8877 4.61185 13.8682 4.26085 13.6074 4.00005C13.3466 3.73924 12.9956 3.71981 12.7318 3.77869C12.4611 3.83914 12.2004 3.99282 11.99 4.20328L2.27654 13.9167C2.06608 14.1272 1.9124 14.3878 1.85195 14.6586C1.79306 14.9224 1.8125 15.2734 2.0733 15.5342C2.33411 15.795 2.68511 15.8144 2.94888 15.7555C3.21966 15.6951 3.48029 15.5414 3.69075 15.3309L13.4042 5.6175Z" fill="#C4C4C4" stroke="white" stroke-linecap="round"/>
</svg>
