<svg width="32" height="32" viewBox="0 0 32 32" fill="none" xmlns="http://www.w3.org/2000/svg">
<path d="M25.0046 25.95L25.0049 25.95C25.2713 25.95 25.5271 25.8455 25.7172 25.6589C25.9073 25.4724 26.0165 25.2188 26.0216 24.9525V11.2642C26.0216 10.5786 25.8864 9.89981 25.6237 9.26655C25.3611 8.6333 24.9761 8.05806 24.4909 7.57375C24.0057 7.08944 23.4297 6.70557 22.796 6.4441C22.1622 6.18264 21.4832 6.04872 20.7976 6.05001L20.7975 6.05001L10.2691 6.05001C8.88624 6.05001 7.55999 6.59936 6.58214 7.57721C5.60429 8.55506 5.05494 9.88131 5.05494 11.2642V13.3679V13.3728L5.0547 13.3727C5.04115 13.5125 5.05697 13.6535 5.10116 13.7868C5.14535 13.9201 5.21693 14.0426 5.3113 14.1466C5.40567 14.2506 5.52075 14.3337 5.64913 14.3905C5.77752 14.4474 5.91638 14.4767 6.05679 14.4767C6.1972 14.4767 6.33606 14.4474 6.46444 14.3905C6.59283 14.3337 6.7079 14.2506 6.80227 14.1466C6.89664 14.0426 6.96823 13.9201 7.01242 13.7868C7.05661 13.6535 7.07243 13.5125 7.05887 13.3727L7.0584 13.3679H7.05864V11.2642C7.05864 10.4127 7.39689 9.59612 7.99897 8.99404C8.60105 8.39196 9.41765 8.05371 10.2691 8.05371H20.7975C21.649 8.05371 22.4656 8.39196 23.0677 8.99404C23.6697 9.59612 24.008 10.4127 24.008 11.2642V22.8296V22.9296L23.928 22.8696L21.3997 20.9734L25.0046 25.95ZM25.0046 25.95C24.7879 25.9513 24.5766 25.882 24.4028 25.7526L25.0046 25.95ZM20.4389 22.7796L20.4522 22.7896L24.4027 25.7525L20.4389 22.7796ZM20.4389 22.7796H20.4222M20.4389 22.7796H20.4222M20.4222 22.7796H18.6839V22.7794M20.4222 22.7796L18.6839 22.7794M18.6839 22.7794L18.6791 22.7798M18.6839 22.7794L18.6791 22.7798M18.6791 22.7798C18.5393 22.7934 18.3983 22.7776 18.265 22.7334C18.1317 22.6892 18.0092 22.6176 17.9052 22.5232C17.8013 22.4289 17.7182 22.3138 17.6613 22.1854C17.6045 22.057 17.5751 21.9182 17.5751 21.7778C17.5751 21.6374 17.6045 21.4985 17.6613 21.3701C17.7182 21.2417 17.8013 21.1266 17.9052 21.0323C18.0092 20.9379 18.1317 20.8663 18.265 20.8221C18.3983 20.7779 18.5393 20.7621 18.6791 20.7757L18.6791 20.7759M18.6791 22.7798L18.6791 20.7759M18.6791 20.7759H18.6839M18.6791 20.7759H18.6839M18.6839 20.7759L20.7975 20.7759L20.7978 20.7759M18.6839 20.7759L20.7978 20.7759M20.7978 20.7759C21.0145 20.7746 21.2258 20.8439 21.3996 20.9733L20.7978 20.7759Z" fill="#02164F" stroke="white" stroke-width="0.1"/>
<mask id="path-2-inside-1_2529_6576" fill="white">
<path fill-rule="evenodd" clip-rule="evenodd" d="M9.31042 21.5502V23.7173C9.29576 23.8684 9.31287 24.021 9.36066 24.1651C9.40844 24.3092 9.48584 24.4417 9.58788 24.5541C9.68993 24.6665 9.81436 24.7564 9.95318 24.8179C10.092 24.8793 10.2422 24.9111 10.394 24.9111C10.5458 24.9111 10.696 24.8793 10.8348 24.8179C10.9736 24.7564 11.098 24.6665 11.2001 24.5541C11.3021 24.4417 11.3795 24.3092 11.4273 24.1651C11.4751 24.021 11.4922 23.8684 11.4775 23.7173V21.5502H13.6443C13.7954 21.5649 13.948 21.5478 14.0921 21.5C14.2362 21.4522 14.3687 21.3748 14.4811 21.2727C14.5935 21.1707 14.6834 21.0463 14.7449 20.9075C14.8063 20.7686 14.8381 20.6185 14.8381 20.4667C14.8381 20.3148 14.8063 20.1647 14.7449 20.0259C14.6834 19.887 14.5935 19.7626 14.4811 19.6606C14.3687 19.5585 14.2362 19.4811 14.0921 19.4333C13.948 19.3855 13.7954 19.3684 13.6443 19.3831L11.4775 19.3831V17.216C11.4922 17.0649 11.4751 16.9124 11.4273 16.7682C11.3795 16.6241 11.3021 16.4916 11.2001 16.3792C11.098 16.2668 10.9736 16.1769 10.8348 16.1155C10.696 16.054 10.5458 16.0222 10.394 16.0222C10.2422 16.0222 10.092 16.054 9.95318 16.1155C9.81436 16.1769 9.68993 16.2668 9.58788 16.3792C9.48584 16.4916 9.40844 16.6241 9.36066 16.7682C9.31287 16.9124 9.29576 17.0649 9.31042 17.216V19.3831L7.14298 19.3831C6.99187 19.3684 6.83935 19.3855 6.69524 19.4333C6.55113 19.4811 6.4186 19.5585 6.30618 19.6606C6.19376 19.7626 6.10393 19.887 6.04245 20.0259C5.98098 20.1647 5.94922 20.3148 5.94922 20.4667C5.94922 20.6185 5.98098 20.7686 6.04245 20.9075C6.10393 21.0463 6.19376 21.1707 6.30618 21.2727C6.4186 21.3748 6.55113 21.4522 6.69524 21.5C6.83935 21.5478 6.99187 21.5649 7.14298 21.5502H9.31042Z"/>
</mask>
<path fill-rule="evenodd" clip-rule="evenodd" d="M9.31042 21.5502V23.7173C9.29576 23.8684 9.31287 24.021 9.36066 24.1651C9.40844 24.3092 9.48584 24.4417 9.58788 24.5541C9.68993 24.6665 9.81436 24.7564 9.95318 24.8179C10.092 24.8793 10.2422 24.9111 10.394 24.9111C10.5458 24.9111 10.696 24.8793 10.8348 24.8179C10.9736 24.7564 11.098 24.6665 11.2001 24.5541C11.3021 24.4417 11.3795 24.3092 11.4273 24.1651C11.4751 24.021 11.4922 23.8684 11.4775 23.7173V21.5502H13.6443C13.7954 21.5649 13.948 21.5478 14.0921 21.5C14.2362 21.4522 14.3687 21.3748 14.4811 21.2727C14.5935 21.1707 14.6834 21.0463 14.7449 20.9075C14.8063 20.7686 14.8381 20.6185 14.8381 20.4667C14.8381 20.3148 14.8063 20.1647 14.7449 20.0259C14.6834 19.887 14.5935 19.7626 14.4811 19.6606C14.3687 19.5585 14.2362 19.4811 14.0921 19.4333C13.948 19.3855 13.7954 19.3684 13.6443 19.3831L11.4775 19.3831V17.216C11.4922 17.0649 11.4751 16.9124 11.4273 16.7682C11.3795 16.6241 11.3021 16.4916 11.2001 16.3792C11.098 16.2668 10.9736 16.1769 10.8348 16.1155C10.696 16.054 10.5458 16.0222 10.394 16.0222C10.2422 16.0222 10.092 16.054 9.95318 16.1155C9.81436 16.1769 9.68993 16.2668 9.58788 16.3792C9.48584 16.4916 9.40844 16.6241 9.36066 16.7682C9.31287 16.9124 9.29576 17.0649 9.31042 17.216V19.3831L7.14298 19.3831C6.99187 19.3684 6.83935 19.3855 6.69524 19.4333C6.55113 19.4811 6.4186 19.5585 6.30618 19.6606C6.19376 19.7626 6.10393 19.887 6.04245 20.0259C5.98098 20.1647 5.94922 20.3148 5.94922 20.4667C5.94922 20.6185 5.98098 20.7686 6.04245 20.9075C6.10393 21.0463 6.19376 21.1707 6.30618 21.2727C6.4186 21.3748 6.55113 21.4522 6.69524 21.5C6.83935 21.5478 6.99187 21.5649 7.14298 21.5502H9.31042Z" fill="#02164F"/>
<path d="M9.31042 23.7173L9.50949 23.7366L9.51042 23.727V23.7173H9.31042ZM9.31042 21.5502H9.51042V21.3502H9.31042V21.5502ZM9.95318 24.8179L10.0342 24.635L9.95318 24.8179ZM10.8348 24.8179L10.7538 24.635L10.8348 24.8179ZM11.4273 24.1651L11.2375 24.1021V24.1021L11.4273 24.1651ZM11.4775 23.7173H11.2775V23.727L11.2785 23.7366L11.4775 23.7173ZM11.4775 21.5502V21.3502H11.2775V21.5502H11.4775ZM13.6443 21.5502L13.6636 21.3511L13.654 21.3502H13.6443V21.5502ZM14.0921 21.5L14.155 21.6898H14.155L14.0921 21.5ZM14.4811 21.2727L14.3467 21.1247L14.4811 21.2727ZM14.7449 20.9075L14.562 20.8265L14.7449 20.9075ZM14.7449 20.0259L14.562 20.1068L14.7449 20.0259ZM14.4811 19.6606L14.6155 19.5125V19.5125L14.4811 19.6606ZM14.0921 19.4333L14.0291 19.6232L14.0921 19.4333ZM13.6443 19.3831V19.5831H13.654L13.6636 19.5822L13.6443 19.3831ZM11.4775 19.3831H11.2775V19.5831H11.4775V19.3831ZM11.4775 17.216L11.2785 17.1967L11.2775 17.2063V17.216H11.4775ZM11.4273 16.7682L11.2375 16.8312V16.8312L11.4273 16.7682ZM11.2001 16.3792L11.3482 16.2448L11.3482 16.2448L11.2001 16.3792ZM10.8348 16.1155L10.7538 16.2983L10.7538 16.2983L10.8348 16.1155ZM9.95318 16.1155L10.0342 16.2983L10.0342 16.2983L9.95318 16.1155ZM9.58788 16.3792L9.43979 16.2448L9.43979 16.2448L9.58788 16.3792ZM9.36066 16.7682L9.17082 16.7053L9.36066 16.7682ZM9.31042 17.216H9.51042V17.2063L9.50949 17.1967L9.31042 17.216ZM9.31042 19.3831V19.5831H9.51042V19.3831H9.31042ZM7.14298 19.3831L7.12367 19.5822L7.1333 19.5831H7.14298V19.3831ZM6.69524 19.4333L6.6323 19.2435L6.69524 19.4333ZM6.30618 19.6606L6.17176 19.5125L6.17176 19.5125L6.30618 19.6606ZM6.04245 20.0259L5.85958 19.9449L5.85958 19.9449L6.04245 20.0259ZM6.04245 20.9075L5.85958 20.9884L5.85958 20.9884L6.04245 20.9075ZM6.69524 21.5L6.75819 21.3101L6.75819 21.3101L6.69524 21.5ZM7.14298 21.5502V21.3502H7.1333L7.12367 21.3511L7.14298 21.5502ZM9.51042 23.7173V21.5502H9.11042V23.7173H9.51042ZM9.55049 24.1021C9.51149 23.9845 9.49752 23.86 9.50949 23.7366L9.11136 23.698C9.094 23.8769 9.11426 24.0574 9.17082 24.228L9.55049 24.1021ZM9.73597 24.4197C9.65268 24.3279 9.5895 24.2198 9.55049 24.1021L9.17082 24.228C9.22738 24.3986 9.319 24.5555 9.43979 24.6885L9.73597 24.4197ZM10.0342 24.635C9.92084 24.5848 9.81927 24.5115 9.73597 24.4197L9.43979 24.6885C9.56058 24.8216 9.70787 24.928 9.8722 25.0007L10.0342 24.635ZM10.394 24.7111C10.27 24.7111 10.1475 24.6852 10.0342 24.635L9.8722 25.0007C10.0365 25.0735 10.2143 25.1111 10.394 25.1111V24.7111ZM10.7538 24.635C10.6405 24.6852 10.5179 24.7111 10.394 24.7111V25.1111C10.5737 25.1111 10.7514 25.0735 10.9158 25.0007L10.7538 24.635ZM11.052 24.4197C10.9687 24.5115 10.8671 24.5848 10.7538 24.635L10.9158 25.0007C11.0801 24.928 11.2274 24.8216 11.3482 24.6885L11.052 24.4197ZM11.2375 24.1021C11.1985 24.2198 11.1353 24.3279 11.052 24.4197L11.3482 24.6885C11.469 24.5555 11.5606 24.3986 11.6171 24.228L11.2375 24.1021ZM11.2785 23.7366C11.2904 23.86 11.2765 23.9845 11.2375 24.1021L11.6171 24.228C11.6737 24.0574 11.694 23.8769 11.6766 23.698L11.2785 23.7366ZM11.2775 21.5502V23.7173H11.6775V21.5502H11.2775ZM13.6443 21.3502H11.4775V21.7502H13.6443V21.3502ZM14.0291 21.3101C13.9115 21.3491 13.787 21.3631 13.6636 21.3511L13.625 21.7493C13.8039 21.7666 13.9844 21.7464 14.155 21.6898L14.0291 21.3101ZM14.3467 21.1247C14.2549 21.208 14.1468 21.2711 14.0291 21.3101L14.155 21.6898C14.3256 21.6333 14.4825 21.5416 14.6155 21.4208L14.3467 21.1247ZM14.562 20.8265C14.5118 20.9398 14.4385 21.0414 14.3467 21.1247L14.6155 21.4208C14.7486 21.3001 14.855 21.1528 14.9277 20.9884L14.562 20.8265ZM14.6381 20.4667C14.6381 20.5906 14.6122 20.7132 14.562 20.8265L14.9277 20.9884C15.0005 20.8241 15.0381 20.6464 15.0381 20.4667H14.6381ZM14.562 20.1068C14.6122 20.2202 14.6381 20.3427 14.6381 20.4667H15.0381C15.0381 20.2869 15.0005 20.1092 14.9277 19.9449L14.562 20.1068ZM14.3467 19.8086C14.4385 19.8919 14.5118 19.9935 14.562 20.1068L14.9277 19.9449C14.855 19.7805 14.7486 19.6333 14.6155 19.5125L14.3467 19.8086ZM14.0291 19.6232C14.1468 19.6622 14.2549 19.7254 14.3467 19.8086L14.6155 19.5125C14.4825 19.3917 14.3256 19.3001 14.155 19.2435L14.0291 19.6232ZM13.6636 19.5822C13.787 19.5702 13.9115 19.5842 14.0291 19.6232L14.155 19.2435C13.9844 19.1869 13.8039 19.1667 13.625 19.184L13.6636 19.5822ZM11.4775 19.5831L13.6443 19.5831V19.1831L11.4775 19.1831V19.5831ZM11.2775 17.216V19.3831H11.6775V17.216H11.2775ZM11.2375 16.8312C11.2765 16.9488 11.2904 17.0733 11.2785 17.1967L11.6766 17.2353C11.694 17.0564 11.6737 16.8759 11.6171 16.7053L11.2375 16.8312ZM11.052 16.5136C11.1353 16.6054 11.1985 16.7135 11.2375 16.8312L11.6171 16.7053C11.5606 16.5347 11.469 16.3778 11.3482 16.2448L11.052 16.5136ZM10.7538 16.2983C10.8671 16.3485 10.9687 16.4218 11.052 16.5136L11.3482 16.2448C11.2274 16.1117 11.0801 16.0053 10.9158 15.9326L10.7538 16.2983ZM10.394 16.2222C10.5179 16.2222 10.6405 16.2481 10.7538 16.2983L10.9158 15.9326C10.7514 15.8598 10.5737 15.8222 10.394 15.8222V16.2222ZM10.0342 16.2983C10.1475 16.2481 10.27 16.2222 10.394 16.2222V15.8222C10.2143 15.8222 10.0365 15.8598 9.8722 15.9326L10.0342 16.2983ZM9.73597 16.5136C9.81927 16.4218 9.92084 16.3485 10.0342 16.2983L9.8722 15.9326C9.70787 16.0053 9.56058 16.1117 9.43979 16.2448L9.73597 16.5136ZM9.55049 16.8312C9.5895 16.7135 9.65268 16.6054 9.73597 16.5136L9.43979 16.2448C9.319 16.3778 9.22738 16.5347 9.17082 16.7053L9.55049 16.8312ZM9.50949 17.1967C9.49752 17.0733 9.51149 16.9488 9.55049 16.8312L9.17082 16.7053C9.11426 16.8759 9.094 17.0564 9.11136 17.2353L9.50949 17.1967ZM9.51042 19.3831V17.216H9.11042V19.3831H9.51042ZM7.14298 19.5831L9.31042 19.5831V19.1831L7.14298 19.1831V19.5831ZM6.75819 19.6232C6.87582 19.5842 7.00032 19.5702 7.12367 19.5822L7.16229 19.184C6.98342 19.1667 6.80288 19.1869 6.6323 19.2435L6.75819 19.6232ZM6.4406 19.8086C6.53237 19.7253 6.64055 19.6622 6.75819 19.6232L6.6323 19.2435C6.46171 19.3001 6.30484 19.3917 6.17176 19.5125L6.4406 19.8086ZM6.22532 20.1068C6.27551 19.9935 6.34884 19.8919 6.4406 19.8086L6.17176 19.5125C6.03869 19.6333 5.93235 19.7805 5.85958 19.9449L6.22532 20.1068ZM6.14922 20.4667C6.14922 20.3427 6.17514 20.2202 6.22532 20.1068L5.85958 19.9449C5.78681 20.1092 5.74922 20.2869 5.74922 20.4667H6.14922ZM6.22532 20.8265C6.17514 20.7132 6.14922 20.5906 6.14922 20.4667H5.74922C5.74922 20.6464 5.78681 20.8241 5.85958 20.9884L6.22532 20.8265ZM6.4406 21.1247C6.34884 21.0414 6.27551 20.9398 6.22532 20.8265L5.85958 20.9884C5.93235 21.1528 6.03869 21.3001 6.17176 21.4208L6.4406 21.1247ZM6.75819 21.3101C6.64055 21.2711 6.53237 21.208 6.4406 21.1247L6.17176 21.4208C6.30484 21.5416 6.46171 21.6333 6.6323 21.6898L6.75819 21.3101ZM7.12367 21.3511C7.00032 21.3631 6.87582 21.3491 6.75819 21.3101L6.6323 21.6898C6.80288 21.7464 6.98341 21.7666 7.16229 21.7493L7.12367 21.3511ZM9.31042 21.3502H7.14298V21.7502H9.31042V21.3502Z" fill="white" mask="url(#path-2-inside-1_2529_6576)"/>
</svg>
