<svg width="26" height="26" viewBox="0 0 26 26" fill="none" xmlns="http://www.w3.org/2000/svg">
<path d="M13.3069 24C12.4519 24 11.6473 23.6665 11.0415 23.062C10.4371 22.4576 10.1035 21.653 10.1035 20.7967C10.1035 20.5067 10.143 20.2194 10.2192 19.9431C10.3472 19.4788 10.8278 19.2079 11.2906 19.3359C11.7549 19.4639 12.0258 19.9444 11.8978 20.4073C11.8624 20.5339 12.7818 19.2038 12.7818 19.3359C12.7818 20.1418 12.5009 15 13.3069 15C14.1128 15 13.6162 19.8059 13.6162 19C13.6162 18.8679 14.7486 20.5326 14.7132 20.4073C14.5852 19.9431 14.8575 19.4639 15.3203 19.3359C15.7846 19.2079 16.2638 19.4802 16.3918 19.9431C16.468 20.2208 16.5075 20.5081 16.5075 20.7967C16.5075 21.6516 16.1739 22.4562 15.5695 23.062C14.965 23.6678 14.1618 24 13.3069 24Z" fill="#9A9A9A"/>
<path d="M21.6264 20.6972H4.9875C4.50693 20.6972 4.11621 20.3065 4.11621 19.8259C4.11621 18.8089 4.51237 17.8519 5.23119 17.1331C5.50891 16.8553 5.82747 16.6225 6.17599 16.4415C6.36386 16.3448 6.47958 16.1488 6.47958 15.931V10.7427C6.47958 9.86871 6.65111 9.02056 6.98874 8.22143C7.31547 7.44952 7.78242 6.75794 8.37599 6.16301C8.97091 5.56809 9.6625 5.10113 10.4344 4.77576C11.2335 4.43814 12.0817 4.2666 12.9557 4.2666H13.6568C14.5308 4.2666 15.379 4.43814 16.1781 4.77576C16.95 5.10249 17.6416 5.56945 18.2365 6.16301C18.8314 6.75794 19.2984 7.44952 19.6238 8.22143C19.9614 9.02056 20.1329 9.86871 20.1329 10.7427V15.931C20.1329 16.1474 20.2554 16.3462 20.4542 16.451C21.06 16.7682 21.5705 17.2433 21.9313 17.826C22.3016 18.4264 22.4976 19.118 22.4976 19.8259C22.4976 20.3078 22.1083 20.6972 21.6264 20.6972Z" fill="#9A9A9A"/>
<path d="M13.3068 6.00928C12.8263 6.00928 12.4355 5.61856 12.4355 5.138V2.87129C12.4355 2.39072 12.8263 2 13.3068 2C13.7874 2 14.1781 2.39072 14.1781 2.87129V5.138C14.1781 5.61993 13.7874 6.00928 13.3068 6.00928Z" fill="#9A9A9A"/>
<path d="M23.1024 7.52051L23.1024 7.5205L5.55056 22.4435C5.55 22.444 5.54943 22.4445 5.54886 22.445L5.54756 22.4461L5.06175 21.8747C4.64288 22.2346 4.01152 22.1869 3.65157 21.768C3.29162 21.3491 3.33938 20.7178 3.75825 20.3578L23.1024 7.52051ZM23.1024 7.52051L23.1054 7.51794C23.8384 6.88802 23.922 5.78314 23.2921 5.05012C22.6626 4.31765 21.559 4.23363 20.8259 4.86198L23.1024 7.52051Z" fill="#9A9A9A" stroke="white" stroke-width="1.5" stroke-linecap="round"/>
</svg>
