<svg width="22" height="22" viewBox="0 0 22 22" fill="none" xmlns="http://www.w3.org/2000/svg">
<g clip-path="url(#clip0_2559_6907)">
<path d="M10.6783 16.5635C10.4142 16.5635 10.2436 16.5868 10.1426 16.61V20.0338C10.2438 20.0573 10.4068 20.0573 10.5541 20.0573C11.6253 20.0648 12.3242 19.4751 12.3242 18.225C12.3318 17.1379 11.6953 16.5635 10.6783 16.5635Z" fill="#F11616"/>
<path d="M6.10444 16.5483C5.86391 16.5483 5.70087 16.5715 5.61523 16.5947V18.1399C5.71633 18.163 5.84063 18.171 6.01078 18.171C6.64014 18.171 7.02814 17.8526 7.02814 17.3169C7.02818 16.8356 6.69414 16.5483 6.10444 16.5483Z" fill="#F11616"/>
<path d="M18.9761 5.272C18.9748 5.17111 18.9428 5.07145 18.8735 4.99269L14.6316 0.147545C14.6307 0.146187 14.6291 0.145748 14.6282 0.14451C14.6029 0.116271 14.5739 0.0929846 14.5427 0.0724545C14.5334 0.0664632 14.5237 0.0610711 14.514 0.055599C14.4871 0.0409803 14.4588 0.028838 14.429 0.0199709C14.4214 0.0176543 14.4138 0.0143791 14.4058 0.0123021C14.3738 0.00455337 14.3405 0 14.3072 0H3.88227C3.40665 0 3.01953 0.387156 3.01953 0.862783V21.1373C3.01953 21.6131 3.40665 22 3.88227 22H18.1175C18.5932 22 18.9803 21.6131 18.9803 21.1373V5.32033C18.9803 5.30411 18.9778 5.28822 18.9761 5.272ZM7.71913 18.5279C7.31555 18.9083 6.71771 19.0794 6.01884 19.0794C5.86379 19.0794 5.72363 19.0714 5.61535 19.0562V20.927H4.44306V15.764C4.80777 15.7021 5.32046 15.6554 6.04261 15.6554C6.77223 15.6554 7.29247 15.7952 7.64172 16.0745C7.97575 16.3386 8.20031 16.7734 8.20031 17.2856C8.20031 17.7983 8.02991 18.233 7.71913 18.5279ZM12.7115 20.3061C12.1609 20.764 11.3224 20.9814 10.2979 20.9814C9.68442 20.9814 9.2499 20.9426 8.95437 20.9039V15.764C9.38921 15.6945 9.95623 15.6554 10.5539 15.6554C11.5471 15.6554 12.1917 15.834 12.6966 16.2143C13.2402 16.6181 13.5818 17.2625 13.5818 18.1863C13.5814 19.1881 13.2166 19.8789 12.7115 20.3061ZM17.5572 16.6647H15.5461V17.8603H17.4249V18.8233H15.5461V20.927H14.3586V15.6945H17.5572V16.6647ZM3.88227 14.6487V0.862783H13.8758V5.27695C13.8758 5.51505 14.0688 5.70833 14.3072 5.70833H18.1175L18.118 14.6487H3.88227Z" fill="#F11616"/>
<path d="M15.4252 9.27177C15.4 9.26941 14.7921 9.21393 13.859 9.21393C13.5667 9.21393 13.2722 9.21965 12.9815 9.23059C11.1389 7.84781 9.62964 6.46394 8.82166 5.68839C8.8364 5.60299 8.84655 5.53549 8.85126 5.48365C8.95782 4.35869 8.83936 3.59923 8.50033 3.22634C8.27833 2.98265 7.95229 2.90157 7.6123 2.99443C7.40117 3.04975 7.01034 3.25457 6.8852 3.67153C6.74704 4.1323 6.96912 4.69152 7.55255 5.34002C7.56182 5.34984 7.75981 5.5573 8.11956 5.90883C7.88575 7.02372 7.27368 9.42962 6.97671 10.5849C6.27921 10.9576 5.69805 11.4066 5.24815 11.9216L5.21867 11.9553L5.19962 11.9958C5.15329 12.0931 4.93181 12.5984 5.09809 13.0043C5.17401 13.1888 5.31629 13.3236 5.50957 13.3944L5.56137 13.4083C5.56137 13.4083 5.6081 13.4184 5.69026 13.4184C6.05014 13.4184 6.93844 13.2293 7.41491 11.4734L7.53034 11.0286C9.19348 10.2202 11.2724 9.95941 12.7793 9.88675C13.5544 10.4616 14.3257 10.9896 15.0731 11.4572L15.0975 11.4713C15.1337 11.4899 15.4614 11.6517 15.8452 11.652C16.3937 11.652 16.7943 11.3154 16.9435 10.7288L16.951 10.6887C16.9927 10.3535 16.9085 10.0514 16.7075 9.81514C16.2842 9.31754 15.4961 9.27417 15.4252 9.27177ZM5.70368 12.771C5.70033 12.767 5.69873 12.7633 5.69705 12.7591C5.66127 12.6729 5.7042 12.4639 5.76739 12.3108C6.03868 12.0075 6.36432 11.7291 6.74009 11.4784C6.37415 12.663 5.84196 12.7654 5.70368 12.771ZM8.02718 4.90054C7.4652 4.27497 7.47363 3.96482 7.50386 3.86041C7.55347 3.68591 7.77738 3.61996 7.7793 3.61936C7.8921 3.58869 7.96056 3.59472 8.02151 3.66162C8.15935 3.81304 8.27773 4.27002 8.23096 5.10823C8.09828 4.97491 8.02718 4.90054 8.02718 4.90054ZM7.7368 10.2277L7.74651 10.1906L7.74523 10.1911C8.02662 9.08896 8.43243 7.47519 8.66577 6.43858L8.6742 6.44661L8.67504 6.44165C9.42994 7.15254 10.5874 8.19234 11.9734 9.27381L11.9578 9.27445L11.9807 9.29174C10.6751 9.40202 9.11571 9.65941 7.7368 10.2277ZM16.3112 10.5893C16.2118 10.9546 16.0205 11.0045 15.8453 11.0045C15.6418 11.0045 15.4459 10.9198 15.4013 10.8994C14.8924 10.5804 14.3717 10.2328 13.8464 9.86095C13.8506 9.86095 13.8544 9.86095 13.859 9.86095C14.7597 9.86095 15.3595 9.91563 15.3831 9.91731C15.5335 9.9229 16.0096 9.9932 16.2147 10.2344C16.2951 10.3289 16.3259 10.4419 16.3112 10.5893Z" fill="#F11616"/>
</g>
<defs>
<clipPath id="clip0_2559_6907">
<rect width="22" height="22" fill="white"/>
</clipPath>
</defs>
</svg>
