<svg width="22" height="22" viewBox="0 0 22 22" fill="none" xmlns="http://www.w3.org/2000/svg">
<path d="M14.6286 10.5699L10.0604 7.24912C9.89274 7.12759 9.67019 7.10929 9.48644 7.20373C9.30122 7.29743 9.18555 7.48778 9.18555 7.69349V14.3328C9.18555 14.5407 9.30122 14.7303 9.48644 14.824C9.56477 14.8636 9.65042 14.8833 9.73681 14.8833C9.84955 14.8833 9.96376 14.8475 10.0604 14.7765L14.6286 11.4586C14.7729 11.3525 14.857 11.1885 14.857 11.0142C14.8578 10.8371 14.7714 10.6738 14.6286 10.5699Z" fill="#02164F"/>
<path d="M11.0004 0.00146484C4.92403 0.00146484 0 4.92549 0 11.0018C0 17.076 4.92403 21.9985 11.0004 21.9985C17.0752 21.9985 22 17.0752 22 11.0018C22.0007 4.92549 17.0752 0.00146484 11.0004 0.00146484ZM11.0004 20.1632C5.94017 20.1632 1.83754 16.0628 1.83754 11.0018C1.83754 5.9431 5.94017 1.83754 11.0004 1.83754C16.0598 1.83754 20.1617 5.94237 20.1617 11.0018C20.1625 16.0628 16.0598 20.1632 11.0004 20.1632Z" fill="#02164F"/>
</svg>
