<svg width="24" height="24" viewBox="0 0 24 24" fill="none" xmlns="http://www.w3.org/2000/svg">
<path d="M16.7166 5.82645C16.3928 5.71673 16.0405 5.71673 15.7167 5.82645L3.65503 9.91788C2.86016 10.1871 2.4396 11.0338 2.71564 11.809C2.8563 12.204 3.16109 12.5229 3.55521 12.6875L8.50152 14.7546L10.6213 19.579C10.9554 20.3343 11.8541 20.6824 12.6284 20.3565C12.8035 20.2829 12.963 20.1778 13.0984 20.0469C13.2616 19.8878 13.3858 19.6948 13.4618 19.4823L17.6558 7.71772C17.932 6.94251 17.5115 6.09576 16.7166 5.82645ZM12.5016 19.1559C12.4095 19.4143 12.1201 19.551 11.8551 19.4611C11.7201 19.4154 11.6112 19.3163 11.555 19.1881L9.49046 14.4905L16.6586 7.49952L12.5016 19.1559ZM8.77228 13.79L3.95561 11.7765C3.76119 11.6986 3.63837 11.5095 3.64929 11.3048C3.65202 11.099 3.78896 10.9178 3.98972 10.8544L15.9404 6.79906L8.77228 13.79Z" fill="#83858E" stroke="#83858E" stroke-width="0.4"/>
</svg>
