<svg width="22" height="22" viewBox="0 0 22 22" fill="none" xmlns="http://www.w3.org/2000/svg">
<g clip-path="url(#clip0_2559_6910)">
<path fill-rule="evenodd" clip-rule="evenodd" d="M18.8535 4.99269C18.9228 5.07145 18.9553 5.17111 18.9566 5.272C18.957 5.27619 18.9575 5.28036 18.958 5.28452C18.9594 5.29646 18.9608 5.30831 18.9608 5.32033V21.1373C18.9608 21.6131 18.5736 22 18.098 22H3.86274C3.38712 22 3 21.6131 3 21.1373V0.862783C3 0.387156 3.38712 0 3.86274 0H14.2873C14.321 0 14.3543 0.00455337 14.3863 0.0123021C14.3906 0.0134248 14.3947 0.0148976 14.3988 0.0163799C14.4023 0.0176398 14.4058 0.0189066 14.4095 0.0199709C14.4393 0.028838 14.4676 0.0409803 14.4945 0.055599C14.5042 0.0610711 14.5135 0.0664632 14.5228 0.0724545C14.5539 0.0929846 14.5834 0.116271 14.6087 0.14451L14.612 0.147545L18.8535 4.99269ZM3.86274 0.862783V14.6487H18.098V5.70833H14.2873C14.0493 5.70833 13.8559 5.51505 13.8559 5.27695V0.862783H3.86274ZM4.5 20.4H5.55718V18.5928H7.00416V20.4H8.05544V16H7.00416V17.6773H5.55718V16H4.5V20.4ZM9.38674 20.4H10.692L11.0759 18.4864C11.1148 18.2845 11.1496 18.0761 11.1839 17.8703L11.1839 17.8703C11.2067 17.7331 11.2294 17.597 11.253 17.4647H11.2767C11.318 17.7954 11.3771 18.1498 11.4479 18.4864L11.8437 20.4H13.1725L13.9344 16H12.9363L12.6469 18.0081C12.6254 18.1914 12.603 18.3768 12.5805 18.5636L12.5804 18.564L12.5804 18.5644C12.547 18.8406 12.5132 19.1202 12.4815 19.4019H12.452C12.4143 19.2011 12.3788 19.0004 12.3436 18.8015C12.296 18.5322 12.249 18.2662 12.198 18.0081L11.7432 16H10.8514L10.4026 18.0081C10.314 18.4628 10.2254 18.9294 10.1427 19.4019H10.1191C10.06 18.9295 10.001 18.4689 9.94194 18.0083L9.94191 18.0081L9.66432 16H8.58942L9.38674 20.4ZM15.5206 20.4H14.4634V16H16.0108C16.9735 16 17.7708 16.3485 17.7708 17.4352C17.7708 18.4805 16.9676 18.9412 16.0344 18.9412H15.5206V20.4ZM15.5206 16.8387V18.1085H15.9812C16.4951 18.1085 16.7431 17.8663 16.7431 17.4352C16.7431 16.9922 16.4596 16.8387 15.9517 16.8387H15.5206Z" fill="#41B5C4"/>
<path d="M6.96308 5.92197H11.7486C11.907 5.92197 12.0363 5.79316 12.0363 5.63447C12.0363 5.47578 11.907 5.34717 11.7486 5.34717H6.96308C6.80423 5.34717 6.67578 5.47578 6.67578 5.63447C6.67578 5.79316 6.80423 5.92197 6.96308 5.92197Z" fill="#41B5C5"/>
<path d="M14.8112 7.646H6.95722C6.79849 7.646 6.66992 7.77449 6.66992 7.93326C6.66992 8.09199 6.79849 8.22076 6.95722 8.22076H14.8112C14.97 8.22076 15.0989 8.09195 15.0989 7.93326C15.0989 7.77445 14.97 7.646 14.8112 7.646Z" fill="#41B5C5"/>
<path d="M14.8112 9.92871H6.95722C6.79849 9.92871 6.66992 10.0572 6.66992 10.2162C6.66992 10.375 6.79849 10.5037 6.95722 10.5037H14.8112C14.97 10.5037 15.0989 10.3749 15.0989 10.2162C15.0989 10.0572 14.97 9.92871 14.8112 9.92871Z" fill="#41B5C5"/>
<path d="M14.8112 12.2659H6.95722C6.79849 12.2659 6.66992 12.3946 6.66992 12.5534C6.66992 12.7122 6.79849 12.8407 6.95722 12.8407H14.8112C14.97 12.8407 15.0989 12.7122 15.0989 12.5534C15.0989 12.3946 14.97 12.2659 14.8112 12.2659Z" fill="#41B5C5"/>
</g>
<defs>
<clipPath id="clip0_2559_6910">
<rect width="22" height="22" fill="white"/>
</clipPath>
</defs>
</svg>
