<svg width="52" height="52" viewBox="0 0 52 52" fill="none" xmlns="http://www.w3.org/2000/svg">
<rect width="52" height="52" rx="19" fill="#72C392"/>
<path d="M35.2263 24.7899C35.0316 24.5211 34.775 24.3033 34.4782 24.1549C34.1813 24.0065 33.8531 23.9319 33.5213 23.9374H33.3013V22.5624C33.3013 22.2881 33.2466 22.0165 33.1404 21.7635C33.0342 21.5105 32.8786 21.2813 32.6827 21.0892C32.4867 20.8972 32.2545 20.7461 31.9995 20.6449C31.7444 20.5437 31.4718 20.4944 31.1975 20.4999H26.7425C26.5758 20.4989 26.414 20.4434 26.2819 20.3418L23.5319 18.1968C23.1555 17.907 22.6938 17.7499 22.2188 17.7499H18.4788C18.2045 17.7444 17.9318 17.7937 17.6768 17.8949C17.4218 17.9961 17.1895 18.1472 16.9936 18.3392C16.7977 18.5313 16.6421 18.7605 16.5359 19.0135C16.4296 19.2665 16.3749 19.5381 16.375 19.8124V32.1874C16.3744 32.568 16.4843 32.9406 16.6913 33.2599C16.8815 33.5623 17.1451 33.8117 17.4577 33.9848C17.7702 34.1579 18.1215 34.2491 18.4788 34.2499H31.5413C31.9901 34.2611 32.4304 34.1255 32.7952 33.8637C33.16 33.6019 33.4294 33.2282 33.5625 32.7993L35.5288 26.6118C35.6234 26.3055 35.6453 25.9814 35.5928 25.6651C35.5403 25.3489 35.4148 25.0492 35.2263 24.7899ZM17.75 19.8124C17.7498 19.7186 17.7689 19.6257 17.806 19.5394C17.8431 19.4532 17.8975 19.3755 17.9657 19.3111C18.034 19.2467 18.1147 19.1969 18.203 19.1649C18.2912 19.1329 18.3851 19.1193 18.4788 19.1249H22.2188C22.3877 19.1249 22.552 19.1805 22.6863 19.2831L25.4363 21.4281C25.81 21.7178 26.2696 21.875 26.7425 21.8749H31.1975C31.2912 21.8693 31.3851 21.8829 31.4733 21.9149C31.5615 21.9469 31.6423 21.9967 31.7105 22.0611C31.7788 22.1255 31.8332 22.2032 31.8703 22.2894C31.9074 22.3757 31.9264 22.4686 31.9263 22.5624V23.9374H20.9263C20.4809 23.9308 20.0453 24.0685 19.6846 24.3299C19.324 24.5914 19.0577 24.9626 18.9256 25.3881L17.75 29.1212V19.8124ZM34.25 26.1993L32.2838 32.3868C32.2396 32.533 32.1481 32.6603 32.0236 32.7486C31.8991 32.837 31.7488 32.8815 31.5963 32.8749H18.5338C18.3787 32.8746 18.2275 32.8266 18.1006 32.7374L20.3006 25.8006C20.3448 25.6544 20.4363 25.5271 20.5608 25.4387C20.6852 25.3503 20.8356 25.3059 20.9881 25.3124H33.5213C33.6371 25.3116 33.7515 25.3379 33.8554 25.3893C33.9593 25.4406 34.0497 25.5155 34.1194 25.6081C34.1848 25.6901 34.2306 25.786 34.2533 25.8885C34.2759 25.991 34.2748 26.0973 34.25 26.1993Z" fill="white"/>
</svg>
