<svg width="52" height="52" viewBox="0 0 52 52" fill="none" xmlns="http://www.w3.org/2000/svg">
<rect width="52" height="52" rx="19" fill="#ECBA6E"/>
<path d="M33.8018 19.8125H30.8496L30.5059 18.7813C30.3402 18.2805 30.0207 17.8448 29.593 17.5362C29.1653 17.2276 28.6511 17.0618 28.1237 17.0625H23.8763C23.349 17.0621 22.835 17.228 22.4075 17.5366C21.9799 17.8451 21.6605 18.2807 21.4948 18.7813L21.1504 19.8125H18.1983C17.5326 19.8132 16.8944 20.078 16.4237 20.5487C15.953 21.0194 15.6882 21.6576 15.6875 22.3232V32.4295C15.689 33.0947 15.954 33.7322 16.4247 34.2023C16.8953 34.6724 17.5331 34.9368 18.1983 34.9375H33.8045C34.4697 34.936 35.1072 34.6709 35.5773 34.2003C36.0474 33.7297 36.3118 33.0919 36.3125 32.4267V22.3205C36.311 21.6553 36.046 21.0178 35.5753 20.5477C35.1047 20.0776 34.4669 19.8132 33.8018 19.8125ZM34.9375 32.4267C34.9371 32.7278 34.8174 33.0165 34.6044 33.2294C34.3915 33.4423 34.1029 33.5621 33.8018 33.5625H18.1983C17.8971 33.5621 17.6085 33.4423 17.3956 33.2294C17.1826 33.0165 17.0629 32.7278 17.0625 32.4267V22.3205C17.0636 22.0199 17.1837 21.7319 17.3965 21.5196C17.6094 21.3073 17.8976 21.1879 18.1983 21.1875H21.6461C21.7903 21.1874 21.9308 21.1419 22.0478 21.0575C22.1648 20.9731 22.2522 20.8541 22.2978 20.7172L22.799 19.2137C22.8743 18.9875 23.0188 18.7908 23.2122 18.6515C23.4056 18.5122 23.638 18.4373 23.8763 18.4375H28.1237C28.3621 18.4372 28.5946 18.5122 28.788 18.6517C28.9814 18.7911 29.1259 18.988 29.201 19.2144L29.7022 20.7172C29.7478 20.8541 29.8352 20.9731 29.9522 21.0575C30.0692 21.1419 30.2097 21.1874 30.3539 21.1875H33.8018C34.1029 21.1879 34.3915 21.3076 34.6044 21.5206C34.8174 21.7335 34.9371 22.0221 34.9375 22.3232V32.4267Z" fill="white"/>
<path d="M26 21.875C24.9802 21.875 23.9833 22.1774 23.1353 22.744C22.2874 23.3106 21.6265 24.1159 21.2362 25.058C20.846 26.0002 20.7439 27.037 20.9428 28.0372C21.1418 29.0374 21.6329 29.9562 22.354 30.6773C23.0751 31.3984 23.9939 31.8895 24.9941 32.0884C25.9943 32.2874 27.031 32.1853 27.9732 31.795C28.9154 31.4047 29.7207 30.7438 30.2873 29.8959C30.8538 29.048 31.1563 28.0511 31.1563 27.0312C31.1548 25.6642 30.6111 24.3535 29.6444 23.3868C28.6777 22.4202 27.3671 21.8765 26 21.875ZM26 30.8125C25.2521 30.8125 24.5211 30.5907 23.8993 30.1752C23.2774 29.7598 22.7928 29.1692 22.5066 28.4783C22.2204 27.7873 22.1455 27.0271 22.2914 26.2936C22.4373 25.5601 22.7974 24.8863 23.3263 24.3575C23.8551 23.8287 24.5288 23.4686 25.2623 23.3227C25.9958 23.1768 26.7561 23.2516 27.447 23.5378C28.138 23.824 28.7285 24.3087 29.144 24.9305C29.5595 25.5523 29.7813 26.2834 29.7813 27.0312C29.7802 28.0338 29.3814 28.9949 28.6725 29.7038C27.9637 30.4127 27.0025 30.8114 26 30.8125Z" fill="white"/>
<path d="M32.875 23.9375C33.2547 23.9375 33.5625 23.6297 33.5625 23.25C33.5625 22.8703 33.2547 22.5625 32.875 22.5625C32.4953 22.5625 32.1875 22.8703 32.1875 23.25C32.1875 23.6297 32.4953 23.9375 32.875 23.9375Z" fill="white"/>
</svg>
