<svg width="21" height="21" viewBox="0 0 21 21" fill="none" xmlns="http://www.w3.org/2000/svg">
<path d="M14.7166 4.82645C14.3928 4.71673 14.0405 4.71673 13.7167 4.82645L1.65503 8.91788C0.860156 9.1871 0.439603 10.0338 0.715644 10.809C0.856305 11.204 1.16109 11.5229 1.55521 11.6875L6.50152 13.7546L8.62133 18.579C8.95542 19.3343 9.85405 19.6824 10.6284 19.3565C10.8035 19.2829 10.963 19.1778 11.0984 19.0469C11.2616 18.8878 11.3858 18.6948 11.4618 18.4823L15.6558 6.71772C15.932 5.94251 15.5115 5.09576 14.7166 4.82645ZM10.5016 18.1559C10.4095 18.4143 10.1201 18.551 9.85513 18.4611C9.72015 18.4154 9.61119 18.3163 9.55497 18.1881L7.49046 13.4905L14.6586 6.49952L10.5016 18.1559ZM6.77228 12.79L1.95561 10.7765C1.76119 10.6986 1.63837 10.5095 1.64929 10.3048C1.65202 10.099 1.78896 9.91779 1.98972 9.85439L13.9404 5.79906L6.77228 12.79Z" fill="#1D58FF" stroke="#1D58FF" stroke-width="0.4"/>
</svg>
