<svg width="201" height="51" viewBox="0 0 201 51" fill="none" xmlns="http://www.w3.org/2000/svg">
<path d="M21.879 22.7L21.8793 22.7C22.1108 22.7 22.333 22.6092 22.4982 22.4471C22.6633 22.285 22.7582 22.0647 22.7626 21.8334V9.85617C22.7626 9.25713 22.6445 8.66397 22.415 8.11063C22.1855 7.55729 21.8491 7.05464 21.4251 6.63145C21.0012 6.20826 20.4979 5.87283 19.9441 5.64437C19.3903 5.4159 18.797 5.29888 18.1979 5.30001L18.1978 5.30001L8.98549 5.30001C7.77712 5.30001 6.61824 5.78003 5.76379 6.63448C4.90934 7.48893 4.42932 8.6478 4.42932 9.85617V11.6969V11.7018L4.42909 11.7017C4.41731 11.8232 4.43106 11.9457 4.46945 12.0615C4.50784 12.1773 4.57003 12.2838 4.65202 12.3741C4.73401 12.4644 4.83398 12.5366 4.94552 12.586C5.05706 12.6354 5.1777 12.6609 5.29969 12.6609C5.42168 12.6609 5.54232 12.6354 5.65386 12.586C5.7654 12.5366 5.86537 12.4644 5.94736 12.3741C6.02935 12.2838 6.09154 12.1773 6.12993 12.0615C6.16832 11.9457 6.18207 11.8232 6.17029 11.7017L6.16982 11.6969H6.17006V9.85617C6.17006 9.10948 6.46668 8.39336 6.99468 7.86537C7.52267 7.33737 8.23879 7.04075 8.98549 7.04075H18.1978C18.9445 7.04075 19.6606 7.33737 20.1886 7.86537C20.7166 8.39336 21.0132 9.10948 21.0132 9.85617V19.9759V20.0759L20.9332 20.0159L18.721 18.3567C18.721 18.3567 18.721 18.3567 18.721 18.3567C18.57 18.2442 18.3864 18.184 18.1981 18.1852L18.1978 18.1852L16.3484 18.1852H16.3436L16.3436 18.1849C16.2222 18.1732 16.0997 18.1869 15.9839 18.2253C15.8681 18.2637 15.7616 18.3259 15.6713 18.4079C15.5809 18.4899 15.5088 18.5898 15.4594 18.7014C15.41 18.8129 15.3845 18.9336 15.3845 19.0555C15.3845 19.1775 15.41 19.2982 15.4594 19.4097C15.5088 19.5212 15.5809 19.6212 15.6713 19.7032C15.7616 19.7852 15.8681 19.8474 15.9839 19.8858C16.0997 19.9242 16.2222 19.9379 16.3436 19.9261L16.3484 19.9257V19.9259H17.8694H17.8861L17.8994 19.9359L21.3561 22.5284L21.879 22.7ZM21.879 22.7C21.6907 22.7012 21.5072 22.641 21.3562 22.5285L21.879 22.7Z" fill="#02164F" stroke="white" stroke-width="0.1"/>
<mask id="path-2-inside-1_2529_6588" fill="white">
<path fill-rule="evenodd" clip-rule="evenodd" d="M8.14613 18.8565V20.7528C8.1333 20.885 8.14827 21.0184 8.19008 21.1445C8.2319 21.2706 8.29962 21.3866 8.38891 21.485C8.4782 21.5833 8.58707 21.6619 8.70854 21.7157C8.83002 21.7695 8.9614 21.7973 9.09424 21.7973C9.22709 21.7973 9.35847 21.7695 9.47994 21.7157C9.60142 21.6619 9.71029 21.5833 9.79958 21.485C9.88887 21.3866 9.95659 21.2706 9.9984 21.1445C10.0402 21.0184 10.0552 20.885 10.0424 20.7528V18.8565H11.9383C12.0705 18.8694 12.204 18.8544 12.3301 18.8126C12.4562 18.7708 12.5721 18.703 12.6705 18.6137C12.7689 18.5245 12.8475 18.4156 12.9013 18.2941C12.9551 18.1726 12.9828 18.0413 12.9828 17.9084C12.9828 17.7756 12.9551 17.6442 12.9013 17.5227C12.8475 17.4012 12.7689 17.2924 12.6705 17.2031C12.5721 17.1138 12.4562 17.0461 12.3301 17.0043C12.204 16.9624 12.0705 16.9475 11.9383 16.9603L10.0424 16.9603V15.0641C10.0552 14.9318 10.0402 14.7984 9.9984 14.6723C9.95659 14.5462 9.88887 14.4302 9.79958 14.3319C9.71029 14.2335 9.60142 14.1549 9.47994 14.1011C9.35847 14.0473 9.22709 14.0195 9.09424 14.0195C8.9614 14.0195 8.83002 14.0473 8.70854 14.1011C8.58707 14.1549 8.4782 14.2335 8.38891 14.3319C8.29962 14.4302 8.2319 14.5462 8.19009 14.6723C8.14827 14.7984 8.1333 14.9318 8.14613 15.0641V16.9603L6.24962 16.9603C6.11739 16.9475 5.98395 16.9624 5.85785 17.0043C5.73175 17.0461 5.61579 17.1138 5.51742 17.2031C5.41905 17.2924 5.34045 17.4012 5.28666 17.5227C5.23287 17.6442 5.20508 17.7756 5.20508 17.9084C5.20508 18.0413 5.23287 18.1726 5.28666 18.2941C5.34045 18.4156 5.41905 18.5245 5.51742 18.6137C5.61579 18.703 5.73175 18.7708 5.85785 18.8126C5.98394 18.8544 6.11739 18.8694 6.24962 18.8565H8.14613Z"/>
</mask>
<path fill-rule="evenodd" clip-rule="evenodd" d="M8.14613 18.8565V20.7528C8.1333 20.885 8.14827 21.0184 8.19008 21.1445C8.2319 21.2706 8.29962 21.3866 8.38891 21.485C8.4782 21.5833 8.58707 21.6619 8.70854 21.7157C8.83002 21.7695 8.9614 21.7973 9.09424 21.7973C9.22709 21.7973 9.35847 21.7695 9.47994 21.7157C9.60142 21.6619 9.71029 21.5833 9.79958 21.485C9.88887 21.3866 9.95659 21.2706 9.9984 21.1445C10.0402 21.0184 10.0552 20.885 10.0424 20.7528V18.8565H11.9383C12.0705 18.8694 12.204 18.8544 12.3301 18.8126C12.4562 18.7708 12.5721 18.703 12.6705 18.6137C12.7689 18.5245 12.8475 18.4156 12.9013 18.2941C12.9551 18.1726 12.9828 18.0413 12.9828 17.9084C12.9828 17.7756 12.9551 17.6442 12.9013 17.5227C12.8475 17.4012 12.7689 17.2924 12.6705 17.2031C12.5721 17.1138 12.4562 17.0461 12.3301 17.0043C12.204 16.9624 12.0705 16.9475 11.9383 16.9603L10.0424 16.9603V15.0641C10.0552 14.9318 10.0402 14.7984 9.9984 14.6723C9.95659 14.5462 9.88887 14.4302 9.79958 14.3319C9.71029 14.2335 9.60142 14.1549 9.47994 14.1011C9.35847 14.0473 9.22709 14.0195 9.09424 14.0195C8.9614 14.0195 8.83002 14.0473 8.70854 14.1011C8.58707 14.1549 8.4782 14.2335 8.38891 14.3319C8.29962 14.4302 8.2319 14.5462 8.19009 14.6723C8.14827 14.7984 8.1333 14.9318 8.14613 15.0641V16.9603L6.24962 16.9603C6.11739 16.9475 5.98395 16.9624 5.85785 17.0043C5.73175 17.0461 5.61579 17.1138 5.51742 17.2031C5.41905 17.2924 5.34045 17.4012 5.28666 17.5227C5.23287 17.6442 5.20508 17.7756 5.20508 17.9084C5.20508 18.0413 5.23287 18.1726 5.28666 18.2941C5.34045 18.4156 5.41905 18.5245 5.51742 18.6137C5.61579 18.703 5.73175 18.7708 5.85785 18.8126C5.98394 18.8544 6.11739 18.8694 6.24962 18.8565H8.14613Z" fill="#02164F"/>
<path d="M8.14613 20.7528L8.3452 20.7721L8.34613 20.7624V20.7528H8.14613ZM8.14613 18.8565H8.34613V18.6565H8.14613V18.8565ZM8.19008 21.1445L8.37992 21.0816L8.37992 21.0816L8.19008 21.1445ZM8.70854 21.7157L8.62756 21.8986L8.62756 21.8986L8.70854 21.7157ZM9.47994 21.7157L9.56092 21.8986L9.56093 21.8986L9.47994 21.7157ZM9.9984 21.1445L9.80857 21.0816V21.0816L9.9984 21.1445ZM10.0424 20.7528H9.84236V20.7624L9.84329 20.7721L10.0424 20.7528ZM10.0424 18.8565V18.6565H9.84236V18.8565H10.0424ZM11.9383 18.8565L11.9576 18.6575L11.948 18.6565H11.9383V18.8565ZM12.9013 17.5227L12.7184 17.6037L12.7184 17.6037L12.9013 17.5227ZM12.6705 17.2031L12.8049 17.055V17.055L12.6705 17.2031ZM12.3301 17.0043L12.393 16.8144L12.393 16.8144L12.3301 17.0043ZM11.9383 16.9603V17.1603H11.948L11.9576 17.1594L11.9383 16.9603ZM10.0424 16.9603H9.84236V17.1603H10.0424V16.9603ZM10.0424 15.0641L9.84329 15.0448L9.84236 15.0544V15.0641H10.0424ZM9.9984 14.6723L10.1882 14.6094L9.9984 14.6723ZM9.79958 14.3319L9.65149 14.4663L9.79958 14.3319ZM9.47994 14.1011L9.56093 13.9182L9.56093 13.9182L9.47994 14.1011ZM8.70854 14.1011L8.78953 14.284L8.78953 14.284L8.70854 14.1011ZM8.38891 14.3319L8.537 14.4663L8.537 14.4663L8.38891 14.3319ZM8.19009 14.6723L8.37992 14.7352L8.37992 14.7352L8.19009 14.6723ZM8.14613 15.0641H8.34613V15.0544L8.3452 15.0448L8.14613 15.0641ZM8.14613 16.9603V17.1603H8.34613V16.9603H8.14613ZM6.24962 16.9603L6.23031 17.1594L6.23994 17.1603H6.24962V16.9603ZM5.85785 17.0043L5.92079 17.1941L5.92079 17.1941L5.85785 17.0043ZM5.51742 17.2031L5.65184 17.3512L5.51742 17.2031ZM5.28666 17.5227L5.46953 17.6037L5.28666 17.5227ZM5.28666 18.2941L5.10379 18.3751L5.10379 18.3751L5.28666 18.2941ZM5.51742 18.6137L5.383 18.7618L5.383 18.7618L5.51742 18.6137ZM6.24962 18.8565V18.6565H6.23994L6.23031 18.6575L6.24962 18.8565ZM8.34613 20.7528V18.8565H7.94613V20.7528H8.34613ZM8.37992 21.0816C8.34689 20.982 8.33506 20.8765 8.3452 20.7721L7.94706 20.7334C7.93154 20.8934 7.94966 21.0549 8.00025 21.2075L8.37992 21.0816ZM8.537 21.3505C8.46646 21.2728 8.41295 21.1812 8.37992 21.0816L8.00025 21.2075C8.05084 21.36 8.13278 21.5004 8.24082 21.6194L8.537 21.3505ZM8.78953 21.5328C8.69356 21.4903 8.60754 21.4282 8.537 21.3505L8.24082 21.6194C8.34885 21.7384 8.48059 21.8335 8.62756 21.8986L8.78953 21.5328ZM9.09424 21.5973C8.98929 21.5973 8.88549 21.5753 8.78952 21.5328L8.62756 21.8986C8.77454 21.9637 8.9335 21.9973 9.09424 21.9973V21.5973ZM9.39896 21.5328C9.303 21.5753 9.1992 21.5973 9.09424 21.5973V21.9973C9.25499 21.9973 9.41395 21.9637 9.56092 21.8986L9.39896 21.5328ZM9.65149 21.3505C9.58095 21.4282 9.49493 21.4903 9.39896 21.5328L9.56093 21.8986C9.7079 21.8335 9.83964 21.7384 9.94767 21.6194L9.65149 21.3505ZM9.80857 21.0816C9.77553 21.1812 9.72203 21.2728 9.65149 21.3505L9.94767 21.6194C10.0557 21.5004 10.1377 21.36 10.1882 21.2075L9.80857 21.0816ZM9.84329 20.7721C9.85343 20.8765 9.8416 20.982 9.80857 21.0816L10.1882 21.2075C10.2388 21.0549 10.2569 20.8934 10.2414 20.7334L9.84329 20.7721ZM9.84236 18.8565V20.7528H10.2424V18.8565H9.84236ZM11.9383 18.6565H10.0424V19.0565H11.9383V18.6565ZM12.2671 18.6227C12.1675 18.6558 12.0621 18.6676 11.9576 18.6575L11.919 19.0556C12.079 19.0711 12.2404 19.053 12.393 19.0024L12.2671 18.6227ZM12.5361 18.4657C12.4584 18.5362 12.3668 18.5897 12.2671 18.6227L12.393 19.0024C12.5456 18.9518 12.6859 18.8699 12.8049 18.7618L12.5361 18.4657ZM12.7184 18.2131C12.6759 18.3091 12.6138 18.3951 12.5361 18.4657L12.8049 18.7618C12.9239 18.6538 13.0191 18.5221 13.0841 18.3751L12.7184 18.2131ZM12.7828 17.9084C12.7828 18.0134 12.7609 18.1172 12.7184 18.2131L13.0841 18.3751C13.1492 18.2281 13.1828 18.0692 13.1828 17.9084H12.7828ZM12.7184 17.6037C12.7609 17.6997 12.7828 17.8035 12.7828 17.9084H13.1828C13.1828 17.7477 13.1492 17.5887 13.0841 17.4417L12.7184 17.6037ZM12.5361 17.3512C12.6138 17.4217 12.6759 17.5077 12.7184 17.6037L13.0841 17.4417C13.0191 17.2948 12.9239 17.163 12.8049 17.055L12.5361 17.3512ZM12.2671 17.1941C12.3668 17.2271 12.4584 17.2806 12.5361 17.3512L12.8049 17.055C12.6859 16.947 12.5456 16.865 12.393 16.8144L12.2671 17.1941ZM11.9576 17.1594C12.0621 17.1492 12.1675 17.1611 12.2671 17.1941L12.393 16.8144C12.2404 16.7638 12.079 16.7457 11.919 16.7612L11.9576 17.1594ZM10.0424 17.1603L11.9383 17.1603V16.7603L10.0424 16.7603V17.1603ZM9.84236 15.0641V16.9603H10.2424V15.0641H9.84236ZM9.80857 14.7352C9.8416 14.8349 9.85343 14.9403 9.84329 15.0448L10.2414 15.0834C10.2569 14.9234 10.2388 14.7619 10.1882 14.6094L9.80857 14.7352ZM9.65149 14.4663C9.72203 14.544 9.77553 14.6356 9.80857 14.7352L10.1882 14.6094C10.1377 14.4568 10.0557 14.3165 9.94767 14.1975L9.65149 14.4663ZM9.39896 14.284C9.49493 14.3265 9.58095 14.3886 9.65149 14.4663L9.94767 14.1975C9.83964 14.0784 9.7079 13.9833 9.56093 13.9182L9.39896 14.284ZM9.09424 14.2195C9.1992 14.2195 9.303 14.2415 9.39896 14.284L9.56093 13.9182C9.41395 13.8532 9.25499 13.8195 9.09424 13.8195V14.2195ZM8.78953 14.284C8.88549 14.2415 8.98929 14.2195 9.09424 14.2195V13.8195C8.9335 13.8195 8.77454 13.8532 8.62756 13.9182L8.78953 14.284ZM8.537 14.4663C8.60754 14.3886 8.69356 14.3265 8.78953 14.284L8.62756 13.9182C8.48059 13.9833 8.34885 14.0784 8.24082 14.1975L8.537 14.4663ZM8.37992 14.7352C8.41295 14.6356 8.46646 14.544 8.537 14.4663L8.24082 14.1975C8.13278 14.3165 8.05084 14.4568 8.00025 14.6094L8.37992 14.7352ZM8.3452 15.0448C8.33506 14.9403 8.34689 14.8349 8.37992 14.7352L8.00025 14.6094C7.94966 14.7619 7.93154 14.9234 7.94706 15.0834L8.3452 15.0448ZM8.34613 16.9603V15.0641H7.94613V16.9603H8.34613ZM6.24962 17.1603L8.14613 17.1603V16.7603L6.24962 16.7603V17.1603ZM5.92079 17.1941C6.02041 17.1611 6.12584 17.1492 6.23031 17.1594L6.26893 16.7612C6.10894 16.7457 5.94748 16.7638 5.7949 16.8144L5.92079 17.1941ZM5.65184 17.3512C5.72956 17.2806 5.82117 17.2271 5.92079 17.1941L5.7949 16.8144C5.64233 16.865 5.50202 16.9469 5.383 17.055L5.65184 17.3512ZM5.46953 17.6037C5.51203 17.5077 5.57413 17.4217 5.65184 17.3512L5.383 17.055C5.26398 17.163 5.16887 17.2948 5.10379 17.4417L5.46953 17.6037ZM5.40508 17.9084C5.40508 17.8035 5.42703 17.6997 5.46953 17.6037L5.10379 17.4417C5.0387 17.5887 5.00508 17.7477 5.00508 17.9084H5.40508ZM5.46953 18.2131C5.42703 18.1172 5.40508 18.0134 5.40508 17.9084H5.00508C5.00508 18.0692 5.0387 18.2281 5.10379 18.3751L5.46953 18.2131ZM5.65184 18.4657C5.57413 18.3951 5.51203 18.3091 5.46953 18.2131L5.10379 18.3751C5.16887 18.5221 5.26398 18.6538 5.383 18.7618L5.65184 18.4657ZM5.92079 18.6227C5.82117 18.5897 5.72956 18.5362 5.65184 18.4657L5.383 18.7618C5.50202 18.8699 5.64233 18.9518 5.7949 19.0024L5.92079 18.6227ZM6.23031 18.6575C6.12584 18.6676 6.02041 18.6558 5.92079 18.6227L5.7949 19.0024C5.94748 19.053 6.10894 19.0711 6.26893 19.0556L6.23031 18.6575ZM8.14613 18.6565H6.24962V19.0565H8.14613V18.6565Z" fill="white" mask="url(#path-2-inside-1_2529_6588)"/>
<path d="M35.5003 9.24C37.7403 9.24 38.9403 9.672 38.9403 10.504C38.9403 11.32 37.7403 11.752 35.5003 11.752C33.2603 11.752 32.0603 11.32 32.0603 10.504C32.0603 9.672 33.2603 9.24 35.5003 9.24ZM35.5003 12.984C38.7323 12.984 40.6523 12.104 40.6523 10.504C40.6523 8.888 38.7323 8.008 35.5003 8.008C32.2523 8.008 30.3483 8.888 30.3483 10.504C30.3483 12.104 32.2523 12.984 35.5003 12.984ZM32.1723 19.64H40.3963V16.184H30.5082V17.432H38.7803V18.472H30.5403V22.104H40.8123V20.84H32.1723V19.64ZM28.9563 13.832V15.144H42.0443V13.832H28.9563ZM58.8528 10.968H50.5968V7.96H48.9648V12.296H58.8528V10.968ZM60.3728 14.712V13.368H47.2528V14.712H52.9648V16.024H48.8207V17.288H57.1088V18.392H48.8688V22.104H59.2048V20.824H50.5168V19.56H58.7568V16.024H54.6128V14.712H60.3728ZM64.1315 14.296H68.9635V9.064H62.4835V10.392H67.3475V12.968H62.5155V18.84H63.6515C66.1795 18.84 68.0515 18.76 70.2115 18.392L70.0675 17.048C68.0835 17.384 66.3555 17.464 64.1315 17.48V14.296ZM72.3235 7.752V13.176H69.7955V14.536H72.3235V22.248H73.9715V7.752H72.3235ZM88.716 14.392C86.572 13.688 85.34 11.928 85.34 10.072V8.52H83.676V9.944C83.676 12.024 82.444 13.992 80.172 14.776L81.052 16.088C82.716 15.48 83.9 14.232 84.54 12.664C85.148 14.024 86.3 15.128 87.852 15.688L88.716 14.392ZM86.94 20.936C84.924 20.936 83.756 20.44 83.756 19.512C83.756 18.616 84.924 18.104 86.94 18.104C88.956 18.104 90.124 18.616 90.124 19.512C90.124 20.44 88.956 20.936 86.94 20.936ZM86.94 16.808C83.964 16.808 82.124 17.816 82.124 19.512C82.124 21.224 83.964 22.232 86.94 22.232C89.932 22.232 91.756 21.224 91.756 19.512C91.756 17.816 89.932 16.808 86.94 16.808ZM91.596 11.352V7.768H89.948V16.456H91.596V12.712H93.644V11.352H91.596ZM103.307 13.448C101.563 13.816 100.011 13.896 97.2748 13.912V10.04H102.027V8.712H95.6268V15.256H96.7948C99.8988 15.256 101.595 15.176 103.467 14.776L103.307 13.448ZM98.7148 17.944H104.699V20.728H98.7148V17.944ZM97.0828 22.056H106.315V16.648H97.0828V22.056ZM108.363 11.192H106.315V7.768H104.667V15.928H106.315V12.552H108.363V11.192ZM121.658 7.8H120.01V18.36H121.658V7.8ZM118.506 14.776C116.282 14.008 115.018 12.072 115.018 10.024V8.584H113.338V10.024C113.338 12.136 112.074 14.2 109.802 15.032L110.65 16.36C112.346 15.72 113.546 14.408 114.202 12.792C114.826 14.296 116.01 15.48 117.658 16.088L118.506 14.776ZM113.882 20.616V17.368H112.218V21.96H122.074V20.616H113.882ZM132.184 11.768V13.128H134.792V16.52H136.44V7.768H134.792V11.768H132.184ZM133.08 14.696C130.872 14.072 129.56 12.504 129.56 10.856V10.728H132.6V9.416H129.576V7.72H127.912V9.416H124.872V10.728H127.912V10.856C127.912 12.664 126.664 14.376 124.44 15.064L125.24 16.344C126.936 15.816 128.152 14.68 128.792 13.24C129.448 14.504 130.664 15.512 132.312 15.976L133.08 14.696ZM131.624 20.952C129.576 20.952 128.408 20.44 128.408 19.528C128.408 18.616 129.576 18.12 131.624 18.12C133.688 18.12 134.856 18.616 134.856 19.528C134.856 20.44 133.688 20.952 131.624 20.952ZM131.624 16.84C128.6 16.84 126.76 17.832 126.76 19.528C126.76 21.224 128.6 22.232 131.624 22.232C134.648 22.232 136.504 21.224 136.504 19.528C136.504 17.832 134.648 16.84 131.624 16.84ZM147.735 9.432H144.295V7.784H142.647V9.432H139.207V10.744H147.735V9.432ZM141.543 14.152C141.543 13.24 142.327 12.696 143.463 12.696C144.615 12.696 145.399 13.24 145.399 14.152C145.399 15.064 144.615 15.608 143.463 15.608C142.327 15.608 141.543 15.064 141.543 14.152ZM146.967 14.152C146.967 12.52 145.543 11.416 143.463 11.416C141.399 11.416 139.959 12.52 139.959 14.152C139.959 15.8 141.399 16.888 143.463 16.888C145.543 16.888 146.967 15.8 146.967 14.152ZM142.983 17.784H141.319V21.96H151.047V20.616H142.983V17.784ZM150.471 12.392V7.784H148.823V18.616H150.471V13.752H152.519V12.392H150.471ZM167.84 20.728H161.712V19.128H167.84V20.728ZM167.84 17.848H161.712V16.216H160.08V22.056H169.472V16.216H167.84V17.848ZM161.472 13.832C160.192 13.832 159.28 13.016 159.28 11.8C159.28 10.568 160.192 9.784 161.472 9.784C162.72 9.784 163.648 10.568 163.648 11.8C163.648 13.016 162.72 13.832 161.472 13.832ZM167.824 7.784V11.112H165.152C164.832 9.496 163.376 8.424 161.472 8.424C159.296 8.424 157.696 9.816 157.696 11.8C157.696 13.8 159.296 15.192 161.472 15.192C163.392 15.192 164.864 14.088 165.152 12.456H167.824V15.528H169.472V7.784H167.824ZM176.558 11.688H179.038V10.328H176.558V8.28H174.99V10.328H172.494V11.688H174.99V12.2C174.99 14.504 174.03 16.968 172.046 18.136L172.99 19.384C174.366 18.584 175.278 17.128 175.79 15.432C176.318 17 177.246 18.328 178.606 19.064L179.518 17.832C177.534 16.76 176.558 14.456 176.558 12.2V11.688ZM180.062 13.384H178.11V14.728H180.062V21.528H181.614V8.072H180.062V13.384ZM182.974 7.784V22.232H184.542V7.784H182.974ZM188.957 12.152C188.957 10.888 189.917 10.088 191.229 10.088C192.541 10.088 193.485 10.888 193.485 12.152C193.485 13.416 192.541 14.2 191.229 14.2C189.917 14.2 188.957 13.416 188.957 12.152ZM192.061 15.544C193.853 15.224 195.085 13.928 195.085 12.152C195.085 10.104 193.453 8.68 191.229 8.68C189.005 8.68 187.357 10.104 187.357 12.152C187.357 13.928 188.621 15.24 190.413 15.56V17.832C189.117 17.864 187.869 17.864 186.781 17.864L187.005 19.224C189.485 19.224 192.797 19.208 195.821 18.68L195.677 17.464C194.525 17.624 193.293 17.72 192.061 17.768V15.544ZM200.285 13.608H198.173V7.784H196.525V22.216H198.173V14.984H200.285V13.608Z" fill="#555868"/>
<path d="M38.9176 36.704H41.4456V35.36H38.9176V33.28H37.3496V35.36H34.8056V36.704H37.3496V37.2C37.3496 39.488 36.3736 41.952 34.4056 43.12L35.3496 44.352C36.7256 43.552 37.6376 42.096 38.1496 40.416C38.6776 41.968 39.6056 43.296 40.9656 44.016L41.8776 42.784C39.8936 41.728 38.9176 39.44 38.9176 37.2V36.704ZM45.4136 32.784V38.48H43.8296V33.056H42.2776V46.56H43.8296V39.84H45.4136V47.232H46.9816V32.784H45.4136ZM61.2044 32.8H59.5564V41.648H61.2044V32.8ZM58.1004 39.088C56.1804 39.408 54.5324 39.472 51.7484 39.472V37.92H56.6124V36.624H51.7484V35.136H57.0284V33.808H50.1164V40.784H51.3164C54.4204 40.784 56.1964 40.736 58.2604 40.4L58.1004 39.088ZM56.3884 45.952C54.3244 45.952 53.1404 45.456 53.1404 44.544C53.1404 43.632 54.3244 43.136 56.3884 43.136C58.4364 43.136 59.6364 43.632 59.6364 44.544C59.6364 45.456 58.4364 45.952 56.3884 45.952ZM56.3884 41.856C53.3484 41.856 51.4924 42.848 51.4924 44.544C51.4924 46.24 53.3484 47.232 56.3884 47.232C59.4284 47.232 61.2844 46.24 61.2844 44.544C61.2844 42.848 59.4284 41.856 56.3884 41.856ZM70.5471 34.24C72.7871 34.24 73.9871 34.672 73.9871 35.504C73.9871 36.32 72.7871 36.752 70.5471 36.752C68.3071 36.752 67.1071 36.32 67.1071 35.504C67.1071 34.672 68.3071 34.24 70.5471 34.24ZM70.5471 37.984C73.7791 37.984 75.6991 37.104 75.6991 35.504C75.6991 33.888 73.7791 33.008 70.5471 33.008C67.2991 33.008 65.3951 33.888 65.3951 35.504C65.3951 37.104 67.2991 37.984 70.5471 37.984ZM67.2191 44.64H75.4431V41.184H65.5551V42.432H73.8271V43.472H65.5871V47.104H75.8591V45.84H67.2191V44.64ZM64.0031 38.832V40.144H77.0911V38.832H64.0031ZM87.6596 33.984H86.0116V36.352C86.0116 39.136 84.5076 41.904 82.2036 42.944L83.1796 44.32C84.9236 43.472 86.2036 41.76 86.8596 39.664C87.5156 41.616 88.7796 43.216 90.4436 44L91.4036 42.688C89.1316 41.664 87.6596 39.008 87.6596 36.352V33.984ZM92.5556 32.768V47.264H94.2196V32.768H92.5556ZM105.546 39.648C103.338 38.912 102.122 37.136 102.122 35.312V35.056H105.146V33.712H97.3864V35.056H100.458V35.312C100.458 37.296 99.1944 39.136 96.9064 39.904L97.7704 41.2C99.4664 40.608 100.666 39.424 101.306 37.904C101.93 39.28 103.082 40.384 104.698 40.912L105.546 39.648ZM98.8264 43.52H106.682V47.232H108.33V42.192H98.8264V43.52ZM110.378 36.464H108.33V32.768H106.682V41.488H108.33V37.824H110.378V36.464ZM115.289 42.624C114.313 42.624 113.625 41.84 113.625 40.64C113.625 39.44 114.313 38.64 115.289 38.64C116.265 38.64 116.953 39.44 116.953 40.64C116.953 41.84 116.265 42.624 115.289 42.624ZM115.289 37.28C113.465 37.28 112.153 38.64 112.153 40.64C112.153 42.624 113.465 44 115.289 44C117.113 44 118.425 42.624 118.425 40.64C118.425 38.64 117.113 37.28 115.289 37.28ZM116.105 33.2H114.473V35.136H111.737V36.464H118.809V35.136H116.105V33.2ZM122.505 32.784V38.768H120.969V33.088H119.433V46.56H120.969V40.128H122.505V47.232H124.073V32.784H122.505ZM129.592 37.504H136.44V39.872H129.592V37.504ZM133.832 44.112V41.2H138.072V33.744H136.44V36.176H129.592V33.744H127.96V41.2H132.184V44.112H126.488V45.472H139.576V44.112H133.832ZM145.639 34.112H144.039V36.72C144.039 39.184 143.047 41.776 140.999 42.992L142.007 44.24C143.399 43.392 144.343 41.872 144.855 40.096C145.351 41.712 146.215 43.12 147.527 43.92L148.455 42.64C146.519 41.424 145.639 38.976 145.639 36.64V34.112ZM149.031 37.84H146.903V39.184H149.031V46.56H150.583V33.056H149.031V37.84ZM151.975 32.784V47.232H153.543V32.784H151.975ZM160.629 40.976C161.189 41.104 161.813 41.168 162.453 41.168C163.093 41.168 163.717 41.104 164.277 40.96V44.112H160.629V40.976ZM162.453 34.912C164.629 34.912 166.149 35.872 166.149 37.392C166.149 38.928 164.629 39.888 162.453 39.888C160.261 39.888 158.741 38.928 158.741 37.392C158.741 35.872 160.261 34.912 162.453 34.912ZM165.925 44.112V40.352C167.077 39.696 167.765 38.672 167.765 37.392C167.765 35.088 165.525 33.616 162.453 33.616C159.365 33.616 157.141 35.088 157.141 37.392C157.141 38.672 157.829 39.712 158.981 40.352V44.112H155.925V45.456H169.013V44.112H165.925Z" fill="#555868"/>
</svg>
