<svg width="24" height="24" viewBox="0 0 24 24" fill="none" xmlns="http://www.w3.org/2000/svg">
<path d="M12.1432 20.25C11.502 20.25 10.8986 19.9999 10.4442 19.5465C9.99088 19.0932 9.74072 18.4897 9.74072 17.8475C9.74072 17.63 9.77033 17.4146 9.82751 17.2073C9.92349 16.8591 10.2839 16.6559 10.6311 16.7519C10.9792 16.8479 11.1824 17.2083 11.0865 17.5555C11.0599 17.6504 11.0466 17.7485 11.0466 17.8475C11.0466 18.452 11.5378 18.9431 12.1422 18.9431C12.7467 18.9431 13.2378 18.452 13.2378 17.8475C13.2378 17.7485 13.2245 17.6494 13.198 17.5555C13.102 17.2073 13.3062 16.8479 13.6533 16.7519C14.0015 16.6559 14.3609 16.8602 14.4569 17.2073C14.5141 17.4156 14.5437 17.631 14.5437 17.8475C14.5437 18.4887 14.2935 19.0921 13.8402 19.5465C13.3869 20.0009 12.7844 20.25 12.1432 20.25V20.25Z" fill="white"/>
<path d="M18.3826 17.773H5.90347C5.54304 17.773 5.25 17.48 5.25 17.1195C5.25 16.3568 5.54712 15.639 6.08623 15.0999C6.29452 14.8916 6.53345 14.717 6.79483 14.5812C6.93574 14.5087 7.02253 14.3617 7.02253 14.1983V10.3072C7.02253 9.65165 7.15118 9.01554 7.40439 8.41619C7.64944 7.83726 7.99966 7.31858 8.44483 6.87238C8.89103 6.42619 9.40972 6.07597 9.98865 5.83194C10.588 5.57872 11.2241 5.45007 11.8796 5.45007H12.4054C13.061 5.45007 13.6971 5.57872 14.2964 5.83194C14.8753 6.07699 15.394 6.42721 15.8402 6.87238C16.2864 7.31858 16.6366 7.83726 16.8807 8.41619C17.1339 9.01554 17.2625 9.65165 17.2625 10.3072V14.1983C17.2625 14.3607 17.3544 14.5098 17.5035 14.5884C17.9579 14.8263 18.3408 15.1826 18.6113 15.6196C18.889 16.0699 19.0361 16.5886 19.0361 17.1195C19.0361 17.481 18.7441 17.773 18.3826 17.773V17.773ZM6.69988 16.4661H17.5852C17.4443 16.1628 17.2064 15.9076 16.897 15.7462C16.316 15.442 15.9556 14.8487 15.9556 14.1994V10.3072C15.9556 8.34983 14.3628 6.757 12.4054 6.757H11.8796C9.92228 6.757 8.32946 8.34983 8.32946 10.3072V14.1983C8.32946 14.5159 8.24369 14.8273 8.08032 15.0989C7.91491 15.3736 7.67803 15.5961 7.3952 15.7422C7.25328 15.8157 7.12361 15.9106 7.01027 16.024C6.87958 16.1547 6.77543 16.3037 6.69988 16.4661V16.4661Z" fill="white"/>
<path d="M12.1432 6.75696C11.7828 6.75696 11.4897 6.46392 11.4897 6.1035V4.40347C11.4897 4.04304 11.7828 3.75 12.1432 3.75C12.5036 3.75 12.7967 4.04304 12.7967 4.40347V6.1035C12.7967 6.46494 12.5036 6.75696 12.1432 6.75696Z" fill="white"/>
</svg>
