<svg width="22" height="22" viewBox="0 0 22 22" fill="none" xmlns="http://www.w3.org/2000/svg">
<path d="M18.9761 5.27178C18.9748 5.17091 18.9424 5.07148 18.8731 4.99251L14.6317 0.147137C14.6304 0.145974 14.6292 0.145372 14.6283 0.144328C14.603 0.11588 14.5735 0.0928084 14.5423 0.0723047C14.5331 0.0663261 14.5238 0.0606685 14.5141 0.0554523C14.4871 0.0406062 14.4589 0.0286891 14.429 0.0198216C14.421 0.0174944 14.4139 0.0140436 14.4058 0.0123584C14.3738 0.00453409 14.3405 0 14.3068 0H3.88229C3.40669 0 3.01953 0.386962 3.01953 0.862761V21.1373C3.01953 21.6129 3.40669 22 3.88229 22H18.1175C18.5931 22 18.9803 21.6129 18.9803 21.1373V5.32013C18.9804 5.30392 18.9778 5.28803 18.9761 5.27178ZM6.65475 19.4518C6.26004 19.78 5.65981 19.9355 4.92577 19.9355C4.48689 19.9355 4.1754 19.9077 3.96443 19.8798V16.2001C4.27575 16.1502 4.68146 16.1225 5.10955 16.1225C5.82104 16.1225 6.28243 16.2502 6.64323 16.5228C7.03264 16.8117 7.27724 17.273 7.27724 17.9344C7.27724 18.6514 7.01591 19.1463 6.65475 19.4518ZM9.42303 19.9577C8.31145 19.9577 7.66087 19.1181 7.66087 18.051C7.66087 16.9284 8.37778 16.0886 9.4841 16.0886C10.635 16.0886 11.2626 16.9505 11.2626 17.9843C11.2628 19.2129 10.5181 19.9577 9.42303 19.9577ZM13.7369 19.2517C13.9926 19.2517 14.2761 19.196 14.4427 19.1295L14.5706 19.7909C14.4149 19.8684 14.0648 19.9522 13.6092 19.9522C12.3136 19.9522 11.6468 19.1463 11.6468 18.0789C11.6468 16.8003 12.5586 16.0886 13.6923 16.0886C14.1312 16.0886 14.4649 16.1777 14.6148 16.2554L14.4425 16.928C14.2702 16.8555 14.0314 16.7889 13.731 16.7889C13.0582 16.7889 12.5359 17.1946 12.5359 18.0283C12.5363 18.779 12.9811 19.2517 13.7369 19.2517ZM17.1166 19.8967L16.7775 19.2185C16.6385 18.9572 16.5496 18.7626 16.4439 18.5456H16.433C16.355 18.7626 16.2606 18.9572 16.144 19.2185L15.8327 19.8967H14.8655L15.9494 18.001L14.9046 16.1502H15.8772L16.205 16.8341C16.3162 17.0616 16.3996 17.2452 16.4885 17.4563H16.4995C16.5884 17.2176 16.6608 17.0506 16.7552 16.8341L17.072 16.1502H18.0392L16.9833 17.9787L18.0948 19.8968H17.1166V19.8967H17.1166ZM3.88229 14.6486V0.862761H13.8755V5.27672C13.8755 5.51486 14.0688 5.7081 14.3068 5.7081H18.1176V14.6485H3.88229V14.6486Z" fill="#3256B5"/>
<path d="M5.19813 16.7729C5.00902 16.7729 4.88696 16.7898 4.81445 16.8064V19.2576C4.88692 19.2739 5.00356 19.2739 5.10925 19.2739C5.87648 19.2797 6.37639 18.8571 6.37639 17.9626C6.38177 17.1845 5.92607 16.7729 5.19813 16.7729Z" fill="#3256B5"/>
<path d="M9.46234 16.762C8.88984 16.762 8.55664 17.3066 8.55664 18.0348C8.55664 18.7684 8.90131 19.2853 9.46839 19.2853C10.0408 19.2853 10.3686 18.7407 10.3686 18.0127C10.3684 17.34 10.0462 16.762 9.46234 16.762Z" fill="#3256B5"/>
<path d="M13.657 7.21242V4.76245H5.24512V10.7298H7.69534V13.1797H16.107V7.21242H13.657ZM7.69534 10.2984H5.67646V5.19383H13.2256V7.21242H7.69534V10.2984ZM15.6757 12.7483H8.12672V7.64376H15.6757V12.7483Z" fill="#3256B5"/>
<path d="M9.35393 8.84826C9.51273 8.84826 9.64145 8.71953 9.64145 8.56073C9.64145 8.40193 9.51273 8.27319 9.35393 8.27319C9.19514 8.27319 9.06641 8.40193 9.06641 8.56073C9.06641 8.71953 9.19514 8.84826 9.35393 8.84826Z" fill="#3256B5"/>
<path d="M14.4687 8.45288H10.083V8.66853H14.4687V8.45288Z" fill="#3256B5"/>
<path d="M9.35393 9.89072C9.51273 9.89072 9.64145 9.76199 9.64145 9.6032C9.64145 9.4444 9.51273 9.31567 9.35393 9.31567C9.19514 9.31567 9.06641 9.4444 9.06641 9.6032C9.06641 9.76199 9.19514 9.89072 9.35393 9.89072Z" fill="#3256B5"/>
<path d="M14.4687 9.49512H10.083V9.71079H14.4687V9.49512Z" fill="#3256B5"/>
<path d="M9.35397 11.0122C9.51279 11.0122 9.64153 10.8834 9.64153 10.7246C9.64153 10.5658 9.51279 10.437 9.35397 10.437C9.19515 10.437 9.06641 10.5658 9.06641 10.7246C9.06641 10.8834 9.19515 11.0122 9.35397 11.0122Z" fill="#3256B5"/>
<path d="M14.4687 10.6169H10.083V10.8326H14.4687V10.6169Z" fill="#3256B5"/>
<path d="M9.3539 11.4976C9.51263 11.4976 9.64143 11.6264 9.64143 11.7853C9.64143 11.9439 9.51263 12.0726 9.3539 12.0726C9.19509 12.0726 9.06641 11.9439 9.06641 11.7853C9.06641 11.6264 9.19509 11.4976 9.3539 11.4976Z" fill="#3256B5"/>
<path d="M14.4687 11.6775H10.083V11.8932H14.4687V11.6775Z" fill="#3256B5"/>
</svg>
