<svg width="22" height="22" viewBox="0 0 22 22" fill="none" xmlns="http://www.w3.org/2000/svg">
<g clip-path="url(#clip0_2559_6909)">
<path d="M18.9761 5.2722C18.9749 5.17131 18.943 5.07165 18.8738 4.99293L14.6316 0.147545C14.6308 0.146187 14.6295 0.145748 14.6282 0.14451C14.6029 0.116271 14.5739 0.0929846 14.5427 0.0724545C14.5334 0.0664632 14.5242 0.0609912 14.5145 0.055599C14.4871 0.0409803 14.4589 0.028838 14.4294 0.0199709C14.4214 0.0176543 14.4142 0.0143791 14.4062 0.0123021C14.3738 0.00475308 14.341 0 14.3073 0H3.88227C3.40669 0 3.01953 0.387156 3.01953 0.862783V21.1373C3.01953 21.6131 3.40665 22 3.88227 22H18.1175C18.5936 22 18.9803 21.6131 18.9803 21.1373V5.32053C18.9803 5.30412 18.9778 5.28822 18.9761 5.2722ZM8.0359 20.8984L7.55145 19.9295C7.35306 19.5562 7.22584 19.2782 7.07502 18.9686H7.05913C6.94781 19.2784 6.81301 19.5562 6.64629 19.9295L6.2013 20.8984H4.81955L6.36821 18.1901L4.87527 15.5454H6.26492L6.73336 16.5223C6.89217 16.8479 7.0114 17.11 7.13873 17.4116H7.15423C7.28144 17.0704 7.38457 16.8319 7.51938 16.5223L7.97232 15.5454H9.35406L7.8453 18.1585L9.43379 20.8984H8.0359ZM13.4277 20.8984H10.0841V15.5458H11.2995V19.8819H13.4277V20.8984ZM15.4522 20.9776C14.841 20.9776 14.2373 20.8187 13.9357 20.652L14.1819 19.6515C14.5078 19.8179 15.008 19.9847 15.5242 19.9847C16.0801 19.9847 16.3737 19.7547 16.3737 19.405C16.3737 19.0713 16.1195 18.8807 15.4764 18.6505C14.5871 18.3409 14.0068 17.8484 14.0068 17.0703C14.0068 16.1571 14.7693 15.458 16.0325 15.458C16.6358 15.458 17.0804 15.5852 17.3982 15.728L17.1282 16.7047C16.9138 16.6015 16.5323 16.4507 16.0087 16.4507C15.4847 16.4507 15.2306 16.6887 15.2306 16.967C15.2306 17.3084 15.5323 17.4592 16.2231 17.7212C17.168 18.0709 17.6129 18.5629 17.6129 19.3174C17.6125 20.2155 16.9218 20.9776 15.4522 20.9776ZM3.88227 14.649V0.862943H13.8759V5.27715C13.8759 5.51529 14.0688 5.70853 14.3073 5.70853H18.1175L18.118 14.649H3.88227Z" fill="#22794A"/>
<path d="M12.2758 5.52686H8.91475H5.12207V7.1445V7.36019V8.76214V8.97783V10.3798V10.5955V12.2131H8.69878H8.91447H12.2757H12.4914H16.0681V10.3798V8.97783V7.36019V7.1445V5.52686H12.2758ZM12.2758 8.76214H8.91475V7.36019H12.2758V8.76214ZM5.33776 5.74254H8.69878V7.1445H5.33776V5.74254ZM5.33776 7.36019H8.69878V8.76214H5.33776V7.36019ZM5.33776 8.97783H8.69878V10.3798H5.33776V8.97783ZM5.33776 11.9974V10.5955H8.69878V11.9974H5.33776ZM8.91471 11.9974V10.5955H12.2757V11.9974H8.91471ZM15.8524 11.9974H12.4914V10.5955H15.8524V11.9974ZM15.8524 8.76214H12.4914V7.36019H15.8524V8.76214ZM12.4914 7.1445V5.74254H15.8524V7.1445H12.4914Z" fill="#22794A"/>
</g>
<defs>
<clipPath id="clip0_2559_6909">
<rect width="22" height="22" fill="white"/>
</clipPath>
</defs>
</svg>
