<svg width="52" height="52" viewBox="0 0 52 52" fill="none" xmlns="http://www.w3.org/2000/svg">
<rect width="52" height="52" rx="19" fill="#979EC5"/>
<path d="M32.0658 16.375H19.9342C18.9905 16.3759 18.0857 16.7512 17.4185 17.4185C16.7512 18.0857 16.3759 18.9905 16.375 19.9342V32.0658C16.3759 33.0095 16.7512 33.9143 17.4185 34.5815C18.0857 35.2488 18.9905 35.6241 19.9342 35.625H32.0658C32.0933 35.625 32.1188 35.6174 32.1463 35.6168C32.1598 35.6202 32.1736 35.623 32.1875 35.625C32.232 35.6206 32.2759 35.6121 32.3188 35.5996C33.2144 35.5372 34.0532 35.1381 34.6665 34.4826C35.2799 33.827 35.6223 32.9636 35.625 32.0658V19.9342C35.6241 18.9905 35.2488 18.0857 34.5815 17.4185C33.9143 16.7512 33.0095 16.3759 32.0658 16.375ZM19.9342 17.75H32.0658C32.6449 17.7505 33.2002 17.9808 33.6097 18.3903C34.0192 18.7998 34.2495 19.3551 34.25 19.9342V29.2904L31.1611 26.2014C31.0321 26.0726 30.8573 26.0001 30.675 26.0001C30.4927 26.0001 30.3179 26.0726 30.1889 26.2014L27.3062 29.0841L21.3298 23.1077C21.2009 22.9788 21.0261 22.9064 20.8438 22.9064C20.6614 22.9064 20.4866 22.9788 20.3577 23.1077L17.75 25.7154V19.9342C17.7505 19.3551 17.9808 18.7998 18.3903 18.3903C18.7998 17.9808 19.3551 17.7505 19.9342 17.75ZM17.75 32.0658V27.6596L20.8438 24.5659L30.5279 34.25H19.9342C19.3551 34.2495 18.7998 34.0192 18.3903 33.6097C17.9808 33.2002 17.7505 32.6449 17.75 32.0658ZM32.435 34.2129L28.2784 30.0562L30.675 27.6596L34.25 31.2346V32.0658C34.2487 32.5801 34.0659 33.0774 33.7339 33.4702C33.4019 33.8629 32.9419 34.1259 32.435 34.2129Z" fill="white"/>
<path d="M30.4687 23.9375C30.9447 23.9375 31.4099 23.7964 31.8056 23.532C32.2013 23.2676 32.5097 22.8918 32.6918 22.4521C32.874 22.0124 32.9216 21.5286 32.8288 21.0618C32.7359 20.595 32.5067 20.1663 32.1702 19.8298C31.8337 19.4933 31.4049 19.2641 30.9382 19.1712C30.4714 19.0784 29.9876 19.126 29.5479 19.3082C29.1082 19.4903 28.7324 19.7987 28.468 20.1944C28.2036 20.5901 28.0625 21.0553 28.0625 21.5313C28.0625 22.1694 28.316 22.7815 28.7673 23.2327C29.2185 23.684 29.8306 23.9375 30.4687 23.9375ZM30.4687 20.5C30.6727 20.5 30.8721 20.5605 31.0417 20.6738C31.2113 20.7871 31.3434 20.9482 31.4215 21.1366C31.4995 21.325 31.52 21.5324 31.4802 21.7324C31.4404 21.9325 31.3422 22.1162 31.1979 22.2605C31.0537 22.4047 30.87 22.5029 30.6699 22.5427C30.4699 22.5825 30.2625 22.5621 30.0741 22.484C29.8857 22.4059 29.7246 22.2738 29.6113 22.1042C29.498 21.9346 29.4375 21.7352 29.4375 21.5313C29.4375 21.2577 29.5461 20.9954 29.7395 20.802C29.9329 20.6087 30.1952 20.5 30.4687 20.5Z" fill="white"/>
</svg>
