<svg width="48" height="48" viewBox="0 0 48 48" fill="none" xmlns="http://www.w3.org/2000/svg">
<circle cx="24" cy="24" r="24" fill="#979EC5"/>
<circle cx="24.0004" cy="24" r="17.5385" fill="white"/>
<g clip-path="url(#clip0_2899_9726)">
<path d="M23.9996 5.53931C13.8047 5.53931 5.53809 13.8043 5.53809 24C5.53809 34.1958 13.8039 42.4608 23.9996 42.4608C34.1962 42.4608 42.4612 34.1958 42.4612 24C42.4612 13.8043 34.1962 5.53931 23.9996 5.53931ZM23.9996 11.0593C27.3731 11.0593 30.1067 13.7937 30.1067 17.1655C30.1067 20.5382 27.3731 23.2718 23.9996 23.2718C20.6278 23.2718 17.8942 20.5382 17.8942 17.1655C17.8942 13.7937 20.6278 11.0593 23.9996 11.0593ZM23.9956 37.6341C20.631 37.6341 17.5495 36.4088 15.1727 34.3807C14.5937 33.8868 14.2596 33.1627 14.2596 32.4028C14.2596 28.9832 17.0273 26.2463 20.4478 26.2463H27.5531C30.9744 26.2463 33.7315 28.9832 33.7315 32.4028C33.7315 33.1635 33.3991 33.886 32.8193 34.3799C30.4432 36.4088 27.3609 37.6341 23.9956 37.6341Z" fill="#979EC5"/>
</g>
<defs>
<clipPath id="clip0_2899_9726">
<rect width="36.9231" height="36.9231" fill="white" transform="translate(5.53809 5.53845)"/>
</clipPath>
</defs>
</svg>
