<svg width="22" height="22" viewBox="0 0 22 22" fill="none" xmlns="http://www.w3.org/2000/svg">
<path d="M10.8915 16.5742C10.651 16.5742 10.488 16.5974 10.4023 16.6206V18.1657C10.5036 18.1889 10.6277 18.1969 10.7984 18.1969C11.4274 18.1969 11.8154 17.8784 11.8154 17.3428C11.8154 16.8613 11.4817 16.5742 10.8915 16.5742Z" fill="#C66A6A"/>
<path d="M6.38076 16.5742C6.14021 16.5742 5.97719 16.5974 5.8916 16.6206V18.1657C5.9928 18.1889 6.11694 18.1969 6.28759 18.1969C6.91655 18.1969 7.30463 17.8784 7.30463 17.3428C7.30459 16.8613 6.97084 16.5742 6.38076 16.5742Z" fill="#C66A6A"/>
<path d="M18.9761 5.27198C18.9748 5.17111 18.9424 5.07148 18.8731 4.99271L14.6317 0.147538C14.6304 0.146174 14.6292 0.145773 14.6283 0.144529C14.603 0.116281 14.5735 0.093009 14.5423 0.0724652C14.5331 0.0664866 14.5238 0.0611099 14.5141 0.0556529C14.4871 0.0410074 14.4589 0.0288898 14.429 0.0200222C14.421 0.017695 14.4139 0.0144449 14.4058 0.0123584C14.3738 0.00453409 14.3405 0 14.3068 0H3.88229C3.40669 0 3.01953 0.387163 3.01953 0.862761V21.1373C3.01953 21.6131 3.40669 22 3.88229 22H18.1175C18.5931 22 18.9803 21.6131 18.9803 21.1373V5.32033C18.9804 5.30412 18.9778 5.28823 18.9761 5.27198ZM7.99539 18.5536C7.59142 18.9341 6.99352 19.1051 6.29479 19.1051C6.13963 19.1051 5.99987 19.0971 5.89121 19.0817V20.9527H4.71873V15.7897C5.08338 15.7278 5.5961 15.681 6.31822 15.681C7.04789 15.681 7.5681 15.821 7.91735 16.1002C8.25143 16.3644 8.47637 16.7989 8.47637 17.3113C8.47633 17.824 8.30592 18.2587 7.99539 18.5536ZM12.5068 18.5536C12.1028 18.9341 11.5048 19.1051 10.806 19.1051C10.6509 19.1051 10.5112 19.0971 10.4025 19.0817V20.9527H9.23003V15.7897C9.59472 15.7278 10.1074 15.681 10.8296 15.681C11.5592 15.681 12.0795 15.821 12.4287 16.1002C12.7628 16.3644 12.9877 16.7989 12.9877 17.3113C12.9877 17.824 12.8173 18.2587 12.5068 18.5536ZM17.3673 16.7138H15.9388V20.9527H14.7508V16.7138H13.3453V15.72H17.3669V16.7138H17.3673ZM3.88229 14.6488V0.862761H13.8755V5.27692C13.8755 5.51506 14.0688 5.7083 14.3068 5.7083H18.1176V14.6487H3.88229V14.6488Z" fill="#C66A6A"/>
<path d="M10.3293 5.60449C8.37864 5.60449 6.79785 7.18568 6.79785 9.13614C6.79785 11.0864 8.3786 12.6674 10.3293 12.6674C12.2796 12.6674 13.8607 11.0864 13.8607 9.13614H10.3293V5.60449Z" fill="#C66A6A"/>
<path d="M10.8076 8.57852V8.57956H14.3394C14.3394 7.58616 13.9273 6.69001 13.2672 6.04834L10.8076 8.57852Z" fill="#C66A6A"/>
<path d="M10.7712 7.95809L13.2679 5.46109C12.5657 4.75862 11.6894 4.41592 10.7686 4.42908L10.7703 7.95725L10.7712 7.95809Z" fill="#C66A6A"/>
</svg>
