<svg width="184" height="160" viewBox="0 0 184 160" fill="none" xmlns="http://www.w3.org/2000/svg">
<g clip-path="url(#clip0_2063_5902)">
<path d="M49.877 136.983C49.8819 135.995 50.0687 135.015 50.4279 134.094C50.7854 133.156 51.3242 132.298 52.0134 131.568C52.7207 130.813 53.564 130.197 54.4992 129.754C55.5177 129.284 56.6292 129.05 57.7508 129.069H69.6423C70.7635 129.054 71.8741 129.288 72.894 129.754C73.8331 130.197 74.6808 130.813 75.3932 131.568C76.0778 132.302 76.616 133.159 76.9787 134.094C77.3333 135.016 77.5155 135.995 77.5162 136.983V139.536C77.5263 140.497 77.3671 141.452 77.0459 142.358C76.7392 143.239 76.2492 144.045 75.6082 144.723C74.9314 145.44 74.1122 146.007 73.203 146.389C72.133 146.823 70.985 147.034 69.8304 147.007H66.6862V154.545H76.3875C76.9542 154.53 77.5199 154.598 78.0671 154.746C78.4477 154.843 78.7986 155.032 79.0883 155.297C79.3195 155.514 79.4908 155.787 79.5854 156.09C79.668 156.42 79.7087 156.758 79.7063 157.098C79.7058 157.398 79.6651 157.696 79.5854 157.985C79.494 158.293 79.3224 158.571 79.0883 158.791C78.7933 159.051 78.4447 159.244 78.0671 159.355C77.5228 159.52 76.9559 159.597 76.3875 159.584H51.0459C50.4775 159.597 49.9106 159.52 49.3664 159.355C48.9904 159.24 48.6425 159.048 48.3452 158.791C48.1099 158.574 47.942 158.294 47.8615 157.985C47.771 157.698 47.7256 157.399 47.7271 157.098C47.7219 156.757 47.7672 156.418 47.8615 156.09C47.9457 155.786 48.1132 155.511 48.3452 155.297C48.6368 155.035 48.9869 154.846 49.3664 154.746C49.9135 154.598 50.4793 154.53 51.0459 154.545H60.7472V147.034H57.5762C56.4172 147.061 55.2649 146.85 54.1901 146.416C53.281 146.034 52.4617 145.467 51.785 144.75C51.1444 144.069 50.6505 143.264 50.3338 142.385C49.9975 141.482 49.829 140.526 49.8366 139.563L49.877 136.983ZM55.7891 138.622C55.7638 139.451 56.0248 140.262 56.5281 140.92C56.8178 141.249 57.1759 141.511 57.5774 141.688C57.979 141.864 58.4142 141.951 58.8526 141.941H68.5539C68.9904 141.951 69.4236 141.864 69.8229 141.687C70.2223 141.511 70.578 141.249 70.865 140.92C71.3731 140.264 71.6389 139.452 71.6175 138.622V137.453C71.6404 136.607 71.3751 135.778 70.865 135.102C70.5672 134.761 70.1926 134.495 69.7722 134.327C69.3517 134.159 68.8973 134.093 68.4464 134.135H58.9601C58.5073 134.094 58.0513 134.161 57.6289 134.329C57.2064 134.497 56.8294 134.762 56.5281 135.102C56.0218 135.779 55.7612 136.608 55.7891 137.453V138.622Z" fill="#0822A0"/>
<path d="M90.2139 154.048H95.8976C96.4653 154.03 97.0322 154.103 97.5772 154.263C97.9548 154.374 98.3034 154.566 98.5984 154.827C98.8325 155.047 99.0041 155.325 99.0955 155.633C99.1743 155.922 99.2149 156.22 99.2165 156.52C99.2188 156.86 99.1781 157.198 99.0955 157.528C99.0013 157.834 98.8301 158.112 98.5984 158.334C98.304 158.589 97.9545 158.773 97.5772 158.871C97.03 159.019 96.4643 159.087 95.8976 159.073H87.2578C86.7174 159.093 86.1773 159.025 85.6588 158.871C85.3178 158.772 85.0079 158.587 84.7586 158.334C84.5569 158.108 84.426 157.827 84.3824 157.528C84.3266 157.195 84.2997 156.857 84.3017 156.52V131.877C84.3008 131.526 84.3278 131.176 84.3824 130.829C84.4275 130.505 84.5572 130.199 84.7586 129.942C84.9959 129.651 85.3067 129.428 85.6588 129.297C86.1738 129.126 86.7154 129.048 87.2578 129.069H95.172C95.7387 129.054 96.3044 129.122 96.8516 129.27C97.2269 129.373 97.5753 129.557 97.8728 129.808C98.1052 130.027 98.2726 130.306 98.3565 130.614C98.4508 130.941 98.496 131.281 98.4909 131.622C98.4912 131.922 98.4459 132.221 98.3565 132.509C98.276 132.818 98.1081 133.098 97.8728 133.315C97.5754 133.572 97.2276 133.764 96.8516 133.879C96.3066 134.039 95.7397 134.112 95.172 134.094H90.2139V154.048ZM106.338 146.093H100.439C99.8856 146.111 99.3327 146.043 98.7999 145.891C98.4351 145.788 98.1024 145.594 97.8325 145.327C97.6023 145.105 97.4433 144.82 97.3756 144.507C97.2965 144.178 97.2604 143.839 97.2681 143.5C97.2657 143.201 97.3018 142.903 97.3756 142.613C97.4433 142.3 97.6023 142.015 97.8325 141.793C98.1036 141.522 98.4351 141.32 98.7999 141.202C99.332 141.046 99.8849 140.974 100.439 140.987H106.338V131.877C106.28 131.419 106.332 130.954 106.488 130.519C106.645 130.085 106.902 129.694 107.238 129.378C107.827 128.926 108.552 128.689 109.294 128.706C109.67 128.702 110.045 128.747 110.409 128.84C110.752 128.94 111.069 129.114 111.336 129.351C111.627 129.629 111.852 129.969 111.995 130.345C112.182 130.833 112.269 131.354 112.25 131.877V156.775C112.27 157.311 112.184 157.845 111.995 158.347C111.851 158.719 111.626 159.054 111.336 159.328C111.072 159.57 110.755 159.745 110.409 159.839C110.046 159.937 109.671 159.986 109.294 159.986C108.917 159.985 108.543 159.936 108.179 159.839C107.811 159.738 107.474 159.55 107.195 159.29C106.917 159.03 106.706 158.707 106.58 158.347C106.404 157.842 106.322 157.31 106.338 156.775V146.093Z" fill="#0822A0"/>
<path d="M116.254 138.138C116.25 137.803 116.291 137.469 116.375 137.144C116.461 136.838 116.634 136.563 116.872 136.351C117.172 136.11 117.52 135.936 117.893 135.841C118.439 135.71 118.999 135.651 119.559 135.666H129.126C129.687 135.651 130.247 135.71 130.792 135.841C131.165 135.936 131.514 136.11 131.814 136.351C132.052 136.563 132.224 136.838 132.311 137.144C132.399 137.468 132.445 137.802 132.445 138.138C132.44 138.439 132.395 138.737 132.311 139.025C132.217 139.325 132.046 139.594 131.814 139.805C131.521 140.065 131.171 140.254 130.792 140.355C130.25 140.504 129.689 140.572 129.126 140.557H127.621V142.882C127.621 143.903 127.621 144.897 127.621 145.838C127.637 146.744 127.759 147.646 127.984 148.525C128.231 149.458 128.63 150.343 129.167 151.145C129.837 152.133 130.679 152.993 131.652 153.685C132.342 154.163 132.878 154.83 133.198 155.606C133.318 155.975 133.35 156.367 133.289 156.75C133.228 157.133 133.077 157.496 132.848 157.81C132.607 158.194 132.275 158.512 131.881 158.737C131.504 158.941 131.086 159.061 130.658 159.086C130.378 159.08 130.099 159.048 129.825 158.992C129.518 158.924 129.229 158.792 128.978 158.602C128.112 157.957 127.31 157.228 126.587 156.426C125.923 155.672 125.325 154.863 124.8 154.007C124.315 154.822 123.781 155.608 123.201 156.359C122.552 157.181 121.833 157.946 121.051 158.643C120.761 158.891 120.415 159.066 120.043 159.153C119.654 159.243 119.259 159.302 118.861 159.328C118.424 159.354 117.988 159.281 117.584 159.113C117.117 158.919 116.729 158.573 116.482 158.132C116.254 157.821 116.105 157.459 116.049 157.077C115.993 156.695 116.031 156.306 116.16 155.942C116.492 155.174 117.021 154.507 117.692 154.007C118.669 153.253 119.517 152.345 120.204 151.32C120.741 150.493 121.14 149.586 121.387 148.632C121.618 147.719 121.735 146.78 121.736 145.838V140.557H119.506C118.943 140.572 118.382 140.504 117.839 140.355C117.461 140.254 117.111 140.065 116.818 139.805C116.586 139.594 116.414 139.325 116.321 139.025C116.26 138.734 116.237 138.436 116.254 138.138ZM118.175 130.923C118.177 130.583 118.223 130.244 118.31 129.915C118.391 129.61 118.565 129.338 118.807 129.136C119.104 128.89 119.453 128.715 119.828 128.625C120.373 128.494 120.934 128.435 121.494 128.451H127.191C127.756 128.436 128.321 128.495 128.871 128.625C129.244 128.72 129.592 128.894 129.892 129.136C130.126 129.343 130.294 129.614 130.376 129.915C130.463 130.244 130.508 130.583 130.51 130.923C130.506 131.219 130.461 131.513 130.376 131.796C130.289 132.099 130.121 132.373 129.892 132.589C129.595 132.84 129.246 133.023 128.871 133.127C128.324 133.274 127.758 133.342 127.191 133.328H121.494C120.932 133.343 120.371 133.275 119.828 133.127C119.451 133.029 119.101 132.845 118.807 132.589C118.569 132.377 118.397 132.102 118.31 131.796C118.225 131.513 118.18 131.219 118.175 130.923V130.923ZM134.81 148.646H132.365C131.811 148.664 131.258 148.596 130.725 148.444C130.362 148.345 130.029 148.155 129.758 147.893C129.538 147.674 129.381 147.401 129.301 147.101C129.229 146.77 129.193 146.432 129.193 146.093C129.196 145.794 129.232 145.497 129.301 145.206C129.377 144.901 129.535 144.622 129.758 144.4C130.035 144.142 130.365 143.95 130.725 143.836C131.256 143.673 131.81 143.601 132.365 143.621H134.81V131.877C134.754 131.429 134.795 130.974 134.93 130.543C135.064 130.112 135.289 129.715 135.589 129.378C136.09 128.936 136.736 128.697 137.403 128.706C138.053 128.703 138.681 128.942 139.163 129.378C139.466 129.714 139.694 130.11 139.83 130.542C139.967 130.973 140.01 131.428 139.956 131.877V156.775C139.969 157.308 139.892 157.84 139.728 158.347C139.611 158.71 139.419 159.045 139.163 159.328C138.942 159.57 138.658 159.746 138.344 159.839C138.039 159.934 137.722 159.983 137.403 159.986C137.066 159.985 136.732 159.936 136.409 159.839C136.096 159.743 135.813 159.567 135.589 159.328C135.334 159.045 135.141 158.71 135.025 158.347C134.866 157.839 134.793 157.307 134.81 156.775V148.646ZM142.509 131.877C142.454 131.429 142.495 130.974 142.629 130.543C142.763 130.112 142.988 129.715 143.289 129.378C143.785 128.939 144.427 128.7 145.089 128.706C145.742 128.707 146.373 128.946 146.863 129.378C147.163 129.715 147.388 130.112 147.522 130.543C147.657 130.974 147.698 131.429 147.642 131.877V156.775C147.659 157.307 147.586 157.839 147.427 158.347C147.311 158.71 147.118 159.045 146.863 159.328C146.639 159.567 146.356 159.743 146.043 159.839C145.734 159.934 145.412 159.983 145.089 159.986C144.757 159.984 144.426 159.935 144.108 159.839C143.795 159.743 143.513 159.567 143.289 159.328C143.033 159.045 142.841 158.71 142.724 158.347C142.565 157.839 142.493 157.307 142.509 156.775V131.877Z" fill="#0822A0"/>
<path d="M151.66 157.071C151.657 156.731 151.698 156.392 151.781 156.063C151.875 155.76 152.046 155.487 152.278 155.27C152.567 155.005 152.918 154.816 153.299 154.719C153.846 154.57 154.412 154.502 154.978 154.518H180.333C180.9 154.503 181.466 154.571 182.013 154.719C182.393 154.819 182.743 155.008 183.034 155.27C183.266 155.484 183.434 155.759 183.518 156.063C183.612 156.39 183.658 156.73 183.652 157.071C183.654 157.372 183.608 157.671 183.518 157.958C183.437 158.267 183.27 158.547 183.034 158.764C182.737 159.021 182.389 159.213 182.013 159.328C181.469 159.493 180.902 159.57 180.333 159.557H154.978C154.41 159.572 153.843 159.494 153.299 159.328C152.921 159.217 152.573 159.024 152.278 158.764C152.044 158.544 151.872 158.266 151.781 157.958C151.701 157.669 151.66 157.37 151.66 157.071ZM178.022 129.499C178.541 129.479 179.059 129.547 179.554 129.7C179.876 129.807 180.163 129.997 180.387 130.251C180.594 130.495 180.725 130.794 180.763 131.111C180.809 131.499 180.832 131.889 180.831 132.28V138.421C180.831 139.59 180.831 140.705 180.831 141.793C180.799 142.805 180.713 143.814 180.575 144.816C180.452 145.701 180.254 146.573 179.984 147.423C179.752 148.188 179.388 148.906 178.909 149.546C178.698 149.858 178.411 150.112 178.076 150.285C177.77 150.444 177.438 150.549 177.095 150.594C176.762 150.655 176.421 150.655 176.087 150.594C175.781 150.545 175.483 150.455 175.201 150.326C174.62 150.08 174.144 149.637 173.857 149.076C173.726 148.773 173.658 148.446 173.658 148.115C173.658 147.785 173.726 147.458 173.857 147.154C174.059 146.442 174.22 145.811 174.354 145.273C174.489 144.736 174.583 144.198 174.663 143.688H157.196C156.629 143.702 156.063 143.634 155.516 143.486C155.137 143.384 154.788 143.196 154.495 142.935C154.261 142.715 154.089 142.437 153.998 142.129C153.914 141.804 153.873 141.47 153.877 141.135C153.878 140.831 153.919 140.528 153.998 140.235C154.092 139.932 154.264 139.659 154.495 139.442C154.786 139.173 155.135 138.975 155.516 138.864C156.062 138.711 156.628 138.638 157.196 138.649H174.838V134.497H157.491C156.924 134.513 156.359 134.445 155.812 134.296C155.433 134.194 155.083 134.005 154.79 133.745C154.551 133.529 154.379 133.249 154.293 132.938C154.209 132.614 154.169 132.279 154.172 131.944C154.174 131.64 154.214 131.338 154.293 131.044C154.382 130.739 154.555 130.464 154.79 130.251C155.079 129.982 155.43 129.788 155.812 129.687C156.355 129.52 156.923 129.443 157.491 129.458L178.022 129.499Z" fill="#0822A0"/>
</g>
<rect x="70.986" width="90.1408" height="90.1408" rx="27" fill="#0822A0"/>
<path d="M116.785 52.5971C115.54 52.5614 114.315 52.2801 113.179 51.7695C112.043 51.2589 111.019 50.529 110.165 49.6216L109.51 48.9392L108.773 48.1476L108.132 47.4788L107.176 46.4551C106.421 45.6364 105.506 44.9823 104.486 44.5338C103.467 44.0852 102.366 43.8518 101.253 43.8481V43.8481C99.3317 43.8464 97.4749 44.5397 96.0251 45.8L104.72 55.1222L106.303 56.8146C106.777 57.3252 107.351 57.732 107.99 58.0092C108.629 58.2864 109.319 58.428 110.015 58.4252C110.71 58.4278 111.397 58.286 112.034 58.0087C112.671 57.7315 113.243 57.3248 113.714 56.8146L118.109 52.5562C117.768 52.5562 117.427 52.5562 117.085 52.5562L116.785 52.5971Z" fill="white"/>
<path d="M136.22 34.0484C134.859 32.6134 132.984 31.7761 131.007 31.7198C129.03 31.6636 127.111 32.3928 125.67 33.7481L119.064 39.9857L118.313 40.6954L111.011 47.6017L111.625 48.2569C112.297 48.9715 113.103 49.5458 113.998 49.9464C114.893 50.347 115.859 50.5661 116.839 50.5909C118.812 50.6389 120.724 49.9083 122.162 48.5572L124.469 46.3733L125.219 45.6636L125.97 44.9539L136.821 34.7035L136.22 34.0484Z" fill="white"/>
<defs>
<clipPath id="clip0_2063_5902">
<rect width="183.639" height="31.5493" fill="white" transform="translate(0 128.451)"/>
</clipPath>
</defs>
</svg>
