<svg width="117" height="20" viewBox="0 0 117 20" fill="none" xmlns="http://www.w3.org/2000/svg">
<g clip-path="url(#clip0_2087_5911)">
<path d="M31.618 5.40883C31.6211 4.78213 31.7395 4.16136 31.9672 3.57749C32.1939 2.9829 32.5354 2.43875 32.9723 1.97612C33.4207 1.49723 33.9553 1.10712 34.5482 0.826216C35.1938 0.528214 35.8984 0.379715 36.6095 0.391795H44.1478C44.8586 0.382311 45.5626 0.53069 46.2091 0.826216C46.8045 1.10709 47.3419 1.49713 47.7935 1.97612C48.2275 2.441 48.5686 2.98454 48.7986 3.57749C49.0234 4.16191 49.1389 4.78266 49.1393 5.40883V7.02724C49.1457 7.63637 49.0448 8.24186 48.8412 8.81599C48.6468 9.37452 48.3361 9.88549 47.9298 10.3151C47.5008 10.7697 46.9814 11.1295 46.4051 11.3714C45.7267 11.6469 44.999 11.7803 44.2671 11.7632H42.2739V16.5417H48.4238C48.783 16.5326 49.1417 16.5756 49.4885 16.6695C49.7298 16.7307 49.9522 16.8506 50.1359 17.0187C50.2825 17.1563 50.391 17.3294 50.451 17.5213C50.5034 17.7301 50.5292 17.9448 50.5277 18.1601C50.5273 18.3501 50.5016 18.5392 50.451 18.7223C50.3931 18.9176 50.2843 19.0939 50.1359 19.2334C49.9489 19.3986 49.7279 19.5207 49.4885 19.5911C49.1435 19.6954 48.7841 19.7443 48.4238 19.7359H32.3591C31.9987 19.7443 31.6393 19.6954 31.2943 19.5911C31.056 19.5183 30.8355 19.3964 30.647 19.2334C30.4978 19.096 30.3914 18.9186 30.3403 18.7223C30.283 18.5404 30.2542 18.3508 30.2551 18.1601C30.2519 17.9441 30.2806 17.7288 30.3403 17.5213C30.3937 17.3284 30.4999 17.1544 30.647 17.0187C30.8318 16.8523 31.0538 16.7326 31.2943 16.6695C31.6412 16.5756 31.9998 16.5326 32.3591 16.5417H38.509V11.7802H36.4987C35.764 11.7973 35.0336 11.6639 34.3522 11.3884C33.7759 11.1465 33.2565 10.7868 32.8275 10.3322C32.4215 9.90072 32.1084 9.39045 31.9076 8.83302C31.6944 8.26096 31.5876 7.65475 31.5924 7.04428L31.618 5.40883ZM35.3659 6.44801C35.3498 6.97297 35.5153 7.48741 35.8344 7.90458C36.018 8.11333 36.245 8.27943 36.4996 8.39125C36.7541 8.50307 37.03 8.55791 37.3079 8.55193H43.4579C43.7346 8.55782 44.0092 8.5029 44.2623 8.39104C44.5155 8.27918 44.741 8.11312 44.9229 7.90458C45.245 7.48854 45.4135 6.974 45.3999 6.44801V5.70696C45.4145 5.17038 45.2463 4.64478 44.9229 4.21633C44.7341 4.0001 44.4967 3.83175 44.2301 3.72514C43.9636 3.61852 43.6756 3.57668 43.3897 3.60304H37.3761C37.089 3.57737 36.8 3.6195 36.5322 3.72602C36.2644 3.83255 36.0253 4.0005 35.8344 4.21633C35.5134 4.64558 35.3482 5.1713 35.3659 5.70696V6.44801Z" fill="#0822A0"/>
<path d="M57.1893 16.2264H60.7924C61.1523 16.2153 61.5117 16.2613 61.8572 16.3627C62.0965 16.4331 62.3175 16.5552 62.5045 16.7205C62.653 16.8599 62.7617 17.0363 62.8197 17.2315C62.8696 17.4148 62.8954 17.6038 62.8963 17.7937C62.8978 18.009 62.872 18.2237 62.8197 18.4326C62.7599 18.627 62.6514 18.8029 62.5045 18.9436C62.3179 19.1056 62.0963 19.2222 61.8572 19.2843C61.5103 19.3782 61.1516 19.4213 60.7924 19.4121H55.3154C54.9728 19.4249 54.6305 19.3818 54.3018 19.2843C54.0856 19.2213 53.8891 19.104 53.7311 18.9436C53.6032 18.8003 53.5203 18.6226 53.4926 18.4326C53.4573 18.2215 53.4402 18.0077 53.4415 17.7937V2.17191C53.4409 1.94944 53.458 1.72728 53.4926 1.50751C53.5212 1.30238 53.6034 1.10844 53.7311 0.945331C53.8815 0.760652 54.0785 0.619506 54.3018 0.536476C54.6282 0.42785 54.9716 0.378791 55.3154 0.39166H60.3324C60.6917 0.382514 61.0503 0.42556 61.3972 0.519436C61.6351 0.58479 61.856 0.701037 62.0445 0.860146C62.1919 0.999 62.298 1.17587 62.3512 1.37123C62.4109 1.5788 62.4396 1.79408 62.4364 2.01007C62.4366 2.20069 62.4079 2.39025 62.3512 2.57225C62.3002 2.76851 62.1937 2.94593 62.0445 3.08332C61.856 3.24636 61.6355 3.36822 61.3972 3.44107C61.0517 3.54247 60.6923 3.58847 60.3324 3.57736H57.1893V16.2264ZM67.4108 11.1838H63.6715C63.3205 11.195 62.97 11.1519 62.6323 11.0561C62.401 10.9902 62.1901 10.8672 62.019 10.6983C61.8731 10.5577 61.7723 10.3768 61.7294 10.1787C61.6792 9.9696 61.6563 9.75487 61.6612 9.53988C61.6597 9.35033 61.6826 9.16138 61.7294 8.97769C61.7723 8.77961 61.8731 8.59876 62.019 8.4581C62.1908 8.28634 62.401 8.1579 62.6323 8.08333C62.9696 7.98457 63.3201 7.9386 63.6715 7.94704H67.4108V2.17191C67.3744 1.88154 67.4071 1.58666 67.5062 1.31133C67.6054 1.036 67.7683 0.788009 67.9815 0.587581C68.3546 0.301071 68.8145 0.150789 69.2847 0.161686C69.5231 0.159041 69.7608 0.187671 69.9917 0.246857C70.2091 0.310034 70.4098 0.420578 70.5795 0.570541C70.764 0.746739 70.9067 0.962155 70.9968 1.20087C71.1156 1.51035 71.1707 1.84063 71.1587 2.17191V17.9556C71.1715 18.2952 71.1165 18.634 70.9968 18.9521C70.9056 19.1878 70.763 19.4002 70.5795 19.5739C70.4122 19.7272 70.2107 19.8382 69.9917 19.8976C69.7612 19.9597 69.5235 19.9912 69.2847 19.9913C69.046 19.9906 68.8084 19.9591 68.5778 19.8976C68.3449 19.8339 68.1309 19.7146 67.9544 19.5499C67.7778 19.3852 67.6439 19.18 67.5641 18.9521C67.4528 18.632 67.4009 18.2943 67.4108 17.9556V11.1838Z" fill="#0822A0"/>
<path d="M73.6967 6.14139C73.6943 5.92882 73.7201 5.71688 73.7733 5.51107C73.8282 5.31689 73.9376 5.14249 74.0885 5.00852C74.2786 4.85551 74.4994 4.74512 74.7359 4.68484C75.0816 4.60178 75.4367 4.56454 75.7921 4.5741H81.8568C82.2122 4.56454 82.5673 4.60178 82.913 4.68484C83.1495 4.74512 83.3703 4.85551 83.5604 5.00852C83.7113 5.14249 83.8207 5.31689 83.8756 5.51107C83.9318 5.71648 83.9604 5.92844 83.9607 6.14139C83.9575 6.33174 83.9289 6.52081 83.8756 6.70357C83.8164 6.89339 83.7076 7.06395 83.5604 7.19761C83.3746 7.36268 83.153 7.48224 82.913 7.54685C82.5691 7.64086 82.2132 7.6839 81.8568 7.67461H80.9028V9.14822C80.9028 9.79558 80.9028 10.4259 80.9028 11.0221C80.9128 11.597 80.99 12.1688 81.1328 12.7257C81.2892 13.317 81.5425 13.8783 81.8824 14.3867C82.3074 15.013 82.8411 15.5582 83.4582 15.9966C83.8953 16.2997 84.2354 16.7227 84.4377 17.2147C84.5143 17.4484 84.5341 17.697 84.4956 17.9399C84.4571 18.1828 84.3614 18.413 84.2163 18.6116C84.0633 18.855 83.8527 19.0569 83.603 19.1993C83.3639 19.329 83.0993 19.4046 82.8279 19.4208C82.6504 19.4169 82.4736 19.3969 82.2998 19.3612C82.1052 19.3183 81.9222 19.234 81.7631 19.1141C81.2136 18.7052 80.7057 18.243 80.2469 17.7342C79.8259 17.2567 79.4469 16.7437 79.1141 16.201C78.8066 16.7179 78.4681 17.2157 78.1004 17.6917C77.6894 18.2133 77.2334 18.6979 76.7376 19.1397C76.5535 19.297 76.3345 19.408 76.0987 19.4634C75.8523 19.5205 75.6016 19.5575 75.3492 19.5741C75.0726 19.5908 74.7958 19.5442 74.54 19.4378C74.2441 19.3146 73.9981 19.0957 73.8415 18.816C73.6967 18.6188 73.6024 18.3892 73.5668 18.1472C73.5311 17.9052 73.5553 17.6581 73.6371 17.4276C73.8479 16.9409 74.1827 16.5179 74.6081 16.201C75.2274 15.7228 75.7653 15.1475 76.2009 14.4974C76.5409 13.9736 76.794 13.3984 76.9505 12.7939C77.0969 12.2146 77.1713 11.6196 77.172 11.0221V7.67461H75.758C75.4016 7.6839 75.0457 7.64086 74.7018 7.54685C74.4618 7.48224 74.2402 7.36268 74.0544 7.19761C73.9072 7.06395 73.7984 6.89339 73.7393 6.70357C73.7002 6.5189 73.6859 6.32984 73.6967 6.14139ZM74.9147 1.56729C74.9161 1.3516 74.9447 1.13695 74.9999 0.928447C75.0516 0.735242 75.1617 0.562702 75.3151 0.434408C75.5032 0.278269 75.7247 0.167526 75.9624 0.110737C76.3081 0.0276769 76.6633 -0.00955738 77.0187 3.92785e-07H80.6302C80.9884 -0.00903887 81.3463 0.0281834 81.695 0.110737C81.9315 0.171017 82.1522 0.281392 82.3423 0.434408C82.4906 0.565606 82.5972 0.737355 82.649 0.928447C82.7042 1.13695 82.7328 1.3516 82.7342 1.56729C82.7315 1.7549 82.7029 1.94124 82.649 2.12096C82.5936 2.31291 82.4877 2.48646 82.3423 2.62351C82.1538 2.78262 81.9329 2.89887 81.695 2.96422C81.348 3.05763 80.9894 3.10067 80.6302 3.092H77.0187C76.6622 3.10129 76.3064 3.05823 75.9624 2.96422C75.7233 2.90212 75.5017 2.78551 75.3151 2.62351C75.1645 2.48923 75.0552 2.31495 74.9999 2.12096C74.946 1.94124 74.9174 1.7549 74.9147 1.56729ZM85.4599 12.8024H83.9096C83.5587 12.8136 83.2082 12.7705 82.8705 12.6746C82.6399 12.6116 82.429 12.4915 82.2572 12.3254C82.118 12.1863 82.0181 12.013 81.9676 11.8228C81.922 11.6129 81.8992 11.3988 81.8994 11.184C81.9012 10.9947 81.9241 10.8061 81.9676 10.6218C82.0159 10.4283 82.116 10.2516 82.2572 10.1107C82.4326 9.94755 82.6421 9.82536 82.8705 9.75298C83.2069 9.65018 83.5581 9.60412 83.9096 9.61669H85.4599V2.17206C85.4247 1.88803 85.4506 1.59977 85.5358 1.32654C85.621 1.05331 85.7635 0.80143 85.9539 0.587737C86.2711 0.307958 86.6809 0.15615 87.1038 0.161842C87.5159 0.159724 87.9138 0.311619 88.2197 0.587737C88.4116 0.800714 88.5557 1.05227 88.6424 1.32553C88.729 1.59878 88.7563 1.88742 88.7222 2.17206V17.9557C88.7304 18.2937 88.6814 18.6306 88.5774 18.9523C88.5037 19.1826 88.3817 19.3946 88.2197 19.5741C88.0792 19.7273 87.8995 19.8392 87.7001 19.8978C87.507 19.958 87.3061 19.9895 87.1038 19.9915C86.8903 19.9908 86.678 19.9592 86.4735 19.8978C86.2751 19.8369 86.096 19.7254 85.9539 19.5741C85.7919 19.3946 85.6699 19.1826 85.5962 18.9523C85.4954 18.63 85.4494 18.2932 85.4599 17.9557V12.8024ZM90.3406 2.17206C90.3055 1.88803 90.3313 1.59977 90.4165 1.32654C90.5017 1.05331 90.6443 0.80143 90.8347 0.587737C91.1496 0.309935 91.5561 0.158264 91.9761 0.161842C92.3902 0.162438 92.7899 0.313839 93.1004 0.587737C93.2908 0.80143 93.4334 1.05331 93.5186 1.32654C93.6038 1.59977 93.6297 1.88803 93.5945 2.17206V17.9557C93.605 18.2932 93.5589 18.63 93.4582 18.9523C93.3844 19.1826 93.2625 19.3946 93.1004 19.5741C92.9583 19.7254 92.7793 19.8369 92.5809 19.8978C92.3848 19.958 92.1811 19.9895 91.9761 19.9915C91.7654 19.9902 91.556 19.9587 91.3543 19.8978C91.1559 19.8369 90.9768 19.7254 90.8347 19.5741C90.6726 19.3946 90.5507 19.1826 90.4769 18.9523C90.3762 18.63 90.3301 18.2932 90.3406 17.9557V2.17206Z" fill="#0822A0"/>
<path d="M96.1417 18.1431C96.1402 17.9278 96.166 17.7131 96.2183 17.5043C96.2783 17.3124 96.3869 17.1393 96.5335 17.0017C96.7171 16.8337 96.9395 16.7137 97.1808 16.6525C97.5276 16.558 97.8863 16.515 98.2456 16.5247H114.319C114.678 16.5156 115.037 16.5586 115.384 16.6525C115.624 16.7156 115.846 16.8353 116.031 17.0017C116.178 17.1374 116.284 17.3115 116.338 17.5043C116.397 17.7119 116.426 17.9271 116.423 18.1431C116.424 18.3338 116.395 18.5235 116.338 18.7053C116.287 18.9016 116.18 19.079 116.031 19.2164C115.842 19.3794 115.622 19.5013 115.384 19.5741C115.039 19.6784 114.679 19.7273 114.319 19.7189H98.2456C97.8852 19.7285 97.5256 19.6796 97.1808 19.5741C96.9415 19.5037 96.7205 19.3816 96.5335 19.2164C96.385 19.0769 96.2763 18.9006 96.2183 18.7053C96.1678 18.5222 96.142 18.3331 96.1417 18.1431ZM112.854 0.664415C113.182 0.651733 113.511 0.694931 113.825 0.792178C114.029 0.860003 114.211 0.980487 114.353 1.14141C114.484 1.29573 114.567 1.48535 114.591 1.68656C114.62 1.93251 114.635 2.17996 114.634 2.42761V6.32029C114.634 7.06135 114.634 7.76833 114.634 8.45828C114.614 9.09951 114.56 9.73924 114.472 10.3748C114.394 10.9352 114.269 11.488 114.097 12.0273C113.95 12.5121 113.72 12.9676 113.416 13.3731C113.282 13.5709 113.1 13.732 112.888 13.8416C112.694 13.9425 112.483 14.0089 112.266 14.0375C112.055 14.076 111.838 14.076 111.627 14.0375C111.433 14.0064 111.244 13.9491 111.065 13.8671C110.697 13.7112 110.395 13.4308 110.213 13.075C110.13 12.8827 110.087 12.6754 110.087 12.4659C110.087 12.2564 110.13 12.0492 110.213 11.8569C110.341 11.4055 110.443 11.0051 110.528 10.6644C110.614 10.3237 110.673 9.98298 110.724 9.6593H99.651C99.2918 9.66845 98.9332 9.62542 98.5863 9.53154C98.3463 9.46694 98.1247 9.34737 97.9389 9.1823C97.7905 9.04286 97.6817 8.86649 97.6238 8.67122C97.5705 8.46542 97.5448 8.25348 97.5471 8.04091C97.548 7.84817 97.5738 7.65635 97.6238 7.47021C97.6838 7.27834 97.7923 7.10522 97.9389 6.96765C98.1233 6.79695 98.345 6.67156 98.5863 6.60138C98.9326 6.50415 99.2914 6.45823 99.651 6.46509H110.835V3.83307H99.8384C99.4792 3.84283 99.1204 3.79977 98.7737 3.70529C98.5337 3.64069 98.3121 3.52113 98.1263 3.35607C97.9748 3.21917 97.8654 3.04187 97.8112 2.84499C97.7579 2.63918 97.7322 2.42723 97.7345 2.21466C97.7354 2.02193 97.7612 1.83011 97.8112 1.64397C97.8677 1.45054 97.9768 1.27659 98.1263 1.14141C98.3093 0.970552 98.5317 0.847647 98.7737 0.783665C99.1185 0.678231 99.478 0.629332 99.8384 0.638862L112.854 0.664415Z" fill="#0822A0"/>
<path d="M12.9557 14.4888C12.1788 14.4665 11.4139 14.291 10.7049 13.9723C9.996 13.6537 9.35697 13.1981 8.82453 12.6319L8.41568 12.206L7.95572 11.712L7.55538 11.2946L6.95913 10.6557C6.48801 10.1448 5.91652 9.73663 5.28043 9.45669C4.64433 9.17675 3.95732 9.03109 3.26235 9.02881C2.06352 9.02774 0.904776 9.46038 0 10.2469L5.4259 16.0646L6.41398 17.1208C6.70967 17.4394 7.06823 17.6933 7.46702 17.8663C7.86581 18.0393 8.29614 18.1277 8.73083 18.1259C9.16426 18.1276 9.59329 18.039 9.99067 17.866C10.3881 17.693 10.7451 17.4392 11.0392 17.1208L13.7819 14.4632C13.569 14.4632 13.3561 14.4632 13.1431 14.4632L12.9557 14.4888Z" fill="#1D58FF"/>
<path d="M25.0851 2.91308C24.2354 2.01753 23.0656 1.49502 21.8316 1.4599C20.5976 1.42478 19.4 1.87991 18.5007 2.72569L14.3781 6.61837L13.9096 7.06129L9.35254 11.3713L9.73584 11.7802C10.1549 12.2262 10.6583 12.5845 11.2168 12.8346C11.7753 13.0846 12.3779 13.2213 12.9897 13.2368C14.2208 13.2668 15.4142 12.8108 16.3117 11.9676L17.7512 10.6047L18.2197 10.1618L18.6881 9.71888L25.4599 3.32194L25.0851 2.91308Z" fill="url(#paint0_linear_2087_5911)"/>
</g>
<defs>
<linearGradient id="paint0_linear_2087_5911" x1="11.7972" y1="12.419" x2="28.7818" y2="-2.97277" gradientUnits="userSpaceOnUse">
<stop stop-color="#1D58FF"/>
<stop offset="0.8" stop-color="#00FFB3"/>
</linearGradient>
<clipPath id="clip0_2087_5911">
<rect width="116.414" height="20" fill="white"/>
</clipPath>
</defs>
</svg>
