<svg width="129" height="22" viewBox="0 0 129 22" fill="none" xmlns="http://www.w3.org/2000/svg">
<g opacity="0.5" clip-path="url(#clip0_2017_6178)">
<path d="M34.7807 5.94979C34.7841 5.26042 34.9144 4.57757 35.1648 3.93531C35.4142 3.28126 35.7899 2.6827 36.2705 2.17381C36.7637 1.64702 37.3517 1.21791 38.0039 0.908911C38.7141 0.581108 39.4892 0.41776 40.2713 0.431048H48.5635C49.3453 0.420615 50.1198 0.583833 50.8309 0.908911C51.4858 1.21787 52.077 1.64691 52.5737 2.17381C53.0511 2.68518 53.4264 3.28307 53.6793 3.93531C53.9266 4.57818 54.0536 5.261 54.0541 5.94979V7.73003C54.0612 8.40008 53.9502 9.06612 53.7262 9.69766C53.5123 10.312 53.1706 10.8741 52.7236 11.3467C52.2517 11.8468 51.6804 12.2425 51.0464 12.5086C50.3003 12.8117 49.4998 12.9584 48.6946 12.9396H46.5021V18.196H53.267C53.6622 18.1859 54.0567 18.2332 54.4383 18.3365C54.7037 18.4038 54.9483 18.5358 55.1504 18.7207C55.3116 18.872 55.431 19.0624 55.497 19.2735C55.5546 19.5032 55.583 19.7393 55.5814 19.9762C55.581 20.1852 55.5526 20.3931 55.497 20.5946C55.4333 20.8094 55.3137 21.0034 55.1504 21.1568C54.9447 21.3385 54.7016 21.4729 54.4383 21.5503C54.0587 21.665 53.6634 21.7188 53.267 21.7096H35.5958C35.1995 21.7188 34.8042 21.665 34.4246 21.5503C34.1624 21.4702 33.9199 21.3361 33.7125 21.1568C33.5485 21.0057 33.4314 20.8105 33.3752 20.5946C33.3121 20.3946 33.2805 20.1859 33.2815 19.9762C33.2779 19.7386 33.3095 19.5018 33.3752 19.2735C33.4339 19.0614 33.5508 18.8699 33.7125 18.7207C33.9159 18.5376 34.16 18.4059 34.4246 18.3365C34.8062 18.2332 35.2007 18.1859 35.5958 18.196H42.3607V12.9583H40.1495C39.3413 12.9771 38.5378 12.8304 37.7883 12.5273C37.1544 12.2613 36.5831 11.8655 36.1112 11.3655C35.6645 10.8909 35.3201 10.3296 35.0992 9.7164C34.8647 9.08713 34.7472 8.4203 34.7526 7.74878L34.7807 5.94979ZM38.9033 7.09289C38.8857 7.67034 39.0677 8.23622 39.4187 8.69511C39.6207 8.92473 39.8704 9.10744 40.1504 9.23045C40.4304 9.35345 40.7339 9.41377 41.0396 9.4072H47.8045C48.1089 9.41367 48.411 9.35326 48.6894 9.23022C48.9679 9.10718 49.216 8.92451 49.4161 8.69511C49.7704 8.23747 49.9558 7.67147 49.9408 7.09289V6.27773C49.9568 5.6875 49.7718 5.10933 49.4161 4.63804C49.2084 4.40018 48.9472 4.215 48.654 4.09773C48.3608 3.98045 48.044 3.93442 47.7296 3.96342H41.1146C40.7988 3.93518 40.4808 3.98152 40.1863 4.0987C39.8917 4.21588 39.6288 4.40062 39.4187 4.63804C39.0656 5.11021 38.8839 5.6885 38.9033 6.27773V7.09289Z" fill="white"/>
<path d="M62.9079 17.8492H66.8713C67.2671 17.837 67.6624 17.8876 68.0425 17.9991C68.3058 18.0766 68.5489 18.2109 68.7546 18.3926C68.9179 18.546 69.0375 18.74 69.1012 18.9548C69.1562 19.1564 69.1845 19.3643 69.1856 19.5732C69.1872 19.8101 69.1588 20.0462 69.1012 20.2759C69.0355 20.4898 68.9162 20.6834 68.7546 20.8381C68.5493 21.0163 68.3056 21.1446 68.0425 21.2129C67.6609 21.3162 67.2664 21.3635 66.8713 21.3534H60.8466C60.4697 21.3675 60.0931 21.3201 59.7316 21.2129C59.4938 21.1436 59.2777 21.0145 59.1038 20.8381C58.9631 20.6805 58.8719 20.485 58.8415 20.2759C58.8026 20.0437 58.7838 19.8086 58.7852 19.5732V2.38922C58.7846 2.14451 58.8034 1.90013 58.8415 1.65839C58.8729 1.43274 58.9634 1.21941 59.1038 1.03999C59.2693 0.83684 59.486 0.681579 59.7316 0.590245C60.0907 0.470757 60.4684 0.416792 60.8466 0.430948H66.3653C66.7604 0.420888 67.155 0.468238 67.5365 0.571502C67.7982 0.643391 68.0412 0.771262 68.2486 0.946283C68.4107 1.09902 68.5274 1.29358 68.5859 1.50847C68.6517 1.73681 68.6832 1.97361 68.6796 2.2112C68.6799 2.42088 68.6483 2.6294 68.5859 2.8296C68.5298 3.04549 68.4127 3.24064 68.2486 3.39177C68.0413 3.57112 67.7987 3.70516 67.5365 3.78529C67.1565 3.89684 66.7612 3.94744 66.3653 3.93521H62.9079V17.8492ZM74.1515 12.3023H70.0382C69.6522 12.3147 69.2666 12.2673 68.8951 12.1618C68.6408 12.0894 68.4087 11.954 68.2205 11.7683C68.06 11.6135 67.9491 11.4146 67.9019 11.1967C67.8468 10.9667 67.8216 10.7305 67.827 10.494C67.8253 10.2855 67.8505 10.0776 67.9019 9.87558C67.9491 9.6577 68.06 9.45875 68.2205 9.30403C68.4095 9.1151 68.6408 8.97381 68.8951 8.89178C69.2661 8.78315 69.6517 8.73258 70.0382 8.74186H74.1515V2.38922C74.1114 2.06981 74.1474 1.74545 74.2565 1.44259C74.3656 1.13972 74.5447 0.866932 74.7793 0.646461C75.1897 0.3313 75.6955 0.16599 76.2128 0.177977C76.475 0.175068 76.7365 0.20656 76.9905 0.271665C77.2297 0.34116 77.4504 0.462758 77.637 0.627718C77.8401 0.821535 77.997 1.05849 78.0961 1.32108C78.2268 1.66151 78.2873 2.02482 78.2742 2.38922V19.7512C78.2883 20.1249 78.2278 20.4975 78.0961 20.8475C77.9957 21.1067 77.8389 21.3403 77.637 21.5315C77.453 21.7 77.2313 21.8221 76.9905 21.8875C76.7369 21.9558 76.4755 21.9904 76.2128 21.9906C75.9503 21.9898 75.6889 21.9552 75.4352 21.8875C75.179 21.8174 74.9436 21.6862 74.7494 21.505C74.5552 21.3238 74.4079 21.0982 74.3202 20.8475C74.1977 20.4954 74.1406 20.1239 74.1515 19.7512V12.3023Z" fill="white"/>
<path d="M81.0667 6.75555C81.0642 6.52173 81.0925 6.2886 81.1511 6.06221C81.2114 5.8486 81.3318 5.65677 81.4977 5.5094C81.7069 5.34108 81.9497 5.21965 82.2098 5.15335C82.5901 5.06198 82.9807 5.02102 83.3717 5.03154H90.0429C90.4338 5.02102 90.8245 5.06198 91.2047 5.15335C91.4649 5.21965 91.7077 5.34108 91.9168 5.5094C92.0828 5.65677 92.2031 5.8486 92.2635 6.06221C92.3253 6.28815 92.3568 6.5213 92.3572 6.75555C92.3536 6.96494 92.3221 7.17291 92.2635 7.37396C92.1984 7.58275 92.0787 7.77037 91.9168 7.9174C91.7125 8.09897 91.4687 8.23049 91.2047 8.30156C90.8264 8.40497 90.435 8.45232 90.0429 8.4421H88.9935V10.0631C88.9935 10.7752 88.9935 11.4685 88.9935 12.1244C89.0045 12.7568 89.0894 13.3857 89.2465 13.9983C89.4185 14.6487 89.6971 15.2661 90.071 15.8254C90.5386 16.5144 91.1256 17.1141 91.8044 17.5963C92.2852 17.9297 92.6594 18.395 92.8819 18.9361C92.9661 19.1932 92.9879 19.4667 92.9456 19.7339C92.9032 20.0011 92.7979 20.2543 92.6383 20.4728C92.4701 20.7405 92.2383 20.9626 91.9637 21.1193C91.7007 21.2619 91.4097 21.3451 91.111 21.3629C90.9158 21.3586 90.7214 21.3366 90.5301 21.2973C90.3161 21.2501 90.1148 21.1574 89.9398 21.0256C89.3353 20.5757 88.7767 20.0673 88.272 19.5077C87.8089 18.9824 87.392 18.4181 87.0259 17.8212C86.6876 18.3897 86.3153 18.9373 85.9109 19.4608C85.4588 20.0347 84.9571 20.5677 84.4117 21.0537C84.2093 21.2268 83.9683 21.3489 83.709 21.4097C83.4379 21.4725 83.1621 21.5133 82.8845 21.5315C82.5802 21.5499 82.2758 21.4986 81.9943 21.3816C81.6689 21.2461 81.3983 21.0053 81.226 20.6977C81.0668 20.4807 80.963 20.2282 80.9238 19.962C80.8846 19.6957 80.9112 19.424 81.0012 19.1704C81.2331 18.635 81.6014 18.1697 82.0693 17.8212C82.7506 17.2951 83.3422 16.6622 83.8214 15.9472C84.1953 15.371 84.4738 14.7382 84.646 14.0733C84.807 13.4361 84.8888 12.7816 84.8896 12.1244V8.4421H83.3342C82.9421 8.45232 82.5507 8.40497 82.1724 8.30156C81.9084 8.23049 81.6646 8.09897 81.4603 7.9174C81.2984 7.77037 81.1787 7.58275 81.1136 7.37396C81.0706 7.17081 81.0549 6.96285 81.0667 6.75555ZM82.4066 1.72404C82.4081 1.48678 82.4395 1.25066 82.5003 1.02132C82.5571 0.808791 82.6782 0.618997 82.847 0.477873C83.0539 0.306121 83.2975 0.184303 83.5591 0.121835C83.9393 0.030469 84.33 -0.0104887 84.7209 2.48462e-05H88.6937C89.0877 -0.00991834 89.4813 0.0310262 89.8649 0.121835C90.125 0.188143 90.3678 0.309556 90.577 0.477873C90.7401 0.622192 90.8573 0.811115 90.9143 1.02132C90.975 1.25066 91.0065 1.48678 91.008 1.72404C91.0051 1.93041 90.9735 2.13538 90.9143 2.33308C90.8534 2.54422 90.7369 2.73513 90.577 2.88589C90.3695 3.06091 90.1266 3.18878 89.8649 3.26067C89.4832 3.36342 89.0888 3.41076 88.6937 3.40122H84.7209C84.3289 3.41144 83.9374 3.36408 83.5591 3.26067C83.296 3.19236 83.0523 3.06409 82.847 2.88589C82.6814 2.73818 82.5612 2.54647 82.5003 2.33308C82.441 2.13538 82.4095 1.93041 82.4066 1.72404ZM94.0063 14.0826H92.301C91.915 14.095 91.5294 14.0476 91.1579 13.9421C90.9043 13.8728 90.6723 13.7406 90.4833 13.5579C90.3302 13.405 90.2203 13.2143 90.1647 13.0051C90.1146 12.7743 90.0895 12.5387 90.0897 12.3024C90.0917 12.0941 90.1169 11.8867 90.1647 11.684C90.2179 11.4712 90.328 11.2768 90.4833 11.1218C90.6762 10.9423 90.9067 10.8079 91.1579 10.7283C91.528 10.6152 91.9143 10.5646 92.301 10.5784H94.0063V2.3893C93.9676 2.07686 93.996 1.75977 94.0898 1.45922C94.1835 1.15867 94.3403 0.881597 94.5497 0.646535C94.8986 0.338778 95.3494 0.171789 95.8146 0.178051C96.2678 0.175721 96.7056 0.342806 97.042 0.646535C97.2531 0.880809 97.4117 1.15752 97.507 1.4581C97.6023 1.75869 97.6323 2.07619 97.5949 2.3893V19.7513C97.6038 20.1231 97.5499 20.4937 97.4356 20.8475C97.3544 21.1009 97.2203 21.3341 97.042 21.5315C96.8875 21.7001 96.6899 21.8232 96.4705 21.8876C96.2581 21.9538 96.0371 21.9885 95.8146 21.9906C95.5797 21.9899 95.3462 21.9552 95.1213 21.8876C94.903 21.8207 94.706 21.6979 94.5497 21.5315C94.3715 21.3341 94.2373 21.1009 94.1562 20.8475C94.0454 20.4931 93.9947 20.1225 94.0063 19.7513V14.0826ZM99.3751 2.3893C99.3364 2.07686 99.3648 1.75977 99.4586 1.45922C99.5523 1.15867 99.7091 0.881597 99.9185 0.646535C100.265 0.340953 100.712 0.174115 101.174 0.178051C101.63 0.178706 102.069 0.345248 102.411 0.646535C102.62 0.881597 102.777 1.15867 102.871 1.45922C102.965 1.75977 102.993 2.07686 102.954 2.3893V19.7513C102.966 20.1225 102.915 20.4931 102.804 20.8475C102.723 21.1009 102.589 21.3341 102.411 21.5315C102.255 21.6979 102.058 21.8207 101.839 21.8876C101.624 21.9538 101.4 21.9885 101.174 21.9906C100.942 21.9893 100.712 21.9546 100.49 21.8876C100.272 21.8207 100.075 21.6979 99.9185 21.5315C99.7403 21.3341 99.6062 21.1009 99.525 20.8475C99.4142 20.4931 99.3635 20.1225 99.3751 19.7513V2.3893Z" fill="white"/>
<path d="M105.756 19.9574C105.754 19.7205 105.783 19.4844 105.84 19.2547C105.906 19.0436 106.026 18.8532 106.187 18.7019C106.389 18.517 106.634 18.385 106.899 18.3177C107.28 18.2138 107.675 18.1664 108.07 18.1772H125.751C126.146 18.1671 126.54 18.2144 126.922 18.3177C127.187 18.3871 127.431 18.5188 127.634 18.7019C127.796 18.8511 127.913 19.0426 127.971 19.2547C128.037 19.483 128.069 19.7198 128.065 19.9574C128.066 20.1671 128.035 20.3758 127.971 20.5758C127.915 20.7917 127.798 20.9868 127.634 21.138C127.427 21.3173 127.184 21.4514 126.922 21.5315C126.542 21.6462 126.147 21.7 125.751 21.6908H108.07C107.674 21.7013 107.278 21.6475 106.899 21.5315C106.636 21.454 106.393 21.3197 106.187 21.138C106.024 20.9846 105.904 20.7906 105.84 20.5758C105.785 20.3743 105.756 20.1664 105.756 19.9574ZM124.139 0.730808C124.501 0.716857 124.862 0.764375 125.207 0.871347C125.431 0.945954 125.632 1.07849 125.788 1.25551C125.933 1.42525 126.024 1.63383 126.051 1.85517C126.082 2.12571 126.098 2.39791 126.097 2.67032V6.95227C126.097 7.76743 126.097 8.54511 126.097 9.30406C126.075 10.0094 126.016 10.7131 125.919 11.4122C125.834 12.0287 125.696 12.6368 125.507 13.23C125.345 13.7633 125.092 14.2643 124.758 14.7104C124.61 14.928 124.41 15.1051 124.177 15.2257C123.963 15.3368 123.732 15.4097 123.493 15.4412C123.26 15.4836 123.022 15.4836 122.79 15.4412C122.576 15.407 122.368 15.344 122.172 15.2538C121.767 15.0823 121.435 14.7738 121.235 14.3824C121.143 14.1709 121.096 13.9429 121.096 13.7125C121.096 13.482 121.143 13.254 121.235 13.0426C121.375 12.546 121.488 12.1056 121.581 11.7308C121.675 11.356 121.741 10.9812 121.797 10.6252H109.616C109.221 10.6352 108.827 10.5879 108.445 10.4846C108.181 10.4136 107.937 10.2821 107.733 10.1005C107.57 9.9471 107.45 9.75309 107.386 9.5383C107.328 9.31191 107.299 9.07878 107.302 8.84495C107.303 8.63294 107.331 8.42194 107.386 8.21719C107.452 8.00613 107.572 7.81569 107.733 7.66436C107.936 7.4766 108.18 7.33867 108.445 7.26147C108.826 7.15452 109.221 7.10401 109.616 7.11156H121.919V4.21633H109.822C109.427 4.22706 109.033 4.1797 108.651 4.07577C108.387 4.00471 108.143 3.8732 107.939 3.69163C107.772 3.54104 107.652 3.346 107.592 3.12944C107.534 2.90305 107.505 2.66991 107.508 2.43608C107.509 2.22407 107.537 2.01307 107.592 1.80831C107.655 1.59555 107.775 1.4042 107.939 1.25551C108.14 1.06756 108.385 0.932362 108.651 0.861982C109.03 0.746005 109.426 0.692216 109.822 0.7027L124.139 0.730808Z" fill="white"/>
<path d="M14.2513 15.9379C13.3967 15.9133 12.5553 15.7203 11.7754 15.3697C10.9956 15.0192 10.2927 14.5182 9.70699 13.8953L9.25725 13.4268L8.75129 12.8833L8.31091 12.4242L7.65504 11.7215C7.13681 11.1595 6.50817 10.7105 5.80847 10.4026C5.10877 10.0946 4.35305 9.93439 3.58859 9.93189C2.26988 9.93071 0.995253 10.4066 0 11.2718L5.9685 17.6712L7.05538 18.8331C7.38064 19.1836 7.77506 19.4628 8.21372 19.6531C8.65239 19.8434 9.12576 19.9407 9.60392 19.9387C10.0807 19.9405 10.5526 19.8431 10.9897 19.6528C11.4269 19.4625 11.8196 19.1833 12.1431 18.8331L15.1601 15.9097C14.9259 15.9097 14.6917 15.9097 14.4574 15.9097L14.2513 15.9379Z" fill="white"/>
<path d="M27.5939 3.20447C26.6593 2.21935 25.3724 1.64459 24.0151 1.60596C22.6577 1.56733 21.3403 2.06797 20.3511 2.99833L15.8162 7.28028L15.3009 7.76749L10.2881 12.5085L10.7097 12.9583C11.1707 13.4489 11.7244 13.8431 12.3388 14.1181C12.9532 14.3931 13.616 14.5435 14.2889 14.5605C15.6431 14.5935 16.9559 14.092 17.9431 13.1644L19.5266 11.6653L20.0419 11.1781L20.5572 10.6908L28.0061 3.65421L27.5939 3.20447Z" fill="white"/>
</g>
<defs>
<clipPath id="clip0_2017_6178">
<rect width="128.055" height="22" fill="white"/>
</clipPath>
</defs>
</svg>
