<svg width="108" height="108" viewBox="0 0 108 108" fill="none" xmlns="http://www.w3.org/2000/svg">
<rect width="108" height="108" rx="32" fill="#1D58FF" fill-opacity="0.09"/>
<path d="M54.8731 63.017C53.3815 62.9742 51.913 62.6373 50.5519 62.0255C49.1909 61.4137 47.964 60.5392 46.9418 59.452L46.1569 58.6344L45.2738 57.6859L44.5052 56.8846L43.3605 55.6581C42.456 54.6773 41.3588 53.8936 40.1376 53.3561C38.9164 52.8187 37.5975 52.539 36.2632 52.5347C33.9617 52.5326 31.737 53.3632 30 54.8732L40.4169 66.0423L42.3139 68.0701C42.8816 68.6819 43.57 69.1692 44.3356 69.5014C45.1012 69.8335 45.9274 70.0032 46.7619 69.9998C47.594 70.0029 48.4177 69.833 49.1806 69.5008C49.9436 69.1686 50.6291 68.6814 51.1936 68.0701L56.4593 62.968C56.0505 62.968 55.6417 62.968 55.2328 62.968L54.8731 63.017Z" fill="#1D58FF"/>
<path d="M78.1583 40.7935C76.5271 39.0742 74.2812 38.0711 71.9121 38.0036C69.543 37.9362 67.2437 38.81 65.5173 40.4338L57.6024 47.9071L56.703 48.7575L47.9541 57.0322L48.69 57.8171C49.4945 58.6733 50.4609 59.3613 51.5332 59.8413C52.6055 60.3214 53.7624 60.5838 54.9369 60.6135C57.3004 60.6711 59.5915 59.7957 61.3146 58.1769L64.0783 55.5604L64.9777 54.71L65.8771 53.8597L78.8778 41.5785L78.1583 40.7935Z" fill="#1D58FF"/>
</svg>
