<svg width="108" height="108" viewBox="0 0 108 108" fill="none" xmlns="http://www.w3.org/2000/svg">
<rect width="108" height="108" rx="32" fill="#E6FCEF"/>
<g clip-path="url(#clip0_2430_6546)">
<path d="M67.6918 57.237L65.8932 56.1986C66.0524 55.424 66.1282 54.7084 66.1282 54C66.1282 53.2916 66.0524 52.576 65.8933 51.8013L67.6919 50.7629C68.0014 50.5842 68.2273 50.2898 68.3198 49.9447C68.4123 49.5995 68.3638 49.2315 68.1851 48.922L65.4898 44.2537C65.1176 43.609 64.2935 43.3882 63.6489 43.7604L61.8667 44.7894C60.7496 43.8417 59.453 43.1011 58.0423 42.605V40.5234C58.0423 39.7792 57.4389 39.1758 56.6947 39.1758H51.304C50.5598 39.1758 49.9564 39.7792 49.9564 40.5234V42.605C48.5456 43.1011 47.249 43.8418 46.132 44.7894L44.3498 43.7604C43.7051 43.3881 42.8809 43.6091 42.5089 44.2537L39.8136 48.922C39.6349 49.2315 39.5864 49.5995 39.6789 49.9447C39.7714 50.2899 39.9973 50.5842 40.3068 50.7629L42.1054 51.8013C41.9461 52.576 41.8703 53.2916 41.8703 54C41.8703 54.7084 41.9461 55.424 42.1052 56.1987L40.3066 57.2371C39.9971 57.4158 39.7712 57.7102 39.6787 58.0553C39.5862 58.4005 39.6347 58.7685 39.8134 59.078L42.5087 63.7463C42.8809 64.3911 43.7051 64.6119 44.3496 64.2396L46.1318 63.2106C47.2489 64.1583 48.5455 64.8989 49.9562 65.395V67.4766C49.9562 68.2208 50.5596 68.8242 51.3038 68.8242H56.6945C57.4387 68.8242 58.0421 68.2208 58.0421 67.4766V65.395C59.4529 64.8989 60.7495 64.1582 61.8665 63.2106L63.6487 64.2396C64.2933 64.6118 65.1174 64.3909 65.4896 63.7463L68.1849 59.078C68.3636 58.7685 68.4121 58.4005 68.3196 58.0553C68.2272 57.7101 68.0014 57.4158 67.6918 57.237ZM53.9992 58.043C51.77 58.043 49.9563 56.2293 49.9563 54C49.9563 51.7707 51.77 49.957 53.9992 49.957C56.2285 49.957 58.0422 51.7707 58.0422 54C58.0422 56.2293 56.2285 58.043 53.9992 58.043Z" fill="#11CD73"/>
<path d="M72.4314 40.2328L70.5255 34.5151C70.2901 33.8091 69.5269 33.4273 68.8208 33.6628C68.1147 33.8982 67.7332 34.6613 67.9685 35.3675L68.1305 35.8534C66.9212 34.933 65.618 34.1218 64.2461 33.4412C61.0262 31.8442 57.4832 31 54 31C47.8897 31 42.1232 33.4015 37.7625 37.7624C33.4015 42.1232 31 47.8898 31 54C31 56.822 31.5929 59.7131 32.7619 62.5929C32.9745 63.1165 33.4788 63.434 34.011 63.434C34.1798 63.434 34.3515 63.4021 34.5176 63.3347C35.2072 63.0547 35.5393 62.2687 35.2593 61.579C34.2214 59.0227 33.6953 56.4728 33.6953 54C33.6953 42.8039 42.8039 33.6953 54 33.6953C58.1095 33.6953 62.2579 35.0624 65.7046 37.4334C65.0458 37.2981 64.3748 37.6728 64.1568 38.3268C63.9215 39.0328 64.303 39.7961 65.0091 40.0315L70.7268 41.9374C71.2089 42.098 71.7434 41.9743 72.1059 41.6118C72.4668 41.2509 72.5928 40.717 72.4314 40.2328Z" fill="#11CD73"/>
<path d="M75.2378 45.4072C74.9577 44.7174 74.1716 44.3857 73.4822 44.6654C72.7925 44.9454 72.4604 45.7314 72.7404 46.4211C73.7783 48.9774 74.3044 51.5273 74.3044 54.0001C74.3044 65.1962 65.1958 74.3048 53.9997 74.3048C49.8902 74.3048 45.7418 72.9377 42.2951 70.5668C42.9538 70.7019 43.6249 70.3274 43.8429 69.6734C44.0782 68.9674 43.6967 68.2041 42.9906 67.9687L37.2729 66.0627C36.7889 65.9013 36.2547 66.0272 35.8938 66.3883C35.5328 66.7493 35.4068 67.2832 35.5682 67.7674L37.4741 73.4851C37.6624 74.0498 38.1881 74.407 38.7525 74.407C38.8937 74.407 39.0375 74.3846 39.1788 74.3375C39.8849 74.1021 40.2664 73.339 40.0311 72.6328L39.8691 72.1468C41.0784 73.0673 42.3816 73.8785 43.7535 74.5591C46.9735 76.1559 50.5164 77.0001 53.9997 77.0001C60.11 77.0001 65.8765 74.5986 70.2373 70.2377C74.5982 65.8769 76.9997 60.1103 76.9997 54.0001C76.9997 51.1781 76.4068 48.287 75.2378 45.4072Z" fill="#11CD73"/>
</g>
<defs>
<clipPath id="clip0_2430_6546">
<rect width="46" height="46" fill="white" transform="translate(31 31)"/>
</clipPath>
</defs>
</svg>
