<svg width="180" height="180" viewBox="0 0 180 180" fill="none" xmlns="http://www.w3.org/2000/svg">
<circle cx="2.27482" cy="2.27482" r="2.27482" fill="#EFF0FA"/>
<circle cx="2.27482" cy="18.8442" r="2.27482" fill="#EFF0FA"/>
<circle cx="2.27482" cy="10.5595" r="2.27482" fill="#EFF0FA"/>
<circle cx="2.27482" cy="27.1283" r="2.27482" fill="#EFF0FA"/>
<circle cx="2.27482" cy="68.5522" r="2.27482" fill="#EFF0FA"/>
<circle cx="18.8451" cy="2.27482" r="2.27482" fill="#EFF0FA"/>
<circle cx="18.8451" cy="18.8442" r="2.27482" fill="#EFF0FA"/>
<circle cx="18.8451" cy="27.1283" r="2.27482" fill="#EFF0FA"/>
<circle cx="18.8451" cy="10.5595" r="2.27482" fill="#EFF0FA"/>
<circle cx="18.8451" cy="68.5522" r="2.27482" fill="#EFF0FA"/>
<circle cx="10.5619" cy="2.27482" r="2.27482" fill="#EFF0FA"/>
<circle cx="10.5619" cy="27.1283" r="2.27482" fill="#EFF0FA"/>
<circle cx="10.5619" cy="18.8442" r="2.27482" fill="#EFF0FA"/>
<circle cx="10.5619" cy="10.5595" r="2.27482" fill="#EFF0FA"/>
<circle cx="10.5619" cy="68.5522" r="2.27482" fill="#EFF0FA"/>
<circle cx="27.1303" cy="27.1283" r="2.27482" fill="#EFF0FA"/>
<circle cx="27.1303" cy="2.27482" r="2.27482" fill="#EFF0FA"/>
<circle cx="27.1303" cy="18.8442" r="2.27482" fill="#EFF0FA"/>
<circle cx="27.1303" cy="10.5595" r="2.27482" fill="#EFF0FA"/>
<circle cx="35.4125" cy="27.1283" r="2.27482" fill="#EFF0FA"/>
<circle cx="27.1303" cy="68.5522" r="2.27482" fill="#EFF0FA"/>
<circle cx="35.4125" cy="2.27482" r="2.27482" fill="#EFF0FA"/>
<circle cx="35.4125" cy="18.8442" r="2.27482" fill="#EFF0FA"/>
<circle cx="51.9828" cy="27.1283" r="2.27482" fill="#EFF0FA"/>
<circle cx="35.4125" cy="10.5595" r="2.27482" fill="#EFF0FA"/>
<circle cx="35.4125" cy="68.5522" r="2.27482" fill="#EFF0FA"/>
<circle cx="51.9828" cy="2.27482" r="2.27482" fill="#EFF0FA"/>
<circle cx="43.6996" cy="27.1283" r="2.27482" fill="#EFF0FA"/>
<circle cx="51.9828" cy="18.8442" r="2.27482" fill="#EFF0FA"/>
<circle cx="51.9828" cy="10.5595" r="2.27482" fill="#EFF0FA"/>
<circle cx="51.9828" cy="68.5522" r="2.27482" fill="#EFF0FA"/>
<circle cx="60.268" cy="27.1283" r="2.27482" fill="#EFF0FA"/>
<circle cx="43.6996" cy="2.27482" r="2.27482" fill="#EFF0FA"/>
<circle cx="43.6996" cy="18.8442" r="2.27482" fill="#EFF0FA"/>
<circle cx="43.6996" cy="10.5595" r="2.27482" fill="#EFF0FA"/>
<circle cx="68.5531" cy="27.1283" r="2.27482" fill="#EFF0FA"/>
<circle cx="43.6996" cy="68.5522" r="2.27482" fill="#EFF0FA"/>
<circle cx="60.268" cy="2.27482" r="2.27482" fill="#EFF0FA"/>
<circle cx="60.268" cy="18.8442" r="2.27482" fill="#EFF0FA"/>
<circle cx="85.1205" cy="27.1283" r="2.27482" fill="#EFF0FA"/>
<circle cx="60.268" cy="10.5595" r="2.27482" fill="#EFF0FA"/>
<circle cx="60.268" cy="68.5522" r="2.27482" fill="#EFF0FA"/>
<circle cx="68.5531" cy="2.27482" r="2.27482" fill="#EFF0FA"/>
<circle cx="76.8383" cy="27.1283" r="2.27482" fill="#EFF0FA"/>
<circle cx="68.5531" cy="18.8442" r="2.27482" fill="#EFF0FA"/>
<circle cx="68.5531" cy="10.5595" r="2.27482" fill="#EFF0FA"/>
<circle cx="68.5531" cy="68.5522" r="2.27482" fill="#EFF0FA"/>
<circle cx="93.4057" cy="27.1283" r="2.27482" fill="#EFF0FA"/>
<circle cx="85.1205" cy="2.27482" r="2.27482" fill="#EFF0FA"/>
<circle cx="85.1205" cy="18.8442" r="2.27482" fill="#EFF0FA"/>
<circle cx="85.1205" cy="10.5595" r="2.27482" fill="#EFF0FA"/>
<circle cx="101.691" cy="27.1283" r="2.27482" fill="#EFF0FA"/>
<circle cx="85.1205" cy="68.5522" r="2.27482" fill="#EFF0FA"/>
<circle cx="76.8383" cy="2.27482" r="2.27482" fill="#EFF0FA"/>
<circle cx="76.8383" cy="18.8442" r="2.27482" fill="#EFF0FA"/>
<circle cx="118.258" cy="27.1283" r="2.27482" fill="#EFF0FA"/>
<circle cx="134.513" cy="27.1283" r="2.27482" fill="#EFF0FA"/>
<circle cx="151.276" cy="27.1283" r="2.27482" fill="#EFF0FA"/>
<circle cx="167.531" cy="27.1283" r="2.27482" fill="#EFF0FA"/>
<circle cx="76.8383" cy="10.5595" r="2.27482" fill="#EFF0FA"/>
<circle cx="76.8383" cy="68.5522" r="2.27482" fill="#EFF0FA"/>
<circle cx="93.4057" cy="2.27482" r="2.27482" fill="#EFF0FA"/>
<circle cx="109.976" cy="27.1283" r="2.27482" fill="#EFF0FA"/>
<circle cx="126.545" cy="27.1283" r="2.27482" fill="#EFF0FA"/>
<circle cx="93.4057" cy="18.8442" r="2.27482" fill="#EFF0FA"/>
<circle cx="142.798" cy="27.1283" r="2.27482" fill="#EFF0FA"/>
<circle cx="93.4057" cy="10.5595" r="2.27482" fill="#EFF0FA"/>
<circle cx="159.561" cy="27.1283" r="2.27482" fill="#EFF0FA"/>
<circle cx="93.4057" cy="68.5522" r="2.27482" fill="#EFF0FA"/>
<circle cx="175.813" cy="27.1283" r="2.27482" fill="#EFF0FA"/>
<circle cx="2.27482" cy="35.4135" r="2.27482" fill="#EFF0FA"/>
<circle cx="2.27482" cy="51.9833" r="2.27482" fill="#EFF0FA"/>
<circle cx="2.27482" cy="43.6982" r="2.27482" fill="#EFF0FA"/>
<circle cx="2.27482" cy="60.268" r="2.27482" fill="#EFF0FA"/>
<circle cx="18.8451" cy="35.4135" r="2.27482" fill="#EFF0FA"/>
<circle cx="18.8451" cy="51.9833" r="2.27482" fill="#EFF0FA"/>
<circle cx="18.8451" cy="43.6982" r="2.27482" fill="#EFF0FA"/>
<circle cx="18.8451" cy="60.268" r="2.27482" fill="#EFF0FA"/>
<circle cx="10.5619" cy="35.4135" r="2.27482" fill="#EFF0FA"/>
<circle cx="10.5619" cy="51.9833" r="2.27482" fill="#EFF0FA"/>
<circle cx="10.5619" cy="43.6982" r="2.27482" fill="#EFF0FA"/>
<circle cx="10.5619" cy="60.268" r="2.27482" fill="#EFF0FA"/>
<circle cx="27.1303" cy="35.4135" r="2.27482" fill="#EFF0FA"/>
<circle cx="27.1303" cy="51.9833" r="2.27482" fill="#EFF0FA"/>
<circle cx="27.1303" cy="43.6982" r="2.27482" fill="#EFF0FA"/>
<circle cx="27.1303" cy="60.268" r="2.27482" fill="#EFF0FA"/>
<circle cx="35.4125" cy="35.4135" r="2.27482" fill="#EFF0FA"/>
<circle cx="35.4125" cy="51.9833" r="2.27482" fill="#EFF0FA"/>
<circle cx="35.4125" cy="43.6982" r="2.27482" fill="#EFF0FA"/>
<circle cx="35.4125" cy="60.268" r="2.27482" fill="#EFF0FA"/>
<circle cx="51.9828" cy="35.4135" r="2.27482" fill="#EFF0FA"/>
<circle cx="51.9828" cy="51.9833" r="2.27482" fill="#EFF0FA"/>
<circle cx="51.9828" cy="43.6982" r="2.27482" fill="#EFF0FA"/>
<circle cx="51.9828" cy="60.268" r="2.27482" fill="#EFF0FA"/>
<circle cx="43.6996" cy="35.4135" r="2.27482" fill="#EFF0FA"/>
<circle cx="43.6996" cy="51.9833" r="2.27482" fill="#EFF0FA"/>
<circle cx="43.6996" cy="43.6982" r="2.27482" fill="#EFF0FA"/>
<circle cx="43.6996" cy="60.268" r="2.27482" fill="#EFF0FA"/>
<circle cx="60.268" cy="35.4135" r="2.27482" fill="#EFF0FA"/>
<circle cx="60.268" cy="51.9833" r="2.27482" fill="#EFF0FA"/>
<circle cx="60.268" cy="43.6982" r="2.27482" fill="#EFF0FA"/>
<circle cx="60.268" cy="60.268" r="2.27482" fill="#EFF0FA"/>
<circle cx="68.5531" cy="35.4135" r="2.27482" fill="#EFF0FA"/>
<circle cx="68.5531" cy="51.9833" r="2.27482" fill="#EFF0FA"/>
<circle cx="68.5531" cy="43.6982" r="2.27482" fill="#EFF0FA"/>
<circle cx="68.5531" cy="60.268" r="2.27482" fill="#EFF0FA"/>
<circle cx="85.1205" cy="35.4135" r="2.27482" fill="#EFF0FA"/>
<circle cx="85.1205" cy="51.9833" r="2.27482" fill="#EFF0FA"/>
<circle cx="85.1205" cy="43.6982" r="2.27482" fill="#EFF0FA"/>
<circle cx="85.1205" cy="60.268" r="2.27482" fill="#EFF0FA"/>
<circle cx="76.8383" cy="35.4135" r="2.27482" fill="#EFF0FA"/>
<circle cx="76.8383" cy="51.9833" r="2.27482" fill="#EFF0FA"/>
<circle cx="76.8383" cy="43.6982" r="2.27482" fill="#EFF0FA"/>
<circle cx="76.8383" cy="60.268" r="2.27482" fill="#EFF0FA"/>
<circle cx="93.4057" cy="35.4135" r="2.27482" fill="#EFF0FA"/>
<circle cx="93.4057" cy="51.9833" r="2.27482" fill="#EFF0FA"/>
<circle cx="118.258" cy="35.4135" r="2.27482" fill="#EFF0FA"/>
<circle cx="118.258" cy="51.9833" r="2.27482" fill="#EFF0FA"/>
<circle cx="118.258" cy="43.6982" r="2.27482" fill="#EFF0FA"/>
<circle cx="118.258" cy="60.268" r="2.27482" fill="#EFF0FA"/>
<circle cx="93.4057" cy="43.6982" r="2.27482" fill="#EFF0FA"/>
<circle cx="93.4057" cy="60.268" r="2.27482" fill="#EFF0FA"/>
<circle cx="134.513" cy="35.4135" r="2.27482" fill="#EFF0FA"/>
<circle cx="134.513" cy="51.9833" r="2.27482" fill="#EFF0FA"/>
<circle cx="126.545" cy="35.4135" r="2.27482" fill="#EFF0FA"/>
<circle cx="126.545" cy="51.9833" r="2.27482" fill="#EFF0FA"/>
<circle cx="126.545" cy="43.6982" r="2.27482" fill="#EFF0FA"/>
<circle cx="126.545" cy="60.268" r="2.27482" fill="#EFF0FA"/>
<circle cx="134.513" cy="43.6982" r="2.27482" fill="#EFF0FA"/>
<circle cx="134.513" cy="60.268" r="2.27482" fill="#EFF0FA"/>
<circle cx="101.691" cy="35.4135" r="2.27482" fill="#EFF0FA"/>
<circle cx="101.691" cy="51.9833" r="2.27482" fill="#EFF0FA"/>
<circle cx="118.258" cy="2.27482" r="2.27482" fill="#EFF0FA"/>
<circle cx="118.258" cy="18.8442" r="2.27482" fill="#EFF0FA"/>
<circle cx="118.258" cy="10.5595" r="2.27482" fill="#EFF0FA"/>
<circle cx="118.258" cy="68.5522" r="2.27482" fill="#EFF0FA"/>
<circle cx="151.276" cy="35.4135" r="2.27482" fill="#EFF0FA"/>
<circle cx="151.276" cy="51.9833" r="2.27482" fill="#EFF0FA"/>
<circle cx="142.798" cy="35.4135" r="2.27482" fill="#EFF0FA"/>
<circle cx="142.798" cy="51.9833" r="2.27482" fill="#EFF0FA"/>
<circle cx="126.545" cy="2.27482" r="2.27482" fill="#EFF0FA"/>
<circle cx="126.545" cy="18.8442" r="2.27482" fill="#EFF0FA"/>
<circle cx="126.545" cy="10.5595" r="2.27482" fill="#EFF0FA"/>
<circle cx="126.545" cy="68.5522" r="2.27482" fill="#EFF0FA"/>
<circle cx="142.798" cy="43.6982" r="2.27482" fill="#EFF0FA"/>
<circle cx="142.798" cy="60.268" r="2.27482" fill="#EFF0FA"/>
<circle cx="151.276" cy="43.6982" r="2.27482" fill="#EFF0FA"/>
<circle cx="151.276" cy="60.268" r="2.27482" fill="#EFF0FA"/>
<circle cx="101.691" cy="43.6982" r="2.27482" fill="#EFF0FA"/>
<circle cx="101.691" cy="60.268" r="2.27482" fill="#EFF0FA"/>
<circle cx="134.513" cy="2.27482" r="2.27482" fill="#EFF0FA"/>
<circle cx="134.513" cy="18.8442" r="2.27482" fill="#EFF0FA"/>
<circle cx="134.513" cy="10.5595" r="2.27482" fill="#EFF0FA"/>
<circle cx="134.513" cy="68.5522" r="2.27482" fill="#EFF0FA"/>
<circle cx="167.531" cy="35.4135" r="2.27482" fill="#EFF0FA"/>
<circle cx="167.531" cy="51.9833" r="2.27482" fill="#EFF0FA"/>
<circle cx="159.561" cy="35.4135" r="2.27482" fill="#EFF0FA"/>
<circle cx="159.561" cy="51.9833" r="2.27482" fill="#EFF0FA"/>
<circle cx="142.798" cy="2.27482" r="2.27482" fill="#EFF0FA"/>
<circle cx="142.798" cy="18.8442" r="2.27482" fill="#EFF0FA"/>
<circle cx="142.798" cy="10.5595" r="2.27482" fill="#EFF0FA"/>
<circle cx="142.798" cy="68.5522" r="2.27482" fill="#EFF0FA"/>
<circle cx="159.561" cy="43.6982" r="2.27482" fill="#EFF0FA"/>
<circle cx="159.561" cy="60.268" r="2.27482" fill="#EFF0FA"/>
<circle cx="167.531" cy="43.6982" r="2.27482" fill="#EFF0FA"/>
<circle cx="167.531" cy="60.268" r="2.27482" fill="#EFF0FA"/>
<circle cx="109.976" cy="35.4135" r="2.27482" fill="#EFF0FA"/>
<circle cx="109.976" cy="51.9833" r="2.27482" fill="#EFF0FA"/>
<circle cx="151.276" cy="2.27482" r="2.27482" fill="#EFF0FA"/>
<circle cx="151.276" cy="18.8442" r="2.27482" fill="#EFF0FA"/>
<circle cx="151.276" cy="10.5595" r="2.27482" fill="#EFF0FA"/>
<circle cx="151.276" cy="68.5522" r="2.27482" fill="#EFF0FA"/>
<circle cx="109.976" cy="43.6982" r="2.27482" fill="#EFF0FA"/>
<circle cx="109.976" cy="60.268" r="2.27482" fill="#EFF0FA"/>
<circle cx="175.813" cy="35.4135" r="2.27482" fill="#EFF0FA"/>
<circle cx="175.813" cy="51.9833" r="2.27482" fill="#EFF0FA"/>
<circle cx="159.561" cy="2.27482" r="2.27482" fill="#EFF0FA"/>
<circle cx="159.561" cy="18.8442" r="2.27482" fill="#EFF0FA"/>
<circle cx="159.561" cy="10.5595" r="2.27482" fill="#EFF0FA"/>
<circle cx="159.561" cy="68.5522" r="2.27482" fill="#EFF0FA"/>
<circle cx="175.813" cy="43.6982" r="2.27482" fill="#EFF0FA"/>
<circle cx="175.813" cy="60.268" r="2.27482" fill="#EFF0FA"/>
<circle cx="101.691" cy="2.27482" r="2.27482" fill="#EFF0FA"/>
<circle cx="101.691" cy="18.8442" r="2.27482" fill="#EFF0FA"/>
<circle cx="101.691" cy="10.5595" r="2.27482" fill="#EFF0FA"/>
<circle cx="101.691" cy="68.5522" r="2.27482" fill="#EFF0FA"/>
<circle cx="167.531" cy="2.27482" r="2.27482" fill="#EFF0FA"/>
<circle cx="167.531" cy="18.8442" r="2.27482" fill="#EFF0FA"/>
<circle cx="167.531" cy="10.5595" r="2.27482" fill="#EFF0FA"/>
<circle cx="167.531" cy="68.5522" r="2.27482" fill="#EFF0FA"/>
<circle cx="109.976" cy="2.27482" r="2.27482" fill="#EFF0FA"/>
<circle cx="109.976" cy="18.8442" r="2.27482" fill="#EFF0FA"/>
<circle cx="109.976" cy="10.5595" r="2.27482" fill="#EFF0FA"/>
<circle cx="109.976" cy="68.5522" r="2.27482" fill="#EFF0FA"/>
<circle cx="175.813" cy="2.27482" r="2.27482" fill="#EFF0FA"/>
<circle cx="175.813" cy="18.8442" r="2.27482" fill="#EFF0FA"/>
<circle cx="175.813" cy="10.5595" r="2.27482" fill="#EFF0FA"/>
<circle cx="175.813" cy="68.5522" r="2.27482" fill="#EFF0FA"/>
<circle cx="2.27482" cy="76.8373" r="2.27482" fill="#EFF0FA"/>
<circle cx="2.27482" cy="93.4062" r="2.27482" fill="#EFF0FA"/>
<circle cx="2.27482" cy="118.261" r="2.27482" fill="#EFF0FA"/>
<circle cx="2.27482" cy="126.618" r="2.27482" fill="#EFF0FA"/>
<circle cx="2.27482" cy="135.215" r="2.27482" fill="#EFF0FA"/>
<circle cx="2.27482" cy="143.573" r="2.27482" fill="#EFF0FA"/>
<circle cx="2.27482" cy="152.413" r="2.27482" fill="#EFF0FA"/>
<circle cx="2.27482" cy="160.77" r="2.27482" fill="#EFF0FA"/>
<circle cx="18.9906" cy="118.261" r="2.27482" fill="#EFF0FA"/>
<circle cx="2.27482" cy="169.368" r="2.27482" fill="#EFF0FA"/>
<circle cx="18.9906" cy="126.618" r="2.27482" fill="#EFF0FA"/>
<circle cx="2.27482" cy="177.725" r="2.27482" fill="#EFF0FA"/>
<circle cx="18.9906" cy="135.215" r="2.27482" fill="#EFF0FA"/>
<circle cx="2.27482" cy="85.122" r="2.27482" fill="#EFF0FA"/>
<circle cx="10.6342" cy="118.261" r="2.27482" fill="#EFF0FA"/>
<circle cx="18.9906" cy="143.573" r="2.27482" fill="#EFF0FA"/>
<circle cx="2.27482" cy="109.976" r="2.27482" fill="#EFF0FA"/>
<circle cx="10.6342" cy="126.618" r="2.27482" fill="#EFF0FA"/>
<circle cx="18.9906" cy="152.413" r="2.27482" fill="#EFF0FA"/>
<circle cx="2.27482" cy="101.691" r="2.27482" fill="#EFF0FA"/>
<circle cx="27.3481" cy="118.261" r="2.27482" fill="#EFF0FA"/>
<circle cx="10.6342" cy="135.215" r="2.27482" fill="#EFF0FA"/>
<circle cx="18.9906" cy="160.77" r="2.27482" fill="#EFF0FA"/>
<circle cx="18.8451" cy="76.8373" r="2.27482" fill="#EFF0FA"/>
<circle cx="27.3481" cy="126.618" r="2.27482" fill="#EFF0FA"/>
<circle cx="10.6342" cy="143.573" r="2.27482" fill="#EFF0FA"/>
<circle cx="119.29" cy="118.261" r="2.27482" fill="#EFF0FA"/>
<circle cx="35.7094" cy="118.261" r="2.27482" fill="#EFF0FA"/>
<circle cx="18.9906" cy="169.368" r="2.27482" fill="#EFF0FA"/>
<circle cx="18.8451" cy="93.4062" r="2.27482" fill="#EFF0FA"/>
<circle cx="27.3481" cy="135.215" r="2.27482" fill="#EFF0FA"/>
<circle cx="10.6342" cy="152.413" r="2.27482" fill="#EFF0FA"/>
<circle cx="35.7094" cy="126.618" r="2.27482" fill="#EFF0FA"/>
<circle cx="52.4233" cy="118.261" r="2.27482" fill="#EFF0FA"/>
<circle cx="18.9906" cy="177.725" r="2.27482" fill="#EFF0FA"/>
<circle cx="18.8451" cy="85.122" r="2.27482" fill="#EFF0FA"/>
<circle cx="27.3481" cy="143.573" r="2.27482" fill="#EFF0FA"/>
<circle cx="10.6342" cy="160.77" r="2.27482" fill="#EFF0FA"/>
<circle cx="127.645" cy="118.261" r="2.27482" fill="#EFF0FA"/>
<circle cx="35.7094" cy="135.215" r="2.27482" fill="#EFF0FA"/>
<circle cx="44.0639" cy="118.261" r="2.27482" fill="#EFF0FA"/>
<circle cx="52.4233" cy="126.618" r="2.27482" fill="#EFF0FA"/>
<circle cx="119.29" cy="126.618" r="2.27482" fill="#EFF0FA"/>
<circle cx="18.8451" cy="109.976" r="2.27482" fill="#EFF0FA"/>
<circle cx="18.8451" cy="101.691" r="2.27482" fill="#EFF0FA"/>
<circle cx="27.3481" cy="152.413" r="2.27482" fill="#EFF0FA"/>
<circle cx="10.6342" cy="169.368" r="2.27482" fill="#EFF0FA"/>
<circle cx="60.7826" cy="118.261" r="2.27482" fill="#EFF0FA"/>
<circle cx="35.7094" cy="143.573" r="2.27482" fill="#EFF0FA"/>
<circle cx="44.0639" cy="126.618" r="2.27482" fill="#EFF0FA"/>
<circle cx="52.4233" cy="135.215" r="2.27482" fill="#EFF0FA"/>
<circle cx="10.5619" cy="76.8373" r="2.27482" fill="#EFF0FA"/>
<circle cx="10.5619" cy="93.4062" r="2.27482" fill="#EFF0FA"/>
<circle cx="119.29" cy="135.215" r="2.27482" fill="#EFF0FA"/>
<circle cx="127.645" cy="126.618" r="2.27482" fill="#EFF0FA"/>
<circle cx="69.1391" cy="118.261" r="2.27482" fill="#EFF0FA"/>
<circle cx="27.3481" cy="160.77" r="2.27482" fill="#EFF0FA"/>
<circle cx="10.6342" cy="177.725" r="2.27482" fill="#EFF0FA"/>
<circle cx="135.544" cy="118.261" r="2.27482" fill="#EFF0FA"/>
<circle cx="60.7826" cy="126.618" r="2.27482" fill="#EFF0FA"/>
<circle cx="119.29" cy="152.413" r="2.27482" fill="#EFF0FA"/>
<circle cx="44.0639" cy="135.215" r="2.27482" fill="#EFF0FA"/>
<circle cx="85.8559" cy="118.261" r="2.27482" fill="#EFF0FA"/>
<circle cx="52.4233" cy="143.573" r="2.27482" fill="#EFF0FA"/>
<circle cx="35.7094" cy="152.413" r="2.27482" fill="#EFF0FA"/>
<circle cx="10.5619" cy="85.122" r="2.27482" fill="#EFF0FA"/>
<circle cx="69.1391" cy="126.618" r="2.27482" fill="#EFF0FA"/>
<circle cx="10.5619" cy="109.976" r="2.27482" fill="#EFF0FA"/>
<circle cx="152.305" cy="118.261" r="2.27482" fill="#EFF0FA"/>
<circle cx="77.4965" cy="118.261" r="2.27482" fill="#EFF0FA"/>
<circle cx="143.902" cy="118.261" r="2.27482" fill="#EFF0FA"/>
<circle cx="127.645" cy="135.215" r="2.27482" fill="#EFF0FA"/>
<circle cx="27.3481" cy="169.368" r="2.27482" fill="#EFF0FA"/>
<circle cx="10.5619" cy="101.691" r="2.27482" fill="#EFF0FA"/>
<circle cx="135.544" cy="126.618" r="2.27482" fill="#EFF0FA"/>
<circle cx="35.7094" cy="160.77" r="2.27482" fill="#EFF0FA"/>
<circle cx="119.29" cy="143.573" r="2.27482" fill="#EFF0FA"/>
<circle cx="52.4233" cy="152.413" r="2.27482" fill="#EFF0FA"/>
<circle cx="27.1303" cy="76.8373" r="2.27482" fill="#EFF0FA"/>
<circle cx="27.1303" cy="93.4062" r="2.27482" fill="#EFF0FA"/>
<circle cx="60.7826" cy="135.215" r="2.27482" fill="#EFF0FA"/>
<circle cx="27.3481" cy="177.725" r="2.27482" fill="#EFF0FA"/>
<circle cx="44.0639" cy="143.573" r="2.27482" fill="#EFF0FA"/>
<circle cx="85.8559" cy="126.618" r="2.27482" fill="#EFF0FA"/>
<circle cx="94.2172" cy="118.261" r="2.27482" fill="#EFF0FA"/>
<circle cx="27.1303" cy="85.122" r="2.27482" fill="#EFF0FA"/>
<circle cx="143.902" cy="126.618" r="2.27482" fill="#EFF0FA"/>
<circle cx="127.645" cy="152.413" r="2.27482" fill="#EFF0FA"/>
<circle cx="35.7094" cy="169.368" r="2.27482" fill="#EFF0FA"/>
<circle cx="44.0639" cy="152.413" r="2.27482" fill="#EFF0FA"/>
<circle cx="127.645" cy="143.573" r="2.27482" fill="#EFF0FA"/>
<circle cx="52.4233" cy="160.77" r="2.27482" fill="#EFF0FA"/>
<circle cx="119.29" cy="160.77" r="2.27482" fill="#EFF0FA"/>
<circle cx="27.1303" cy="109.976" r="2.27482" fill="#EFF0FA"/>
<circle cx="135.544" cy="135.215" r="2.27482" fill="#EFF0FA"/>
<circle cx="27.1303" cy="101.691" r="2.27482" fill="#EFF0FA"/>
<circle cx="69.1391" cy="135.215" r="2.27482" fill="#EFF0FA"/>
<circle cx="160.663" cy="118.261" r="2.27482" fill="#EFF0FA"/>
<circle cx="35.4125" cy="76.8373" r="2.27482" fill="#EFF0FA"/>
<circle cx="35.4125" cy="93.4062" r="2.27482" fill="#EFF0FA"/>
<circle cx="60.7826" cy="143.573" r="2.27482" fill="#EFF0FA"/>
<circle cx="152.305" cy="126.618" r="2.27482" fill="#EFF0FA"/>
<circle cx="60.7826" cy="152.413" r="2.27482" fill="#EFF0FA"/>
<circle cx="35.7094" cy="177.725" r="2.27482" fill="#EFF0FA"/>
<circle cx="85.8559" cy="135.215" r="2.27482" fill="#EFF0FA"/>
<circle cx="102.574" cy="118.261" r="2.27482" fill="#EFF0FA"/>
<circle cx="143.902" cy="135.215" r="2.27482" fill="#EFF0FA"/>
<circle cx="77.4965" cy="126.618" r="2.27482" fill="#EFF0FA"/>
<circle cx="44.0639" cy="160.77" r="2.27482" fill="#EFF0FA"/>
<circle cx="52.4233" cy="169.368" r="2.27482" fill="#EFF0FA"/>
<circle cx="135.544" cy="143.573" r="2.27482" fill="#EFF0FA"/>
<circle cx="35.4125" cy="85.122" r="2.27482" fill="#EFF0FA"/>
<circle cx="35.4125" cy="109.976" r="2.27482" fill="#EFF0FA"/>
<circle cx="119.29" cy="169.368" r="2.27482" fill="#EFF0FA"/>
<circle cx="127.645" cy="160.77" r="2.27482" fill="#EFF0FA"/>
<circle cx="69.1391" cy="152.413" r="2.27482" fill="#EFF0FA"/>
<circle cx="35.4125" cy="101.691" r="2.27482" fill="#EFF0FA"/>
<circle cx="69.1391" cy="143.573" r="2.27482" fill="#EFF0FA"/>
<circle cx="51.9828" cy="76.8373" r="2.27482" fill="#EFF0FA"/>
<circle cx="152.305" cy="135.215" r="2.27482" fill="#EFF0FA"/>
<circle cx="135.544" cy="152.413" r="2.27482" fill="#EFF0FA"/>
<circle cx="60.7826" cy="160.77" r="2.27482" fill="#EFF0FA"/>
<circle cx="143.902" cy="143.573" r="2.27482" fill="#EFF0FA"/>
<circle cx="51.9828" cy="93.4062" r="2.27482" fill="#EFF0FA"/>
<circle cx="44.0639" cy="169.368" r="2.27482" fill="#EFF0FA"/>
<circle cx="85.8559" cy="152.413" r="2.27482" fill="#EFF0FA"/>
<circle cx="160.663" cy="126.618" r="2.27482" fill="#EFF0FA"/>
<circle cx="77.4965" cy="135.215" r="2.27482" fill="#EFF0FA"/>
<circle cx="52.4233" cy="177.725" r="2.27482" fill="#EFF0FA"/>
<circle cx="51.9828" cy="85.122" r="2.27482" fill="#EFF0FA"/>
<circle cx="168.562" cy="118.261" r="2.27482" fill="#EFF0FA"/>
<circle cx="51.9828" cy="109.976" r="2.27482" fill="#EFF0FA"/>
<circle cx="94.2172" cy="126.618" r="2.27482" fill="#EFF0FA"/>
<circle cx="69.1391" cy="160.77" r="2.27482" fill="#EFF0FA"/>
<circle cx="85.8559" cy="143.573" r="2.27482" fill="#EFF0FA"/>
<circle cx="94.2172" cy="135.215" r="2.27482" fill="#EFF0FA"/>
<circle cx="110.931" cy="118.261" r="2.27482" fill="#EFF0FA"/>
<circle cx="51.9828" cy="101.691" r="2.27482" fill="#EFF0FA"/>
<circle cx="152.305" cy="152.413" r="2.27482" fill="#EFF0FA"/>
<circle cx="102.574" cy="126.618" r="2.27482" fill="#EFF0FA"/>
<circle cx="77.4965" cy="152.413" r="2.27482" fill="#EFF0FA"/>
<circle cx="143.902" cy="152.413" r="2.27482" fill="#EFF0FA"/>
<circle cx="176.918" cy="118.261" r="2.27482" fill="#EFF0FA"/>
<circle cx="160.663" cy="135.215" r="2.27482" fill="#EFF0FA"/>
<circle cx="127.645" cy="169.368" r="2.27482" fill="#EFF0FA"/>
<circle cx="43.6996" cy="76.8373" r="2.27482" fill="#EFF0FA"/>
<circle cx="168.562" cy="126.618" r="2.27482" fill="#EFF0FA"/>
<circle cx="118.258" cy="76.8373" r="2.27482" fill="#EFF0FA"/>
<circle cx="152.305" cy="143.573" r="2.27482" fill="#EFF0FA"/>
<circle cx="135.544" cy="160.77" r="2.27482" fill="#EFF0FA"/>
<circle cx="118.258" cy="93.4062" r="2.27482" fill="#EFF0FA"/>
<circle cx="119.29" cy="177.725" r="2.27482" fill="#EFF0FA"/>
<circle cx="110.931" cy="126.618" r="2.27482" fill="#EFF0FA"/>
<circle cx="102.574" cy="135.215" r="2.27482" fill="#EFF0FA"/>
<circle cx="77.4965" cy="143.573" r="2.27482" fill="#EFF0FA"/>
<circle cx="118.258" cy="85.122" r="2.27482" fill="#EFF0FA"/>
<circle cx="118.258" cy="109.976" r="2.27482" fill="#EFF0FA"/>
<circle cx="118.258" cy="101.691" r="2.27482" fill="#EFF0FA"/>
<circle cx="176.918" cy="126.618" r="2.27482" fill="#EFF0FA"/>
<circle cx="60.7826" cy="169.368" r="2.27482" fill="#EFF0FA"/>
<circle cx="43.6996" cy="93.4062" r="2.27482" fill="#EFF0FA"/>
<circle cx="44.0639" cy="177.725" r="2.27482" fill="#EFF0FA"/>
<circle cx="160.663" cy="143.573" r="2.27482" fill="#EFF0FA"/>
<circle cx="85.8559" cy="160.77" r="2.27482" fill="#EFF0FA"/>
<circle cx="94.2172" cy="152.413" r="2.27482" fill="#EFF0FA"/>
<circle cx="43.6996" cy="85.122" r="2.27482" fill="#EFF0FA"/>
<circle cx="168.562" cy="135.215" r="2.27482" fill="#EFF0FA"/>
<circle cx="143.902" cy="160.77" r="2.27482" fill="#EFF0FA"/>
<circle cx="94.2172" cy="143.573" r="2.27482" fill="#EFF0FA"/>
<circle cx="43.6996" cy="109.976" r="2.27482" fill="#EFF0FA"/>
<circle cx="126.545" cy="76.8373" r="2.27482" fill="#EFF0FA"/>
<circle cx="126.545" cy="93.4062" r="2.27482" fill="#EFF0FA"/>
<circle cx="110.931" cy="135.215" r="2.27482" fill="#EFF0FA"/>
<circle cx="127.645" cy="177.725" r="2.27482" fill="#EFF0FA"/>
<circle cx="126.545" cy="85.122" r="2.27482" fill="#EFF0FA"/>
<circle cx="102.574" cy="143.573" r="2.27482" fill="#EFF0FA"/>
<circle cx="126.545" cy="109.976" r="2.27482" fill="#EFF0FA"/>
<circle cx="126.545" cy="101.691" r="2.27482" fill="#EFF0FA"/>
<circle cx="176.918" cy="135.215" r="2.27482" fill="#EFF0FA"/>
<circle cx="135.544" cy="169.368" r="2.27482" fill="#EFF0FA"/>
<circle cx="43.6996" cy="101.691" r="2.27482" fill="#EFF0FA"/>
<circle cx="69.1391" cy="169.368" r="2.27482" fill="#EFF0FA"/>
<circle cx="168.562" cy="143.573" r="2.27482" fill="#EFF0FA"/>
<circle cx="160.663" cy="152.413" r="2.27482" fill="#EFF0FA"/>
<circle cx="60.268" cy="76.8373" r="2.27482" fill="#EFF0FA"/>
<circle cx="60.268" cy="93.4062" r="2.27482" fill="#EFF0FA"/>
<circle cx="60.7826" cy="177.725" r="2.27482" fill="#EFF0FA"/>
<circle cx="152.305" cy="160.77" r="2.27482" fill="#EFF0FA"/>
<circle cx="110.931" cy="143.573" r="2.27482" fill="#EFF0FA"/>
<circle cx="60.268" cy="85.122" r="2.27482" fill="#EFF0FA"/>
<circle cx="60.268" cy="109.976" r="2.27482" fill="#EFF0FA"/>
<circle cx="85.8559" cy="169.368" r="2.27482" fill="#EFF0FA"/>
<circle cx="102.574" cy="152.413" r="2.27482" fill="#EFF0FA"/>
<circle cx="143.902" cy="169.368" r="2.27482" fill="#EFF0FA"/>
<circle cx="176.918" cy="143.573" r="2.27482" fill="#EFF0FA"/>
<circle cx="77.4965" cy="160.77" r="2.27482" fill="#EFF0FA"/>
<circle cx="134.513" cy="76.8373" r="2.27482" fill="#EFF0FA"/>
<circle cx="134.513" cy="93.4062" r="2.27482" fill="#EFF0FA"/>
<circle cx="135.544" cy="177.725" r="2.27482" fill="#EFF0FA"/>
<circle cx="134.513" cy="85.122" r="2.27482" fill="#EFF0FA"/>
<circle cx="134.513" cy="109.976" r="2.27482" fill="#EFF0FA"/>
<circle cx="134.513" cy="101.691" r="2.27482" fill="#EFF0FA"/>
<circle cx="60.268" cy="101.691" r="2.27482" fill="#EFF0FA"/>
<circle cx="68.5531" cy="76.8373" r="2.27482" fill="#EFF0FA"/>
<circle cx="68.5531" cy="93.4062" r="2.27482" fill="#EFF0FA"/>
<circle cx="69.1391" cy="177.725" r="2.27482" fill="#EFF0FA"/>
<circle cx="68.5531" cy="85.122" r="2.27482" fill="#EFF0FA"/>
<circle cx="152.305" cy="169.368" r="2.27482" fill="#EFF0FA"/>
<circle cx="142.798" cy="76.8373" r="2.27482" fill="#EFF0FA"/>
<circle cx="142.798" cy="93.4062" r="2.27482" fill="#EFF0FA"/>
<circle cx="143.902" cy="177.725" r="2.27482" fill="#EFF0FA"/>
<circle cx="142.798" cy="85.122" r="2.27482" fill="#EFF0FA"/>
<circle cx="142.798" cy="109.976" r="2.27482" fill="#EFF0FA"/>
<circle cx="142.798" cy="101.691" r="2.27482" fill="#EFF0FA"/>
<circle cx="160.663" cy="160.77" r="2.27482" fill="#EFF0FA"/>
<circle cx="77.4965" cy="169.368" r="2.27482" fill="#EFF0FA"/>
<circle cx="68.5531" cy="109.976" r="2.27482" fill="#EFF0FA"/>
<circle cx="68.5531" cy="101.691" r="2.27482" fill="#EFF0FA"/>
<circle cx="168.562" cy="152.413" r="2.27482" fill="#EFF0FA"/>
<circle cx="85.1205" cy="76.8373" r="2.27482" fill="#EFF0FA"/>
<circle cx="94.2172" cy="160.77" r="2.27482" fill="#EFF0FA"/>
<circle cx="85.1205" cy="93.4062" r="2.27482" fill="#EFF0FA"/>
<circle cx="85.8559" cy="177.725" r="2.27482" fill="#EFF0FA"/>
<circle cx="94.2172" cy="169.368" r="2.27482" fill="#EFF0FA"/>
<circle cx="110.931" cy="152.413" r="2.27482" fill="#EFF0FA"/>
<circle cx="85.1205" cy="85.122" r="2.27482" fill="#EFF0FA"/>
<circle cx="85.1205" cy="109.976" r="2.27482" fill="#EFF0FA"/>
<circle cx="102.574" cy="160.77" r="2.27482" fill="#EFF0FA"/>
<circle cx="85.1205" cy="101.691" r="2.27482" fill="#EFF0FA"/>
<circle cx="76.8383" cy="76.8373" r="2.27482" fill="#EFF0FA"/>
<circle cx="176.918" cy="152.413" r="2.27482" fill="#EFF0FA"/>
<circle cx="160.663" cy="169.368" r="2.27482" fill="#EFF0FA"/>
<circle cx="76.8383" cy="93.4062" r="2.27482" fill="#EFF0FA"/>
<circle cx="151.276" cy="76.8373" r="2.27482" fill="#EFF0FA"/>
<circle cx="168.562" cy="160.77" r="2.27482" fill="#EFF0FA"/>
<circle cx="151.276" cy="93.4062" r="2.27482" fill="#EFF0FA"/>
<circle cx="152.305" cy="177.725" r="2.27482" fill="#EFF0FA"/>
<circle cx="151.276" cy="85.122" r="2.27482" fill="#EFF0FA"/>
<circle cx="151.276" cy="109.976" r="2.27482" fill="#EFF0FA"/>
<circle cx="151.276" cy="101.691" r="2.27482" fill="#EFF0FA"/>
<circle cx="110.931" cy="160.77" r="2.27482" fill="#EFF0FA"/>
<circle cx="102.574" cy="169.368" r="2.27482" fill="#EFF0FA"/>
<circle cx="77.4965" cy="177.725" r="2.27482" fill="#EFF0FA"/>
<circle cx="76.8383" cy="85.122" r="2.27482" fill="#EFF0FA"/>
<circle cx="76.8383" cy="109.976" r="2.27482" fill="#EFF0FA"/>
<circle cx="76.8383" cy="101.691" r="2.27482" fill="#EFF0FA"/>
<circle cx="176.918" cy="160.77" r="2.27482" fill="#EFF0FA"/>
<circle cx="93.4057" cy="76.8373" r="2.27482" fill="#EFF0FA"/>
<circle cx="159.561" cy="76.8373" r="2.27482" fill="#EFF0FA"/>
<circle cx="159.561" cy="93.4062" r="2.27482" fill="#EFF0FA"/>
<circle cx="160.663" cy="177.725" r="2.27482" fill="#EFF0FA"/>
<circle cx="159.561" cy="85.122" r="2.27482" fill="#EFF0FA"/>
<circle cx="159.561" cy="109.976" r="2.27482" fill="#EFF0FA"/>
<circle cx="159.561" cy="101.691" r="2.27482" fill="#EFF0FA"/>
<circle cx="168.562" cy="169.368" r="2.27482" fill="#EFF0FA"/>
<circle cx="93.4057" cy="93.4062" r="2.27482" fill="#EFF0FA"/>
<circle cx="94.2172" cy="177.725" r="2.27482" fill="#EFF0FA"/>
<circle cx="93.4057" cy="85.122" r="2.27482" fill="#EFF0FA"/>
<circle cx="93.4057" cy="109.976" r="2.27482" fill="#EFF0FA"/>
<circle cx="93.4057" cy="101.691" r="2.27482" fill="#EFF0FA"/>
<circle cx="110.931" cy="169.368" r="2.27482" fill="#EFF0FA"/>
<circle cx="101.691" cy="76.8373" r="2.27482" fill="#EFF0FA"/>
<circle cx="101.691" cy="93.4062" r="2.27482" fill="#EFF0FA"/>
<circle cx="102.574" cy="177.725" r="2.27482" fill="#EFF0FA"/>
<circle cx="101.691" cy="85.122" r="2.27482" fill="#EFF0FA"/>
<circle cx="101.691" cy="109.976" r="2.27482" fill="#EFF0FA"/>
<circle cx="176.918" cy="169.368" r="2.27482" fill="#EFF0FA"/>
<circle cx="101.691" cy="101.691" r="2.27482" fill="#EFF0FA"/>
<circle cx="167.531" cy="76.8373" r="2.27482" fill="#EFF0FA"/>
<circle cx="167.531" cy="93.4062" r="2.27482" fill="#EFF0FA"/>
<circle cx="168.562" cy="177.725" r="2.27482" fill="#EFF0FA"/>
<circle cx="167.531" cy="85.122" r="2.27482" fill="#EFF0FA"/>
<circle cx="167.531" cy="109.976" r="2.27482" fill="#EFF0FA"/>
<circle cx="167.531" cy="101.691" r="2.27482" fill="#EFF0FA"/>
<circle cx="109.976" cy="76.8373" r="2.27482" fill="#EFF0FA"/>
<circle cx="109.976" cy="93.4062" r="2.27482" fill="#EFF0FA"/>
<circle cx="110.931" cy="177.725" r="2.27482" fill="#EFF0FA"/>
<circle cx="109.976" cy="85.122" r="2.27482" fill="#EFF0FA"/>
<circle cx="109.976" cy="109.976" r="2.27482" fill="#EFF0FA"/>
<circle cx="109.976" cy="101.691" r="2.27482" fill="#EFF0FA"/>
<circle cx="175.813" cy="76.8373" r="2.27482" fill="#EFF0FA"/>
<circle cx="175.813" cy="93.4062" r="2.27482" fill="#EFF0FA"/>
<circle cx="176.918" cy="177.725" r="2.27482" fill="#EFF0FA"/>
<circle cx="175.813" cy="85.122" r="2.27482" fill="#EFF0FA"/>
<circle cx="175.813" cy="109.976" r="2.27482" fill="#EFF0FA"/>
<circle cx="175.813" cy="101.691" r="2.27482" fill="#EFF0FA"/>
</svg>
