<svg width="163" height="28" viewBox="0 0 163 28" fill="none" xmlns="http://www.w3.org/2000/svg">
<g clip-path="url(#clip0_2017_6145)">
<path d="M44.2658 7.57241C44.2702 6.69504 44.4359 5.82596 44.7547 5.00853C45.0721 4.1761 45.5502 3.4143 46.1619 2.76662C46.7896 2.09617 47.538 1.55002 48.368 1.15675C49.272 0.739548 50.2584 0.53165 51.2539 0.548563H61.8075C62.8026 0.535284 63.7883 0.743015 64.6934 1.15675C65.5269 1.54997 66.2793 2.09603 66.9114 2.76662C67.519 3.41746 67.9967 4.17841 68.3186 5.00853C68.6333 5.82673 68.795 6.69578 68.7956 7.57241V9.83818C68.8046 10.691 68.6633 11.5387 68.3782 12.3424C68.1061 13.1244 67.6712 13.8397 67.1022 14.4412C66.5016 15.0776 65.7746 15.5813 64.9677 15.9199C64.018 16.3057 62.9992 16.4924 61.9745 16.4685H59.184V23.1585H67.7939C68.2968 23.1456 68.7989 23.2059 69.2845 23.3373C69.6224 23.423 69.9337 23.591 70.1908 23.8263C70.3961 24.0189 70.5481 24.2612 70.6321 24.5298C70.7054 24.8222 70.7414 25.1227 70.7394 25.4242C70.7389 25.6902 70.7028 25.9549 70.6321 26.2113C70.551 26.4846 70.3987 26.7316 70.1908 26.9268C69.9291 27.1581 69.6197 27.329 69.2845 27.4276C68.8015 27.5736 68.2984 27.642 67.7939 27.6303H45.3033C44.7988 27.642 44.2957 27.5736 43.8126 27.4276C43.4789 27.3256 43.1702 27.155 42.9063 26.9268C42.6975 26.7344 42.5485 26.486 42.477 26.2113C42.3967 25.9567 42.3565 25.6911 42.3578 25.4242C42.3532 25.1218 42.3934 24.8204 42.477 24.5298C42.5518 24.2599 42.7005 24.0162 42.9063 23.8263C43.1651 23.5933 43.4759 23.4257 43.8126 23.3373C44.2982 23.2059 44.8003 23.1456 45.3033 23.1585H53.9131V16.4924H51.0988C50.0702 16.5162 49.0476 16.3295 48.0937 15.9438C47.2868 15.6052 46.5597 15.1015 45.9591 14.4651C45.3907 13.8611 44.9523 13.1467 44.6712 12.3663C44.3728 11.5654 44.2232 10.7167 44.23 9.86204L44.2658 7.57241ZM49.5128 9.02727C49.4903 9.76221 49.722 10.4824 50.1687 11.0665C50.4258 11.3587 50.7436 11.5912 51.1 11.7478C51.4563 11.9043 51.8426 11.9811 52.2317 11.9728H60.8416C61.229 11.981 61.6134 11.9041 61.9678 11.7475C62.3223 11.5909 62.638 11.3584 62.8927 11.0665C63.3437 10.484 63.5796 9.76364 63.5605 9.02727V7.9898C63.5809 7.23859 63.3454 6.50275 62.8927 5.90291C62.6284 5.60019 62.2959 5.3645 61.9228 5.21524C61.5496 5.06598 61.1464 5.0074 60.7462 5.04431H52.3271C51.9252 5.00837 51.5205 5.06734 51.1456 5.21648C50.7707 5.36562 50.4361 5.60075 50.1687 5.90291C49.7194 6.50386 49.4881 7.23987 49.5128 7.9898V9.02727Z" fill="#0822A0"/>
<path d="M80.0645 22.7172H85.1088C85.6126 22.7017 86.1158 22.7661 86.5994 22.908C86.9346 23.0066 87.2439 23.1776 87.5057 23.4089C87.7136 23.6041 87.8658 23.851 87.9469 24.1244C88.0168 24.3809 88.0529 24.6455 88.0543 24.9114C88.0563 25.2129 88.0203 25.5134 87.9469 25.8058C87.8633 26.0781 87.7114 26.3244 87.5057 26.5213C87.2445 26.7481 86.9343 26.9114 86.5994 26.9983C86.1138 27.1298 85.6117 27.19 85.1088 27.1772H77.441C76.9614 27.1951 76.4821 27.1347 76.0219 26.9983C75.7193 26.9101 75.4442 26.7459 75.2229 26.5213C75.0439 26.3207 74.9278 26.0719 74.889 25.8058C74.8396 25.5103 74.8156 25.2111 74.8175 24.9114V3.04092C74.8167 2.72946 74.8406 2.41843 74.889 2.11076C74.929 1.82358 75.0442 1.55206 75.2229 1.32371C75.4335 1.06516 75.7094 0.867552 76.0219 0.75131C76.479 0.599234 76.9596 0.530551 77.441 0.548568H84.4648C84.9677 0.535764 85.4699 0.596028 85.9555 0.727455C86.2885 0.81895 86.5978 0.981695 86.8618 1.20445C87.0681 1.39884 87.2166 1.64646 87.2911 1.91996C87.3747 2.21057 87.4149 2.51196 87.4103 2.81434C87.4107 3.08121 87.3705 3.3466 87.2911 3.60139C87.2196 3.87616 87.0706 4.12454 86.8618 4.31689C86.5979 4.54515 86.2892 4.71575 85.9555 4.81774C85.4718 4.9597 84.9687 5.0241 84.4648 5.00854H80.0645V22.7172ZM94.3745 15.6576H89.1395C88.6482 15.6733 88.1575 15.613 87.6846 15.4787C87.3609 15.3866 87.0656 15.2143 86.826 14.9779C86.6217 14.781 86.4806 14.5278 86.4205 14.2505C86.3503 13.9577 86.3183 13.6571 86.3251 13.3561C86.323 13.0907 86.3551 12.8262 86.4205 12.569C86.4806 12.2917 86.6217 12.0385 86.826 11.8416C87.0666 11.6011 87.3609 11.4213 87.6846 11.3169C88.1568 11.1786 88.6476 11.1143 89.1395 11.1261H94.3745V3.04092C94.3235 2.6344 94.3693 2.22158 94.5082 1.83611C94.647 1.45065 94.875 1.10346 95.1735 0.822857C95.6959 0.421744 96.3397 0.211349 96.9981 0.226605C97.3318 0.222902 97.6646 0.262983 97.9878 0.345845C98.2922 0.434292 98.5732 0.589054 98.8107 0.799002C99.0691 1.04568 99.2688 1.34726 99.395 1.68146C99.5613 2.11474 99.6384 2.57713 99.6216 3.04092V25.138C99.6396 25.6135 99.5626 26.0879 99.395 26.5332C99.2672 26.8632 99.0676 27.1605 98.8107 27.4038C98.5764 27.6183 98.2943 27.7737 97.9878 27.8569C97.6651 27.9438 97.3323 27.9879 96.9981 27.9881C96.6639 27.9871 96.3312 27.943 96.0083 27.8569C95.6822 27.7677 95.3827 27.6007 95.1355 27.3701C94.8883 27.1395 94.7008 26.8523 94.5892 26.5332C94.4334 26.0851 94.3606 25.6123 94.3745 25.138V15.6576Z" fill="#0822A0"/>
<path d="M103.175 8.59804C103.172 8.30045 103.208 8.00373 103.282 7.7156C103.359 7.44374 103.512 7.19959 103.724 7.01203C103.99 6.79781 104.299 6.64326 104.63 6.55887C105.114 6.44259 105.611 6.39046 106.109 6.40384H114.599C115.097 6.39046 115.594 6.44259 116.078 6.55887C116.409 6.64326 116.718 6.79781 116.984 7.01203C117.195 7.19959 117.349 7.44374 117.425 7.7156C117.504 8.00317 117.544 8.29991 117.545 8.59804C117.54 8.86453 117.5 9.12923 117.425 9.3851C117.343 9.65084 117.19 9.88963 116.984 10.0768C116.724 10.3078 116.414 10.4752 116.078 10.5657C115.596 10.6973 115.098 10.7576 114.599 10.7446H113.264V12.8076C113.264 13.7139 113.264 14.5964 113.264 15.4311C113.278 16.2359 113.386 17.0364 113.586 17.8161C113.804 18.6439 114.159 19.4296 114.635 20.1415C115.23 21.0183 115.977 21.7816 116.841 22.3953C117.453 22.8197 117.929 23.4119 118.212 24.1006C118.32 24.4278 118.347 24.7758 118.293 25.1159C118.24 25.4559 118.106 25.7783 117.902 26.0563C117.688 26.3971 117.393 26.6797 117.044 26.8791C116.709 27.0607 116.339 27.1666 115.959 27.1892C115.71 27.1837 115.463 27.1558 115.219 27.1057C114.947 27.0457 114.691 26.9277 114.468 26.7599C113.699 26.1873 112.988 25.5403 112.345 24.828C111.756 24.1594 111.225 23.4413 110.759 22.6815C110.329 23.4052 109.855 24.1021 109.34 24.7684C108.765 25.4987 108.126 26.1771 107.432 26.7957C107.175 27.016 106.868 27.1713 106.538 27.2488C106.193 27.3287 105.842 27.3806 105.488 27.4038C105.101 27.4272 104.714 27.3619 104.356 27.213C103.941 27.0406 103.597 26.734 103.378 26.3425C103.175 26.0665 103.043 25.745 102.993 25.4062C102.943 25.0674 102.977 24.7215 103.091 24.3987C103.387 23.7173 103.855 23.1252 104.451 22.6815C105.318 22.012 106.071 21.2066 106.681 20.2965C107.157 19.5632 107.511 18.7578 107.73 17.9115C107.935 17.1006 108.039 16.2675 108.04 15.4311V10.7446H106.061C105.562 10.7576 105.064 10.6973 104.582 10.5657C104.246 10.4752 103.936 10.3078 103.676 10.0768C103.47 9.88963 103.317 9.65084 103.235 9.3851C103.18 9.12655 103.16 8.86188 103.175 8.59804ZM104.88 2.1943C104.882 1.89234 104.922 1.59182 104.999 1.29992C105.072 1.02944 105.226 0.787881 105.441 0.608269C105.704 0.389675 106.014 0.234634 106.347 0.15513C106.831 0.0388453 107.328 -0.0132827 107.826 9.82063e-05H112.882C113.383 -0.0125568 113.884 0.0395545 114.373 0.15513C114.704 0.239521 115.013 0.394047 115.279 0.608269C115.486 0.791947 115.636 1.03239 115.708 1.29992C115.786 1.59182 115.826 1.89234 115.827 2.1943C115.824 2.45695 115.784 2.71783 115.708 2.96944C115.631 3.23817 115.482 3.48115 115.279 3.67301C115.015 3.89577 114.706 4.05851 114.373 4.15001C113.887 4.28078 113.385 4.34103 112.882 4.32889H107.826C107.327 4.3419 106.829 4.28162 106.347 4.15001C106.012 4.06307 105.702 3.89981 105.441 3.67301C105.23 3.48502 105.077 3.24103 104.999 2.96944C104.924 2.71783 104.884 2.45695 104.88 2.1943ZM119.643 17.9234H117.473C116.982 17.9391 116.491 17.8788 116.018 17.7446C115.696 17.6563 115.4 17.4881 115.16 17.2556C114.965 17.061 114.825 16.8182 114.754 16.5521C114.69 16.2582 114.658 15.9584 114.659 15.6577C114.661 15.3926 114.693 15.1286 114.754 14.8706C114.822 14.5998 114.962 14.3524 115.16 14.1551C115.405 13.9267 115.698 13.7556 116.018 13.6543C116.489 13.5104 116.981 13.4459 117.473 13.4635H119.643V3.04099C119.594 2.64334 119.63 2.23977 119.75 1.85725C119.869 1.47474 120.069 1.1221 120.335 0.822929C120.779 0.431239 121.353 0.218708 121.945 0.226677C122.522 0.223712 123.079 0.436365 123.507 0.822929C123.776 1.1211 123.978 1.47328 124.099 1.85583C124.22 2.23839 124.258 2.64248 124.211 3.04099V25.1381C124.222 25.6113 124.154 26.0829 124.008 26.5333C123.905 26.8557 123.734 27.1525 123.507 27.4038C123.31 27.6183 123.059 27.775 122.78 27.857C122.509 27.9413 122.228 27.9855 121.945 27.9882C121.646 27.9872 121.349 27.943 121.063 27.857C120.785 27.7718 120.534 27.6156 120.335 27.4038C120.108 27.1525 119.938 26.8557 119.834 26.5333C119.693 26.0821 119.629 25.6106 119.643 25.1381V17.9234ZM126.477 3.04099C126.427 2.64334 126.463 2.23977 126.583 1.85725C126.702 1.47474 126.902 1.1221 127.168 0.822929C127.609 0.434006 128.178 0.221667 128.766 0.226677C129.346 0.227511 129.905 0.439473 130.34 0.822929C130.607 1.1221 130.806 1.47474 130.926 1.85725C131.045 2.23977 131.081 2.64334 131.032 3.04099V25.1381C131.047 25.6106 130.982 26.0821 130.841 26.5333C130.738 26.8557 130.567 27.1525 130.34 27.4038C130.141 27.6156 129.891 27.7718 129.613 27.857C129.338 27.9413 129.053 27.9854 128.766 27.9882C128.471 27.9864 128.178 27.9422 127.896 27.857C127.618 27.7718 127.367 27.6156 127.168 27.4038C126.941 27.1525 126.771 26.8557 126.667 26.5333C126.526 26.0821 126.462 25.6106 126.477 25.1381V3.04099Z" fill="#0822A0"/>
<path d="M134.598 25.4004C134.596 25.099 134.632 24.7985 134.705 24.506C134.789 24.2374 134.941 23.9951 135.146 23.8025C135.403 23.5672 135.715 23.3992 136.053 23.3135C136.538 23.1813 137.04 23.121 137.543 23.1347H160.046C160.549 23.1219 161.051 23.1821 161.536 23.3135C161.873 23.4019 162.184 23.5695 162.443 23.8025C162.649 23.9924 162.797 24.2361 162.872 24.506C162.956 24.7967 162.996 25.098 162.991 25.4004C162.993 25.6674 162.952 25.9329 162.872 26.1875C162.801 26.4622 162.652 26.7106 162.443 26.903C162.179 27.1313 161.87 27.3018 161.536 27.4038C161.053 27.5498 160.55 27.6183 160.046 27.6066H137.543C137.039 27.6199 136.535 27.5514 136.053 27.4038C135.717 27.3053 135.408 27.1343 135.146 26.903C134.938 26.7078 134.786 26.4608 134.705 26.1875C134.634 25.9311 134.598 25.6664 134.598 25.4004ZM157.995 0.93023C158.455 0.912475 158.914 0.972952 159.354 1.1091C159.639 1.20405 159.894 1.37273 160.093 1.59803C160.277 1.81407 160.394 2.07954 160.427 2.36123C160.468 2.70556 160.488 3.052 160.487 3.3987V8.84846C160.487 9.88594 160.487 10.8757 160.487 11.8416C160.459 12.7394 160.383 13.635 160.26 14.5248C160.151 15.3093 159.976 16.0833 159.736 16.8382C159.53 17.517 159.207 18.1547 158.782 18.7224C158.594 18.9993 158.34 19.2248 158.042 19.3783C157.77 19.5196 157.476 19.6124 157.172 19.6525C156.876 19.7065 156.573 19.7065 156.277 19.6525C156.006 19.6091 155.741 19.5288 155.49 19.414C154.975 19.1957 154.553 18.8031 154.298 18.305C154.181 18.0358 154.121 17.7457 154.121 17.4524C154.121 17.1591 154.181 16.8689 154.298 16.5997C154.477 15.9677 154.62 15.4072 154.739 14.9302C154.858 14.4532 154.942 13.9762 155.013 13.5231H139.511C139.008 13.5359 138.506 13.4756 138.02 13.3442C137.684 13.2538 137.374 13.0864 137.114 12.8553C136.906 12.6601 136.754 12.4131 136.673 12.1398C136.598 11.8516 136.562 11.5549 136.565 11.2573C136.567 10.9875 136.603 10.7189 136.673 10.4583C136.757 10.1897 136.909 9.94736 137.114 9.75475C137.372 9.51578 137.682 9.34023 138.02 9.24199C138.505 9.10587 139.007 9.04158 139.511 9.05118H155.168V5.36635H139.773C139.27 5.38 138.768 5.31973 138.283 5.18746C137.947 5.09701 137.636 4.92964 137.376 4.69855C137.164 4.50688 137.011 4.25866 136.935 3.98304C136.861 3.69491 136.824 3.39817 136.828 3.10058C136.829 2.83074 136.865 2.5622 136.935 2.3016C137.014 2.0308 137.167 1.78727 137.376 1.59803C137.632 1.35882 137.944 1.18675 138.283 1.09718C138.765 0.949572 139.269 0.881113 139.773 0.894456L157.995 0.93023Z" fill="#0822A0"/>
<path d="M18.138 20.2846C17.0503 20.2534 15.9794 20.0077 14.9869 19.5615C13.9944 19.1154 13.0998 18.4777 12.3543 17.6849L11.7819 17.0887L11.138 16.397L10.5775 15.8127L9.74278 14.9183C9.08321 14.203 8.28312 13.6316 7.3926 13.2397C6.50207 12.8477 5.54024 12.6438 4.56729 12.6406C2.88894 12.6391 1.26669 13.2448 0 14.3459L7.59627 22.4907L8.97958 23.9694C9.39353 24.4155 9.89552 24.7709 10.4538 25.0131C11.0121 25.2553 11.6146 25.3791 12.2232 25.3766C12.83 25.3789 13.4306 25.255 13.9869 25.0127C14.5433 24.7705 15.0432 24.4152 15.4549 23.9694L19.2947 20.2488C18.9966 20.2488 18.6985 20.2488 18.4004 20.2488L18.138 20.2846Z" fill="#1D58FF"/>
<path d="M35.1193 4.07837C33.9298 2.82458 32.292 2.09308 30.5644 2.04391C28.8369 1.99474 27.1601 2.63192 25.9012 3.81601L20.1295 9.26577L19.4736 9.88586L13.0938 15.9199L13.6304 16.4923C14.217 17.1167 14.9217 17.6184 15.7037 17.9684C16.4857 18.3185 17.3293 18.5099 18.1857 18.5315C19.9093 18.5735 21.58 17.9352 22.8365 16.7547L24.8518 14.8467L25.5077 14.2266L26.1636 13.6065L35.644 4.65076L35.1193 4.07837Z" fill="url(#paint0_linear_2017_6145)"/>
</g>
<defs>
<linearGradient id="paint0_linear_2017_6145" x1="16.5162" y1="17.3867" x2="40.2948" y2="-4.16184" gradientUnits="userSpaceOnUse">
<stop stop-color="#1D58FF"/>
<stop offset="0.8" stop-color="#00FFB3"/>
</linearGradient>
<clipPath id="clip0_2017_6145">
<rect width="162.98" height="28" fill="white"/>
</clipPath>
</defs>
</svg>
