<svg width="108" height="108" viewBox="0 0 108 108" fill="none" xmlns="http://www.w3.org/2000/svg">
<rect width="108" height="108" rx="32" fill="#FFEBD5"/>
<g clip-path="url(#clip0_2430_6545)">
<path d="M49.0098 43.7748H50.1238L49.5692 42.3064L49.0098 43.7748Z" fill="#FF8D24"/>
<path d="M70.1001 33H43.5441C40.1521 33 37.3926 35.7595 37.3926 39.1515V64.7551C38.6739 63.6231 40.3555 62.9357 42.1947 62.9357H70.6054V33.5053C70.6054 33.2264 70.3782 33 70.1001 33V33ZM53.0573 48.0609C52.4298 48.2989 51.7144 47.9869 51.4716 47.344L51.0532 46.2357H48.0739L47.6506 47.3473C47.4086 47.983 46.6974 48.3013 46.0625 48.0593C45.4275 47.8173 45.1084 47.1069 45.3504 46.472L48.2625 38.8267C48.2658 38.8168 48.2699 38.8078 48.2732 38.7988C48.7496 37.6358 50.3983 37.6338 50.8752 38.7963C50.8802 38.807 50.8843 38.8185 50.8884 38.83L53.7742 46.4753C54.0137 47.111 53.693 47.8206 53.0573 48.0609ZM61.4975 58.6725H56.3246C55.3469 58.6725 54.7624 57.5872 55.2934 56.771L59.1062 50.9189H56.4837C55.8037 50.9189 55.2532 50.3677 55.2532 49.6884C55.2532 49.0084 55.8037 48.458 56.4837 48.458H61.3769C62.3518 48.458 62.9406 49.5409 62.408 50.3595L58.5944 56.2116H61.4975C62.1767 56.2116 62.7279 56.7628 62.7279 57.442C62.7279 58.1221 62.1767 58.6725 61.4975 58.6725Z" fill="#FF8D24"/>
<path d="M42.1959 75.0001H70.1012C70.3793 75.0001 70.6066 74.7737 70.6066 74.4948V71.4285H37.5537C38.0984 73.4825 39.9728 75.0001 42.1959 75.0001Z" fill="#FF8D24"/>
<path d="M37.5537 68.9676H70.6066V65.3967H42.1959C39.9736 65.3967 38.0984 66.9143 37.5537 68.9676Z" fill="#FF8D24"/>
</g>
<defs>
<clipPath id="clip0_2430_6545">
<rect width="42" height="42" fill="white" transform="translate(33 33)"/>
</clipPath>
</defs>
</svg>
