<svg width="639" height="382" viewBox="0 0 639 382" fill="none" xmlns="http://www.w3.org/2000/svg">
<mask id="mask0_2017_6215" style="mask-type:alpha" maskUnits="userSpaceOnUse" x="0" y="0" width="640" height="382">
<rect width="640" height="382" fill="#C4C4C4"/>
</mask>
<g mask="url(#mask0_2017_6215)">
<path fill-rule="evenodd" clip-rule="evenodd" d="M574.88 -3.07057C607.198 -25.6642 645.982 -37.1439 685.391 -35.7812C726.241 -34.5837 765.491 -19.6315 796.784 6.65439L706.83 91.7481L690.474 107.22L674.118 122.69L538.412 250.662C505.853 281.455 463.149 299.266 418.359 300.732C373.569 302.197 329.791 287.217 295.289 258.618L343.693 212.867L553.662 13.9484L556.756 11.2963C562.491 6.13334 568.545 1.3346 574.88 -3.07057ZM247.932 273.224C252.905 278.643 258.22 283.737 263.846 288.474C305.201 324.648 358.312 344.526 413.255 344.393C423.689 344.361 434.107 343.549 444.419 341.962L344.076 439.432C334.992 449.298 323.953 457.164 311.662 462.529C299.371 467.895 286.097 470.643 272.686 470.596C259.271 470.67 245.989 467.934 233.694 462.567C221.399 457.2 210.363 449.319 201.297 439.432L171.901 408.047L0.167969 224.379C28.1399 200.671 63.6232 187.668 100.291 187.689C121.954 187.755 143.368 192.306 163.186 201.055C183.005 209.804 200.797 222.562 215.442 238.525L232.903 257.09L247.932 273.224Z" fill="white" fill-opacity="0.06"/>
</g>
</svg>
