<svg width="246" height="185" viewBox="0 0 246 185" fill="none" xmlns="http://www.w3.org/2000/svg">
<g filter="url(#filter0_d_2093_6491)">
<rect x="128.889" y="6" width="108.444" height="108.444" rx="20" fill="#1D58FF"/>
</g>
<g filter="url(#filter1_d_2093_6491)">
<rect x="68.4443" y="6" width="49.7778" height="49.7778" rx="14" fill="white"/>
</g>
<g filter="url(#filter2_d_2093_6491)">
<rect x="68.4443" y="64.6665" width="49.7778" height="49.7778" rx="14" fill="white"/>
</g>
<g filter="url(#filter3_d_2093_6491)">
<rect x="8" y="6" width="49.7778" height="49.7778" rx="14" fill="white"/>
</g>
<g filter="url(#filter4_d_2093_6491)">
<rect x="8" y="64.6665" width="49.7778" height="49.7778" rx="14" fill="white"/>
</g>
<g filter="url(#filter5_d_2093_6491)">
<rect x="8" y="125.111" width="49.7778" height="49.7778" rx="14" fill="white"/>
</g>
<g filter="url(#filter6_d_2093_6491)">
<rect x="68.4443" y="125.111" width="49.7778" height="49.7778" rx="14" fill="white"/>
</g>
<g filter="url(#filter7_d_2093_6491)">
<rect x="128.889" y="125.111" width="49.7778" height="49.7778" rx="14" fill="white"/>
</g>
<g filter="url(#filter8_d_2093_6491)">
<rect x="187.556" y="125.111" width="49.7778" height="49.7778" rx="14" fill="white"/>
</g>
<path d="M80.8003 32.5664L80.8003 32.5663C80.3456 29.2522 81.2261 25.8932 83.248 23.2282C85.2699 20.5633 88.2676 18.8107 91.5817 18.356C94.8958 17.9013 98.2548 18.7817 100.92 20.8036C103.585 22.8255 105.337 25.8232 105.792 29.1373L105.941 29.117L105.792 29.1381C106.076 31.1281 105.881 33.157 105.224 35.0565C104.936 35.8586 104.406 36.5513 103.707 37.0385C103.008 37.5258 102.174 37.7832 101.322 37.775L101.321 37.775C100.541 37.7727 99.777 37.5506 99.1174 37.1343C98.4578 36.7179 97.9289 36.1241 97.5913 35.421L97.5039 35.239L97.3549 35.3751C96.5102 36.147 95.4631 36.6623 94.3361 36.8608C93.2092 37.0592 92.0491 36.9326 90.9915 36.4957C89.9339 36.0588 89.0226 35.3297 88.3643 34.3938C87.706 33.4578 87.3279 32.3537 87.2743 31.2107C87.2206 30.0677 87.4936 28.9331 88.0613 27.9396C88.629 26.9461 89.468 26.1348 90.48 25.6007C91.492 25.0667 92.6351 24.8319 93.7757 24.9239C94.9163 25.0159 96.007 25.4308 96.9204 26.1201L97.1607 26.3015V26.0004V25.9889C97.1607 25.7012 97.275 25.4253 97.4785 25.2218C97.6819 25.0184 97.9578 24.9041 98.2455 24.9041C98.5332 24.9041 98.8091 25.0184 99.0125 25.2218C99.216 25.4253 99.3303 25.7012 99.3303 25.9889V33.6156V33.6158C99.331 34.1433 99.5408 34.6489 99.9138 35.0219C100.286 35.3945 100.791 35.6043 101.318 35.6054C101.719 35.6144 102.112 35.4987 102.445 35.2741C102.777 35.0493 103.031 34.7265 103.172 34.3506L103.172 34.3506L103.173 34.3472C103.681 32.8843 103.856 31.3269 103.688 29.7877C103.519 28.2485 103.01 26.7661 102.197 25.4479C101.385 24.1298 100.29 23.0088 98.9904 22.1663C97.6913 21.3238 96.221 20.7809 94.6861 20.5768L94.686 20.5768C93.0335 20.3575 91.3526 20.5372 89.7837 21.1008C88.2149 21.6643 86.8038 22.5953 85.6685 23.816C84.5333 25.0366 83.7068 26.5114 83.2583 28.1169C82.8098 29.7224 82.7522 31.412 83.0905 33.0443C83.4288 34.6766 84.153 36.2042 85.2026 37.4992C86.2522 38.7942 87.5967 39.8191 89.1236 40.4881C90.6504 41.157 92.3153 41.4506 93.9789 41.3443C95.6425 41.238 97.2564 40.7348 98.6857 39.8769L98.6859 39.8768C98.9324 39.7283 99.2277 39.6839 99.507 39.7532C99.6452 39.7875 99.7754 39.8487 99.89 39.9333C100.005 40.0179 100.101 40.1243 100.175 40.2463C100.248 40.3684 100.297 40.5037 100.318 40.6446C100.34 40.7854 100.333 40.9291 100.299 41.0674C100.264 41.2057 100.203 41.3358 100.118 41.4504C100.034 41.565 99.9274 41.6619 99.8054 41.7354L99.8051 41.7355C97.8495 42.9188 95.6065 43.5426 93.3207 43.5389H93.3205C92.7547 43.5387 92.1894 43.5017 91.6284 43.4283C88.8866 43.0451 86.345 41.7767 84.3903 39.816C82.4356 37.8553 81.175 35.3096 80.8003 32.5664ZM97.1607 30.9281V30.9279C97.1607 30.1656 96.9347 29.4204 96.5112 28.7866C96.0876 28.1528 95.4857 27.6588 94.7814 27.367C94.0771 27.0753 93.3022 26.999 92.5545 27.1477C91.8068 27.2964 91.1201 27.6635 90.581 28.2025C90.042 28.7416 89.6749 29.4283 89.5262 30.176C89.3775 30.9237 89.4538 31.6986 89.7455 32.4029C90.0372 33.1072 90.5313 33.7092 91.1651 34.1327C91.7989 34.5562 92.5441 34.7822 93.3064 34.7822V34.6322L93.3066 34.7822C94.3284 34.7811 95.3081 34.3747 96.0306 33.6521C96.7532 32.9296 97.1596 31.9499 97.1607 30.9281Z" fill="#1D58FF" stroke="white" stroke-width="0.3"/>
<path d="M162.505 138.181H161.51V137.174C161.51 136.599 161.044 136.133 160.469 136.133C159.893 136.133 159.427 136.599 159.427 137.174V138.181H149.207V137.174C149.207 136.599 148.74 136.133 148.165 136.133C147.59 136.133 147.123 136.599 147.123 137.174V138.181H146.128C143.288 138.181 140.978 140.492 140.978 143.332V157.649C140.978 160.489 143.288 162.799 146.128 162.799H162.505C165.345 162.799 167.656 160.489 167.656 157.649V143.332C167.656 140.492 165.345 138.181 162.505 138.181V138.181ZM146.128 140.265H147.123V142.296C147.123 142.871 147.59 143.338 148.165 143.338C148.74 143.338 149.207 142.871 149.207 142.296V140.265H159.427V142.296C159.427 142.871 159.893 143.338 160.469 143.338C161.044 143.338 161.51 142.871 161.51 142.296V140.265H162.505C164.197 140.265 165.573 141.641 165.573 143.332V144.327H143.061V143.332C143.061 141.641 144.437 140.265 146.128 140.265V140.265ZM162.505 160.716H146.128C144.437 160.716 143.061 159.34 143.061 157.649V146.411H165.573V157.649C165.573 159.34 164.197 160.716 162.505 160.716V160.716ZM150.231 150.508C150.231 151.083 149.765 151.549 149.189 151.549H147.141C146.565 151.549 146.099 151.083 146.099 150.508C146.099 149.932 146.565 149.466 147.141 149.466H149.189C149.765 149.466 150.231 149.932 150.231 150.508ZM162.535 150.508C162.535 151.083 162.068 151.549 161.493 151.549H159.444C158.869 151.549 158.403 151.083 158.403 150.508C158.403 149.932 158.869 149.466 159.444 149.466H161.493C162.068 149.466 162.535 149.932 162.535 150.508V150.508ZM156.377 150.508C156.377 151.083 155.911 151.549 155.335 151.549H153.287C152.711 151.549 152.245 151.083 152.245 150.508C152.245 149.932 152.711 149.466 153.287 149.466H155.335C155.91 149.466 156.377 149.932 156.377 150.508ZM150.231 156.654C150.231 157.229 149.765 157.695 149.189 157.695H147.141C146.565 157.695 146.099 157.229 146.099 156.654C146.099 156.078 146.565 155.612 147.141 155.612H149.189C149.765 155.612 150.231 156.078 150.231 156.654ZM162.535 156.654C162.535 157.229 162.068 157.695 161.493 157.695H159.444C158.869 157.695 158.403 157.229 158.403 156.654C158.403 156.078 158.869 155.612 159.444 155.612H161.493C162.068 155.612 162.535 156.078 162.535 156.654V156.654ZM156.377 156.654C156.377 157.229 155.911 157.695 155.335 157.695H153.287C152.711 157.695 152.245 157.229 152.245 156.654C152.245 156.078 152.711 155.612 153.287 155.612H155.335C155.91 155.612 156.377 156.078 156.377 156.654Z" fill="#1D58FF"/>
<g clip-path="url(#clip0_2093_6491)">
<path d="M228.183 150.213C227.8 149.503 227.062 149.062 226.256 149.062H222.071V144.062C222.071 142.683 220.949 141.562 219.571 141.562H208.32V140.312C208.32 138.933 207.198 137.812 205.82 137.812H198.944C197.566 137.812 196.444 138.933 196.444 140.312V161.25H196.445C196.445 161.407 196.483 161.563 196.562 161.705C196.727 162.003 197.041 162.188 197.382 162.188H221.133C221.448 162.188 221.741 162.03 221.915 161.768L228.082 152.454C228.526 151.782 228.565 150.923 228.183 150.213ZM198.944 139.687H205.82C206.164 139.687 206.445 139.967 206.445 140.312V142.499C206.445 143.017 206.865 143.437 207.382 143.437H219.571C219.915 143.437 220.196 143.717 220.196 144.062V149.062H218.32V146.249C218.32 145.732 217.901 145.312 217.383 145.312H201.132C200.614 145.312 200.195 145.732 200.195 146.249V154.977L198.319 157.979V140.312C198.319 139.967 198.6 139.687 198.944 139.687ZM204.409 149.062C204.085 149.062 203.785 149.229 203.614 149.503L202.07 151.975V147.187H216.445V149.062H204.409ZM226.518 151.42L220.629 160.313H199.073L201.897 155.79C201.92 155.759 201.94 155.726 201.959 155.692L204.929 150.937H226.256C226.419 150.937 226.498 151.04 226.531 151.102C226.564 151.163 226.607 151.286 226.518 151.42V151.42Z" fill="#1D58FF"/>
</g>
<path d="M32.8926 136C27.3816 136 22.8906 140.493 22.8906 146.004C22.8906 149.932 25.2604 154.24 27.5547 157.681C29.8489 161.123 32.1465 163.668 32.1465 163.668C32.2402 163.771 32.3548 163.854 32.4826 163.911C32.6104 163.968 32.7488 163.997 32.8887 163.997C33.0286 163.997 33.1669 163.968 33.2947 163.911C33.4226 163.854 33.5371 163.771 33.6309 163.668C33.6309 163.668 35.9284 161.123 38.2227 157.681C40.5169 154.24 42.8867 149.932 42.8867 146.004C42.8867 140.493 38.4036 136 32.8926 136V136ZM32.8926 138C37.3227 138 40.8867 141.573 40.8867 146.004C40.8867 149.075 38.7663 153.265 36.5605 156.574C34.726 159.326 33.4581 160.716 32.8926 161.365C32.3283 160.717 31.0583 159.327 29.2227 156.574C27.0169 153.265 24.8906 149.075 24.8906 146.004C24.8906 141.573 28.4625 138 32.8926 138V138ZM32.8926 142.002C30.6953 142.002 28.8906 143.806 28.8906 146.004C28.8906 148.201 30.6953 150.003 32.8926 150.003C35.0899 150.003 36.8926 148.201 36.8926 146.004C36.8926 143.806 35.0899 142.002 32.8926 142.002ZM32.8926 144.001C34.009 144.001 34.8926 144.887 34.8926 146.004C34.8926 147.12 34.009 148.003 32.8926 148.003C31.7762 148.003 30.8926 147.12 30.8926 146.004C30.8926 144.887 31.7762 144.001 32.8926 144.001Z" fill="#1D58FF"/>
<g clip-path="url(#clip1_2093_6491)">
<path d="M100.702 138.875H85.9636C81.2046 138.875 77.333 142.747 77.333 147.506C77.333 152.265 81.2046 156.136 85.9636 156.136H90.0468L92.5007 160.628C92.6669 160.933 92.9863 161.122 93.3332 161.122C93.6801 161.122 93.9992 160.933 94.1657 160.628L96.6196 156.136H100.702C105.461 156.136 109.333 152.265 109.333 147.506C109.333 142.747 105.461 138.875 100.702 138.875V138.875ZM100.702 154.239H96.0568C95.7101 154.239 95.3908 154.429 95.2243 154.733L93.3332 158.195L91.4418 154.733C91.2756 154.429 90.9565 154.239 90.6096 154.239H85.9636C82.2507 154.239 79.2302 151.219 79.2302 147.506C79.2302 143.793 82.2507 140.772 85.9636 140.772H100.702C104.415 140.772 107.436 143.793 107.436 147.506C107.436 151.219 104.415 154.239 100.702 154.239Z" fill="#1D58FF"/>
<path d="M99.6946 143.389H86.9719C86.4482 143.389 86.0234 143.814 86.0234 144.338C86.0234 144.862 86.4482 145.286 86.9719 145.286H99.6946C100.219 145.286 100.643 144.862 100.643 144.338C100.643 143.814 100.218 143.389 99.6946 143.389Z" fill="#1D58FF"/>
<path d="M99.6946 146.558H86.9719C86.4482 146.558 86.0234 146.982 86.0234 147.506C86.0234 148.03 86.4482 148.455 86.9719 148.455H99.6946C100.219 148.455 100.643 148.03 100.643 147.506C100.643 146.982 100.218 146.558 99.6946 146.558Z" fill="#1D58FF"/>
<path d="M95.772 149.726H86.9719C86.4482 149.726 86.0234 150.151 86.0234 150.675C86.0234 151.198 86.4482 151.623 86.9719 151.623H95.772C96.2957 151.623 96.7205 151.198 96.7205 150.675C96.7205 150.151 96.2957 149.726 95.772 149.726V149.726Z" fill="#1D58FF"/>
</g>
<path d="M46.9237 37.4827C46.8707 37.4387 40.8817 33.1527 39.2567 33.4337C38.4757 33.5717 38.0287 34.1037 37.1337 35.1707C36.9897 35.3427 36.6427 35.7537 36.3747 36.0467C35.809 35.8624 35.2573 35.6378 34.7237 35.3747C31.9692 34.0337 29.7437 31.8082 28.4027 29.0537C28.1395 28.5201 27.915 27.9683 27.7307 27.4027C28.0247 27.1337 28.4367 26.7867 28.6127 26.6387C29.6737 25.7487 30.2057 25.3017 30.3437 24.5197C30.6267 22.9007 26.3387 16.9067 26.2947 16.8527C26.0994 16.5757 25.8451 16.3456 25.55 16.1789C25.255 16.0122 24.9267 15.9131 24.5887 15.8887C22.8507 15.8887 17.8887 22.3247 17.8887 23.4097C17.8887 23.4727 17.9797 29.8767 25.8767 37.9097C33.9007 45.7977 40.3047 45.8887 40.3677 45.8887C41.4527 45.8887 47.8887 40.9267 47.8887 39.1887C47.8643 38.8506 47.7651 38.5221 47.5982 38.2271C47.4313 37.932 47.2009 37.6777 46.9237 37.4827V37.4827ZM40.2577 43.8827C39.3837 43.8107 34.0097 43.1017 27.2907 36.5007C20.6557 29.7457 19.9647 24.3567 19.8957 23.5217C21.2064 21.4643 22.7895 19.5937 24.6017 17.9607C24.6417 18.0007 24.6947 18.0607 24.7627 18.1387C26.1525 20.0359 27.3497 22.0669 28.3367 24.2017C28.0157 24.5245 27.6765 24.8287 27.3207 25.1127C26.7689 25.5331 26.2622 26.0097 25.8087 26.5347L25.5657 26.8747L25.6377 27.2857C25.8493 28.2024 26.1734 29.0895 26.6027 29.9267C28.1406 33.0847 30.6924 35.6362 33.8507 37.1737C34.6877 37.6035 35.5748 37.928 36.4917 38.1397L36.9027 38.2117L37.2427 37.9687C37.7697 37.5132 38.2482 37.0045 38.6707 36.4507C38.9837 36.0767 39.4027 35.5777 39.5607 35.4367C41.7015 36.4226 43.7377 37.6213 45.6387 39.0147C45.7217 39.0847 45.7797 39.1387 45.8187 39.1737C44.1859 40.9864 42.3153 42.5698 40.2577 43.8807V43.8827Z" fill="#1D58FF"/>
<path d="M192.439 51.8282L194.726 54.1159L178.954 69.8887L171.381 60.4154L173.895 58.4176L179.211 65.0554L192.439 51.8282ZM205.666 60.2221C205.666 64.6831 204.343 69.044 201.865 72.7533C199.386 76.4625 195.863 79.3535 191.742 81.0607C187.62 82.7679 183.085 83.2145 178.71 82.3442C174.335 81.4739 170.316 79.3257 167.161 76.1712C164.007 73.0168 161.858 68.9978 160.988 64.6224C160.118 60.2471 160.564 55.7119 162.272 51.5904C163.979 47.4689 166.87 43.9462 170.579 41.4678C174.288 38.9894 178.649 37.6665 183.11 37.6665C189.092 37.6665 194.829 40.0429 199.059 44.2729C203.289 48.5029 205.666 54.24 205.666 60.2221ZM202.444 60.2221C202.444 56.3983 201.31 52.6604 199.185 49.481C197.061 46.3017 194.042 43.8237 190.509 42.3604C186.976 40.8971 183.089 40.5142 179.339 41.2602C175.588 42.0062 172.143 43.8475 169.44 46.5513C166.736 49.2551 164.894 52.7 164.148 56.4503C163.402 60.2006 163.785 64.0879 165.249 67.6206C166.712 71.1533 169.19 74.1728 172.369 76.2971C175.549 78.4215 179.286 79.5554 183.11 79.5554C188.238 79.5554 193.155 77.5185 196.781 73.8928C200.407 70.2671 202.444 65.3496 202.444 60.2221Z" fill="white"/>
<path d="M38.6787 84.3457L40.0987 85.7657L30.3087 95.5557L25.6087 89.6757L27.1687 88.4357L30.4687 92.5557L38.6787 84.3457ZM46.8887 89.5557C46.8887 92.3246 46.0676 95.0314 44.5293 97.3336C42.9909 99.6359 40.8044 101.43 38.2462 102.49C35.6881 103.55 32.8732 103.827 30.1574 103.287C27.4417 102.746 24.9471 101.413 22.9892 99.4552C21.0312 97.4972 19.6979 95.0027 19.1577 92.2869C18.6175 89.5712 18.8947 86.7563 19.9544 84.1981C21.014 81.6399 22.8084 79.4534 25.1107 77.9151C27.413 76.3767 30.1197 75.5557 32.8887 75.5557C36.6017 75.5557 40.1627 77.0307 42.7882 79.6562C45.4137 82.2817 46.8887 85.8426 46.8887 89.5557ZM44.8887 89.5557C44.8887 87.1823 44.1849 84.8622 42.8663 82.8888C41.5477 80.9154 39.6736 79.3774 37.4809 78.4691C35.2882 77.5609 32.8754 77.3232 30.5476 77.7862C28.2198 78.2493 26.0816 79.3922 24.4034 81.0704C22.7252 82.7486 21.5823 84.8868 21.1193 87.2146C20.6562 89.5424 20.8939 91.9552 21.8021 94.1479C22.7104 96.3406 24.2484 98.2147 26.2218 99.5333C28.1952 100.852 30.5153 101.556 32.8887 101.556C36.0713 101.556 39.1235 100.291 41.374 98.0409C43.6244 95.7905 44.8887 92.7383 44.8887 89.5557Z" fill="#1D58FF"/>
<path d="M105.433 86.7557C104.633 85.7557 103.533 85.2557 102.333 85.2557H99.433C99.733 84.1557 100.033 82.6557 100.033 81.4557C99.933 79.0557 98.533 76.5557 96.333 76.5557H94.633C94.033 76.5557 93.633 76.9557 93.633 77.5557C93.633 83.8557 92.033 84.9557 90.833 85.2557L90.633 85.3557C89.733 85.5557 88.233 85.9557 87.633 88.0557C87.333 87.9557 87.033 87.8557 86.733 87.8557H83.033C81.533 87.8557 80.333 89.0557 80.333 90.5557V99.8557C80.333 101.356 81.533 102.556 83.033 102.556H86.733C87.533 102.556 88.233 102.156 88.733 101.556C89.433 102.156 90.333 102.556 91.233 102.556H100.533C102.433 102.556 104.033 101.256 104.433 99.3557L106.133 90.1557C106.533 88.9557 106.233 87.6557 105.433 86.7557V86.7557ZM86.733 100.556H83.033C82.633 100.556 82.333 100.256 82.333 99.8557V90.5557C82.333 90.1557 82.633 89.8557 83.033 89.8557H86.733C87.033 89.8557 87.333 90.1557 87.433 90.4557V98.5557V98.6557V99.7557C87.433 100.256 87.133 100.556 86.733 100.556V100.556ZM104.233 89.7557L102.533 98.9557C102.333 99.8557 101.533 100.556 100.533 100.556H91.333C90.333 100.556 89.533 99.7557 89.433 98.7557V90.5557V90.4557V89.7557C89.433 87.6557 90.133 87.4557 91.133 87.2557L91.433 87.1557C94.133 86.4557 95.533 83.6557 95.733 78.4557H96.333C97.133 78.4557 98.033 79.7557 98.033 81.3557C98.033 83.0557 97.233 85.8557 97.233 85.8557C97.133 86.1557 97.233 86.4557 97.433 86.7557C97.633 87.0557 97.933 87.1557 98.233 87.1557H102.333C102.933 87.1557 103.533 87.4557 103.933 87.9557C104.233 88.4557 104.433 89.0557 104.233 89.7557V89.7557Z" fill="#1D58FF"/>
<defs>
<filter id="filter0_d_2093_6491" x="120.889" y="0" width="124.444" height="124.444" filterUnits="userSpaceOnUse" color-interpolation-filters="sRGB">
<feFlood flood-opacity="0" result="BackgroundImageFix"/>
<feColorMatrix in="SourceAlpha" type="matrix" values="0 0 0 0 0 0 0 0 0 0 0 0 0 0 0 0 0 0 127 0" result="hardAlpha"/>
<feOffset dy="2"/>
<feGaussianBlur stdDeviation="4"/>
<feComposite in2="hardAlpha" operator="out"/>
<feColorMatrix type="matrix" values="0 0 0 0 0.113725 0 0 0 0 0.345098 0 0 0 0 1 0 0 0 0.42 0"/>
<feBlend mode="normal" in2="BackgroundImageFix" result="effect1_dropShadow_2093_6491"/>
<feBlend mode="normal" in="SourceGraphic" in2="effect1_dropShadow_2093_6491" result="shape"/>
</filter>
<filter id="filter1_d_2093_6491" x="60.4443" y="0" width="65.7773" height="65.7778" filterUnits="userSpaceOnUse" color-interpolation-filters="sRGB">
<feFlood flood-opacity="0" result="BackgroundImageFix"/>
<feColorMatrix in="SourceAlpha" type="matrix" values="0 0 0 0 0 0 0 0 0 0 0 0 0 0 0 0 0 0 127 0" result="hardAlpha"/>
<feOffset dy="2"/>
<feGaussianBlur stdDeviation="4"/>
<feComposite in2="hardAlpha" operator="out"/>
<feColorMatrix type="matrix" values="0 0 0 0 0.113725 0 0 0 0 0.345098 0 0 0 0 1 0 0 0 0.42 0"/>
<feBlend mode="normal" in2="BackgroundImageFix" result="effect1_dropShadow_2093_6491"/>
<feBlend mode="normal" in="SourceGraphic" in2="effect1_dropShadow_2093_6491" result="shape"/>
</filter>
<filter id="filter2_d_2093_6491" x="60.4443" y="58.6665" width="65.7773" height="65.7778" filterUnits="userSpaceOnUse" color-interpolation-filters="sRGB">
<feFlood flood-opacity="0" result="BackgroundImageFix"/>
<feColorMatrix in="SourceAlpha" type="matrix" values="0 0 0 0 0 0 0 0 0 0 0 0 0 0 0 0 0 0 127 0" result="hardAlpha"/>
<feOffset dy="2"/>
<feGaussianBlur stdDeviation="4"/>
<feComposite in2="hardAlpha" operator="out"/>
<feColorMatrix type="matrix" values="0 0 0 0 0.113725 0 0 0 0 0.345098 0 0 0 0 1 0 0 0 0.42 0"/>
<feBlend mode="normal" in2="BackgroundImageFix" result="effect1_dropShadow_2093_6491"/>
<feBlend mode="normal" in="SourceGraphic" in2="effect1_dropShadow_2093_6491" result="shape"/>
</filter>
<filter id="filter3_d_2093_6491" x="0" y="0" width="65.7773" height="65.7778" filterUnits="userSpaceOnUse" color-interpolation-filters="sRGB">
<feFlood flood-opacity="0" result="BackgroundImageFix"/>
<feColorMatrix in="SourceAlpha" type="matrix" values="0 0 0 0 0 0 0 0 0 0 0 0 0 0 0 0 0 0 127 0" result="hardAlpha"/>
<feOffset dy="2"/>
<feGaussianBlur stdDeviation="4"/>
<feComposite in2="hardAlpha" operator="out"/>
<feColorMatrix type="matrix" values="0 0 0 0 0.113725 0 0 0 0 0.345098 0 0 0 0 1 0 0 0 0.42 0"/>
<feBlend mode="normal" in2="BackgroundImageFix" result="effect1_dropShadow_2093_6491"/>
<feBlend mode="normal" in="SourceGraphic" in2="effect1_dropShadow_2093_6491" result="shape"/>
</filter>
<filter id="filter4_d_2093_6491" x="0" y="58.6665" width="65.7773" height="65.7778" filterUnits="userSpaceOnUse" color-interpolation-filters="sRGB">
<feFlood flood-opacity="0" result="BackgroundImageFix"/>
<feColorMatrix in="SourceAlpha" type="matrix" values="0 0 0 0 0 0 0 0 0 0 0 0 0 0 0 0 0 0 127 0" result="hardAlpha"/>
<feOffset dy="2"/>
<feGaussianBlur stdDeviation="4"/>
<feComposite in2="hardAlpha" operator="out"/>
<feColorMatrix type="matrix" values="0 0 0 0 0.113725 0 0 0 0 0.345098 0 0 0 0 1 0 0 0 0.42 0"/>
<feBlend mode="normal" in2="BackgroundImageFix" result="effect1_dropShadow_2093_6491"/>
<feBlend mode="normal" in="SourceGraphic" in2="effect1_dropShadow_2093_6491" result="shape"/>
</filter>
<filter id="filter5_d_2093_6491" x="0" y="119.111" width="65.7773" height="65.7778" filterUnits="userSpaceOnUse" color-interpolation-filters="sRGB">
<feFlood flood-opacity="0" result="BackgroundImageFix"/>
<feColorMatrix in="SourceAlpha" type="matrix" values="0 0 0 0 0 0 0 0 0 0 0 0 0 0 0 0 0 0 127 0" result="hardAlpha"/>
<feOffset dy="2"/>
<feGaussianBlur stdDeviation="4"/>
<feComposite in2="hardAlpha" operator="out"/>
<feColorMatrix type="matrix" values="0 0 0 0 0.113725 0 0 0 0 0.345098 0 0 0 0 1 0 0 0 0.42 0"/>
<feBlend mode="normal" in2="BackgroundImageFix" result="effect1_dropShadow_2093_6491"/>
<feBlend mode="normal" in="SourceGraphic" in2="effect1_dropShadow_2093_6491" result="shape"/>
</filter>
<filter id="filter6_d_2093_6491" x="60.4443" y="119.111" width="65.7773" height="65.7778" filterUnits="userSpaceOnUse" color-interpolation-filters="sRGB">
<feFlood flood-opacity="0" result="BackgroundImageFix"/>
<feColorMatrix in="SourceAlpha" type="matrix" values="0 0 0 0 0 0 0 0 0 0 0 0 0 0 0 0 0 0 127 0" result="hardAlpha"/>
<feOffset dy="2"/>
<feGaussianBlur stdDeviation="4"/>
<feComposite in2="hardAlpha" operator="out"/>
<feColorMatrix type="matrix" values="0 0 0 0 0.113725 0 0 0 0 0.345098 0 0 0 0 1 0 0 0 0.42 0"/>
<feBlend mode="normal" in2="BackgroundImageFix" result="effect1_dropShadow_2093_6491"/>
<feBlend mode="normal" in="SourceGraphic" in2="effect1_dropShadow_2093_6491" result="shape"/>
</filter>
<filter id="filter7_d_2093_6491" x="120.889" y="119.111" width="65.7773" height="65.7778" filterUnits="userSpaceOnUse" color-interpolation-filters="sRGB">
<feFlood flood-opacity="0" result="BackgroundImageFix"/>
<feColorMatrix in="SourceAlpha" type="matrix" values="0 0 0 0 0 0 0 0 0 0 0 0 0 0 0 0 0 0 127 0" result="hardAlpha"/>
<feOffset dy="2"/>
<feGaussianBlur stdDeviation="4"/>
<feComposite in2="hardAlpha" operator="out"/>
<feColorMatrix type="matrix" values="0 0 0 0 0.113725 0 0 0 0 0.345098 0 0 0 0 1 0 0 0 0.42 0"/>
<feBlend mode="normal" in2="BackgroundImageFix" result="effect1_dropShadow_2093_6491"/>
<feBlend mode="normal" in="SourceGraphic" in2="effect1_dropShadow_2093_6491" result="shape"/>
</filter>
<filter id="filter8_d_2093_6491" x="179.556" y="119.111" width="65.7773" height="65.7778" filterUnits="userSpaceOnUse" color-interpolation-filters="sRGB">
<feFlood flood-opacity="0" result="BackgroundImageFix"/>
<feColorMatrix in="SourceAlpha" type="matrix" values="0 0 0 0 0 0 0 0 0 0 0 0 0 0 0 0 0 0 127 0" result="hardAlpha"/>
<feOffset dy="2"/>
<feGaussianBlur stdDeviation="4"/>
<feComposite in2="hardAlpha" operator="out"/>
<feColorMatrix type="matrix" values="0 0 0 0 0.113725 0 0 0 0 0.345098 0 0 0 0 1 0 0 0 0.42 0"/>
<feBlend mode="normal" in2="BackgroundImageFix" result="effect1_dropShadow_2093_6491"/>
<feBlend mode="normal" in="SourceGraphic" in2="effect1_dropShadow_2093_6491" result="shape"/>
</filter>
<clipPath id="clip0_2093_6491">
<rect width="32" height="32" fill="white" transform="translate(196.444 134)"/>
</clipPath>
<clipPath id="clip1_2093_6491">
<rect width="32" height="32" fill="white" transform="translate(77.333 134)"/>
</clipPath>
</defs>
</svg>
