<svg width="333" height="192" viewBox="0 0 333 192" fill="none" xmlns="http://www.w3.org/2000/svg">
<g filter="url(#filter0_d_2093_6492)">
<rect x="8.00049" y="6" width="231.111" height="53.3333" rx="10" fill="white"/>
</g>
<rect x="15.1113" y="13.1113" width="39.1111" height="39.1111" rx="11" fill="#E7EAF9"/>
<rect x="64.8887" y="17.5557" width="160" height="4.44444" rx="2.22222" fill="#D9DBE8"/>
<rect x="64.8887" y="30.8887" width="116.444" height="4.44444" rx="2.22222" fill="#D9DBE8"/>
<rect x="64.8887" y="44.2222" width="116.444" height="4.44444" rx="2.22222" fill="#D9DBE8"/>
<g filter="url(#filter1_d_2093_6492)">
<rect x="8" y="128.667" width="231.111" height="53.3333" rx="10" fill="white"/>
</g>
<g filter="url(#filter2_d_2093_6492)">
<rect x="8" y="67.3335" width="231.111" height="53.3333" rx="10" fill="white"/>
</g>
<rect x="15.1108" y="74.4448" width="39.1111" height="39.1111" rx="11" fill="#E7EAF9"/>
<rect x="64.8887" y="78.8892" width="160" height="4.44444" rx="2.22222" fill="#D9DBE8"/>
<rect x="64.8887" y="92.2227" width="116.444" height="4.44444" rx="2.22222" fill="#D9DBE8"/>
<rect x="64.8887" y="105.556" width="116.444" height="4.44444" rx="2.22222" fill="#D9DBE8"/>
<rect x="15.1113" y="135.778" width="39.1111" height="39.1111" rx="11" fill="#E7EAF9"/>
<rect x="64.8887" y="140.222" width="160" height="4.44444" rx="2.22222" fill="#D9DBE8"/>
<rect x="64.8887" y="153.556" width="116.444" height="4.44444" rx="2.22222" fill="#D9DBE8"/>
<rect x="64.8887" y="166.889" width="116.444" height="4.44444" rx="2.22222" fill="#D9DBE8"/>
<g filter="url(#filter3_d_2093_6492)">
<rect x="61.3335" y="43.3335" width="231.111" height="53.3333" rx="10" fill="#1D58FF"/>
</g>
<rect x="68.4448" y="50.4448" width="39.1111" height="39.1111" rx="11" fill="white"/>
<rect x="118.223" y="54.8892" width="160" height="4.44444" rx="2.22222" fill="white"/>
<rect x="118.223" y="68.2227" width="116.444" height="4.44444" rx="2.22222" fill="white"/>
<rect x="118.223" y="81.5557" width="116.444" height="4.44444" rx="2.22222" fill="white"/>
<path d="M269.014 97.1921L247.801 88.7067C247.71 88.6703 247.611 88.6614 247.515 88.6811C247.419 88.7008 247.331 88.7481 247.262 88.8173C247.192 88.8866 247.145 88.9745 247.125 89.0704C247.106 89.1663 247.115 89.2658 247.151 89.3567L255.636 110.57C255.672 110.66 255.733 110.737 255.812 110.792C255.891 110.848 255.984 110.88 256.08 110.884L256.101 110.884C256.194 110.884 256.285 110.859 256.364 110.81C256.443 110.761 256.507 110.691 256.548 110.608L259.538 104.629L264.232 109.324C264.279 109.37 264.334 109.407 264.395 109.432C264.455 109.457 264.52 109.47 264.586 109.47C264.652 109.47 264.717 109.457 264.777 109.432C264.838 109.407 264.893 109.37 264.939 109.324L267.768 106.495C267.862 106.402 267.915 106.275 267.915 106.142C267.915 106.009 267.862 105.882 267.768 105.788L263.073 101.093L269.052 98.1039C269.138 98.0608 269.21 97.9937 269.259 97.9106C269.308 97.8276 269.332 97.7321 269.328 97.6358C269.324 97.5394 269.292 97.4463 269.237 97.3676C269.181 97.2889 269.104 97.2281 269.014 97.1923L269.014 97.1921Z" fill="#02164F"/>
<rect x="255.111" y="117.111" width="77.3333" height="21.3333" rx="2" fill="#02164F"/>
<path d="M260.444 131.158H262.883C265.402 131.158 267.019 129.725 267.019 126.847C267.019 123.959 265.402 122.595 262.79 122.595H260.444V131.158ZM262.155 129.783V123.97H262.686C264.281 123.97 265.275 124.756 265.275 126.847C265.275 128.927 264.281 129.783 262.686 129.783H262.155Z" fill="white"/>
<path d="M268.555 131.158H270.253V127.298C270.612 126.362 271.224 126.027 271.733 126.027C271.998 126.027 272.183 126.062 272.414 126.131L272.703 124.663C272.507 124.583 272.299 124.525 271.941 124.525C271.27 124.525 270.577 124.987 270.103 125.831H270.069L269.941 124.687H268.555V131.158Z" fill="white"/>
<path d="M274.821 131.319C275.561 131.319 276.208 130.95 276.774 130.464H276.82L276.936 131.158H278.323V127.379C278.323 125.507 277.479 124.525 275.838 124.525C274.821 124.525 273.897 124.906 273.134 125.38L273.747 126.501C274.348 126.154 274.925 125.888 275.526 125.888C276.324 125.888 276.601 126.374 276.636 127.009C274.024 127.287 272.903 128.015 272.903 129.401C272.903 130.499 273.666 131.319 274.821 131.319ZM275.376 129.991C274.879 129.991 274.521 129.771 274.521 129.263C274.521 128.685 275.052 128.246 276.636 128.049V129.355C276.22 129.759 275.861 129.991 275.376 129.991Z" fill="white"/>
<path d="M282.33 133.966C284.491 133.966 285.855 132.972 285.855 131.666C285.855 130.534 285 130.048 283.44 130.048H282.342C281.579 130.048 281.325 129.863 281.325 129.517C281.325 129.251 281.429 129.112 281.602 128.962C281.88 129.055 282.18 129.112 282.434 129.112C283.821 129.112 284.93 128.373 284.93 126.917C284.93 126.512 284.803 126.154 284.641 125.935H285.739V124.687H283.405C283.139 124.594 282.793 124.525 282.434 124.525C281.059 124.525 279.823 125.345 279.823 126.859C279.823 127.622 280.239 128.234 280.689 128.558V128.604C280.297 128.881 279.961 129.332 279.961 129.817C279.961 130.349 280.216 130.684 280.551 130.903V130.961C279.961 131.296 279.626 131.759 279.626 132.302C279.626 133.446 280.805 133.966 282.33 133.966ZM282.434 128.061C281.868 128.061 281.417 127.633 281.417 126.859C281.417 126.108 281.857 125.68 282.434 125.68C283.012 125.68 283.451 126.108 283.451 126.859C283.451 127.633 283.001 128.061 282.434 128.061ZM282.585 132.891C281.649 132.891 281.048 132.579 281.048 132.036C281.048 131.77 281.175 131.516 281.464 131.285C281.695 131.343 281.972 131.377 282.365 131.377H283.151C283.844 131.377 284.225 131.493 284.225 131.955C284.225 132.463 283.555 132.891 282.585 132.891Z" fill="white"/>
<path d="M291.474 124.617C291.474 123.982 291.832 123.577 292.34 123.577C292.779 123.577 292.976 123.889 292.976 124.317C292.976 124.941 292.456 125.357 291.786 125.761C291.589 125.357 291.474 124.975 291.474 124.617ZM291.797 131.319C292.849 131.319 293.715 130.973 294.42 130.418C295.137 130.869 295.876 131.169 296.558 131.319L296.974 129.933C296.523 129.852 296.003 129.632 295.449 129.32C296.119 128.431 296.581 127.448 296.893 126.385H295.356C295.125 127.229 294.755 127.957 294.305 128.558C293.623 128.038 292.964 127.414 292.456 126.778C293.369 126.143 294.293 125.438 294.293 124.305C294.293 123.184 293.531 122.445 292.306 122.445C290.942 122.445 290.064 123.427 290.064 124.617C290.064 125.183 290.26 125.819 290.607 126.466C289.752 127.009 289.001 127.703 289.001 128.893C289.001 130.222 290.006 131.319 291.797 131.319ZM290.619 128.789C290.619 128.327 290.907 127.945 291.323 127.587C291.867 128.303 292.525 128.985 293.253 129.586C292.849 129.852 292.433 130.014 292.005 130.014C291.185 130.014 290.619 129.517 290.619 128.789Z" fill="white"/>
<path d="M300.866 131.158H303.304C305.824 131.158 307.441 129.725 307.441 126.847C307.441 123.959 305.824 122.595 303.212 122.595H300.866V131.158ZM302.576 129.783V123.97H303.108C304.703 123.97 305.696 124.756 305.696 126.847C305.696 128.927 304.703 129.783 303.108 129.783H302.576Z" fill="white"/>
<path d="M308.977 131.158H310.675V127.298C311.034 126.362 311.646 126.027 312.154 126.027C312.42 126.027 312.605 126.062 312.836 126.131L313.125 124.663C312.929 124.583 312.721 124.525 312.362 124.525C311.692 124.525 310.999 124.987 310.525 125.831H310.49L310.363 124.687H308.977V131.158Z" fill="white"/>
<path d="M316.578 131.319C318.196 131.319 319.687 130.071 319.687 127.922C319.687 125.773 318.196 124.525 316.578 124.525C314.96 124.525 313.47 125.773 313.47 127.922C313.47 130.071 314.96 131.319 316.578 131.319ZM316.578 129.933C315.7 129.933 315.203 129.147 315.203 127.922C315.203 126.709 315.7 125.911 316.578 125.911C317.456 125.911 317.953 126.709 317.953 127.922C317.953 129.147 317.456 129.933 316.578 129.933Z" fill="white"/>
<path d="M321.108 133.642H322.806V131.678L322.749 130.615C323.246 131.065 323.789 131.319 324.355 131.319C325.776 131.319 327.105 130.037 327.105 127.818C327.105 125.831 326.158 124.525 324.563 124.525C323.87 124.525 323.199 124.895 322.656 125.357H322.622L322.494 124.687H321.108V133.642ZM323.974 129.921C323.627 129.921 323.211 129.794 322.806 129.436V126.593C323.246 126.143 323.638 125.923 324.078 125.923C324.967 125.923 325.36 126.605 325.36 127.841C325.36 129.251 324.759 129.921 323.974 129.921Z" fill="white"/>
<defs>
<filter id="filter0_d_2093_6492" x="0.000488281" y="0" width="247.111" height="69.3335" filterUnits="userSpaceOnUse" color-interpolation-filters="sRGB">
<feFlood flood-opacity="0" result="BackgroundImageFix"/>
<feColorMatrix in="SourceAlpha" type="matrix" values="0 0 0 0 0 0 0 0 0 0 0 0 0 0 0 0 0 0 127 0" result="hardAlpha"/>
<feOffset dy="2"/>
<feGaussianBlur stdDeviation="4"/>
<feComposite in2="hardAlpha" operator="out"/>
<feColorMatrix type="matrix" values="0 0 0 0 0.113725 0 0 0 0 0.345098 0 0 0 0 1 0 0 0 0.42 0"/>
<feBlend mode="normal" in2="BackgroundImageFix" result="effect1_dropShadow_2093_6492"/>
<feBlend mode="normal" in="SourceGraphic" in2="effect1_dropShadow_2093_6492" result="shape"/>
</filter>
<filter id="filter1_d_2093_6492" x="0" y="122.667" width="247.111" height="69.3333" filterUnits="userSpaceOnUse" color-interpolation-filters="sRGB">
<feFlood flood-opacity="0" result="BackgroundImageFix"/>
<feColorMatrix in="SourceAlpha" type="matrix" values="0 0 0 0 0 0 0 0 0 0 0 0 0 0 0 0 0 0 127 0" result="hardAlpha"/>
<feOffset dy="2"/>
<feGaussianBlur stdDeviation="4"/>
<feComposite in2="hardAlpha" operator="out"/>
<feColorMatrix type="matrix" values="0 0 0 0 0.113725 0 0 0 0 0.345098 0 0 0 0 1 0 0 0 0.42 0"/>
<feBlend mode="normal" in2="BackgroundImageFix" result="effect1_dropShadow_2093_6492"/>
<feBlend mode="normal" in="SourceGraphic" in2="effect1_dropShadow_2093_6492" result="shape"/>
</filter>
<filter id="filter2_d_2093_6492" x="0" y="61.3335" width="247.111" height="69.3335" filterUnits="userSpaceOnUse" color-interpolation-filters="sRGB">
<feFlood flood-opacity="0" result="BackgroundImageFix"/>
<feColorMatrix in="SourceAlpha" type="matrix" values="0 0 0 0 0 0 0 0 0 0 0 0 0 0 0 0 0 0 127 0" result="hardAlpha"/>
<feOffset dy="2"/>
<feGaussianBlur stdDeviation="4"/>
<feComposite in2="hardAlpha" operator="out"/>
<feColorMatrix type="matrix" values="0 0 0 0 0.113725 0 0 0 0 0.345098 0 0 0 0 1 0 0 0 0.42 0"/>
<feBlend mode="normal" in2="BackgroundImageFix" result="effect1_dropShadow_2093_6492"/>
<feBlend mode="normal" in="SourceGraphic" in2="effect1_dropShadow_2093_6492" result="shape"/>
</filter>
<filter id="filter3_d_2093_6492" x="47.3335" y="31.3335" width="259.111" height="81.3335" filterUnits="userSpaceOnUse" color-interpolation-filters="sRGB">
<feFlood flood-opacity="0" result="BackgroundImageFix"/>
<feColorMatrix in="SourceAlpha" type="matrix" values="0 0 0 0 0 0 0 0 0 0 0 0 0 0 0 0 0 0 127 0" result="hardAlpha"/>
<feOffset dy="2"/>
<feGaussianBlur stdDeviation="7"/>
<feComposite in2="hardAlpha" operator="out"/>
<feColorMatrix type="matrix" values="0 0 0 0 0.0311285 0 0 0 0 0.204195 0 0 0 0 0.679167 0 0 0 0.79 0"/>
<feBlend mode="normal" in2="BackgroundImageFix" result="effect1_dropShadow_2093_6492"/>
<feBlend mode="normal" in="SourceGraphic" in2="effect1_dropShadow_2093_6492" result="shape"/>
</filter>
</defs>
</svg>
