<svg width="820" height="357" viewBox="0 0 820 357" fill="none" xmlns="http://www.w3.org/2000/svg">
<g filter="url(#filter0_d_2093_6628)">
<rect x="29" y="28" width="760" height="297" rx="16" fill="white"/>
</g>
<path d="M60.504 74.16V75.84H65.416C65.112 79.104 63.48 81.408 59.72 83.216L60.824 84.88C66.056 82.352 67.576 78.672 67.576 74.16H60.504ZM69.832 72.624V87.36H71.96V72.624H69.832ZM86.2628 76.304H78.1988V72.896H76.0868V77.984H86.2628V76.304ZM81.0308 85.728C79.0628 85.728 78.0548 85.376 78.0548 84.608C78.0548 83.84 79.0628 83.488 81.0308 83.488C82.9988 83.488 84.0068 83.84 84.0068 84.608C84.0068 85.376 82.9988 85.728 81.0308 85.728ZM81.0308 81.872C77.8468 81.872 75.9268 82.88 75.9268 84.608C75.9268 86.336 77.8468 87.344 81.0308 87.344C84.2148 87.344 86.1508 86.336 86.1508 84.608C86.1508 82.88 84.2148 81.872 81.0308 81.872ZM74.4228 79.232V80.912H87.7508V79.232H74.4228ZM94.8945 76.4C94.8945 75.376 95.6785 74.752 96.7825 74.752C97.8865 74.752 98.6705 75.376 98.6705 76.4C98.6705 77.44 97.8865 78.064 96.7825 78.064C95.6785 78.064 94.8945 77.44 94.8945 76.4ZM100.703 76.4C100.703 74.464 99.0385 73.056 96.7825 73.056C94.5425 73.056 92.8625 74.464 92.8625 76.4C92.8625 78.368 94.5425 79.76 96.7825 79.76C99.0385 79.76 100.703 78.368 100.703 76.4ZM96.7345 84.608H104.351V80.576H94.6225V82.208H102.271V83.088H94.6385V87.2H104.783V85.568H96.7345V84.608ZM104.351 75.472V72.64H102.239V80H104.351V77.2H106.287V75.472H104.351ZM116.365 78.8C114.445 79.104 112.733 79.184 110.301 79.2V77.92H114.989V73.472H108.205V75.168H112.909V76.352H108.221V80.896H109.517C112.445 80.896 114.413 80.832 116.605 80.48L116.365 78.8ZM111.981 83.696H117.645V85.552H111.981V83.696ZM109.901 87.2H119.709V82.032H109.901V87.2ZM117.581 72.656V81.376H119.709V72.656H117.581Z" fill="#41495D"/>
<path d="M86.4 137.595C86.955 134.655 86.955 132.705 86.955 130.98V129.66H76.92V131.235H84.975C84.975 132.84 84.945 134.76 84.42 137.37L86.4 137.595ZM82.05 139.035V134.28H80.07V139.035H75.66V140.625H88.155V139.035H82.05ZM89.9538 129.435V131.01H93.3738C93.1038 132.87 91.8738 134.265 89.2938 135.21L90.2088 136.65C93.8088 135.255 95.4288 132.93 95.4288 129.435H89.9538ZM91.6488 138.705H99.2388V142.305H101.219V137.115H91.6488V138.705ZM99.3438 128.475V131.67H98.1588V128.715H96.3138V136.5H98.1588V133.26H99.3438V136.545H101.219V128.475H99.3438ZM114.786 134.595C112.611 133.92 111.681 132.3 111.681 130.635V129.225H109.671V130.47C109.671 132.345 108.741 134.19 106.431 134.955L107.466 136.515C109.041 135.96 110.106 134.895 110.706 133.545C111.291 134.715 112.296 135.645 113.751 136.125L114.786 134.595ZM113.001 140.76C111.231 140.76 110.286 140.4 110.286 139.62C110.286 138.855 111.231 138.495 113.001 138.495C114.756 138.495 115.701 138.855 115.701 139.62C115.701 140.4 114.756 140.76 113.001 140.76ZM113.001 136.965C110.121 136.965 108.321 137.955 108.321 139.62C108.321 141.3 110.121 142.29 113.001 142.29C115.866 142.29 117.666 141.3 117.666 139.62C117.666 137.955 115.866 136.965 113.001 136.965ZM117.516 131.685V128.49H115.536V136.65H117.516V133.32H119.346V131.685H117.516ZM122.78 135.045H126.2V133.515H122.78V131.475H126.485V129.9H120.905V139.14H121.865C123.935 139.14 125.3 139.11 126.89 138.84L126.71 137.25C125.42 137.445 124.31 137.505 122.78 137.52V135.045ZM130.415 128.46V133.815H129.305V128.685H127.46V141.675H129.305V135.405H130.415V142.29H132.29V128.46H130.415ZM139.647 132C139.647 131.04 140.382 130.455 141.417 130.455C142.452 130.455 143.187 131.04 143.187 132C143.187 132.975 142.452 133.56 141.417 133.56C140.382 133.56 139.647 132.975 139.647 132ZM145.092 132C145.092 130.185 143.532 128.865 141.417 128.865C139.317 128.865 137.742 130.185 137.742 132C137.742 133.845 139.317 135.15 141.417 135.15C143.532 135.15 145.092 133.845 145.092 132ZM141.372 139.695H148.512V135.915H139.392V137.445H146.562V138.27H139.407V142.125H148.917V140.595H141.372V139.695ZM148.512 131.13V128.475H146.532V135.375H148.512V132.75H150.327V131.13H148.512ZM159.776 134.25C157.976 134.535 156.371 134.61 154.091 134.625V133.425H158.486V129.255H152.126V130.845H156.536V131.955H152.141V136.215H153.356C156.101 136.215 157.946 136.155 160.001 135.825L159.776 134.25ZM155.666 138.84H160.976V140.58H155.666V138.84ZM153.716 142.125H162.911V137.28H153.716V142.125ZM160.916 128.49V136.665H162.911V128.49H160.916Z" fill="#555868"/>
<path d="M87.12 222.49H85.125V232.555H87.12V222.49ZM84.105 228.895C81.855 228.175 80.895 226.405 80.895 224.575V223.24H78.885V224.575C78.885 226.42 77.895 228.355 75.6 229.135L76.605 230.71C78.21 230.155 79.29 229.03 79.92 227.635C80.52 228.925 81.57 229.945 83.1 230.47L84.105 228.895ZM79.905 234.475V231.595H77.925V236.05H87.465V234.475H79.905ZM96.8688 226.165V227.755H99.0138V230.815H100.994V222.475H99.0138V226.165H96.8688ZM97.7388 228.865C95.5338 228.28 94.5438 226.885 94.5138 225.46H97.2438V223.9H94.5138V222.43H92.5338V223.9H89.8338V225.46H92.5338C92.5038 227.005 91.5438 228.565 89.3538 229.195L90.2838 230.725C91.8888 230.26 92.9688 229.285 93.5838 228.025C94.2138 229.12 95.2938 229.975 96.8388 230.38L97.7388 228.865ZM96.3288 234.775C94.4988 234.775 93.5688 234.43 93.5688 233.68C93.5688 232.93 94.4988 232.57 96.3288 232.57C98.1288 232.57 99.0738 232.93 99.0738 233.68C99.0738 234.43 98.1288 234.775 96.3288 234.775ZM96.3288 231.055C93.3888 231.055 91.5888 232.015 91.5888 233.68C91.5888 235.33 93.3888 236.29 96.3288 236.29C99.2538 236.29 101.054 235.33 101.054 233.68C101.054 232.015 99.2538 231.055 96.3288 231.055ZM106.633 233.185H112.288V234.58H106.633V233.185ZM104.698 236.125H114.238V231.625H104.698V236.125ZM108.058 224.425H110.893V226.51H108.058V224.425ZM110.458 229.165V228.085H114.493V226.51H112.858V224.425H114.613V222.85H104.338V224.425H106.093V226.51H104.428V228.085H108.478V229.165H103.243V230.725H115.723V229.165H110.458ZM128.765 228.475C126.71 227.785 125.75 226.21 125.66 224.68H128.33V223.105H120.905V224.68H123.605C123.515 226.345 122.51 228.01 120.365 228.73L121.37 230.29C122.975 229.75 124.055 228.655 124.67 227.305C125.255 228.535 126.29 229.525 127.805 230.02L128.765 228.475ZM130.025 234.55H124.79V233.365H130.025V234.55ZM130.025 231.85H124.79V230.59H122.84V236.125H131.99V230.59H130.025V231.85ZM130.01 222.475V225.565H127.925V227.17H130.01V230.035H131.99V222.475H130.01ZM146.284 227.38C143.149 226.945 141.559 225.145 141.559 223.54V222.88H139.444V223.54C139.444 225.16 137.869 226.945 134.719 227.38L135.469 228.97C137.884 228.61 139.624 227.485 140.509 226C141.394 227.485 143.119 228.61 145.534 228.97L146.284 227.38ZM146.734 229.99H134.254V231.595H139.459V236.305H141.439V231.595H146.734V229.99ZM153.446 226C153.446 225.04 154.181 224.455 155.216 224.455C156.251 224.455 156.986 225.04 156.986 226C156.986 226.975 156.251 227.56 155.216 227.56C154.181 227.56 153.446 226.975 153.446 226ZM158.891 226C158.891 224.185 157.331 222.865 155.216 222.865C153.116 222.865 151.541 224.185 151.541 226C151.541 227.845 153.116 229.15 155.216 229.15C157.331 229.15 158.891 227.845 158.891 226ZM155.171 233.695H162.311V229.915H153.191V231.445H160.361V232.27H153.206V236.125H162.716V234.595H155.171V233.695ZM162.311 225.13V222.475H160.331V229.375H162.311V226.75H164.126V225.13H162.311ZM173.575 228.25C171.775 228.535 170.17 228.61 167.89 228.625V227.425H172.285V223.255H165.925V224.845H170.335V225.955H165.94V230.215H167.155C169.9 230.215 171.745 230.155 173.8 229.825L173.575 228.25ZM169.465 232.84H174.775V234.58H169.465V232.84ZM167.515 236.125H176.71V231.28H167.515V236.125ZM174.715 222.49V230.665H176.71V222.49H174.715Z" fill="#555868"/>
<path d="M82.994 165.386C81.188 164.77 79.956 163.202 79.956 161.508V160.122H78.808V161.41C78.808 163.328 77.59 165.036 75.686 165.722L76.288 166.632C77.758 166.072 78.878 164.924 79.396 163.454C79.956 164.742 81.034 165.778 82.392 166.282L82.994 165.386ZM81.496 171.126C79.634 171.126 78.5 170.608 78.5 169.74C78.5 168.858 79.634 168.34 81.496 168.34C83.344 168.34 84.478 168.858 84.478 169.74C84.478 170.608 83.344 171.126 81.496 171.126ZM81.496 167.444C78.934 167.444 77.352 168.27 77.352 169.74C77.352 171.196 78.934 172.022 81.496 172.022C84.044 172.022 85.626 171.196 85.626 169.74C85.626 168.27 84.044 167.444 81.496 167.444ZM85.486 162.726V159.492H84.338V167.094H85.486V163.678H87.348V162.726H85.486ZM95.8869 164.518C94.2489 164.84 92.8209 164.938 90.3429 164.938V161.242H94.7249V160.318H89.1949V165.89H90.1749C92.8069 165.89 94.2909 165.792 96.0129 165.442L95.8869 164.518ZM91.6029 168.172H97.2309V170.93H91.6029V168.172ZM90.4829 171.854H98.3649V167.262H90.4829V171.854ZM100.227 162.544H98.3649V159.464H97.2169V166.59H98.3649V163.496H100.227V162.544ZM111.804 159.478H110.656V168.69H111.804V159.478ZM109.06 165.736C107.198 165.05 105.924 163.342 105.924 161.452V160.178H104.776V161.452C104.776 163.412 103.516 165.232 101.626 165.96L102.228 166.898C103.698 166.282 104.832 165.064 105.364 163.538C105.924 164.966 107.03 166.1 108.458 166.646L109.06 165.736ZM104.874 170.818V167.836H103.726V171.756H112.182V170.818H104.874ZM121.057 163.048V164H123.563V167.094H124.725V159.478H123.563V163.048H121.057ZM121.813 165.666C119.965 165.12 118.663 163.72 118.663 162.152V161.914H121.435V160.99H118.663V159.408H117.515V160.99H114.729V161.914H117.515V162.152C117.515 163.846 116.255 165.372 114.407 166.002L114.967 166.884C116.451 166.394 117.585 165.33 118.117 163.958C118.691 165.176 119.825 166.114 121.267 166.562L121.813 165.666ZM120.567 171.126C118.677 171.126 117.543 170.594 117.543 169.712C117.543 168.844 118.677 168.312 120.567 168.312C122.485 168.312 123.619 168.844 123.619 169.712C123.619 170.594 122.471 171.126 120.567 171.126ZM120.567 167.416C117.991 167.416 116.395 168.256 116.395 169.712C116.395 171.182 117.991 172.022 120.567 172.022C123.171 172.022 124.767 171.182 124.767 169.712C124.767 168.256 123.171 167.416 120.567 167.416ZM140.678 159.478H139.53V166.688H140.678V159.478ZM135.792 164.504H132.166V161.2H135.792V164.504ZM136.912 160.29H131.046V165.428H136.912V160.29ZM140.972 168.424V167.542H137.29V166.324H136.128V167.542H132.446V168.424H136.114C136.1 169.67 134.098 170.86 131.956 171.112L132.334 171.994C134.224 171.728 135.96 170.888 136.716 169.698C137.458 170.86 139.138 171.728 141.028 171.994L141.42 171.112C139.264 170.846 137.318 169.628 137.304 168.424H140.972ZM155.526 159.478V172.064H156.674V159.478H155.526ZM150.052 160.444C148.19 160.444 146.86 162.152 146.86 164.826C146.86 167.5 148.19 169.208 150.052 169.208C151.914 169.208 153.244 167.5 153.244 164.826C153.244 162.152 151.914 160.444 150.052 160.444ZM150.052 161.48C151.27 161.48 152.138 162.796 152.138 164.826C152.138 166.87 151.27 168.186 150.052 168.186C148.82 168.186 147.952 166.87 147.952 164.826C147.952 162.796 148.82 161.48 150.052 161.48ZM170.057 164.308C167.817 163.972 165.563 162.418 165.563 160.64V159.926H164.359V160.64C164.359 162.432 162.147 163.958 159.865 164.308L160.313 165.246C162.301 164.896 164.177 163.804 164.961 162.264C165.759 163.79 167.649 164.896 169.609 165.246L170.057 164.308ZM170.659 166.66H159.277V167.598H162.161V172.134H163.309V167.598H166.627V172.134H167.775V167.598H170.659V166.66ZM182.539 165.386C180.733 164.77 179.501 163.202 179.501 161.508V160.122H178.353V161.41C178.353 163.328 177.135 165.036 175.231 165.722L175.833 166.632C177.303 166.072 178.423 164.924 178.941 163.454C179.501 164.742 180.579 165.778 181.937 166.282L182.539 165.386ZM181.041 171.126C179.179 171.126 178.045 170.608 178.045 169.74C178.045 168.858 179.179 168.34 181.041 168.34C182.889 168.34 184.023 168.858 184.023 169.74C184.023 170.608 182.889 171.126 181.041 171.126ZM181.041 167.444C178.479 167.444 176.897 168.27 176.897 169.74C176.897 171.196 178.479 172.022 181.041 172.022C183.589 172.022 185.171 171.196 185.171 169.74C185.171 168.27 183.589 167.444 181.041 167.444ZM185.031 162.726V159.492H183.883V167.094H185.031V163.678H186.893V162.726H185.031ZM189.762 165.148H193.416V164.238H189.762V161.858H193.612V160.92H188.656V168.928H189.482C191.512 168.928 192.716 168.886 194.172 168.606L194.06 167.654C192.716 167.92 191.596 167.976 189.762 167.976V165.148ZM197.742 159.478V164.518H196.076V159.758H194.984V171.42H196.076V165.456H197.742V172.036H198.834V159.478H197.742ZM201.717 160.822V161.774H206.323C206.057 164.742 204.335 167.15 201.129 168.76L201.759 169.656C205.819 167.626 207.457 164.392 207.457 160.822H201.717ZM212.721 164.574H210.705V159.478H209.557V172.036H210.705V165.526H212.721V164.574ZM216.929 171H223.382V169.894H220.541C220.023 169.894 219.393 169.95 218.861 169.992C221.269 167.71 222.879 165.624 222.879 163.58C222.879 161.746 221.731 160.542 219.897 160.542C218.595 160.542 217.713 161.144 216.873 162.054L217.615 162.782C218.175 162.11 218.903 161.592 219.743 161.592C221.017 161.592 221.633 162.446 221.633 163.622C221.633 165.386 220.149 167.43 216.929 170.244V171ZM235.124 159.478H233.976V165.918H235.124V159.478ZM226.22 162.726C226.22 161.634 227.13 160.864 228.348 160.864C229.58 160.864 230.476 161.634 230.476 162.726C230.476 163.804 229.58 164.574 228.348 164.574C227.13 164.574 226.22 163.804 226.22 162.726ZM231.596 162.726C231.596 161.06 230.224 159.926 228.348 159.926C226.472 159.926 225.114 161.06 225.114 162.726C225.114 164.378 226.472 165.498 228.348 165.498C230.224 165.498 231.596 164.378 231.596 162.726ZM228.152 170.958V169.572H235.124V166.534H226.99V167.444H233.99V168.718H227.018V171.868H235.544V170.958H228.152ZM249.958 159.478V172.064H251.106V159.478H249.958ZM244.484 160.444C242.622 160.444 241.292 162.152 241.292 164.826C241.292 167.5 242.622 169.208 244.484 169.208C246.346 169.208 247.676 167.5 247.676 164.826C247.676 162.152 246.346 160.444 244.484 160.444ZM244.484 161.48C245.702 161.48 246.57 162.796 246.57 164.826C246.57 166.87 245.702 168.186 244.484 168.186C243.252 168.186 242.384 166.87 242.384 164.826C242.384 162.796 243.252 161.48 244.484 161.48ZM260.961 165.386C259.155 164.77 257.923 163.202 257.923 161.508V160.122H256.775V161.41C256.775 163.328 255.557 165.036 253.653 165.722L254.255 166.632C255.725 166.072 256.845 164.924 257.363 163.454C257.923 164.742 259.001 165.778 260.359 166.282L260.961 165.386ZM259.463 171.126C257.601 171.126 256.467 170.608 256.467 169.74C256.467 168.858 257.601 168.34 259.463 168.34C261.311 168.34 262.445 168.858 262.445 169.74C262.445 170.608 261.311 171.126 259.463 171.126ZM259.463 167.444C256.901 167.444 255.319 168.27 255.319 169.74C255.319 171.196 256.901 172.022 259.463 172.022C262.011 172.022 263.593 171.196 263.593 169.74C263.593 168.27 262.011 167.444 259.463 167.444ZM263.453 162.726V159.492H262.305V167.094H263.453V163.678H265.315V162.726H263.453ZM274.199 161.718H277.153V160.766H270.139V161.718H273.051V163.314C273.051 165.484 271.525 167.85 269.719 168.704L270.391 169.628C271.819 168.9 273.051 167.318 273.625 165.484C274.227 167.206 275.459 168.648 276.915 169.32L277.559 168.396C275.711 167.612 274.199 165.442 274.199 163.314V161.718ZM278.847 159.492V172.036H279.995V159.492H278.847ZM293.265 163.608C291.025 163.3 288.855 161.9 288.855 160.234V159.674H287.679V160.234C287.679 161.9 285.509 163.3 283.283 163.608L283.717 164.532C285.635 164.21 287.483 163.216 288.267 161.774C289.065 163.216 290.913 164.21 292.831 164.532L293.265 163.608ZM283.857 168.872H291.403V172.05H292.551V167.934H283.857V168.872ZM288.841 165.778V163.86H287.693V165.778H282.597V166.716H293.993V165.778H288.841ZM305.752 159.478H304.604V168.872H305.752V159.478ZM303.596 166.002C302.518 166.128 301.384 166.198 300.222 166.254V164.518H302.714V163.594H297.8V161.228H302.63V160.29H296.652V164.518H299.074V166.296C297.842 166.338 296.624 166.352 295.532 166.352L295.7 167.29C298.038 167.29 301.02 167.206 303.68 166.828L303.596 166.002ZM298.78 170.818V168.256H297.632V171.756H306.172V170.818H298.78ZM320.348 161.984C320.348 163.496 320.348 165.26 319.872 167.668L321.02 167.794C321.496 165.26 321.496 163.538 321.496 161.984V160.738H312.69V161.676H320.348V161.984ZM317.058 169.334V164.84H315.91V169.334H311.5V170.272H322.854V169.334H317.058ZM324.925 160.416V161.34H328.649C328.439 163.426 326.997 165.12 324.435 166.17L324.995 167.01C328.173 165.666 329.825 163.412 329.825 160.416H324.925ZM326.521 168.41H333.815V172.036H334.963V167.472H326.521V168.41ZM333.857 159.492V162.642H332.205V159.716H331.113V166.814H332.205V163.58H333.857V166.87H334.963V159.492H333.857ZM347.081 162.74V163.678H349.559V166.968H350.721V159.492H349.559V162.74H347.081ZM347.781 165.596C345.961 164.952 344.729 163.37 344.729 161.76V161.326H347.487V160.402H340.781V161.326H343.581V161.76C343.581 163.566 342.293 165.26 340.417 165.946L341.019 166.856C342.489 166.296 343.651 165.12 344.183 163.664C344.729 164.952 345.807 165.988 347.207 166.492L347.781 165.596ZM346.577 171.14C344.687 171.14 343.539 170.608 343.539 169.698C343.539 168.788 344.687 168.242 346.577 168.242C348.467 168.242 349.615 168.788 349.615 169.698C349.615 170.608 348.467 171.14 346.577 171.14ZM346.577 167.36C344.001 167.36 342.391 168.214 342.391 169.698C342.391 171.182 344.001 172.036 346.577 172.036C349.153 172.036 350.763 171.182 350.763 169.698C350.763 168.214 349.153 167.36 346.577 167.36ZM355.732 163.552H362.144V165.862H355.732V163.552ZM359.512 169.488V166.786H363.264V160.374H362.144V162.614H355.732V160.374H354.598V166.786H358.35V169.488H353.254V170.426H364.636V169.488H359.512ZM374.925 161.676H367.589V164.364H376.283V163.538H368.723V162.46H376.059V159.842H367.561V160.654H374.925V161.676ZM368.653 169.88H376.101V167.206H367.491V168.032H374.967V169.082H367.519V171.868H376.493V171.042H368.653V169.88ZM366.133 165.316V166.184H377.515V165.316H366.133ZM392.95 164.266C390.668 163.93 388.428 162.376 388.428 160.626V159.926H387.224V160.626C387.224 162.418 385.012 163.93 382.73 164.266L383.192 165.19C385.152 164.854 387.042 163.776 387.826 162.25C388.638 163.762 390.528 164.854 392.474 165.19L392.95 164.266ZM393.496 166.548H382.156V167.5H387.224V172.05H388.372V167.5H393.51L393.496 166.548ZM405.325 159.478H404.177V168.69H405.325V159.478ZM402.581 165.736C400.719 165.05 399.445 163.342 399.445 161.452V160.178H398.297V161.452C398.297 163.412 397.037 165.232 395.147 165.96L395.749 166.898C397.219 166.282 398.353 165.064 398.885 163.538C399.445 164.966 400.551 166.1 401.979 166.646L402.581 165.736ZM398.395 170.818V167.836H397.247V171.756H405.703V170.818H398.395ZM411.582 168.284C410.448 168.284 409.622 167.472 409.622 166.352C409.622 165.218 410.448 164.406 411.582 164.406C412.73 164.406 413.556 165.218 413.556 166.352C413.556 167.472 412.73 168.284 411.582 168.284ZM411.582 163.454C409.818 163.454 408.544 164.658 408.544 166.352C408.544 168.06 409.818 169.236 411.582 169.236C413.374 169.236 414.648 168.06 414.648 166.352C414.648 164.658 413.374 163.454 411.582 163.454ZM412.142 159.632H410.994V161.494H407.83V162.418H415.236V161.494H412.142V159.632ZM419.632 164.644H417.574V159.492H416.426V172.036H417.574V165.61H419.632V164.644ZM425.231 160.57H424.097V162.824C424.097 165.204 422.571 167.612 420.723 168.494L421.423 169.432C422.893 168.676 424.097 167.108 424.671 165.218C425.273 167.01 426.477 168.494 427.905 169.194L428.591 168.27C426.729 167.43 425.231 165.12 425.231 162.824V160.57ZM429.907 159.478V172.064H431.055V159.478H429.907ZM444.256 159.492H443.15V166.73H444.256V159.492ZM440.658 163.972V166.534H441.736V159.758H440.658V163.048H438.67C439.006 162.25 439.174 161.368 439.174 160.416H434.316V161.34H437.998C437.774 163.454 436.332 165.106 433.77 166.128L434.372 166.982C436.08 166.24 437.382 165.232 438.194 163.972H440.658ZM442.66 167.164H441.54V167.976C441.54 168.942 440.952 170.23 439.762 170.972C438.6 170.286 438.026 169.11 438.026 167.976V167.164H436.92V167.976C436.92 169.208 435.968 170.566 434.386 171.14L434.96 171.98C436.15 171.532 437.004 170.65 437.466 169.642C437.83 170.692 438.572 171.616 439.776 172.092C440.952 171.602 441.708 170.622 442.086 169.6C442.506 170.664 443.374 171.546 444.62 171.98L445.18 171.14C443.598 170.594 442.66 169.278 442.66 167.976V167.164ZM457.247 163.398C455.021 163.118 452.809 161.732 452.809 160.178V159.618H451.633V160.178C451.633 161.774 449.435 163.118 447.181 163.398L447.601 164.322C449.561 164.014 451.437 163.034 452.221 161.634C453.019 163.034 454.881 164.014 456.827 164.322L457.247 163.398ZM455.273 170.944H449.099V169.348H455.273V170.944ZM455.273 168.466H449.099V166.996H447.965V171.868H456.407V166.996H455.273V168.466ZM446.523 165.204V166.128H457.891V165.204H446.523ZM461.348 160.696H460.2V168.788H461.236C463.238 168.788 465.212 168.648 467.396 168.2L467.27 167.22C465.184 167.64 463.238 167.808 461.348 167.808V160.696ZM468.558 159.478V172.022H469.706V159.478H468.558ZM472.659 160.836V161.788H474.969C474.843 164.308 474.115 166.632 472.253 168.564L473.149 169.208C475.431 166.8 476.061 163.86 476.061 160.836H472.659ZM476.481 160.836V161.788H478.413C478.315 164.448 477.755 167.192 475.823 169.418L476.747 170.048C479.057 167.318 479.491 163.86 479.491 160.836H476.481ZM484.027 164.658H482.165V159.478H481.017V172.036H482.165V165.61H484.027V164.658ZM486.924 167.906H488.058C487.806 165.708 490.326 164.882 490.326 162.824C490.326 161.298 489.29 160.332 487.708 160.332C486.574 160.332 485.678 160.878 485.034 161.62L485.762 162.292C486.252 161.732 486.868 161.396 487.568 161.396C488.562 161.396 489.08 162.068 489.08 162.908C489.08 164.574 486.602 165.47 486.924 167.906ZM487.526 171.182C488.044 171.182 488.464 170.79 488.464 170.216C488.464 169.628 488.044 169.222 487.526 169.222C487.022 169.222 486.602 169.628 486.602 170.216C486.602 170.79 487.022 171.182 487.526 171.182Z" fill="#555868"/>
<path d="M86.046 253.478H84.898V262.69H86.046V253.478ZM83.302 259.736C81.44 259.05 80.166 257.342 80.166 255.452V254.178H79.018V255.452C79.018 257.412 77.758 259.232 75.868 259.96L76.47 260.898C77.94 260.282 79.074 259.064 79.606 257.538C80.166 258.966 81.272 260.1 82.7 260.646L83.302 259.736ZM79.116 264.818V261.836H77.968V265.756H86.424V264.818H79.116ZM95.2989 257.048V258H97.8049V261.094H98.9669V253.478H97.8049V257.048H95.2989ZM96.0549 259.666C94.2069 259.12 92.9049 257.72 92.9049 256.152V255.914H95.6769V254.99H92.9049V253.408H91.7569V254.99H88.9709V255.914H91.7569V256.152C91.7569 257.846 90.4969 259.372 88.6489 260.002L89.2089 260.884C90.6929 260.394 91.8269 259.33 92.3589 257.958C92.9329 259.176 94.0669 260.114 95.5089 260.562L96.0549 259.666ZM94.8089 265.126C92.9189 265.126 91.7849 264.594 91.7849 263.712C91.7849 262.844 92.9189 262.312 94.8089 262.312C96.7269 262.312 97.8609 262.844 97.8609 263.712C97.8609 264.594 96.7129 265.126 94.8089 265.126ZM94.8089 261.416C92.2329 261.416 90.6369 262.256 90.6369 263.712C90.6369 265.182 92.2329 266.022 94.8089 266.022C97.4129 266.022 99.0089 265.182 99.0089 263.712C99.0089 262.256 97.4129 261.416 94.8089 261.416ZM104.02 262.83H110.348V264.944H104.02V262.83ZM102.9 265.868H111.468V261.92H102.9V265.868ZM105.602 254.808H108.724V257.44H105.602V254.808ZM107.744 259.806V258.364H111.72V257.44H109.872V254.808H111.776V253.884H102.564V254.808H104.454V257.44H102.606V258.364H106.596V259.806H101.5V260.73H112.854V259.806H107.744ZM124.916 259.316C123.096 258.672 121.864 257.104 121.864 255.494V255.172H124.622V254.234H117.916V255.172H120.716V255.494C120.716 257.286 119.414 258.952 117.552 259.61L118.154 260.52C119.624 259.96 120.772 258.826 121.304 257.384C121.864 258.672 122.942 259.708 124.342 260.226L124.916 259.316ZM126.708 264.93H120.94V263.348H126.708V264.93ZM126.708 262.452H120.94V260.898H119.806V265.868H127.842V260.898H126.708V262.452ZM126.694 253.492V256.53H124.216V257.468H126.694V260.296H127.842V253.492H126.694ZM141.196 258.266C138.914 257.93 136.674 256.376 136.674 254.626V253.926H135.47V254.626C135.47 256.418 133.258 257.93 130.976 258.266L131.438 259.19C133.398 258.854 135.288 257.776 136.072 256.25C136.884 257.762 138.774 258.854 140.72 259.19L141.196 258.266ZM141.742 260.548H130.402V261.5H135.47V266.05H136.618V261.5H141.756L141.742 260.548ZM152.059 255.676H144.723V258.364H153.417V257.538H145.857V256.46H153.193V253.842H144.695V254.654H152.059V255.676ZM145.787 263.88H153.235V261.206H144.625V262.032H152.101V263.082H144.653V265.868H153.627V265.042H145.787V263.88ZM143.267 259.316V260.184H154.649V259.316H143.267ZM161.055 256.53C161.055 255.578 161.881 254.934 163.085 254.934C164.261 254.934 165.101 255.578 165.101 256.53C165.101 257.496 164.261 258.126 163.085 258.126C161.881 258.126 161.055 257.496 161.055 256.53ZM167.089 259.876C165.997 260.044 164.835 260.128 163.673 260.198V258.966C165.171 258.784 166.179 257.86 166.179 256.53C166.179 255.06 164.905 254.066 163.085 254.066C161.251 254.066 159.991 255.06 159.991 256.53C159.991 257.874 160.999 258.798 162.525 258.98V260.24C161.349 260.282 160.229 260.296 159.263 260.296L159.417 261.234C161.559 261.234 164.541 261.192 167.159 260.716L167.089 259.876ZM162.217 262.284H161.069V265.742H169.455V264.804H162.217V262.284ZM169.007 257.734V253.492H167.859V263.096H169.007V258.686H170.841V257.734H169.007ZM176.468 261.164H179.338V263.544H176.468V261.164ZM180.472 263.544V261.164H182.432V260.226H174.704V258.21H182.138V254.402H173.542V255.34H181.018V257.286H173.57V261.164H175.334V263.544H172.142V264.482H183.552V263.544H180.472ZM195.614 255.018H192.478V253.478H191.33V255.018H188.208V255.942H195.614V255.018ZM190 258.966C190 258.098 190.77 257.538 191.904 257.538C193.038 257.538 193.822 258.098 193.822 258.966C193.822 259.848 193.038 260.408 191.904 260.408C190.77 260.408 190 259.848 190 258.966ZM194.914 258.966C194.914 257.566 193.682 256.642 191.904 256.642C190.126 256.642 188.908 257.566 188.908 258.966C188.908 260.38 190.126 261.304 191.904 261.304C193.682 261.304 194.914 260.38 194.914 258.966ZM191.246 262.158H190.098V265.756H198.47V264.818H191.246V262.158ZM197.91 257.622V253.478H196.762V262.9H197.91V258.588H199.758V257.622H197.91ZM213.038 255.984C213.038 257.496 213.038 259.26 212.562 261.668L213.71 261.794C214.186 259.26 214.186 257.538 214.186 255.984V254.738H205.38V255.676H213.038V255.984ZM209.748 263.334V258.84H208.6V263.334H204.19V264.272H215.544V263.334H209.748ZM217.615 254.416V255.34H221.339C221.129 257.426 219.687 259.12 217.125 260.17L217.685 261.01C220.863 259.666 222.515 257.412 222.515 254.416H217.615ZM219.211 262.41H226.505V266.036H227.653V261.472H219.211V262.41ZM226.547 253.492V256.642H224.895V253.716H223.803V260.814H224.895V257.58H226.547V260.87H227.653V253.492H226.547ZM239.77 256.74V257.678H242.248V260.968H243.41V253.492H242.248V256.74H239.77ZM240.47 259.596C238.65 258.952 237.418 257.37 237.418 255.76V255.326H240.176V254.402H233.47V255.326H236.27V255.76C236.27 257.566 234.982 259.26 233.106 259.946L233.708 260.856C235.178 260.296 236.34 259.12 236.872 257.664C237.418 258.952 238.496 259.988 239.896 260.492L240.47 259.596ZM239.266 265.14C237.376 265.14 236.228 264.608 236.228 263.698C236.228 262.788 237.376 262.242 239.266 262.242C241.156 262.242 242.304 262.788 242.304 263.698C242.304 264.608 241.156 265.14 239.266 265.14ZM239.266 261.36C236.69 261.36 235.08 262.214 235.08 263.698C235.08 265.182 236.69 266.036 239.266 266.036C241.842 266.036 243.452 265.182 243.452 263.698C243.452 262.214 241.842 261.36 239.266 261.36ZM248.421 257.552H254.833V259.862H248.421V257.552ZM252.201 263.488V260.786H255.953V254.374H254.833V256.614H248.421V254.374H247.287V260.786H251.039V263.488H245.943V264.426H257.325V263.488H252.201ZM267.614 255.676H260.278V258.364H268.972V257.538H261.412V256.46H268.748V253.842H260.25V254.654H267.614V255.676ZM261.342 263.88H268.79V261.206H260.18V262.032H267.656V263.082H260.208V265.868H269.182V265.042H261.342V263.88ZM258.822 259.316V260.184H270.204V259.316H258.822ZM285.64 258.266C283.358 257.93 281.118 256.376 281.118 254.626V253.926H279.914V254.626C279.914 256.418 277.702 257.93 275.42 258.266L275.882 259.19C277.842 258.854 279.732 257.776 280.516 256.25C281.328 257.762 283.218 258.854 285.164 259.19L285.64 258.266ZM286.186 260.548H274.846V261.5H279.914V266.05H281.062V261.5H286.2L286.186 260.548ZM298.015 253.478H296.867V262.69H298.015V253.478ZM295.271 259.736C293.409 259.05 292.135 257.342 292.135 255.452V254.178H290.987V255.452C290.987 257.412 289.727 259.232 287.837 259.96L288.439 260.898C289.909 260.282 291.043 259.064 291.575 257.538C292.135 258.966 293.241 260.1 294.669 260.646L295.271 259.736ZM291.085 264.818V261.836H289.937V265.756H298.393V264.818H291.085ZM304.272 262.284C303.138 262.284 302.312 261.472 302.312 260.352C302.312 259.218 303.138 258.406 304.272 258.406C305.42 258.406 306.246 259.218 306.246 260.352C306.246 261.472 305.42 262.284 304.272 262.284ZM304.272 257.454C302.508 257.454 301.234 258.658 301.234 260.352C301.234 262.06 302.508 263.236 304.272 263.236C306.064 263.236 307.338 262.06 307.338 260.352C307.338 258.658 306.064 257.454 304.272 257.454ZM304.832 253.632H303.684V255.494H300.52V256.418H307.926V255.494H304.832V253.632ZM312.322 258.644H310.264V253.492H309.116V266.036H310.264V259.61H312.322V258.644ZM317.921 254.57H316.787V256.824C316.787 259.204 315.261 261.612 313.413 262.494L314.113 263.432C315.583 262.676 316.787 261.108 317.361 259.218C317.963 261.01 319.167 262.494 320.595 263.194L321.281 262.27C319.419 261.43 317.921 259.12 317.921 256.824V254.57ZM322.597 253.478V266.064H323.745V253.478H322.597ZM336.945 253.492H335.839V260.73H336.945V253.492ZM333.347 257.972V260.534H334.425V253.758H333.347V257.048H331.359C331.695 256.25 331.863 255.368 331.863 254.416H327.005V255.34H330.687C330.463 257.454 329.021 259.106 326.459 260.128L327.061 260.982C328.769 260.24 330.071 259.232 330.883 257.972H333.347ZM335.349 261.164H334.229V261.976C334.229 262.942 333.641 264.23 332.451 264.972C331.289 264.286 330.715 263.11 330.715 261.976V261.164H329.609V261.976C329.609 263.208 328.657 264.566 327.075 265.14L327.649 265.98C328.839 265.532 329.693 264.65 330.155 263.642C330.519 264.692 331.261 265.616 332.465 266.092C333.641 265.602 334.397 264.622 334.775 263.6C335.195 264.664 336.063 265.546 337.309 265.98L337.869 265.14C336.287 264.594 335.349 263.278 335.349 261.976V261.164ZM349.936 257.398C347.71 257.118 345.498 255.732 345.498 254.178V253.618H344.322V254.178C344.322 255.774 342.124 257.118 339.87 257.398L340.29 258.322C342.25 258.014 344.126 257.034 344.91 255.634C345.708 257.034 347.57 258.014 349.516 258.322L349.936 257.398ZM347.962 264.944H341.788V263.348H347.962V264.944ZM347.962 262.466H341.788V260.996H340.654V265.868H349.096V260.996H347.962V262.466ZM339.212 259.204V260.128H350.58V259.204H339.212ZM354.037 254.696H352.889V262.788H353.925C355.927 262.788 357.901 262.648 360.085 262.2L359.959 261.22C357.873 261.64 355.927 261.808 354.037 261.808V254.696ZM361.247 253.478V266.022H362.395V253.478H361.247ZM365.348 254.836V255.788H367.658C367.532 258.308 366.804 260.632 364.942 262.564L365.838 263.208C368.12 260.8 368.75 257.86 368.75 254.836H365.348ZM369.17 254.836V255.788H371.102C371.004 258.448 370.444 261.192 368.512 263.418L369.436 264.048C371.746 261.318 372.18 257.86 372.18 254.836H369.17ZM376.716 258.658H374.854V253.478H373.706V266.036H374.854V259.61H376.716V258.658ZM379.613 261.906H380.747C380.495 259.708 383.015 258.882 383.015 256.824C383.015 255.298 381.979 254.332 380.397 254.332C379.263 254.332 378.367 254.878 377.723 255.62L378.451 256.292C378.941 255.732 379.557 255.396 380.257 255.396C381.251 255.396 381.769 256.068 381.769 256.908C381.769 258.574 379.291 259.47 379.613 261.906ZM380.215 265.182C380.733 265.182 381.153 264.79 381.153 264.216C381.153 263.628 380.733 263.222 380.215 263.222C379.711 263.222 379.291 263.628 379.291 264.216C379.291 264.79 379.711 265.182 380.215 265.182Z" fill="#555868"/>
<rect x="696" y="156" width="18" height="18" rx="4" fill="#02164F"/>
<path d="M701 164.8L704.522 168L710 162" stroke="white" stroke-width="2" stroke-linecap="round" stroke-linejoin="round"/>
<rect x="565" y="156" width="18" height="18" rx="4" fill="#02164F"/>
<path d="M570 164.8L573.522 168L579 162" stroke="white" stroke-width="2" stroke-linecap="round" stroke-linejoin="round"/>
<rect x="696" y="250" width="18" height="18" rx="4" fill="#02164F"/>
<path d="M701 258.8L704.522 262L710 256" stroke="white" stroke-width="2" stroke-linecap="round" stroke-linejoin="round"/>
<rect x="565.5" y="250.5" width="17" height="17" rx="3.5" stroke="#E2E2E2"/>
<path d="M570 258.8L573.522 262L579 256" stroke="#C1C1C1" stroke-width="2" stroke-linecap="round" stroke-linejoin="round"/>
<path d="M679.484 74.696V75.872H683.81C683.754 76.572 683.642 77.23 683.474 77.846L678.84 78.14L679.036 79.386L683.04 78.994C682.298 80.548 680.968 81.864 678.756 82.97L679.54 84.09C684.132 81.78 685.238 78.476 685.238 74.696H679.484ZM690.418 78.42H688.5V73.422H687.058V86.064H688.5V79.624H690.418V78.42ZM692.363 74.696V75.872H696.689C696.633 76.572 696.521 77.23 696.353 77.846L691.719 78.14L691.915 79.386L695.919 78.994C695.177 80.548 693.847 81.864 691.635 82.97L692.419 84.09C697.011 81.78 698.117 78.476 698.117 74.696H692.363ZM703.297 78.42H701.379V73.422H699.937V86.064H701.379V79.624H703.297V78.42ZM706.936 77.566C706.936 76.194 708.294 75.326 710.184 75.326C712.06 75.326 713.418 76.194 713.418 77.566C713.418 78.938 712.06 79.806 710.184 79.806C708.294 79.806 706.936 78.938 706.936 77.566ZM710.898 83.348V80.94C713.208 80.73 714.832 79.442 714.832 77.566C714.832 75.508 712.858 74.178 710.184 74.178C707.496 74.178 705.536 75.508 705.536 77.566C705.536 79.442 707.146 80.716 709.456 80.926V83.348H704.472V84.524H715.924V83.348H710.898ZM722.049 76.684C722.049 75.676 722.861 75.018 723.981 75.018C725.087 75.018 725.885 75.676 725.885 76.684C725.885 77.692 725.087 78.364 723.981 78.364C722.861 78.364 722.049 77.692 722.049 76.684ZM727.285 76.684C727.285 75.018 725.885 73.842 723.981 73.842C722.063 73.842 720.649 75.018 720.649 76.684C720.649 78.35 722.063 79.526 723.981 79.526C725.885 79.526 727.285 78.35 727.285 76.684ZM723.645 83.628H730.365V80.366H722.203V81.5H728.937V82.578H722.231V85.924H730.785V84.776H723.645V83.628ZM730.365 76.026V73.422H728.923V79.82H730.365V77.216H732.143V76.026H730.365ZM741.032 78.854C739.198 79.162 737.616 79.232 735.446 79.232V77.79H739.772V74.164H733.99V75.326H738.358V76.684H734.018V80.408H735.082C737.504 80.408 739.212 80.352 741.2 80.03L741.032 78.854ZM736.93 82.718H742.376V84.776H736.93V82.718ZM735.516 85.924H743.79V81.57H735.516V85.924ZM742.348 73.422V80.94H743.79V73.422H742.348ZM747.513 83.46H754.793V86.078H756.235V82.312H747.513V83.46ZM752.679 80.212V79.05H756.403V77.944H749.137V76.922H756.011V75.844H749.137V74.864H756.319V73.758H747.695V79.05H751.223V80.212H746.225V81.374H757.677V80.212H752.679Z" fill="#41495D"/>
<g clip-path="url(#clip0_2093_6628)">
<path d="M660.796 70C655.387 70 651 73.4679 651 77.7451C651 80.5292 652.859 82.9685 655.647 84.3342C655.452 85.0983 654.907 87.1046 654.799 87.5337C654.666 88.0666 654.995 88.0607 655.209 87.9158C655.377 87.8041 657.893 86.0936 658.978 85.355C659.58 85.4443 660.188 85.4888 660.796 85.4882C666.208 85.4882 670.593 82.0222 670.593 77.7451C670.593 73.4679 666.208 70 660.796 70Z" fill="#7C8094"/>
</g>
<path d="M562.66 73.422V86.106H564.116V73.422H562.66ZM557.382 74.36C555.506 74.36 554.134 76.096 554.134 78.812C554.134 81.556 555.506 83.278 557.382 83.278C559.272 83.278 560.644 81.556 560.644 78.812C560.644 76.096 559.272 74.36 557.382 74.36ZM557.382 75.662C558.488 75.662 559.258 76.852 559.258 78.812C559.258 80.8 558.488 81.99 557.382 81.99C556.29 81.99 555.52 80.8 555.52 78.812C555.52 76.852 556.29 75.662 557.382 75.662ZM570.541 81.64H568.357V75.97H570.541V81.64ZM573.481 78.126H571.885V74.822H567.013V82.788H571.885V79.302H573.481V85.476H574.825V73.674H573.481V78.126ZM576.015 73.436V86.064H577.387V73.436H576.015ZM589.888 73.422H588.446V79.848H589.888V73.422ZM581.11 76.698C581.11 75.69 581.922 75.032 583.014 75.032C584.12 75.032 584.946 75.69 584.946 76.698C584.946 77.706 584.12 78.364 583.014 78.364C581.922 78.364 581.11 77.706 581.11 76.698ZM586.346 76.698C586.346 75.032 584.932 73.842 583.014 73.842C581.11 73.842 579.71 75.032 579.71 76.698C579.71 78.364 581.11 79.54 583.014 79.54C584.932 79.54 586.346 78.364 586.346 76.698ZM583.042 84.79V83.67H589.888V80.422H581.6V81.556H588.46V82.606H581.628V85.924H590.266V84.79H583.042ZM597.049 76.684C597.049 75.676 597.861 75.018 598.981 75.018C600.087 75.018 600.885 75.676 600.885 76.684C600.885 77.692 600.087 78.364 598.981 78.364C597.861 78.364 597.049 77.692 597.049 76.684ZM602.285 76.684C602.285 75.018 600.885 73.842 598.981 73.842C597.063 73.842 595.649 75.018 595.649 76.684C595.649 78.35 597.063 79.526 598.981 79.526C600.885 79.526 602.285 78.35 602.285 76.684ZM598.645 83.628H605.365V80.366H597.203V81.5H603.937V82.578H597.231V85.924H605.785V84.776H598.645V83.628ZM605.365 76.026V73.422H603.923V79.82H605.365V77.216H607.143V76.026H605.365ZM616.032 78.854C614.198 79.162 612.616 79.232 610.446 79.232V77.79H614.772V74.164H608.99V75.326H613.358V76.684H609.018V80.408H610.082C612.504 80.408 614.212 80.352 616.2 80.03L616.032 78.854ZM611.93 82.718H617.376V84.776H611.93V82.718ZM610.516 85.924H618.79V81.57H610.516V85.924ZM617.348 73.422V80.94H618.79V73.422H617.348Z" fill="#41495D"/>
<g clip-path="url(#clip1_2093_6628)">
<path d="M538.932 79.0922L545 82.9285V75.094L538.932 79.0922Z" fill="#7C8094"/>
<path d="M527 75.094V82.9285L533.068 79.0922L527 75.094Z" fill="#7C8094"/>
<path d="M543.875 72.8125H528.125C527.564 72.8125 527.118 73.231 527.034 73.7699L536 79.6773L544.966 73.7699C544.882 73.231 544.436 72.8125 543.875 72.8125Z" fill="#7C8094"/>
<path d="M537.901 79.7716L536.309 80.8201C536.215 80.882 536.108 80.9124 536 80.9124C535.892 80.9124 535.785 80.882 535.69 80.8201L534.098 79.7705L527.036 84.2379C527.122 84.7723 527.566 85.1874 528.125 85.1874H543.875C544.434 85.1874 544.877 84.7723 544.964 84.2379L537.901 79.7716Z" fill="#7C8094"/>
</g>
<rect x="59.5" y="107.5" width="699" height="83" rx="5.5" stroke="#E7E7E7"/>
<rect x="59.5" y="201.5" width="699" height="83" rx="5.5" stroke="#E7E7E7"/>
<defs>
<filter id="filter0_d_2093_6628" x="0" y="0" width="820" height="357" filterUnits="userSpaceOnUse" color-interpolation-filters="sRGB">
<feFlood flood-opacity="0" result="BackgroundImageFix"/>
<feColorMatrix in="SourceAlpha" type="matrix" values="0 0 0 0 0 0 0 0 0 0 0 0 0 0 0 0 0 0 127 0" result="hardAlpha"/>
<feOffset dx="1" dy="2"/>
<feGaussianBlur stdDeviation="15"/>
<feComposite in2="hardAlpha" operator="out"/>
<feColorMatrix type="matrix" values="0 0 0 0 0.113725 0 0 0 0 0.345098 0 0 0 0 1 0 0 0 0.3 0"/>
<feBlend mode="normal" in2="BackgroundImageFix" result="effect1_dropShadow_2093_6628"/>
<feBlend mode="normal" in="SourceGraphic" in2="effect1_dropShadow_2093_6628" result="shape"/>
</filter>
<clipPath id="clip0_2093_6628">
<rect width="19.5929" height="18" fill="white" transform="translate(651 70)"/>
</clipPath>
<clipPath id="clip1_2093_6628">
<rect width="18" height="18" fill="white" transform="translate(527 70)"/>
</clipPath>
</defs>
</svg>
