<svg width="660" height="357" viewBox="0 0 660 357" fill="none" xmlns="http://www.w3.org/2000/svg">
<g filter="url(#filter0_d_2141_6189)">
<rect x="29" y="28" width="600" height="297" rx="16" fill="white"/>
</g>
<path d="M79.56 259.195C81.855 259.195 83.295 257.815 83.295 256.075C83.295 254.44 82.305 253.69 81.03 253.135L79.455 252.46C78.6 252.1 77.64 251.695 77.64 250.63C77.64 249.64 78.45 249.01 79.695 249.01C80.715 249.01 81.525 249.415 82.2 250.045L82.935 249.16C82.155 248.35 81 247.795 79.695 247.795C77.7 247.795 76.23 249.025 76.23 250.72C76.23 252.325 77.445 253.105 78.465 253.54L80.055 254.23C81.09 254.695 81.885 255.055 81.885 256.18C81.885 257.26 81.015 257.98 79.575 257.98C78.435 257.98 77.325 257.44 76.545 256.615L75.705 257.56C76.665 258.565 78 259.195 79.56 259.195ZM85.4502 259H86.7102V252.91C86.7102 251.965 86.6052 250.63 86.5452 249.67H86.6052L87.4752 252.175L89.5602 257.89H90.4902L92.5752 252.175L93.4452 249.67H93.5052C93.4302 250.63 93.3252 251.965 93.3252 252.91V259H94.6302V247.99H92.9502L90.8502 253.885C90.5952 254.65 90.3552 255.415 90.1002 256.18H90.0252C89.7552 255.415 89.5002 254.65 89.2452 253.885L87.1302 247.99H85.4502V259ZM100.683 259.195C102.978 259.195 104.418 257.815 104.418 256.075C104.418 254.44 103.428 253.69 102.153 253.135L100.578 252.46C99.723 252.1 98.763 251.695 98.763 250.63C98.763 249.64 99.573 249.01 100.818 249.01C101.838 249.01 102.648 249.415 103.323 250.045L104.058 249.16C103.278 248.35 102.123 247.795 100.818 247.795C98.823 247.795 97.353 249.025 97.353 250.72C97.353 252.325 98.568 253.105 99.588 253.54L101.178 254.23C102.213 254.695 103.008 255.055 103.008 256.18C103.008 257.26 102.138 257.98 100.698 257.98C99.558 257.98 98.448 257.44 97.668 256.615L96.828 257.56C97.788 258.565 99.123 259.195 100.683 259.195ZM110.513 253.15C111.053 253.15 111.503 252.715 111.503 252.115C111.503 251.485 111.053 251.05 110.513 251.05C109.973 251.05 109.523 251.485 109.523 252.115C109.523 252.715 109.973 253.15 110.513 253.15ZM110.513 259.195C111.053 259.195 111.503 258.775 111.503 258.16C111.503 257.53 111.053 257.095 110.513 257.095C109.973 257.095 109.523 257.53 109.523 258.16C109.523 258.775 109.973 259.195 110.513 259.195ZM121.262 251.53C121.262 250.12 122.072 249.19 123.122 249.19C124.487 249.19 125.327 250.3 125.507 252.37C124.817 253.39 123.947 253.825 123.257 253.825C121.922 253.825 121.262 252.925 121.262 251.53ZM122.747 259.195C124.877 259.195 126.812 257.545 126.812 253.255C126.812 249.82 125.237 248.11 123.122 248.11C121.412 248.11 119.972 249.49 119.972 251.53C119.972 253.72 121.172 254.845 123.032 254.845C123.902 254.845 124.847 254.32 125.537 253.465C125.477 256.885 124.202 258.055 122.702 258.055C122.027 258.055 121.367 257.74 120.947 257.215L120.182 258.07C120.767 258.715 121.607 259.195 122.747 259.195ZM131.802 259.195C133.932 259.195 135.222 257.2 135.222 253.615C135.222 250.045 133.932 248.11 131.802 248.11C129.672 248.11 128.367 250.03 128.367 253.615C128.367 257.2 129.672 259.195 131.802 259.195ZM131.802 258.1C130.542 258.1 129.702 256.75 129.702 253.615C129.702 250.48 130.542 249.205 131.802 249.205C133.047 249.205 133.887 250.48 133.887 253.615C133.887 256.75 133.047 258.1 131.802 258.1ZM140.917 259.195C142.792 259.195 144.457 257.59 144.457 254.785C144.457 252.295 143.317 250.645 141.202 250.645C140.302 250.645 139.387 251.155 138.652 251.8L138.697 250.33V247.06H137.332V259H138.427L138.547 258.16H138.607C139.312 258.805 140.167 259.195 140.917 259.195ZM140.692 258.055C140.152 258.055 139.417 257.83 138.697 257.2V252.925C139.477 252.19 140.197 251.8 140.887 251.8C142.432 251.8 143.032 253.015 143.032 254.815C143.032 256.84 142.042 258.055 140.692 258.055ZM146.681 262.51C148.301 262.51 149.156 261.28 149.711 259.675L152.786 250.855H151.451L149.996 255.385C149.771 256.105 149.531 256.93 149.306 257.665H149.231C148.976 256.93 148.691 256.09 148.451 255.385L146.786 250.855H145.361L148.631 259.015L148.451 259.63C148.121 260.635 147.536 261.385 146.606 261.385C146.396 261.385 146.156 261.31 145.991 261.25L145.721 262.345C145.976 262.45 146.291 262.51 146.681 262.51ZM156.933 259.195C157.428 259.195 157.968 259.045 158.433 258.895L158.163 257.875C157.893 257.98 157.518 258.085 157.233 258.085C156.288 258.085 155.973 257.515 155.973 256.51V251.965H158.178V250.855H155.973V248.56H154.833L154.668 250.855L153.393 250.93V251.965H154.608V256.48C154.608 258.1 155.193 259.195 156.933 259.195ZM163.088 259.195C164.198 259.195 165.068 258.82 165.788 258.355L165.293 257.455C164.693 257.86 164.048 258.1 163.253 258.1C161.708 258.1 160.643 256.99 160.553 255.25H166.043C166.073 255.055 166.103 254.77 166.103 254.47C166.103 252.145 164.933 250.645 162.863 250.645C160.973 250.645 159.188 252.295 159.188 254.935C159.188 257.62 160.928 259.195 163.088 259.195ZM160.538 254.26C160.703 252.67 161.723 251.74 162.878 251.74C164.153 251.74 164.903 252.625 164.903 254.26H160.538ZM180.658 246.655V260.14H181.888V246.655H180.658ZM174.793 247.69C172.798 247.69 171.373 249.52 171.373 252.385C171.373 255.25 172.798 257.08 174.793 257.08C176.788 257.08 178.213 255.25 178.213 252.385C178.213 249.52 176.788 247.69 174.793 247.69ZM174.793 248.8C176.098 248.8 177.028 250.21 177.028 252.385C177.028 254.575 176.098 255.985 174.793 255.985C173.473 255.985 172.543 254.575 172.543 252.385C172.543 250.21 173.473 248.8 174.793 248.8ZM188.622 256.09C187.407 256.09 186.522 255.22 186.522 254.02C186.522 252.805 187.407 251.935 188.622 251.935C189.852 251.935 190.737 252.805 190.737 254.02C190.737 255.22 189.852 256.09 188.622 256.09ZM188.622 250.915C186.732 250.915 185.367 252.205 185.367 254.02C185.367 255.85 186.732 257.11 188.622 257.11C190.542 257.11 191.907 255.85 191.907 254.02C191.907 252.205 190.542 250.915 188.622 250.915ZM189.222 246.82H187.992V248.815H184.602V249.805H192.537V248.815H189.222V246.82ZM197.247 252.19H195.042V246.67H193.812V260.11H195.042V253.225H197.247V252.19ZM202.841 247.645C200.756 247.645 199.241 248.92 199.241 250.81C199.241 252.685 200.756 253.975 202.841 253.975C204.941 253.975 206.441 252.685 206.441 250.81C206.441 248.92 204.941 247.645 202.841 247.645ZM202.841 248.695C204.236 248.695 205.241 249.55 205.241 250.81C205.241 252.055 204.236 252.925 202.841 252.925C201.461 252.925 200.441 252.055 200.441 250.81C200.441 249.55 201.461 248.695 202.841 248.695ZM208.211 246.655V260.14H209.441V246.655H208.211ZM198.716 257.185C201.146 257.185 204.401 257.155 207.431 256.6L207.326 255.685C204.386 256.135 201.011 256.15 198.566 256.15L198.716 257.185ZM227.519 246.655H226.289V253.525H227.519V246.655ZM217.379 247.315V248.32H222.164C221.969 250.465 220.064 252.07 216.704 252.805L217.154 253.795C221.114 252.895 223.499 250.735 223.499 247.315H217.379ZM220.064 259V257.44H227.519V254.17H218.804V255.145H226.289V256.525H218.834V259.975H227.969V259H220.064ZM240.057 246.655V260.14H241.287V246.655H240.057ZM234.192 247.69C232.197 247.69 230.772 249.52 230.772 252.385C230.772 255.25 232.197 257.08 234.192 257.08C236.187 257.08 237.612 255.25 237.612 252.385C237.612 249.52 236.187 247.69 234.192 247.69ZM234.192 248.8C235.497 248.8 236.427 250.21 236.427 252.385C236.427 254.575 235.497 255.985 234.192 255.985C232.872 255.985 231.942 254.575 231.942 252.385C231.942 250.21 232.872 248.8 234.192 248.8ZM248.441 247.645C246.356 247.645 244.841 248.92 244.841 250.81C244.841 252.685 246.356 253.975 248.441 253.975C250.541 253.975 252.041 252.685 252.041 250.81C252.041 248.92 250.541 247.645 248.441 247.645ZM248.441 248.695C249.836 248.695 250.841 249.55 250.841 250.81C250.841 252.055 249.836 252.925 248.441 252.925C247.061 252.925 246.041 252.055 246.041 250.81C246.041 249.55 247.061 248.695 248.441 248.695ZM253.811 246.655V260.14H255.041V246.655H253.811ZM244.316 257.185C246.746 257.185 250.001 257.155 253.031 256.6L252.926 255.685C249.986 256.135 246.611 256.15 244.166 256.15L244.316 257.185ZM269.864 252.55C268.109 252.895 266.579 253 263.924 253V248.815H268.649V247.825H262.694V254.005H263.744C266.564 254.005 268.154 253.915 269.999 253.54L269.864 252.55ZM265.379 255.415H264.149V259.81H273.119V258.805H265.379V255.415ZM272.519 250.645V246.655H271.289V256.39H272.519V251.665H274.514V250.645H272.519ZM285.268 251.02H278.638V248.275H285.268V251.02ZM286.483 247.285H277.438V252.01H286.483V247.285ZM278.638 255.97H277.408V259.81H286.708V258.805H278.638V255.97ZM275.848 253.54V254.53H281.443V257.245H282.673V254.53H288.073V253.54H275.848ZM298.336 255.52H295.516V249.19H298.336V255.52ZM301.471 251.725H299.476V248.215H294.361V256.495H299.476V252.745H301.471V259.435H302.641V246.955H301.471V251.725ZM304.141 246.655V260.095H305.311V246.655H304.141ZM312.45 247.825H311.235V250.24C311.235 252.79 309.6 255.37 307.62 256.315L308.37 257.32C309.945 256.51 311.235 254.83 311.85 252.805C312.495 254.725 313.785 256.315 315.315 257.065L316.05 256.075C314.055 255.175 312.45 252.7 312.45 250.24V247.825ZM317.46 246.655V260.14H318.69V246.655H317.46ZM326.279 249.055H329.444V248.035H321.929V249.055H325.049V250.765C325.049 253.09 323.414 255.625 321.479 256.54L322.199 257.53C323.729 256.75 325.049 255.055 325.664 253.09C326.309 254.935 327.629 256.48 329.189 257.2L329.879 256.21C327.899 255.37 326.279 253.045 326.279 250.765V249.055ZM331.259 246.67V260.11H332.489V246.67H331.259ZM76.5 280H82.695V278.815H77.895V268.99H76.5V280ZM84.6445 280H85.9045V273.91C85.9045 272.965 85.7995 271.63 85.7395 270.67H85.7995L86.6695 273.175L88.7545 278.89H89.6845L91.7695 273.175L92.6395 270.67H92.6995C92.6245 271.63 92.5195 272.965 92.5195 273.91V280H93.8245V268.99H92.1445L90.0445 274.885C89.7895 275.65 89.5495 276.415 89.2945 277.18H89.2195C88.9495 276.415 88.6945 275.65 88.4395 274.885L86.3245 268.99H84.6445V280ZM99.8774 280.195C102.172 280.195 103.612 278.815 103.612 277.075C103.612 275.44 102.622 274.69 101.347 274.135L99.7724 273.46C98.9174 273.1 97.9574 272.695 97.9574 271.63C97.9574 270.64 98.7674 270.01 100.012 270.01C101.032 270.01 101.842 270.415 102.517 271.045L103.252 270.16C102.472 269.35 101.317 268.795 100.012 268.795C98.0174 268.795 96.5474 270.025 96.5474 271.72C96.5474 273.325 97.7624 274.105 98.7824 274.54L100.372 275.23C101.407 275.695 102.202 276.055 102.202 277.18C102.202 278.26 101.332 278.98 99.8924 278.98C98.7524 278.98 97.6424 278.44 96.8624 277.615L96.0224 278.56C96.9824 279.565 98.3174 280.195 99.8774 280.195ZM109.707 274.15C110.247 274.15 110.697 273.715 110.697 273.115C110.697 272.485 110.247 272.05 109.707 272.05C109.167 272.05 108.717 272.485 108.717 273.115C108.717 273.715 109.167 274.15 109.707 274.15ZM109.707 280.195C110.247 280.195 110.697 279.775 110.697 279.16C110.697 278.53 110.247 278.095 109.707 278.095C109.167 278.095 108.717 278.53 108.717 279.16C108.717 279.775 109.167 280.195 109.707 280.195ZM115.811 280H122.726V278.815H119.621C119.051 278.815 118.391 278.875 117.821 278.92C120.356 276.25 122.186 274.255 122.186 272.245C122.186 270.355 120.956 269.11 118.991 269.11C117.596 269.11 116.651 269.755 115.751 270.73L116.546 271.495C117.146 270.79 117.926 270.22 118.826 270.22C120.191 270.22 120.851 271.09 120.851 272.305C120.851 274.06 119.036 275.98 115.811 279.19V280ZM124.597 282.85C125.947 282.28 126.787 281.155 126.787 279.715C126.787 278.71 126.352 278.095 125.632 278.095C125.077 278.095 124.597 278.47 124.597 279.055C124.597 279.685 125.077 280.015 125.602 280.015C125.662 280.015 125.707 280.015 125.767 280C125.767 280.885 125.212 281.62 124.267 282.04L124.597 282.85ZM131.816 280.195C133.946 280.195 135.236 278.2 135.236 274.615C135.236 271.045 133.946 269.11 131.816 269.11C129.686 269.11 128.381 271.03 128.381 274.615C128.381 278.2 129.686 280.195 131.816 280.195ZM131.816 279.1C130.556 279.1 129.716 277.75 129.716 274.615C129.716 271.48 130.556 270.205 131.816 270.205C133.061 270.205 133.901 271.48 133.901 274.615C133.901 277.75 133.061 279.1 131.816 279.1ZM140.137 280.195C142.267 280.195 143.557 278.2 143.557 274.615C143.557 271.045 142.267 269.11 140.137 269.11C138.007 269.11 136.702 271.03 136.702 274.615C136.702 278.2 138.007 280.195 140.137 280.195ZM140.137 279.1C138.877 279.1 138.037 277.75 138.037 274.615C138.037 271.48 138.877 270.205 140.137 270.205C141.382 270.205 142.222 271.48 142.222 274.615C142.222 277.75 141.382 279.1 140.137 279.1ZM148.457 280.195C150.587 280.195 151.877 278.2 151.877 274.615C151.877 271.045 150.587 269.11 148.457 269.11C146.327 269.11 145.022 271.03 145.022 274.615C145.022 278.2 146.327 280.195 148.457 280.195ZM148.457 279.1C147.197 279.1 146.357 277.75 146.357 274.615C146.357 271.48 147.197 270.205 148.457 270.205C149.702 270.205 150.542 271.48 150.542 274.615C150.542 277.75 149.702 279.1 148.457 279.1ZM157.572 280.195C159.447 280.195 161.112 278.59 161.112 275.785C161.112 273.295 159.972 271.645 157.857 271.645C156.957 271.645 156.042 272.155 155.307 272.8L155.352 271.33V268.06H153.987V280H155.082L155.202 279.16H155.262C155.967 279.805 156.822 280.195 157.572 280.195ZM157.347 279.055C156.807 279.055 156.072 278.83 155.352 278.2V273.925C156.132 273.19 156.852 272.8 157.542 272.8C159.087 272.8 159.687 274.015 159.687 275.815C159.687 277.84 158.697 279.055 157.347 279.055ZM163.336 283.51C164.956 283.51 165.811 282.28 166.366 280.675L169.441 271.855H168.106L166.651 276.385C166.426 277.105 166.186 277.93 165.961 278.665H165.886C165.631 277.93 165.346 277.09 165.106 276.385L163.441 271.855H162.016L165.286 280.015L165.106 280.63C164.776 281.635 164.191 282.385 163.261 282.385C163.051 282.385 162.811 282.31 162.646 282.25L162.376 283.345C162.631 283.45 162.946 283.51 163.336 283.51ZM173.589 280.195C174.084 280.195 174.624 280.045 175.089 279.895L174.819 278.875C174.549 278.98 174.174 279.085 173.889 279.085C172.944 279.085 172.629 278.515 172.629 277.51V272.965H174.834V271.855H172.629V269.56H171.489L171.324 271.855L170.049 271.93V272.965H171.264V277.48C171.264 279.1 171.849 280.195 173.589 280.195ZM179.743 280.195C180.853 280.195 181.723 279.82 182.443 279.355L181.948 278.455C181.348 278.86 180.703 279.1 179.908 279.1C178.363 279.1 177.298 277.99 177.208 276.25H182.698C182.728 276.055 182.758 275.77 182.758 275.47C182.758 273.145 181.588 271.645 179.518 271.645C177.628 271.645 175.843 273.295 175.843 275.935C175.843 278.62 177.583 280.195 179.743 280.195ZM177.193 275.26C177.358 273.67 178.378 272.74 179.533 272.74C180.808 272.74 181.558 273.625 181.558 275.26H177.193ZM197.313 267.655V281.14H198.543V267.655H197.313ZM191.448 268.69C189.453 268.69 188.028 270.52 188.028 273.385C188.028 276.25 189.453 278.08 191.448 278.08C193.443 278.08 194.868 276.25 194.868 273.385C194.868 270.52 193.443 268.69 191.448 268.69ZM191.448 269.8C192.753 269.8 193.683 271.21 193.683 273.385C193.683 275.575 192.753 276.985 191.448 276.985C190.128 276.985 189.198 275.575 189.198 273.385C189.198 271.21 190.128 269.8 191.448 269.8ZM205.277 277.09C204.062 277.09 203.177 276.22 203.177 275.02C203.177 273.805 204.062 272.935 205.277 272.935C206.507 272.935 207.392 273.805 207.392 275.02C207.392 276.22 206.507 277.09 205.277 277.09ZM205.277 271.915C203.387 271.915 202.022 273.205 202.022 275.02C202.022 276.85 203.387 278.11 205.277 278.11C207.197 278.11 208.562 276.85 208.562 275.02C208.562 273.205 207.197 271.915 205.277 271.915ZM205.877 267.82H204.647V269.815H201.257V270.805H209.192V269.815H205.877V267.82ZM213.902 273.19H211.697V267.67H210.467V281.11H211.697V274.225H213.902V273.19ZM219.496 268.645C217.411 268.645 215.896 269.92 215.896 271.81C215.896 273.685 217.411 274.975 219.496 274.975C221.596 274.975 223.096 273.685 223.096 271.81C223.096 269.92 221.596 268.645 219.496 268.645ZM219.496 269.695C220.891 269.695 221.896 270.55 221.896 271.81C221.896 273.055 220.891 273.925 219.496 273.925C218.116 273.925 217.096 273.055 217.096 271.81C217.096 270.55 218.116 269.695 219.496 269.695ZM224.866 267.655V281.14H226.096V267.655H224.866ZM215.371 278.185C217.801 278.185 221.056 278.155 224.086 277.6L223.981 276.685C221.041 277.135 217.666 277.15 215.221 277.15L215.371 278.185ZM244.174 267.655H242.944V274.525H244.174V267.655ZM234.034 268.315V269.32H238.819C238.624 271.465 236.719 273.07 233.359 273.805L233.809 274.795C237.769 273.895 240.154 271.735 240.154 268.315H234.034ZM236.719 280V278.44H244.174V275.17H235.459V276.145H242.944V277.525H235.489V280.975H244.624V280H236.719ZM256.713 267.655V281.14H257.943V267.655H256.713ZM250.848 268.69C248.853 268.69 247.428 270.52 247.428 273.385C247.428 276.25 248.853 278.08 250.848 278.08C252.843 278.08 254.268 276.25 254.268 273.385C254.268 270.52 252.843 268.69 250.848 268.69ZM250.848 269.8C252.153 269.8 253.083 271.21 253.083 273.385C253.083 275.575 252.153 276.985 250.848 276.985C249.528 276.985 248.598 275.575 248.598 273.385C248.598 271.21 249.528 269.8 250.848 269.8ZM265.097 268.645C263.012 268.645 261.497 269.92 261.497 271.81C261.497 273.685 263.012 274.975 265.097 274.975C267.197 274.975 268.697 273.685 268.697 271.81C268.697 269.92 267.197 268.645 265.097 268.645ZM265.097 269.695C266.492 269.695 267.497 270.55 267.497 271.81C267.497 273.055 266.492 273.925 265.097 273.925C263.717 273.925 262.697 273.055 262.697 271.81C262.697 270.55 263.717 269.695 265.097 269.695ZM270.467 267.655V281.14H271.697V267.655H270.467ZM260.972 278.185C263.402 278.185 266.657 278.155 269.687 277.6L269.582 276.685C266.642 277.135 263.267 277.15 260.822 277.15L260.972 278.185ZM286.534 274.165C284.554 273.505 283.279 271.93 283.279 270.175V269.65H286.249V268.66H279.034V269.65H282.049V270.175C282.049 272.11 280.699 273.85 278.674 274.555L279.304 275.53C280.909 274.96 282.124 273.76 282.694 272.23C283.264 273.565 284.419 274.63 285.949 275.125L286.534 274.165ZM284.899 280.12C282.889 280.12 281.689 279.565 281.689 278.605C281.689 277.66 282.889 277.105 284.899 277.105C286.879 277.105 288.094 277.66 288.094 278.605C288.094 279.565 286.879 280.12 284.899 280.12ZM284.899 276.13C282.139 276.13 280.459 277.045 280.459 278.605C280.459 280.18 282.139 281.095 284.899 281.095C287.629 281.095 289.324 280.18 289.324 278.605C289.324 277.045 287.629 276.13 284.899 276.13ZM289.174 271.06V267.67H287.944V275.785H289.174V272.095H291.169V271.06H289.174ZM301.923 272.02H295.293V269.275H301.923V272.02ZM303.138 268.285H294.093V273.01H303.138V268.285ZM295.293 276.97H294.063V280.81H303.363V279.805H295.293V276.97ZM292.503 274.54V275.53H298.098V278.245H299.328V275.53H304.728V274.54H292.503ZM314.991 276.52H312.171V270.19H314.991V276.52ZM318.126 272.725H316.131V269.215H311.016V277.495H316.131V273.745H318.126V280.435H319.296V267.955H318.126V272.725ZM320.796 267.655V281.095H321.966V267.655H320.796ZM329.105 268.825H327.89V271.24C327.89 273.79 326.255 276.37 324.275 277.315L325.025 278.32C326.6 277.51 327.89 275.83 328.505 273.805C329.15 275.725 330.44 277.315 331.97 278.065L332.705 277.075C330.71 276.175 329.105 273.7 329.105 271.24V268.825ZM334.115 267.655V281.14H335.345V267.655H334.115ZM342.934 270.055H346.099V269.035H338.584V270.055H341.704V271.765C341.704 274.09 340.069 276.625 338.134 277.54L338.854 278.53C340.384 277.75 341.704 276.055 342.319 274.09C342.964 275.935 344.284 277.48 345.844 278.2L346.534 277.21C344.554 276.37 342.934 274.045 342.934 271.765V270.055ZM347.914 267.67V281.11H349.144V267.67H347.914Z" fill="#9A9A9A"/>
<path d="M481.296 100H488.856V98.29H486.264V86.734H484.698C483.942 87.22 483.06 87.526 481.818 87.76V89.074H484.194V98.29H481.296V100ZM495.144 100.234C497.736 100.234 499.428 97.93 499.428 93.322C499.428 88.75 497.736 86.5 495.144 86.5C492.552 86.5 490.86 88.732 490.86 93.322C490.86 97.93 492.552 100.234 495.144 100.234ZM495.144 98.596C493.794 98.596 492.84 97.156 492.84 93.322C492.84 89.524 493.794 88.138 495.144 88.138C496.494 88.138 497.448 89.524 497.448 93.322C497.448 97.156 496.494 98.596 495.144 98.596ZM501.701 103.6C503.555 102.898 504.653 101.44 504.653 99.55C504.653 98.164 504.059 97.318 503.051 97.318C502.259 97.318 501.611 97.84 501.611 98.65C501.611 99.514 502.259 99.982 502.997 99.982C503.069 99.982 503.123 99.982 503.195 99.964C503.195 101.008 502.475 101.926 501.233 102.43L501.701 103.6ZM510.771 100.234C513.363 100.234 515.055 97.93 515.055 93.322C515.055 88.75 513.363 86.5 510.771 86.5C508.179 86.5 506.487 88.732 506.487 93.322C506.487 97.93 508.179 100.234 510.771 100.234ZM510.771 98.596C509.421 98.596 508.467 97.156 508.467 93.322C508.467 89.524 509.421 88.138 510.771 88.138C512.121 88.138 513.075 89.524 513.075 93.322C513.075 97.156 512.121 98.596 510.771 98.596ZM521.036 100.234C523.628 100.234 525.32 97.93 525.32 93.322C525.32 88.75 523.628 86.5 521.036 86.5C518.444 86.5 516.752 88.732 516.752 93.322C516.752 97.93 518.444 100.234 521.036 100.234ZM521.036 98.596C519.686 98.596 518.732 97.156 518.732 93.322C518.732 89.524 519.686 88.138 521.036 88.138C522.386 88.138 523.34 89.524 523.34 93.322C523.34 97.156 522.386 98.596 521.036 98.596ZM531.302 100.234C533.894 100.234 535.586 97.93 535.586 93.322C535.586 88.75 533.894 86.5 531.302 86.5C528.71 86.5 527.018 88.732 527.018 93.322C527.018 97.93 528.71 100.234 531.302 100.234ZM531.302 98.596C529.952 98.596 528.998 97.156 528.998 93.322C528.998 89.524 529.952 88.138 531.302 88.138C532.652 88.138 533.606 89.524 533.606 93.322C533.606 97.156 532.652 98.596 531.302 98.596ZM545.78 94.672V95.968H548.966V97.48H550.82V85.114H548.966V94.672H545.78ZM542.54 87.112C543.872 87.112 544.79 87.688 544.79 88.606C544.79 89.524 543.872 90.1 542.54 90.1C541.189 90.1 540.272 89.524 540.272 88.606C540.272 87.688 541.189 87.112 542.54 87.112ZM542.54 91.468C544.916 91.468 546.554 90.334 546.554 88.606C546.554 86.878 544.916 85.744 542.54 85.744C540.146 85.744 538.508 86.878 538.508 88.606C538.508 90.334 540.146 91.468 542.54 91.468ZM541.802 96.958H543.656V93.826C545.042 93.736 546.464 93.592 547.832 93.358L547.688 92.026C544.25 92.458 540.254 92.494 537.266 92.512L537.5 94.024C538.796 94.024 540.254 94.006 541.802 93.934V96.958ZM541.316 99.568V96.274H539.462V101.08H551.198V99.568H541.316ZM561.293 103.152L562.205 102.72C560.813 100.448 560.157 97.744 560.157 95.024C560.157 92.304 560.813 89.616 562.205 87.328L561.293 86.912C559.821 89.296 558.941 91.888 558.941 95.024C558.941 98.176 559.821 100.752 561.293 103.152ZM571.115 91.264V92.336H574.219V97.44H575.547V86.848H574.219V91.264H571.115ZM564.667 87.952V89.024H569.771C569.483 91.6 567.227 93.648 563.947 94.736L564.507 95.792C568.571 94.448 571.179 91.648 571.179 87.952H564.667ZM567.787 99.792V96.368H566.475V100.864H575.915V99.792H567.787ZM579.178 103.152C580.666 100.752 581.546 98.176 581.546 95.024C581.546 91.888 580.666 89.296 579.178 86.912L578.282 87.328C579.658 89.616 580.33 92.304 580.33 95.024C580.33 97.744 579.658 100.448 578.282 102.72L579.178 103.152Z" fill="#41495D"/>
<path d="M481.296 148H488.856V146.29H486.264V134.734H484.698C483.942 135.22 483.06 135.526 481.818 135.76V137.074H484.194V146.29H481.296V148ZM495.144 148.234C497.736 148.234 499.428 145.93 499.428 141.322C499.428 136.75 497.736 134.5 495.144 134.5C492.552 134.5 490.86 136.732 490.86 141.322C490.86 145.93 492.552 148.234 495.144 148.234ZM495.144 146.596C493.794 146.596 492.84 145.156 492.84 141.322C492.84 137.524 493.794 136.138 495.144 136.138C496.494 136.138 497.448 137.524 497.448 141.322C497.448 145.156 496.494 146.596 495.144 146.596ZM501.701 151.6C503.555 150.898 504.653 149.44 504.653 147.55C504.653 146.164 504.059 145.318 503.051 145.318C502.259 145.318 501.611 145.84 501.611 146.65C501.611 147.514 502.259 147.982 502.997 147.982C503.069 147.982 503.123 147.982 503.195 147.964C503.195 149.008 502.475 149.926 501.233 150.43L501.701 151.6ZM510.771 148.234C513.363 148.234 515.055 145.93 515.055 141.322C515.055 136.75 513.363 134.5 510.771 134.5C508.179 134.5 506.487 136.732 506.487 141.322C506.487 145.93 508.179 148.234 510.771 148.234ZM510.771 146.596C509.421 146.596 508.467 145.156 508.467 141.322C508.467 137.524 509.421 136.138 510.771 136.138C512.121 136.138 513.075 137.524 513.075 141.322C513.075 145.156 512.121 146.596 510.771 146.596ZM521.036 148.234C523.628 148.234 525.32 145.93 525.32 141.322C525.32 136.75 523.628 134.5 521.036 134.5C518.444 134.5 516.752 136.732 516.752 141.322C516.752 145.93 518.444 148.234 521.036 148.234ZM521.036 146.596C519.686 146.596 518.732 145.156 518.732 141.322C518.732 137.524 519.686 136.138 521.036 136.138C522.386 136.138 523.34 137.524 523.34 141.322C523.34 145.156 522.386 146.596 521.036 146.596ZM531.302 148.234C533.894 148.234 535.586 145.93 535.586 141.322C535.586 136.75 533.894 134.5 531.302 134.5C528.71 134.5 527.018 136.732 527.018 141.322C527.018 145.93 528.71 148.234 531.302 148.234ZM531.302 146.596C529.952 146.596 528.998 145.156 528.998 141.322C528.998 137.524 529.952 136.138 531.302 136.138C532.652 136.138 533.606 137.524 533.606 141.322C533.606 145.156 532.652 146.596 531.302 146.596ZM545.78 142.672V143.968H548.966V145.48H550.82V133.114H548.966V142.672H545.78ZM542.54 135.112C543.872 135.112 544.79 135.688 544.79 136.606C544.79 137.524 543.872 138.1 542.54 138.1C541.189 138.1 540.272 137.524 540.272 136.606C540.272 135.688 541.189 135.112 542.54 135.112ZM542.54 139.468C544.916 139.468 546.554 138.334 546.554 136.606C546.554 134.878 544.916 133.744 542.54 133.744C540.146 133.744 538.508 134.878 538.508 136.606C538.508 138.334 540.146 139.468 542.54 139.468ZM541.802 144.958H543.656V141.826C545.042 141.736 546.464 141.592 547.832 141.358L547.688 140.026C544.25 140.458 540.254 140.494 537.266 140.512L537.5 142.024C538.796 142.024 540.254 142.006 541.802 141.934V144.958ZM541.316 147.568V144.274H539.462V149.08H551.198V147.568H541.316ZM561.293 151.152L562.205 150.72C560.813 148.448 560.157 145.744 560.157 143.024C560.157 140.304 560.813 137.616 562.205 135.328L561.293 134.912C559.821 137.296 558.941 139.888 558.941 143.024C558.941 146.176 559.821 148.752 561.293 151.152ZM571.115 139.264V140.336H574.219V145.44H575.547V134.848H574.219V139.264H571.115ZM564.667 135.952V137.024H569.771C569.483 139.6 567.227 141.648 563.947 142.736L564.507 143.792C568.571 142.448 571.179 139.648 571.179 135.952H564.667ZM567.787 147.792V144.368H566.475V148.864H575.915V147.792H567.787ZM579.178 151.152C580.666 148.752 581.546 146.176 581.546 143.024C581.546 139.888 580.666 137.296 579.178 134.912L578.282 135.328C579.658 137.616 580.33 140.304 580.33 143.024C580.33 145.744 579.658 148.448 578.282 150.72L579.178 151.152Z" fill="#41495D"/>
<path d="M481.296 196H488.856V194.29H486.264V182.734H484.698C483.942 183.22 483.06 183.526 481.818 183.76V185.074H484.194V194.29H481.296V196ZM495.144 196.234C497.736 196.234 499.428 193.93 499.428 189.322C499.428 184.75 497.736 182.5 495.144 182.5C492.552 182.5 490.86 184.732 490.86 189.322C490.86 193.93 492.552 196.234 495.144 196.234ZM495.144 194.596C493.794 194.596 492.84 193.156 492.84 189.322C492.84 185.524 493.794 184.138 495.144 184.138C496.494 184.138 497.448 185.524 497.448 189.322C497.448 193.156 496.494 194.596 495.144 194.596ZM501.701 199.6C503.555 198.898 504.653 197.44 504.653 195.55C504.653 194.164 504.059 193.318 503.051 193.318C502.259 193.318 501.611 193.84 501.611 194.65C501.611 195.514 502.259 195.982 502.997 195.982C503.069 195.982 503.123 195.982 503.195 195.964C503.195 197.008 502.475 197.926 501.233 198.43L501.701 199.6ZM510.771 196.234C513.363 196.234 515.055 193.93 515.055 189.322C515.055 184.75 513.363 182.5 510.771 182.5C508.179 182.5 506.487 184.732 506.487 189.322C506.487 193.93 508.179 196.234 510.771 196.234ZM510.771 194.596C509.421 194.596 508.467 193.156 508.467 189.322C508.467 185.524 509.421 184.138 510.771 184.138C512.121 184.138 513.075 185.524 513.075 189.322C513.075 193.156 512.121 194.596 510.771 194.596ZM521.036 196.234C523.628 196.234 525.32 193.93 525.32 189.322C525.32 184.75 523.628 182.5 521.036 182.5C518.444 182.5 516.752 184.732 516.752 189.322C516.752 193.93 518.444 196.234 521.036 196.234ZM521.036 194.596C519.686 194.596 518.732 193.156 518.732 189.322C518.732 185.524 519.686 184.138 521.036 184.138C522.386 184.138 523.34 185.524 523.34 189.322C523.34 193.156 522.386 194.596 521.036 194.596ZM531.302 196.234C533.894 196.234 535.586 193.93 535.586 189.322C535.586 184.75 533.894 182.5 531.302 182.5C528.71 182.5 527.018 184.732 527.018 189.322C527.018 193.93 528.71 196.234 531.302 196.234ZM531.302 194.596C529.952 194.596 528.998 193.156 528.998 189.322C528.998 185.524 529.952 184.138 531.302 184.138C532.652 184.138 533.606 185.524 533.606 189.322C533.606 193.156 532.652 194.596 531.302 194.596ZM545.78 190.672V191.968H548.966V193.48H550.82V181.114H548.966V190.672H545.78ZM542.54 183.112C543.872 183.112 544.79 183.688 544.79 184.606C544.79 185.524 543.872 186.1 542.54 186.1C541.189 186.1 540.272 185.524 540.272 184.606C540.272 183.688 541.189 183.112 542.54 183.112ZM542.54 187.468C544.916 187.468 546.554 186.334 546.554 184.606C546.554 182.878 544.916 181.744 542.54 181.744C540.146 181.744 538.508 182.878 538.508 184.606C538.508 186.334 540.146 187.468 542.54 187.468ZM541.802 192.958H543.656V189.826C545.042 189.736 546.464 189.592 547.832 189.358L547.688 188.026C544.25 188.458 540.254 188.494 537.266 188.512L537.5 190.024C538.796 190.024 540.254 190.006 541.802 189.934V192.958ZM541.316 195.568V192.274H539.462V197.08H551.198V195.568H541.316ZM561.293 199.152L562.205 198.72C560.813 196.448 560.157 193.744 560.157 191.024C560.157 188.304 560.813 185.616 562.205 183.328L561.293 182.912C559.821 185.296 558.941 187.888 558.941 191.024C558.941 194.176 559.821 196.752 561.293 199.152ZM571.115 187.264V188.336H574.219V193.44H575.547V182.848H574.219V187.264H571.115ZM564.667 183.952V185.024H569.771C569.483 187.6 567.227 189.648 563.947 190.736L564.507 191.792C568.571 190.448 571.179 187.648 571.179 183.952H564.667ZM567.787 195.792V192.368H566.475V196.864H575.915V195.792H567.787ZM579.178 199.152C580.666 196.752 581.546 194.176 581.546 191.024C581.546 187.888 580.666 185.296 579.178 182.912L578.282 183.328C579.658 185.616 580.33 188.304 580.33 191.024C580.33 193.744 579.658 196.448 578.282 198.72L579.178 199.152Z" fill="#41495D"/>
<path d="M78.54 88C78.54 86.72 79.52 85.94 80.9 85.94C82.28 85.94 83.26 86.72 83.26 88C83.26 89.3 82.28 90.08 80.9 90.08C79.52 90.08 78.54 89.3 78.54 88ZM85.8 88C85.8 85.58 83.72 83.82 80.9 83.82C78.1 83.82 76 85.58 76 88C76 90.46 78.1 92.2 80.9 92.2C83.72 92.2 85.8 90.46 85.8 88ZM80.84 98.26H90.36V93.22H78.2V95.26H87.76V96.36H78.22V101.5H90.9V99.46H80.84V98.26ZM90.36 86.84V83.3H87.72V92.5H90.36V89H92.78V86.84H90.36ZM105.378 91C102.978 91.38 100.838 91.48 97.7984 91.5V89.9H103.658V84.34H95.1784V86.46H101.058V87.94H95.1984V93.62H96.8184C100.478 93.62 102.938 93.54 105.678 93.1L105.378 91ZM99.8984 97.12H106.978V99.44H99.8984V97.12ZM97.2984 101.5H109.558V95.04H97.2984V101.5ZM106.898 83.32V94.22H109.558V83.32H106.898ZM114.497 98.32H124.617V101.74H127.257V96.24H114.497V98.32ZM122.277 93.06V91.74H127.537V89.74H117.337V88.66H126.957V86.74H117.337V85.74H127.397V83.74H114.717V91.74H119.637V93.06H112.637V95.16H129.297V93.06H122.277Z" fill="#41495D"/>
<path d="M76.82 196H85.8V193.52H79.78V181.18H76.82V196ZM88.3825 196H91.0425V189.82C91.0425 188.42 90.8025 186.36 90.6625 184.96H90.7425L91.9225 188.44L94.2225 194.66H95.9225L98.2025 188.44L99.4025 184.96H99.5025C99.3425 186.36 99.1225 188.42 99.1225 189.82V196H101.823V181.18H98.5425L96.0825 188.12C95.7625 189.04 95.5025 190.02 95.1825 190.96H95.0825C94.7825 190.02 94.5025 189.04 94.1825 188.12L91.6625 181.18H88.3825V196ZM109.873 196.28C113.293 196.28 115.313 194.22 115.313 191.8C115.313 189.66 114.133 188.52 112.333 187.78L110.393 186.96C109.133 186.46 108.093 186.08 108.093 185.02C108.093 184.04 108.913 183.46 110.213 183.46C111.433 183.46 112.413 183.9 113.353 184.68L114.853 182.82C113.653 181.6 111.933 180.92 110.213 180.92C107.213 180.92 105.093 182.78 105.093 185.2C105.093 187.36 106.593 188.56 108.093 189.18L110.073 190.02C111.393 190.58 112.293 190.92 112.293 192.02C112.293 193.06 111.473 193.72 109.933 193.72C108.633 193.72 107.233 193.06 106.173 192.08L104.473 194.12C105.913 195.5 107.893 196.28 109.873 196.28Z" fill="#41495D"/>
<path d="M81.24 148.28C84.66 148.28 86.68 146.22 86.68 143.8C86.68 141.66 85.5 140.52 83.7 139.78L81.76 138.96C80.5 138.46 79.46 138.08 79.46 137.02C79.46 136.04 80.28 135.46 81.58 135.46C82.8 135.46 83.78 135.9 84.72 136.68L86.22 134.82C85.02 133.6 83.3 132.92 81.58 132.92C78.58 132.92 76.46 134.78 76.46 137.2C76.46 139.36 77.96 140.56 79.46 141.18L81.44 142.02C82.76 142.58 83.66 142.92 83.66 144.02C83.66 145.06 82.84 145.72 81.3 145.72C80 145.72 78.6 145.06 77.54 144.08L75.84 146.12C77.28 147.5 79.26 148.28 81.24 148.28ZM89.3005 148H91.9605V141.82C91.9605 140.42 91.7205 138.36 91.5805 136.96H91.6605L92.8405 140.44L95.1405 146.66H96.8405L99.1205 140.44L100.32 136.96H100.42C100.26 138.36 100.04 140.42 100.04 141.82V148H102.74V133.18H99.4605L97.0005 140.12C96.6805 141.04 96.4205 142.02 96.1005 142.96H96.0005C95.7005 142.02 95.4205 141.04 95.1005 140.12L92.5805 133.18H89.3005V148ZM110.791 148.28C114.211 148.28 116.231 146.22 116.231 143.8C116.231 141.66 115.051 140.52 113.251 139.78L111.311 138.96C110.051 138.46 109.011 138.08 109.011 137.02C109.011 136.04 109.831 135.46 111.131 135.46C112.351 135.46 113.331 135.9 114.271 136.68L115.771 134.82C114.571 133.6 112.851 132.92 111.131 132.92C108.131 132.92 106.011 134.78 106.011 137.2C106.011 139.36 107.511 140.56 109.011 141.18L110.991 142.02C112.311 142.58 113.211 142.92 113.211 144.02C113.211 145.06 112.391 145.72 110.851 145.72C109.551 145.72 108.151 145.06 107.091 144.08L105.391 146.12C106.831 147.5 108.811 148.28 110.791 148.28Z" fill="#41495D"/>
<line x1="75" y1="225" x2="583" y2="225" stroke="#E4E4E4" stroke-width="2"/>
<line x1="75" y1="51" x2="583" y2="51" stroke="#E4E4E4" stroke-width="2"/>
<defs>
<filter id="filter0_d_2141_6189" x="0" y="0" width="660" height="357" filterUnits="userSpaceOnUse" color-interpolation-filters="sRGB">
<feFlood flood-opacity="0" result="BackgroundImageFix"/>
<feColorMatrix in="SourceAlpha" type="matrix" values="0 0 0 0 0 0 0 0 0 0 0 0 0 0 0 0 0 0 127 0" result="hardAlpha"/>
<feOffset dx="1" dy="2"/>
<feGaussianBlur stdDeviation="15"/>
<feComposite in2="hardAlpha" operator="out"/>
<feColorMatrix type="matrix" values="0 0 0 0 0.113725 0 0 0 0 0.345098 0 0 0 0 1 0 0 0 0.3 0"/>
<feBlend mode="normal" in2="BackgroundImageFix" result="effect1_dropShadow_2141_6189"/>
<feBlend mode="normal" in="SourceGraphic" in2="effect1_dropShadow_2141_6189" result="shape"/>
</filter>
</defs>
</svg>
