<svg width="20" height="20" viewBox="0 0 20 20" fill="none" xmlns="http://www.w3.org/2000/svg">
<path d="M14.1037 11.1319L13.2783 11.7786L9.15548 15.7822C8.91673 16.0366 8.62839 16.2394 8.30823 16.378C7.98808 16.5166 7.64291 16.5881 7.29405 16.5881C6.94518 16.5881 6.60001 16.5166 6.27986 16.378C5.95971 16.2394 5.67136 16.0366 5.43261 15.7822L4.67528 14.9866L4.49658 14.8122L3.62012 13.8804L2.28414 12.4338L0.841797 10.8893C1.19546 10.5014 1.62617 10.1915 2.10639 9.97946C2.58662 9.76742 3.10579 9.65789 3.63075 9.65789C4.1557 9.65789 4.67489 9.76742 5.15511 9.97946C5.63534 10.1915 6.06605 10.5014 6.41971 10.8893L7.11323 11.6254L10.517 8.56201L14.1037 11.1319Z" fill="#818181"/>
<path fill-rule="evenodd" clip-rule="evenodd" d="M10.4736 7.76855L15.1368 11.1097L13.6869 12.2457L9.59741 16.217C9.30279 16.5279 8.94821 16.776 8.55502 16.9462C8.1572 17.1184 7.72831 17.2073 7.29482 17.2073C6.86133 17.2073 6.43244 17.1184 6.03462 16.9462C5.6375 16.7743 5.27976 16.5229 4.98342 16.2076L4.23534 15.4217L4.05534 15.246L3.16594 14.3005L1.83115 12.8551L0 10.8944L0.384936 10.4721C0.796631 10.0205 1.29801 9.65975 1.85703 9.41292C2.41605 9.16609 3.02042 9.03859 3.63152 9.03859C4.24262 9.03859 4.847 9.16609 5.40601 9.41292C5.96342 9.65904 6.46352 10.0184 6.87455 10.4682L7.14964 10.7602L10.4736 7.76855ZM10.5619 9.35537L7.07836 12.4905L5.96628 11.3102L5.96285 11.3065C5.66722 10.9822 5.30719 10.7231 4.90576 10.5459C4.50432 10.3686 4.07033 10.2771 3.63152 10.2771C3.19271 10.2771 2.75873 10.3686 2.35729 10.5459C2.13036 10.6461 1.91666 10.7724 1.72034 10.9219L2.73984 12.0136L4.07389 13.4581L4.93938 14.3782L5.11675 14.5514L5.88494 15.3584C6.06577 15.5511 6.28416 15.7047 6.52665 15.8096C6.76914 15.9146 7.03057 15.9688 7.29482 15.9688C7.55906 15.9688 7.8205 15.9146 8.06299 15.8096C8.30547 15.7047 8.52388 15.5511 8.70471 15.3584L8.71454 15.3479L12.8712 11.3114L13.0721 11.1539L10.5619 9.35537Z" fill="#818181" fill-opacity="0.06"/>
<path d="M7.10938 11.6204L13.555 5.53147C14.2383 4.88599 15.15 4.53837 16.0896 4.56511C17.0292 4.59185 17.9196 4.99074 18.5651 5.67404L19.1232 6.26478L12.6807 12.3508C11.9974 12.9962 11.0857 13.3438 10.1461 13.3171C9.20648 13.2904 8.31599 12.8915 7.67051 12.2082L7.11247 11.6174L7.10938 11.6204Z" fill="#818181"/>
<path fill-rule="evenodd" clip-rule="evenodd" d="M7.11059 11.6204L6.68535 11.1702L13.1309 5.08131C13.9336 4.32305 15.0046 3.9147 16.1084 3.94611C17.2122 3.97752 18.2582 4.4461 19.0165 5.24879L19.9998 6.28969L13.1072 12.8009C12.3045 13.5592 11.2334 13.9675 10.1297 13.9361C9.02591 13.9047 7.97984 13.4361 7.22157 12.6334L6.66353 12.0427L7.11059 11.6204ZM7.98908 11.6424L8.12188 11.7829C8.65458 12.3468 9.38948 12.676 10.1649 12.6981C10.9403 12.7202 11.6928 12.4333 12.2567 11.9006L18.249 6.23987L18.1162 6.09928C17.5835 5.53537 16.8486 5.20618 16.0732 5.18411C15.2977 5.16205 14.5453 5.44892 13.9814 5.98162L7.98908 11.6424Z" fill="#818181" fill-opacity="0.06"/>
</svg>
